<?xml version="1.0" standalone="no"?>
<!DOCTYPE svg PUBLIC "-//W3C//DTD SVG 1.1//EN" "http://www.w3.org/Graphics/SVG/1.1/DTD/svg11.dtd" >
<svg xmlns="http://www.w3.org/2000/svg">
<metadata>
This is a custom SVG webfont generated by Font Squirrel.
Copyright   : Copyright c 20082009 Accademia di Belle Arti di Urbino andstudents of MA course of Visual design wwwcampivisivinetwith Reserved Font Name TitilliumCopyright c 2011 Chank Co wwwchankcom with Reserved Font Name PanefrescoThis Font Software is licensed under the SIL Open Font License Version 11
Foundry     : Campivisivi  Chank Co
</metadata>
<defs>
<font id="webfontsUomeTSG" horiz-adv-x="1085" >
<font-face units-per-em="2048" ascent="1536" descent="-512" />
<missing-glyph horiz-adv-x="481" />
<glyph unicode=" "  horiz-adv-x="481" />
<glyph unicode="&#x09;" horiz-adv-x="481" />
<glyph unicode="&#xa0;" horiz-adv-x="481" />
<glyph unicode="!" d="M524 233h168l-53 -233h-168zM801 1432h166l-226 -957h-157z" />
<glyph unicode="&#x22;" horiz-adv-x="634" d="M627 977l100 450h150l-107 -450h-143zM315 977l101 450h149l-106 -450h-144z" />
<glyph unicode="#" d="M922 369l-84 -369h-140l84 369h-315l-84 -369h-139l84 369h-228l31 131h227l84 364h-227l31 131h227l84 369h139l-84 -369h316l84 369h139l-84 -369h225l-30 -131h-226l-84 -364h226l-31 -131h-225zM897 864h-315l-84 -364h315z" />
<glyph unicode="$" d="M1247 1335q-2 -4 -8 -23.5t-12 -43t-12.5 -43t-6.5 -25.5q-49 4 -102 12q-45 4 -99.5 10.5t-107.5 10.5l-111 -488q53 -27 102.5 -57.5t88.5 -70t61.5 -91t22.5 -116.5q0 -68 -25.5 -141.5t-80 -135t-140.5 -103.5t-207 -50l-51 -224l-84 17l49 207q-53 2 -114.5 8 t-116.5 13l-94 12q-39 5 -45 7l39 136q12 -2 53 -7.5t95 -11.5l113 -12q58 -6 101 -8l63 265l62 263q-55 27 -110.5 58.5t-99.5 70.5t-71.5 89t-27.5 116q0 166 121.5 275.5t355.5 119.5l57 242h86l-57 -242q47 -2 97 -8t95 -12t78 -12.5t43 -6.5zM518 981q0 -68 57.5 -113 t135.5 -86l106 451q-57 -4 -109.5 -22.5t-93.5 -50.5t-66.5 -74t-29.5 -91v-14zM911 408q0 66 -45 111.5t-110 84.5l-113 -481q45 8 91 28.5t84 54.5t63.5 80t29.5 103v19z" />
<glyph unicode="%" d="M973 573q236 0 168 -282q-33 -141 -106.5 -215t-192.5 -74q-233 0 -164 291q33 141 103.5 210.5t191.5 69.5zM1102 1432l86 -48l-842 -1376l-86 47zM801 293q-23 -92 -11.5 -139.5t76.5 -47.5q66 0 98.5 46.5t53.5 138.5q23 92 9.5 135t-79.5 43q-63 0 -95 -43t-52 -133z M600 1438q121 0 161 -71t5 -214q-33 -141 -106.5 -215t-192.5 -74q-233 0 -164 291q33 141 104.5 212t192.5 71zM426 1155q-23 -92 -11.5 -139t77.5 -47t98.5 46t52.5 138q23 92 10.5 135t-78.5 43q-63 0 -96 -43t-53 -133z" />
<glyph unicode="&#x26;" horiz-adv-x="1433" d="M993 1438q182 0 248 -86t31 -236q-16 -74 -47 -129t-79 -101t-115.5 -85t-158.5 -78l226 -293q27 49 62.5 127t58.5 148l149 -3q-39 -102 -86 -201.5t-88 -170.5l205 -254l-121 -105l-193 232q-115 -121 -236.5 -177.5t-281.5 -56.5q-250 0 -336 118t-36 331 q20 88 56 152.5t87 113.5t117.5 85t146.5 65q-25 39 -37 72.5t-15 67.5t1 70.5t14 81.5q35 141 145.5 226.5t282.5 85.5zM606 115q117 0 208 43t181 145l-319 422q-141 -45 -219 -113.5t-107 -191.5q-35 -147 24.5 -226t231.5 -79zM717 1110q-16 -63 -10 -119.5t49 -111.5 l41 -58q74 29 129 56.5t93 60.5t61.5 73t35.5 95q23 92 -14 140t-144 48q-198 0 -241 -184z" />
<glyph unicode="'" horiz-adv-x="204" d="M348 1423h156l-117 -462h-141z" />
<glyph unicode="(" horiz-adv-x="532" d="M788 1536q-90 -156 -170 -315q-35 -68 -69.5 -144t-66 -154.5t-58.5 -156.5t-43 -150t-25.5 -147.5t-13.5 -150t-3 -146.5t5 -135q8 -150 31 -293h-162q-27 135 -35 283q-10 125 -4 280.5t41 308.5q18 76 45 157t58.5 160t67.5 153l71 143q80 158 170 307h161z" />
<glyph unicode=")" horiz-adv-x="532" d="M590 1536q23 -143 31 -297q6 -131 -0.5 -289.5t-40.5 -312.5q-18 -78 -45 -157t-59 -155.5l-66 -150.5l-68 -137q-80 -152 -166 -293h-162q88 147 166 303l68 139q35 74 65.5 151t57 152.5t43.5 147.5q35 145 41 303t0 291q-8 156 -27 305h162z" />
<glyph unicode="*" d="M877 1047l24 -256l-106 -31l-27 258l-256 -162l-43 82l258 162l-182 157l84 86l178 -155l145 254l92 -33l-141 -260h266l-24 -102h-268z" />
<glyph unicode="+" horiz-adv-x="937" d="M94 618h441l102 439h143l-102 -439h444l-32 -143h-445l-102 -442h-144l103 442h-441z" />
<glyph unicode="," horiz-adv-x="348" d="M197 219h165l-221 -471h-145z" />
<glyph unicode="-" horiz-adv-x="901" d="M281 651h639l-35 -151h-639z" />
<glyph unicode="." horiz-adv-x="507" d="M211 233h166l-53 -233h-166z" />
<glyph unicode="/" d="M1077 1452l142 -53l-900 -1419l-141 51z" />
<glyph unicode="0" d="M856 1374q119 0 204 -33.5t128 -116.5t44 -221.5t-48 -347.5q-45 -195 -108.5 -324.5t-144.5 -207.5t-180.5 -110.5t-213.5 -32.5q-117 0 -201 31.5t-130 109.5t-50 208t41 324q49 209 113.5 347.5t147.5 221.5t182 117.5t216 34.5zM823 1225q-84 0 -150.5 -25.5 t-121.5 -90.5t-101.5 -175.5t-84.5 -280.5q-37 -160 -39 -261t25.5 -159.5t84 -81t135.5 -22.5q80 0 145.5 22.5t120 82t98.5 161t81 260.5q39 168 45 277.5t-18.5 174t-80 91.5t-139.5 27z" />
<glyph unicode="1" d="M872 1352h150l-311 -1352h-158l270 1171l-401 -231l-43 127z" />
<glyph unicode="2" d="M117 0l33 145l485 406l139 118q63 54 110.5 106t80 105.5t47.5 114.5q29 125 -34 175.5t-210 50.5q-55 0 -118.5 -7.5t-117.5 -15.5q-63 -10 -122 -22l20 145q63 14 131 27q59 10 130 18t143 8q215 0 302 -85t44 -277q-18 -76 -50 -138.5t-79 -122t-113 -119t-152 -128.5 l-424 -352h654l-35 -152h-864z" />
<glyph unicode="3" d="M430 1325q63 14 133 25q59 10 132 17t145 7q119 0 196.5 -21.5t119.5 -64.5t49 -109.5t-13 -156.5q-18 -80 -56 -133t-80 -88t-80 -53.5t-56 -28.5q47 -18 84.5 -42t60 -60.5t27 -92t-14.5 -137.5q-47 -205 -176 -306t-358 -101q-80 0 -158 6t-139 16q-72 10 -137 25 l49 143q61 -12 129 -20q57 -8 129.5 -13.5t144.5 -5.5q152 0 237 62.5t113 187.5q16 70 5 116t-41.5 74.5t-77.5 41t-105 14.5h-274l33 143h272q39 0 86 16.5t90 46t78 73.5t47 100q29 119 -26.5 168t-200.5 49q-70 0 -138.5 -6.5t-121.5 -14.5q-66 -8 -123 -18z" />
<glyph unicode="4" d="M774 254h-657l28 127l611 971h172l-596 -949h477l100 433h158l-100 -433h170l-35 -149h-170l-60 -262h-157z" />
<glyph unicode="5" d="M1257 1352l-34 -150h-643l-134 -428l107 39q47 14 102.5 26.5t108.5 12.5q100 0 176 -22.5t121 -70.5t56 -125t-13 -188q-53 -231 -200.5 -347.5t-360.5 -116.5q-78 0 -156 9t-139 19q-72 12 -139 29l51 141q68 -14 137 -24q59 -10 132 -17.5t142 -7.5q133 0 232.5 79 t134.5 230q16 74 7 124t-40 82t-80 45.5t-110 13.5q-59 0 -116.5 -12.5t-104.5 -28.5q-53 -18 -103 -39l-125 22l205 705h786z" />
<glyph unicode="6" d="M1229 1198l-113 12l-112.5 8.5t-126.5 4.5q-176 0 -296 -116t-173 -341l34 12q35 12 89.5 27.5t117 28t117.5 12.5q223 0 314 -102.5t42 -317.5q-51 -217 -199.5 -331.5t-377.5 -114.5q-127 0 -207 47t-119 137t-37 221t41 297q43 186 110.5 318.5t156 215t195 120.5 t226.5 38q66 0 129.5 -5t116.5 -11l119 -17zM719 700q-59 -4 -119.5 -15t-112.5 -26q-59 -16 -114 -34q-23 -106 -27 -197.5t19.5 -158t75 -104.5t139.5 -38q152 0 249 74.5t132 224.5q33 141 -34 207.5t-208 66.5z" />
<glyph unicode="7" d="M424 1352h840l-47 -207l-797 -1172l-137 47l768 1133l12 49h-674z" />
<glyph unicode="8" d="M864 1374q109 0 194 -21.5t140 -65.5t75.5 -110.5t0.5 -154.5q-16 -66 -40 -113t-59.5 -84t-85 -64.5t-114.5 -53.5q49 -25 88 -53.5t62.5 -68.5t28.5 -92.5t-11 -125.5q-27 -111 -84.5 -186t-137 -120t-177 -63t-201.5 -18q-102 0 -189.5 17t-147 59t-84 113t0.5 175 q18 80 48 135.5t71 96t90 71.5t108 60q-47 27 -79.5 55.5t-50 66t-19.5 85t12 110.5q41 176 189.5 263t371.5 87zM578 129q152 0 259 55.5t142 198.5q12 59 3 100t-34.5 69t-65.5 45t-87 32h-215q-113 -29 -184.5 -86.5t-98.5 -171.5q-16 -68 -1 -114t53 -74.5t97.5 -41 t131.5 -12.5zM834 1225q-147 0 -242.5 -48.5t-124.5 -170.5q-23 -94 15 -147.5t130 -90.5h215q113 35 182.5 88t92.5 148q27 121 -45.5 171t-222.5 50z" />
<glyph unicode="9" d="M170 154l111 -13q49 -4 111.5 -8t127.5 -4q371 0 477 453q-63 -20 -129 -37q-55 -14 -119.5 -25.5t-119.5 -11.5q-213 0 -304.5 100.5t-41.5 315.5q25 106 77 189t126.5 141.5t168 89t199.5 30.5q127 0 209 -47t120 -138t37 -221t-40 -296q-45 -197 -113 -330t-155 -213 t-194.5 -114.5t-232.5 -34.5q-66 0 -129 4t-116 10l-117 16zM674 653q53 0 115.5 10.5t115.5 24.5q63 16 127 37q25 111 27 202t-21.5 157.5t-77 103.5t-139.5 37q-141 0 -241.5 -80t-133.5 -221q-35 -143 26 -207t202 -64z" />
<glyph unicode=":" horiz-adv-x="362" d="M328 893h168l-54 -234h-168zM176 233h168l-53 -233h-168z" />
<glyph unicode=";" horiz-adv-x="405" d="M203 236h170l-242 -480h-137zM342 893h168l-53 -234h-168z" />
<glyph unicode="&#x3c;" d="M424 639l479 -358l-39 -166q-20 12 -65 44l-103 73l-122 91l-125 93l-113 82l-80 57l37 160l811 430l-39 -162z" />
<glyph unicode="=" d="M260 836h936l-33 -142h-936zM172 451h936l-33 -142h-936z" />
<glyph unicode="&#x3e;" d="M354 983l39 162l611 -430l-37 -160l-107 -57l-149 -82l-169 -93l-165 -91l-137 -73q-59 -32 -86 -44l39 166l647 358z" />
<glyph unicode="?" horiz-adv-x="790" d="M1042 1100q-20 -88 -64 -153.5t-99.5 -118t-114.5 -95.5l-112 -82q-52 -39 -91 -79t-49 -89l-18 -77h-162l20 83q14 66 55.5 118t94.5 96.5t112.5 84t112.5 83.5t93 96.5t57 117.5q29 119 -23.5 166t-198.5 47q-39 0 -95 -7t-109 -17q-63 -10 -129 -25l16 152 q70 14 137 26q57 10 118.5 19.5t102.5 9.5q213 0 302 -78.5t44 -277.5zM291 236h168l-53 -234h-168z" />
<glyph unicode="@" horiz-adv-x="2017" d="M2046 590q-47 -201 -99.5 -320.5t-113.5 -184.5t-133 -85t-154 -20q-90 0 -142 19t-69 93l-77 -33.5t-98 -36t-106.5 -28.5t-103.5 -12q-66 0 -126 17t-99 72.5t-46 157t32 269.5q29 129 70.5 230t104 171t151.5 106.5t212 36.5q35 0 74 -8t74 -18q39 -10 78 -25l8 33 h153l-94 -410q-41 -176 -57.5 -274t-11 -146.5t32 -59.5t73.5 -11t88 12t78 59.5t72.5 140.5t72.5 255l8 37q43 186 34 320t-75.5 220t-194.5 126t-323 40t-349 -44t-273 -140t-201 -247.5t-131 -366.5q-53 -227 -44 -381t81 -248t208 -134t339 -40q31 0 81 2t97 6 q55 4 119 10l-25 -147q-61 -6 -117 -11q-47 -4 -99 -6t-89 -2q-227 0 -390 44t-255 153.5t-109.5 293t47.5 460.5q57 254 161 433t248 292.5t328.5 167t405.5 53.5q231 0 385 -53.5t237 -160t96 -267t-36 -375.5zM993 129q41 0 86 9t88 21.5t82 27.5l68 28q4 61 17.5 146 t41.5 204l68 293q-33 12 -68 21q-29 8 -65.5 14t-69.5 6q-88 0 -148.5 -24.5t-103.5 -73.5t-72.5 -126t-54.5 -181q-29 -119 -25.5 -191t25 -110.5t57 -51t74.5 -12.5z" />
<glyph unicode="A" horiz-adv-x="1236" d="M659 1188q53 109 137 174q80 64 194 63h7h123l60 -1425h-152l-29 360h-585l-185 -360h-166zM483 506h518l-30 776q-53 0 -96.5 -41t-71.5 -100z" />
<glyph unicode="B" horiz-adv-x="1265" d="M1024 1425q201 0 292 -83q62 -56 62 -160q0 -49 -14 -109q-33 -147 -98.5 -223t-159.5 -117q43 -16 79 -40.5t56.5 -63.5t25.5 -95q1 -12 1 -26q0 -47 -15 -107q-27 -113 -75 -189.5t-116.5 -123.5t-153.5 -67.5t-185 -20.5h-539l328 1425h512zM489 651l-116 -506h377 q63 0 118.5 13.5t99.5 44t75.5 81t50.5 126.5q9 40 9 71q0 34 -10 59q-19 48 -58.5 72.5t-88.5 31.5t-90 7h-367zM635 1280l-113 -485h365q135 0 208.5 64.5t102.5 193.5q10 43 10 77q0 64 -34 98q-53 52 -189 52h-350z" />
<glyph unicode="C" horiz-adv-x="1097" d="M1018 27q-70 -14 -139 -25q-59 -10 -131 -16t-132 -6q-160 0 -248.5 48t-124.5 140q-29 73 -29 174q0 26 2 54q9 136 50 313q43 180 96.5 318t133 231.5t190.5 140.5t268 47q70 0 138.5 -7t121.5 -18q63 -10 121 -22l-41 -142l-125 17q-53 6 -116.5 12t-116.5 6 q-119 0 -201 -35.5t-138 -108.5t-95 -182.5t-74 -256.5q-33 -145 -44 -253q-4 -35 -4 -66q0 -65 16 -114q24 -72 90.5 -107.5t187.5 -35.5q47 0 110.5 5t122.5 14q68 8 137 18z" />
<glyph unicode="D" horiz-adv-x="1314" d="M184 0l328 1425h506q154 0 243 -51t128 -142q34 -81 34 -189q0 -14 -1 -29q-5 -127 -40 -279q-35 -154 -89 -287t-136 -233t-196.5 -157.5t-270.5 -57.5h-506zM1219 735q27 113 33 211q2 24 2 46q0 70 -17 126q-23 74 -83 116t-171 42h-350l-260 -1126h350 q111 0 191.5 49t140 131t98.5 187t66 218z" />
<glyph unicode="E" horiz-adv-x="1155" d="M1042 0h-452q-96 0 -172 22.5t-123 70.5t-62 124q-5 27 -5 57q0 57 18 127q18 74 48 127.5t69.5 92t87 64.5t98.5 42q-68 41 -98 123q-15 40 -15 92q0 56 17 127q23 88 70.5 154.5t117.5 111.5t156 67.5t182 22.5h391l-35 -147h-399q-129 0 -213 -61.5t-113 -174.5 q-11 -45 -11 -82q0 -60 29 -102q46 -68 173 -67h291l-37 -144h-291q-37 0 -90 -10t-105.5 -37t-96.5 -76t-62 -125q-12 -46 -13 -83q0 -18 3 -34q9 -48 40 -79t79 -44.5t110 -13.5h448z" />
<glyph unicode="F" horiz-adv-x="1132" d="M512 1425h862l-35 -149h-706l-127 -551h584l-35 -150h-584l-131 -575h-156z" />
<glyph unicode="G" horiz-adv-x="1245" d="M897 733h387l-98 -418q-12 -57 -34 -109t-54.5 -95t-77.5 -73t-105 -40q-66 -10 -138 -15.5t-126 -5.5q-158 0 -251 52.5t-134 148.5q-36 86 -36 203v30q5 136 44 306q39 172 96.5 308t141.5 229.5t199.5 142.5t273.5 49q78 0 158 -8t145 -19q76 -10 148 -24l-41 -142 q-72 12 -146 21q-63 8 -139 14t-141 6q-119 0 -205 -38.5t-148.5 -113.5t-104.5 -185.5t-75 -251.5t-41 -249q-2 -25 -2 -48q0 -77 22 -133q28 -73 95.5 -109.5t185.5 -36.5q41 0 88 3t88 7q25 4 48.5 14.5t44 34t39 61.5t32.5 97l58 248h-228z" />
<glyph unicode="H" horiz-adv-x="1402" d="M1210 643h-721l-147 -643h-158l328 1425h158l-146 -630h721l146 630h155l-327 -1425h-156z" />
<glyph unicode="I" horiz-adv-x="505" d="M502 1425h157l-327 -1425h-158z" />
<glyph unicode="J" horiz-adv-x="630" d="M782 1427l-70 -310l-67 -291l-66 -291l-71 -312q-31 -127 -71 -200.5t-96 -111.5t-132 -48t-176 -10l35 147q68 0 113.5 6t77.5 29.5t53.5 72t41.5 134.5l273 1185h155z" />
<glyph unicode="K" horiz-adv-x="1218" d="M711 641q-47 -10 -98.5 -14t-98.5 -4h-15q-7 0 -18 2l-139 -625h-158l326 1423h158l-150 -651q98 0 171 20.5t138 65.5q139 78 244 226.5t158 338.5h176q-47 -127 -103.5 -241.5t-124 -209.5t-146.5 -168t-169 -116l258 -688h-174z" />
<glyph unicode="L" horiz-adv-x="1050" d="M184 0l328 1425h158l-293 -1273h622l-34 -152h-781z" />
<glyph unicode="M" horiz-adv-x="1740" d="M457 1188q25 109 80 173t133 64h114l125 -1206l564 1002q55 92 121.5 148t154.5 56h133l-326 -1425h-157l287 1253q-16 0 -42 -22.5t-42 -56.5l-535 -943q-53 -96 -100 -138t-101 -44h-78l-129 1204q-16 0 -29.5 -26.5t-21.5 -63.5l-266 -1163h-158z" />
<glyph unicode="N" horiz-adv-x="1419" d="M186 0l137 602l138 602l45 221l172 -2q45 0 73.5 -15t45 -41t25.5 -60.5t18 -73.5l200 -991q8 -37 26.5 -59.5t35.5 -22.5h4l295 1263h160l-328 -1423h-129q-78 0 -129 51t-74 144l-207 1003q-8 35 -26.5 44t-36.5 5l-287 -1247h-158z" />
<glyph unicode="O" horiz-adv-x="1333" d="M696 129q123 0 209 35t145.5 106.5t100.5 179t76 255.5q33 141 41 251q2 26 2 50q0 78 -21 136q-27 75 -94.5 114.5t-187.5 39.5q-123 0 -209 -38.5t-147.5 -114.5t-103.5 -186.5t-75 -251.5t-42 -250q-2 -28 -2 -54q0 -74 20 -127q27 -72 96 -108.5t192 -36.5zM662 -20 q-166 0 -263.5 46t-140.5 138q-38 81 -38 194q0 16 1 33q6 135 47 314q41 176 98.5 314t143.5 233.5t206 144.5t283 49q164 0 261.5 -49t139.5 -145q37 -83 36 -198v-34q-6 -137 -47 -315q-43 -182 -100.5 -318.5t-141.5 -226.5t-202.5 -135t-282.5 -45z" />
<glyph unicode="P" horiz-adv-x="1241" d="M451 477l-109 -477h-158l328 1425h518q233 0 318 -111q51 -68 51 -182q0 -72 -21 -163q-53 -233 -193.5 -362.5t-373.5 -129.5h-360zM844 629q156 0 246 90t127 250q14 64 14 114q0 74 -31 117q-51 74 -207 74h-358l-150 -645h359z" />
<glyph unicode="Q" horiz-adv-x="1333" d="M692 125q119 0 203 37t143.5 110.5t100.5 182t73 254.5q20 90 32.5 164.5t12.5 140.5q0 137 -66.5 210.5t-225.5 73.5q-119 0 -203 -40.5t-145.5 -118.5t-102.5 -189.5t-74 -251.5q-20 -88 -32.5 -162.5t-12.5 -136.5q0 -135 66.5 -204.5t230.5 -69.5zM842 0 q-39 -8 -87 -14t-96 -6q-117 0 -198.5 25.5t-133 75.5t-74 122.5t-22.5 167.5q0 141 48 340q39 172 96 308t141 230t202 144.5t279 50.5q231 0 327.5 -107.5t96.5 -300.5q0 -76 -12 -160.5t-35 -183.5q-55 -242 -144 -404.5t-241 -240.5q18 -86 42 -147.5t51.5 -107.5 t62.5 -78.5t76 -59.5l-44 -58l-44 -59q-84 37 -164 150.5t-127 312.5z" />
<glyph unicode="R" horiz-adv-x="1277" d="M866 539h-401l-123 -539h-158l328 1425h524q229 0 318 -101q55 -63 55 -177q0 -69 -20 -156q-37 -166 -122 -268t-233 -143l140 -580h-175zM1227 991q13 57 13 102q0 72 -34 114q-55 69 -205 69h-366l-135 -588h368q162 0 245 83t114 220z" />
<glyph unicode="S" horiz-adv-x="1093" d="M1253 1264q-72 10 -143 18q-61 6 -132 12t-130 6q-66 0 -128.5 -20t-110.5 -56t-77.5 -85t-29.5 -105q0 -59 44 -101t110.5 -79t143.5 -71.5t143.5 -82t110.5 -111t44 -155.5q0 -76 -30 -156.5t-95.5 -147.5t-169 -110t-250.5 -43q-55 0 -127 6.5t-137.5 13.5t-112.5 14 t-55 9l41 144q14 -2 66 -8l117 -14q65 -7 131.5 -12t109.5 -5q51 0 112.5 20.5t114.5 58.5t88 94t35 130q0 68 -44 115t-109.5 85t-143.5 72.5t-143.5 79.5t-109.5 105.5t-44 148.5q0 90 37 166t108.5 131t176 86t239.5 31q51 0 114.5 -6t121 -14.5t100.5 -15.5t55 -7z" />
<glyph unicode="T" horiz-adv-x="1007" d="M319 1425h1024l-34 -151h-432l-293 -1274h-156l293 1274h-436z" />
<glyph unicode="U" horiz-adv-x="1310" d="M416 430q-12 -54 -12 -96q0 -24 4 -44q10 -56 45.5 -91t93 -50.5t133.5 -15.5q160 0 267.5 64.5t146.5 232.5l229 995h156l-230 -995q-29 -121 -81 -207t-128.5 -139t-176 -77.5t-220.5 -24.5q-117 0 -202 24.5t-135 77.5t-63 138q-4 27 -5 58q0 66 20 150l229 995h158z " />
<glyph unicode="V" horiz-adv-x="1214" d="M1479 1425l-564 -1163q-55 -119 -145 -189.5t-201 -72.5h-135l-47 1425h156l35 -1275q53 4 103 42.5t83 104.5l543 1128h172z" />
<glyph unicode="W" horiz-adv-x="1843" d="M559 1423l-33 -1280q57 0 101 97l434 974l32 69q15 34 34.5 60.5t44 43t59.5 16.5h94l-10 -1260q31 6 55.5 29t44.5 70l504 1181h170l-528 -1220q-49 -115 -115 -159t-148 -44h-120l14 1192l-430 -991q-20 -43 -45 -79t-55.5 -63.5t-69.5 -43t-88 -15.5h-125l24 1423h156 z" />
<glyph unicode="X" horiz-adv-x="1189" d="M776 827l492 598h188l-590 -718l262 -707h-167l-218 590l-493 -590h-189l592 707l-264 718h168z" />
<glyph unicode="Y" horiz-adv-x="1130" d="M647 0h-158l142 612l-264 813h168l204 -639l496 639h184l-633 -815z" />
<glyph unicode="Z" horiz-adv-x="1167" d="M453 1425h897q1 -8 0 -16q0 -52 -22 -113q-26 -70 -103 -166l-813 -894q-31 -35 -43.5 -54.5t-10.5 -31.5h717l-35 -150h-907q-1 13 -1 26q0 74 40 139q47 77 117 152l792 877l39 45q16 18 10 37h-712z" />
<glyph unicode="[" horiz-adv-x="614" d="M834 1386h-275l-344 -1490h274l-34 -148h-430l411 1786h430z" />
<glyph unicode="\" horiz-adv-x="1099" d="M768 -29l-303 1418l172 69l303 -1421z" />
<glyph unicode="]" horiz-adv-x="614" d="M436 1534h430l-411 -1786h-430l34 148h275l344 1490h-275z" />
<glyph unicode="^" d="M813 1200l-397 -534h-164l516 686h160l213 -686h-166z" />
<glyph unicode="_" horiz-adv-x="1064" d="M924 -29l-33 -143h-877l33 143h877z" />
<glyph unicode="`" horiz-adv-x="483" d="M807 1341l-78 -118l-410 176l84 135z" />
<glyph unicode="a" horiz-adv-x="1069" d="M909 180q4 -49 35 -67.5t78 -24.5l-33 -108q-104 4 -149 39.5t-49 109.5q-18 -23 -52 -48.5t-79.5 -48t-98.5 -37.5t-108 -15q-98 0 -153.5 36.5t-79.5 105.5q-19 54 -19 126q0 19 2 39q6 96 35 217q61 266 192 402t358 136q70 0 117 -10t74 -14l129 24zM477 121 q51 0 105.5 21.5t100.5 50t81 58.5t45 46l137 586q-27 4 -72 12t-106 8q-154 0 -255 -96t-148 -307q-28 -120 -28 -204q0 -45 8 -79q23 -96 132 -96z" />
<glyph unicode="b" horiz-adv-x="1097" d="M516 1468h156l-127 -544q68 45 152.5 79.5t170.5 34.5q70 0 119 -23.5t81 -63.5t46 -96t14 -120q0 -160 -42 -299t-118.5 -241.5t-186 -161t-242.5 -58.5q-70 0 -166.5 7.5t-192.5 19.5zM840 887q-47 0 -98.5 -17.5t-98.5 -42t-85 -53.5t-58 -49l-133 -584q29 -8 83 -13 t105 -5q158 0 249 97t138 261q8 31 17.5 73t14.5 87q3 28 3 56q0 17 -1 33q-3 44 -16.5 79t-43 56.5t-76.5 21.5z" />
<glyph unicode="c" horiz-adv-x="894" d="M782 1042q37 0 75 -4t72 -9t59.5 -11t37.5 -10l-41 -148q-10 4 -32.5 9t-53.5 10.5t-66.5 8.5t-68.5 3q-158 0 -248 -95.5t-137 -260.5q-14 -47 -26 -116q-7 -42 -7 -82q0 -25 3 -49q7 -62 39 -106.5t104 -44.5q51 0 101 16.5t92 39t72.5 46t45.5 37.5l49 -108 q-16 -23 -56 -55.5t-94.5 -62.5t-120 -50t-128.5 -20q-70 0 -119 24.5t-81 65.5t-46 97t-14 120q0 160 41.5 298t118.5 239.5t186.5 159.5t242.5 58z" />
<glyph unicode="d" horiz-adv-x="1101" d="M782 1042q61 0 123 -9t96 -17l105 452h156l-338 -1468h-154l31 121q-35 -27 -77 -52.5t-88 -45t-93 -31.5t-90 -12q-102 0 -159.5 50t-80.5 129q-18 64 -18 140q0 17 1 36q5 97 27 191q27 113 77 208t121 164t161.5 106.5t199.5 37.5zM481 125q47 0 101.5 21.5t105.5 51 t91 60.5t59 49l64 277l61 276q-23 6 -83.5 15.5t-117.5 9.5q-156 0 -255 -105.5t-138 -271.5q-10 -47 -20 -113q-5 -37 -5 -72q0 -27 3 -53q7 -59 36.5 -102t97.5 -43z" />
<glyph unicode="e" horiz-adv-x="1032" d="M522 117q63 0 130 25.5t120 56.5q63 37 123 84q2 -37 3 -73t5 -75q-55 -43 -123 -78q-57 -29 -131 -53t-155 -24q-109 0 -175.5 35.5t-99.5 101t-33 159t27 209.5q33 143 93.5 248t135 173.5t159.5 102t167 33.5q94 0 157.5 -24.5t99.5 -66.5t45 -95q4 -23 4 -46 q0 -31 -7 -65q-14 -57 -48 -118.5t-83 -108.5q-68 -63 -153 -101t-170 -58.5t-157.5 -26.5t-115.5 -6q-7 -28 -7 -55q0 -11 1 -22q4 -38 24.5 -66.5t60.5 -47t103 -18.5zM360 465q61 0 148.5 13.5t170.5 45t147.5 83.5t82.5 130q5 19 5 37q0 46 -31 79q-43 46 -142 46 q-49 0 -105 -24.5t-108.5 -72.5t-94.5 -121t-64 -171q-4 -10 -5.5 -22.5t-3.5 -22.5z" />
<glyph unicode="f" horiz-adv-x="684" d="M389 889h-125l31 135h125l20 92q25 102 56.5 174t75.5 116t101.5 63.5t129.5 19.5q27 0 58.5 -2t60.5 -6q33 -4 67 -6l-31 -132q-29 0 -55 3q-25 2 -52.5 3t-49.5 1q-86 0 -131 -53.5t-76 -182.5l-19 -90h293l-30 -135h-295l-201 -883q-23 -94 -52.5 -160.5t-77.5 -119 t-123 -98.5t-185 -99l-37 129q86 45 140 80t89 72.5t54.5 85t35.5 116.5z" />
<glyph unicode="g" horiz-adv-x="1060" d="M512 129q41 0 93 18.5t99.5 42t81 45t37.5 27.5l71 316q34 156 73 313q-6 0 -27.5 3t-51.5 5l-62.5 4t-57.5 2q-166 0 -255 -106.5t-134 -304.5q-27 -113 -27 -193q0 -82 36 -127t124 -45zM141 -442l21 65l20 68q8 -4 32 -8.5t54.5 -8.5t63.5 -7t61 -3q94 0 163 39 t115 101.5t72.5 141.5t36.5 158q-10 -10 -37.5 -30.5t-65.5 -42t-84 -36.5t-95 -15q-160 0 -231.5 78.5t-71.5 224.5q0 47 8 103t22 118q61 266 194.5 402t375.5 136q31 0 66.5 -2t72.5 -5l71 -6l58 -5q31 0 54.5 1t35.5 3l-231 -991q-31 -131 -75 -227.5t-106.5 -161 t-147.5 -96t-198 -31.5q-39 0 -80 4t-75.5 10t-61.5 12.5t-37 10.5z" />
<glyph unicode="h" horiz-adv-x="1157" d="M182 0l336 1470h156l-135 -561q12 10 45.5 33t81 45.5t103.5 39.5t118 17q100 0 156.5 -30.5t77.5 -93.5q16 -46 16 -109q0 -24 -2 -50q-8 -95 -37 -226l-121 -535h-156l113 512q23 92 35 162q7 42 7 75q0 22 -3 41q-8 46 -41 69.5t-101 23.5q-53 0 -106 -18.5t-98 -42 t-79 -48t-48 -37.5l-162 -737h-156z" />
<glyph unicode="i" horiz-adv-x="483" d="M401 1024h152l-236 -1024h-151zM496 1434h151l-41 -179h-151z" />
<glyph unicode="j" horiz-adv-x="507" d="M426 1024h152l-234 -1014q-23 -94 -53.5 -161.5t-80.5 -121t-127 -100.5t-189 -98l-37 129q88 45 145 80t94 72.5t58.5 85t38.5 116.5zM522 1442h152l-41 -180h-152z" />
<glyph unicode="k" horiz-adv-x="1017" d="M180 0l338 1470h156l-199 -856q104 0 186 36t146.5 94.5t112 131t81.5 148.5h175q-90 -193 -199 -318.5t-232 -181.5l211 -524h-168l-200 475q-57 -13 -118 -13q-15 0 -30 1l-104 -463h-156z" />
<glyph unicode="l" horiz-adv-x="495" d="M510 1470h152l-338 -1470h-152z" />
<glyph unicode="m" horiz-adv-x="1755" d="M182 0l232 1024h153l-32 -133q16 16 49.5 43t78 51.5t92.5 43t95 18.5q197 0 244 -156q31 23 70.5 49.5t86.5 50t103.5 38.5t122.5 15q94 0 152.5 -29.5t82.5 -90.5q21 -53 21 -131v-27q-4 -96 -35 -231l-121 -535h-156l115 508q20 96 32 168q6 39 6 71q0 26 -4 47 q-9 46 -43 68.5t-104 22.5q-49 0 -99 -17.5t-92 -41t-74 -48t-44 -39.5q-2 -27 -8 -80t-29 -147l-114 -512h-154l113 508q23 98 30 169q3 28 4 52q0 36 -8 65q-12 46 -48 68.5t-99 22.5q-45 0 -93.5 -19.5t-91.5 -46t-75.5 -53.5t-44.5 -39l-160 -727h-154z" />
<glyph unicode="n" horiz-adv-x="1155" d="M174 0l232 1024h155l-31 -125q16 14 52 40t83.5 49.5t101.5 41t107 17.5q98 0 155.5 -31t81.5 -94q18 -49 18 -117q0 -21 -2 -43q-7 -96 -37 -227l-125 -535h-154l117 512q23 92 34 163q7 41 6 73q0 24 -3 44q-8 46 -40 69.5t-98 23.5q-53 0 -105 -18.5t-97 -44 t-81 -52.5l-57 -43l-157 -727h-156z" />
<glyph unicode="o" horiz-adv-x="1081" d="M797 1044q170 0 244.5 -79.5t74.5 -225.5q0 -49 -8 -104t-23 -117q-31 -127 -74.5 -226t-110 -170t-160 -108t-220.5 -37q-176 0 -249.5 76t-73.5 221q0 106 34 256q31 125 76 220.5t112.5 161t161 99t216.5 33.5zM551 115q86 0 148.5 29.5t105.5 83t72.5 130t52.5 168.5 q12 55 19 102.5t7 88.5q0 94 -44 142t-144 48q-160 0 -247 -96t-132 -291q-16 -66 -25.5 -122t-9.5 -101q0 -92 43 -137t154 -45z" />
<glyph unicode="p" horiz-adv-x="1110" d="M537 -25q-47 0 -105.5 8.5t-99.5 16.5l-107 -453h-155l171 737l171 740h155l-24 -102q66 47 151.5 82.5t171.5 35.5q102 0 161.5 -43t84.5 -115q20 -60 20 -138v-32q-5 -97 -30 -206q-27 -115 -78 -212t-124 -168t-165 -111t-198 -40zM838 885q-47 0 -98.5 -17.5 t-98.5 -42t-85 -53.5t-58 -51l-133 -569q29 -8 83 -15.5t107 -7.5q84 0 149.5 28.5t113.5 82t81 128t55 167.5q10 45 17 105q2 24 2 47q0 35 -5 68q-9 54 -39 92t-91 38z" />
<glyph unicode="q" horiz-adv-x="1099" d="M459 -20q-104 0 -162.5 47t-83.5 124q-20 64 -20 139q0 16 1 33q5 95 27 193q25 113 75 208t120.5 164.5t161 109.5t196.5 40q86 0 174 -12t160 -12q14 0 25.5 1t21.5 1l-340 -1469h-153q2 10 12 55l24 105l31 131l31 131l24 106q10 44 15 54q-31 -25 -72 -50.5t-87 -48 t-92 -36.5t-89 -14zM772 889q-90 0 -155.5 -29t-114.5 -83t-83 -133t-57 -179q-12 -53 -18 -112q-2 -23 -2 -45q0 -33 5 -62q9 -49 41 -81t95 -32q51 0 107.5 22.5t107 53.5t88 61.5t54.5 46.5l39 162l86 383q-20 6 -79 16.5t-114 10.5z" />
<glyph unicode="r" horiz-adv-x="729" d="M410 1024h153l-41 -174q20 20 57 48t88.5 55.5t116 52t142.5 38.5l-37 -159q-160 -29 -255 -82t-149 -107l-159 -696h-152z" />
<glyph unicode="s" horiz-adv-x="1001" d="M1044 874q-63 6 -124 15q-53 6 -114 11t-108 5q-53 0 -100 -11t-83 -32.5t-57.5 -52.5t-21.5 -68q0 -41 38 -68.5t94.5 -51t122 -47t121.5 -56.5t94 -80t38 -114q0 -68 -25.5 -130.5t-80 -109.5t-139.5 -74.5t-205 -27.5q-47 0 -106.5 5t-114 11t-94.5 11t-46 7l37 134 q8 -2 51 -8l100 -11q56 -6 113.5 -10t91.5 -4q47 0 96.5 11t89.5 33.5t64.5 57.5t24.5 82t-38 79t-95.5 57.5t-123 50t-122.5 56t-95 75t-38 108.5q0 137 113.5 227t345.5 90q41 0 88 -4t93 -10t87 -12t65 -12z" />
<glyph unicode="t" horiz-adv-x="743" d="M557 885l-111 -477q-18 -84 -27 -140q-5 -29 -5 -52q0 -20 4 -35q8 -32 33.5 -45t76.5 -13q23 0 54.5 1t60.5 3q35 2 72 6l-23 -133l-80 -12q-35 -4 -70.5 -7.5t-62.5 -3.5q-80 0 -130 17.5t-74 59.5q-22 39 -21 104v11q2 73 27 183l122 533h-145l33 139h145l72 313h154 l-72 -313h323l-32 -139h-324z" />
<glyph unicode="u" horiz-adv-x="1144" d="M1200 1024l-235 -1024h-152l23 109q-29 -20 -69 -43t-88 -42.5t-101.5 -31.5t-106.5 -12q-92 0 -146.5 28.5t-75.5 89.5q-16 44 -16 108q0 24 3 51q8 97 38 232l123 535h152l-123 -532q-25 -106 -36 -175q-6 -37 -6 -65q0 -23 4 -41q9 -39 41 -54.5t95 -15.5 q51 0 105.5 14.5t103.5 36t87 45t57 42.5l172 745h151z" />
<glyph unicode="v" horiz-adv-x="987" d="M442 1024l31 -889q35 0 61.5 18.5t49.5 63.5l405 807h168l-422 -831q-47 -98 -116.5 -144.5t-167.5 -48.5h-117l-47 1024h155z" />
<glyph unicode="w" horiz-adv-x="1550" d="M444 1024l-4 -885q23 2 44.5 21.5t43.5 60.5l328 666q61 113 135 119h88l29 -867q49 12 80 70l373 815h161l-385 -834q-41 -84 -98 -138q-55 -52 -139 -52h-6h-119l-19 801l-290 -602q-41 -92 -100.5 -145.5t-145.5 -53.5h-123l-2 1024h149z" />
<glyph unicode="x" horiz-adv-x="942" d="M451 1024l157 -401l342 401h174l-440 -512l205 -512h-162l-158 399l-340 -399h-174l437 512l-201 512h160z" />
<glyph unicode="y" horiz-adv-x="987" d="M434 1024l35 -772q4 -57 25.5 -81t50.5 -28l454 881h162l-514 -1004q-51 -98 -100 -166.5t-113.5 -123t-152.5 -101.5t-215 -100l-2 49q0 12 0.5 24.5t0.5 24.5q0 25 -2 49q94 43 157 76t108 67t77.5 76t67.5 105q-55 18 -98 71.5t-47 129.5l-41 823h147z" />
<glyph unicode="z" horiz-adv-x="980" d="M356 1024h736v-15q0 -53 -26 -99q-30 -52 -79 -103l-649 -670h553l-31 -137h-729q-2 13 -2 27q0 97 104 196l644 662h-555z" />
<glyph unicode="{" horiz-adv-x="628" d="M467 348l-37 -118q-20 -65 -33 -119q-12 -53 -12 -93.5t20.5 -69t61.5 -44t113 -19.5l-37 -147q-209 8 -281 91t-31 267q6 31 18 66l21 69q10 35 20.5 66t14.5 49q20 88 -12.5 140.5t-140.5 84.5l30 131q61 14 105.5 35t74 47.5t48 61.5t28.5 78q4 20 9.5 54l11.5 71 l12 72q6 36 12 65q23 94 61 160.5t95 109.5t137 64.5t185 25.5l-33 -147q-72 -4 -121 -18.5t-82 -42t-51.5 -67.5t-30.5 -93q-6 -25 -11 -60l-10 -69l-11 -68q-5 -33 -11 -55q-16 -66 -37.5 -112t-53.5 -79t-76 -55.5t-103 -40.5q102 -37 134 -100.5t3 -190.5z" />
<glyph unicode="|" d="M795 1475h155l-401 -1735h-156z" />
<glyph unicode="}" horiz-adv-x="628" d="M319 348q14 63 36 110.5t54.5 81t76.5 57.5t106 42q-53 18 -87 40.5t-50.5 55.5t-17.5 79t16 112l15 55q9 33 20.5 67.5t20.5 69.5l15 60q12 53 11.5 93t-20 67.5t-61.5 42t-112 18.5l37 147q207 -8 280.5 -90t28.5 -270q-6 -29 -16 -65l-22 -72l-21 -71q-10 -34 -15 -54 q-23 -88 9 -140.5t145 -81.5l-31 -131q-125 -33 -180 -85t-76 -140q-4 -18 -9 -49l-11 -66l-12 -69q-6 -35 -13 -66q-41 -182 -152.5 -266t-320.5 -92l33 147q70 4 119 19.5t80.5 44t51 68.5t32.5 94q12 55 21 119.5t19 117.5z" />
<glyph unicode="~" d="M1098 625q-39 -31 -80 -54q-35 -20 -78 -36.5t-84 -16.5q-45 0 -94 16.5t-97 34.5l-93 35q-44 16 -76 17q-33 0 -73 -15.5t-75 -34.5q-41 -23 -82 -49l19 146q41 31 84 55q37 20 81 37.5t89 17.5t93 -16.5t95 -34.5l90 -35q43 -16 78 -16q29 0 67.5 14.5t73.5 32.5l82 49 z" />
<glyph unicode="&#xa1;" d="M819 788h-168l56 234h167zM543 -410h-166l225 957h158z" />
<glyph unicode="&#xa2;" horiz-adv-x="894" d="M463 74q-90 4 -153.5 27.5t-97.5 73.5t-38 131t25 202q51 227 169.5 330.5t295.5 113.5l55 242h135l-57 -248q33 -4 69.5 -6t65.5 -6l67 -8l-38 -138q-53 2 -103 7q-41 4 -86 6t-74 2q-76 0 -131 -15.5t-95 -50.5t-66.5 -91t-45.5 -138q-18 -84 -18 -138.5t24.5 -87 t77 -46t136.5 -13.5q29 0 72.5 1t84.5 5q47 2 99 7l-25 -138l-74 -8q-33 -4 -69.5 -7t-69.5 -5l-55 -244h-135z" />
<glyph unicode="&#xa3;" d="M1198 1233q-47 4 -92 10q-39 4 -82 8t-74 4q-49 0 -85 -12t-61.5 -44t-46 -86t-38.5 -136l-29 -121h348l-30 -135h-349l-135 -586h316l161 33l-2 -131l-176 -37h-655l31 135h174l135 586h-137l30 135h138l30 131q29 125 68 204t90 124t113.5 61.5t136.5 16.5 q35 0 79 -5.5t83 -9.5l90 -12z" />
<glyph unicode="&#xa4;" horiz-adv-x="1083" d="M793 205q-106 -59 -217 -59.5t-189 59.5l-178 -144l-82 109l176 143q-39 92 -13.5 203t107.5 203l-110 143l133 109l110 -146q106 59 217 59.5t189 -59.5l176 146l84 -109l-178 -143q39 -92 13.5 -202.5t-107.5 -203.5l112 -143l-135 -109zM465 356q25 -33 62.5 -49 t81.5 -16t89 16.5t86 48.5q39 33 66 75t36 85t3 85t-31 75q-27 33 -64.5 48t-80.5 15t-89 -15t-85 -48q-41 -33 -67 -75t-35 -85t-3 -85t31 -75z" />
<glyph unicode="&#xa5;" horiz-adv-x="1105" d="M274 778h287l-223 574h176l225 -553l475 553h177l-484 -574h279l-31 -133h-356l-25 -39l-31 -131h375l-31 -133h-374l-78 -342h-158l78 342h-379l31 133h379l30 131l-8 39h-364z" />
<glyph unicode="&#xa6;" d="M958 1536l-182 -782h-153l182 782h153zM723 520l-180 -782h-154l180 782h154z" />
<glyph unicode="&#xa7;" d="M1157 1169q-63 6 -121 15q-49 6 -102 11t-90 5q-131 0 -201 -45t-92 -143q-12 -53 -2 -87t41 -55.5t82 -35t123 -27.5q80 -16 137 -35.5t91 -52.5t43 -83t-9 -126q-10 -43 -30.5 -86t-44.5 -80t-45 -63l-32 -39q29 -33 38 -77t-9 -128q-41 -176 -158 -260t-313 -84 q-49 0 -110.5 5t-114.5 11q-63 8 -125 19l43 129l123 -17q51 -6 107 -10t99 -4q123 0 199 49t100 154q12 49 2 79.5t-41.5 50t-85 32t-127.5 26.5q-82 16 -141 37.5t-95 55.5t-45 85t7 127q10 45 35.5 89t53.5 79t53.5 58.5t35.5 31.5q-37 33 -48 84t11 144 q39 166 160 245.5t309 79.5q51 0 108.5 -6t106.5 -12l113 -17zM705 680l-98 19q-46 9 -81 26q-4 -4 -18 -21.5t-31.5 -43t-35 -55.5t-23.5 -60q-10 -47 -4 -79t28.5 -53.5t63.5 -34.5t98 -24q63 -12 112.5 -25.5t84.5 -29.5q4 4 16 22.5t27.5 45t30 59.5t22.5 66 q10 49 3 79.5t-31.5 51t-65.5 33t-98 24.5z" />
<glyph unicode="&#xa8;" horiz-adv-x="483" d="M313 1464h148l-43 -184h-148zM723 1464h149l-43 -184h-149z" />
<glyph unicode="&#xa9;" d="M225 889q27 113 88.5 212t148.5 173t192.5 117t217.5 43q115 0 202 -43t139.5 -118t67.5 -174.5t-9 -209.5q-27 -113 -88.5 -212t-147.5 -173t-192.5 -116t-222.5 -42q-113 0 -198 42t-138.5 116t-70 173t10.5 212zM315 889q-23 -94 -8 -176t58 -143.5t113.5 -97.5 t164.5 -36t182 36t160 97.5t123 143.5t74 176q20 94 7 177t-57.5 144.5t-115 97t-164.5 35.5t-181 -35.5t-159 -97t-124.5 -144.5t-72.5 -177zM834 590l-50 -8q-23 -4 -51 -6.5t-57 -2.5q-137 0 -170 81t2 237q33 147 103.5 229t209.5 82q33 0 60.5 -2t48.5 -4q23 -4 43 -6 l-31 -125q-23 2 -45 6q-20 2 -48 4t-56 2q-78 0 -111 -52t-51 -134q-10 -41 -13.5 -76t5 -60.5t28 -40t54.5 -14.5q57 0 104 7l51 8z" />
<glyph unicode="&#xaa;" horiz-adv-x="1060" d="M913 895q4 -25 19.5 -34t46.5 -13l-16 -57q-39 2 -60.5 12t-40.5 33q-41 -14 -84 -23q-37 -10 -82 -16t-88 -6q-63 0 -93 44t-13 119q33 143 190 156l211 14l12 47q16 68 -5 90.5t-76 22.5q-27 0 -63 -2t-71 -6q-39 -4 -82 -6l11 63q43 4 82 8q35 4 72.5 6.5t66.5 2.5 q88 0 118.5 -41t8.5 -140zM688 1053q-53 -4 -80.5 -28t-38.5 -75q-12 -49 4.5 -71.5t55.5 -22.5q35 0 73.5 5t71.5 11q37 8 76 19l41 174z" />
<glyph unicode="&#xab;" horiz-adv-x="1200" d="M434 512l205 -215l-37 -160l-315 309l28 123l455 293l-37 -157zM920 512l206 -215l-36 -160l-318 309l29 123l456 293l-36 -157z" />
<glyph unicode="&#xac;" d="M1126 709l-108 -478h-152l76 330h-688l33 148h839z" />
<glyph unicode="&#xad;" horiz-adv-x="901" d="M281 651h639l-35 -151h-639z" />
<glyph unicode="&#xae;" d="M209 889q27 115 88 216t149.5 178t198 121t232.5 44q121 0 211 -44t144 -120t70.5 -177t-10.5 -218q-27 -115 -90 -216.5t-152 -178t-200 -120.5t-232 -44q-123 0 -212 44t-142 119.5t-67.5 178t12.5 217.5zM299 889q-23 -96 -8.5 -181t59.5 -149.5t119 -101.5t170 -37 t187.5 37t166 100.5t129 149.5t76.5 182q23 98 7.5 184t-61.5 149.5t-120 100.5t-168 37q-96 0 -187 -37t-166 -100.5t-128 -149.5t-76 -184zM737 809h-119l-57 -244h-117l150 645h215q125 0 173 -43t24 -151q-16 -76 -49 -122t-99 -71l57 -258h-127zM641 907h121 q53 0 84 21.5t43 81.5q14 57 -11.5 79.5t-91.5 22.5h-98z" />
<glyph unicode="&#xaf;" horiz-adv-x="483" d="M285 1434h596l-31 -136h-596z" />
<glyph unicode="&#xb0;" d="M475 1155q14 63 48 117.5t81 92.5t104.5 59.5t122.5 21.5q129 0 191.5 -81t34.5 -210q-16 -66 -49 -118t-81 -91t-106.5 -59.5t-122.5 -20.5q-129 0 -191.5 80t-31.5 209zM580 1155q-20 -86 17.5 -137t123.5 -51t150.5 51t84.5 137q18 86 -21.5 138.5t-125.5 52.5 t-148.5 -52.5t-80.5 -138.5z" />
<glyph unicode="&#xb1;" d="M262 793h393l62 266h143l-61 -266h401l-33 -142h-401l-61 -266h-144l62 266h-394zM1079 264l-32 -141h-938l32 141h938z" />
<glyph unicode="&#xb2;" horiz-adv-x="542" d="M270 979l27 115l221 176q59 47 96 85t48 85q10 41 -14.5 57t-69.5 16q-23 0 -52.5 -3t-58.5 -7q-33 -6 -66 -10l21 121l76 12q33 4 69.5 8t71.5 4q106 0 145 -45t17 -141q-16 -72 -61.5 -124t-118.5 -107l-154 -123h260l-27 -119h-430z" />
<glyph unicode="&#xb3;" horiz-adv-x="542" d="M432 1618q37 4 74 10q33 4 68.5 7t70.5 3q111 0 155 -41t23 -131q-10 -37 -26.5 -64.5t-35 -46t-33.5 -28.5t-23 -14q20 -8 36.5 -18.5t25.5 -28t9 -44t-8 -65.5q-23 -102 -91.5 -150.5t-172.5 -48.5q-39 0 -78 3.5t-74 7.5q-39 4 -76 10l37 115q31 -4 66 -9 q29 -4 64.5 -5t70.5 -1q53 0 82 22.5t39 61.5q10 49 -12.5 67.5t-63.5 18.5h-135l27 111h133q29 0 58.5 25.5t39.5 64.5q8 35 -8.5 51.5t-67.5 16.5q-35 0 -67.5 -2.5t-61.5 -6.5q-33 -4 -61 -6z" />
<glyph unicode="&#xb4;" horiz-adv-x="548" d="M850 1536l20 -143l-489 -176l-23 124z" />
<glyph unicode="&#xb5;" d="M391 1024h154l-127 -553q-25 -100 -33 -167.5t5 -109.5t52 -59.5t109 -17.5q51 0 104.5 11t96.5 26q51 16 96 39l192 831h152l-236 -1024h-151l14 66q-53 -25 -108 -43q-47 -16 -104.5 -29.5t-110.5 -13.5q-72 0 -113 15t-64 50l-122 -532h-154z" />
<glyph unicode="&#x3bc;" d="M391 1024h154l-127 -553q-25 -100 -33 -167.5t5 -109.5t52 -59.5t109 -17.5q51 0 104.5 11t96.5 26q51 16 96 39l192 831h152l-236 -1024h-151l14 66q-53 -25 -108 -43q-47 -16 -104.5 -29.5t-110.5 -13.5q-72 0 -113 15t-64 50l-122 -532h-154z" />
<glyph unicode="&#xb6;" d="M1087 1309h-237l-301 -1309h-137l155 680h-14q-82 0 -145.5 27.5t-103.5 77t-52 118t6 152.5q20 84 65.5 153.5t108 119.5t139 78t158.5 28h674l-29 -125h-149l-301 -1309h-138z" />
<glyph unicode="&#xb7;" horiz-adv-x="507" d="M326 735h166l-54 -233h-166z" />
<glyph unicode="&#xb8;" horiz-adv-x="1705" d="M1092 -260q-23 -98 -86.5 -141t-149.5 -43q-35 0 -66.5 1t-54.5 5q-29 4 -51 8l29 98l45 -4q20 -2 43 -2h45q43 0 70.5 17.5t37.5 60.5q10 39 -10 54.5t-63 15.5h-86l45 192h84l-25 -102q115 0 165.5 -31t27.5 -129z" />
<glyph unicode="&#xb9;" horiz-adv-x="542" d="M643 1618h123l-148 -639h-131l115 496l-162 -97l-39 97z" />
<glyph unicode="&#xba;" horiz-adv-x="1077" d="M842 1350q117 0 158.5 -65.5t7.5 -211.5q-33 -145 -106 -213.5t-189 -68.5q-117 0 -161 68.5t-11 213.5q35 145 109.5 211t191.5 66zM727 856q88 0 136 50t75 167q29 117 2 164t-115 47t-137 -47t-78 -164q-27 -117 1 -167t116 -50z" />
<glyph unicode="&#xbb;" horiz-adv-x="1200" d="M791 705l36 157l320 -293l-29 -123l-459 -309l37 160l303 215zM303 705l37 157l322 -293l-29 -123l-461 -309l37 160l305 215z" />
<glyph unicode="&#xbf;" horiz-adv-x="790" d="M0 -76q18 88 62 153.5t99.5 118t116.5 95.5l112 82q52 39 90 79t48 89l19 77h162l-19 -83q-16 -66 -56 -118t-93.5 -96.5t-112.5 -84t-112.5 -83.5t-94.5 -96.5t-55 -117.5q-29 -119 23.5 -166t197.5 -47q39 0 95.5 7t109.5 17q61 10 127 25l-17 -152q-70 -16 -137 -29 q-57 -10 -117.5 -18t-101.5 -8q-106 0 -182 18.5t-120 60.5t-55.5 110.5t11.5 166.5zM750 788h-168l55 234h168z" />
<glyph unicode="&#xc0;" horiz-adv-x="1236" d="M659 1188q53 109 136.5 174t201.5 63h123l60 -1425h-152l-29 360h-585l-185 -360h-166zM483 506h518l-30 776q-53 0 -96.5 -41t-71.5 -100zM1196 1716l-78 -119l-409 177l84 135z" />
<glyph unicode="&#xc1;" horiz-adv-x="1236" d="M659 1188q53 109 136.5 174t201.5 63h123l60 -1425h-152l-29 360h-585l-185 -360h-166zM483 506h518l-30 776q-53 0 -96.5 -41t-71.5 -100zM1315 1933l20 -143l-489 -176l-23 125z" />
<glyph unicode="&#xc2;" horiz-adv-x="1236" d="M659 1188q53 109 136.5 174t201.5 63h123l60 -1425h-152l-29 360h-585l-185 -360h-166zM483 506h518l-30 776q-53 0 -96.5 -41t-71.5 -100zM958 1890h123l189 -303h-170l-107 172l-190 -172h-170z" />
<glyph unicode="&#xc3;" horiz-adv-x="1236" d="M659 1188q53 109 136.5 174t201.5 63h123l60 -1425h-152l-29 360h-585l-185 -360h-166zM483 506h518l-30 776q-53 0 -96.5 -41t-71.5 -100zM1343 1700q-33 -31 -69 -53q-31 -20 -67 -36t-66 -16q-35 0 -73 16.5t-76 35.5l-71 34q-34 16 -59 17q-18 0 -47 -14.5t-57 -30.5 l-68 -43l-8 116q39 31 76 56q33 20 68.5 37.5t68.5 17.5q37 0 77 -15.5t76.5 -35t69.5 -34.5t56 -15q16 0 42.5 12t53.5 29l65 41z" />
<glyph unicode="&#xc4;" horiz-adv-x="1236" d="M659 1188q53 109 136.5 174t201.5 63h123l60 -1425h-152l-29 360h-585l-185 -360h-166zM483 506h518l-30 776q-53 0 -96.5 -41t-71.5 -100zM743 1714h148l-43 -184h-148zM1153 1714h150l-43 -184h-150z" />
<glyph unicode="&#xc5;" horiz-adv-x="1236" d="M1214 1524q-20 -90 -86 -146l54 -1376h-156l-27 356h-593l-185 -358h-158l691 1372q-45 59 -25 152q25 104 108 159.5t187 55.5t159.5 -55.5t30.5 -159.5zM477 510h524l-32 770h-103zM854 1524q-18 -78 47 -99h94q76 18 95 99q12 49 -13.5 75.5t-79.5 26.5 q-55 0 -93 -26.5t-50 -75.5z" />
<glyph unicode="&#xc6;" horiz-adv-x="1839" d="M961 358h-515l-202 -358h-162l786 1425h1198l-34 -149h-705l-108 -471h581l-35 -150h-581l-117 -505h705l-33 -150h-860zM524 510h471l176 766h-223z" />
<glyph unicode="&#xc7;" horiz-adv-x="1099" d="M811 -260q-23 -98 -86 -141t-150 -43q-35 0 -66.5 1t-53.5 5q-29 4 -52 8l29 98l45 -4q20 -2 43 -2h45q43 0 71 17.5t38 60.5q10 39 -10.5 54.5t-63.5 15.5h-86l39 172q-137 8 -213 61t-105.5 145.5t-18.5 223.5t50 297q43 180 96.5 318t133 231.5t190.5 140.5t268 47 q70 0 138.5 -7t121.5 -18q63 -10 121 -22l-41 -142l-125 17q-53 6 -116.5 12t-116.5 6q-119 0 -201 -35.5t-138 -108.5t-95 -182.5t-74 -256.5q-33 -145 -44 -253t12.5 -179.5t90 -107.5t187.5 -36q47 0 110.5 5t122.5 14q68 8 137 18l-26 -143q-61 -14 -129 -23 q-57 -10 -125 -16t-127 -8l-19 -80q115 0 165.5 -31t27.5 -129z" />
<glyph unicode="&#xc8;" horiz-adv-x="1155" d="M1042 0h-452q-96 0 -172 22.5t-123 70.5t-61.5 124t12.5 184q18 74 48 127.5t69.5 92t87 64.5t98.5 42q-68 41 -98.5 123t2.5 219q23 88 70.5 154.5t117.5 111.5t156 67.5t182 22.5h391l-35 -147h-399q-129 0 -213 -61.5t-113 -174.5q-29 -117 17.5 -184t173.5 -67h291 l-37 -144h-291q-37 0 -90 -10t-105.5 -37t-96.5 -76t-62 -125q-18 -70 -9 -118t39.5 -78.5t78.5 -44t110 -13.5h448zM1202 1690l-78 -119l-409 176l84 135z" />
<glyph unicode="&#xc9;" horiz-adv-x="1155" d="M1042 0h-452q-96 0 -172 22.5t-123 70.5t-61.5 124t12.5 184q18 74 48 127.5t69.5 92t87 64.5t98.5 42q-68 41 -98.5 123t2.5 219q23 88 70.5 154.5t117.5 111.5t156 67.5t182 22.5h391l-35 -147h-399q-129 0 -213 -61.5t-113 -174.5q-29 -117 17.5 -184t173.5 -67h291 l-37 -144h-291q-37 0 -90 -10t-105.5 -37t-96.5 -76t-62 -125q-18 -70 -9 -118t39.5 -78.5t78.5 -44t110 -13.5h448zM1432 1847l20 -143l-489 -176l-23 125z" />
<glyph unicode="&#xca;" horiz-adv-x="1155" d="M1042 0h-452q-96 0 -172 22.5t-123 70.5t-61.5 124t12.5 184q18 74 48 127.5t69.5 92t87 64.5t98.5 42q-68 41 -98.5 123t2.5 219q23 88 70.5 154.5t117.5 111.5t156 67.5t182 22.5h391l-35 -147h-399q-129 0 -213 -61.5t-113 -174.5q-29 -117 17.5 -184t173.5 -67h291 l-37 -144h-291q-37 0 -90 -10t-105.5 -37t-96.5 -76t-62 -125q-18 -70 -9 -118t39.5 -78.5t78.5 -44t110 -13.5h448zM1053 1898h123l188 -303h-170l-107 172l-190 -172h-170z" />
<glyph unicode="&#xcb;" horiz-adv-x="1155" d="M1042 0h-452q-96 0 -172 22.5t-123 70.5t-61.5 124t12.5 184q18 74 48 127.5t69.5 92t87 64.5t98.5 42q-68 41 -98.5 123t2.5 219q23 88 70.5 154.5t117.5 111.5t156 67.5t182 22.5h391l-35 -147h-399q-129 0 -213 -61.5t-113 -174.5q-29 -117 17.5 -184t173.5 -67h291 l-37 -144h-291q-37 0 -90 -10t-105.5 -37t-96.5 -76t-62 -125q-18 -70 -9 -118t39.5 -78.5t78.5 -44t110 -13.5h448zM817 1823h148l-43 -185h-148zM1227 1823h149l-43 -185h-149z" />
<glyph unicode="&#xcc;" horiz-adv-x="505" d="M502 1425h157l-327 -1425h-158zM848 1722l-82 -127l-412 179l90 141z" />
<glyph unicode="&#xcd;" horiz-adv-x="505" d="M502 1425h157l-327 -1425h-158zM911 1925l21 -143l-490 -176l-22 125z" />
<glyph unicode="&#xce;" horiz-adv-x="505" d="M502 1425h157l-327 -1425h-158zM625 1913h137l209 -277h-178l-127 154l-195 -154h-182z" />
<glyph unicode="&#xcf;" horiz-adv-x="505" d="M502 1425h157l-327 -1425h-158zM399 1864h150l-43 -185h-150zM823 1864h148l-43 -185h-148z" />
<glyph unicode="&#xd0;" horiz-adv-x="1314" d="M223 776h139l150 649h506q154 0 243 -51t127.5 -142t33.5 -218t-40 -279q-35 -154 -89 -287t-136 -233t-196.5 -157.5t-270.5 -57.5h-506l144 627h-140zM1219 735q27 113 34 211t-16 172t-83 116t-171 42h-350l-115 -500h311l-34 -149h-312l-110 -477h350q111 0 191.5 49 t140 131t98.5 187t66 218z" />
<glyph unicode="&#xd1;" horiz-adv-x="1419" d="M186 0l137 602l138 602l45 221l172 -2q45 0 73.5 -15t45 -41t25.5 -60.5t18 -73.5l200 -991q8 -37 26.5 -59.5t35.5 -22.5h4l295 1263h160l-328 -1423h-129q-78 0 -129 51t-74 144l-207 1003q-8 35 -26.5 44t-36.5 5l-287 -1247h-158zM1411 1677q-33 -31 -70 -53 q-31 -20 -66.5 -35.5t-66.5 -15.5q-35 0 -72.5 16.5l-75.5 34.5l-72 35q-34 16 -58 16q-18 0 -47 -14t-58 -31l-67 -43l-8 117q39 31 75 55q33 20 69 38t69 18q37 0 76.5 -15.5t76.5 -35t70 -35t55 -15.5q16 0 43 12.5t53 28.5l66 41z" />
<glyph unicode="&#xd2;" horiz-adv-x="1343" d="M700 129q123 0 209 35t145.5 106.5t100.5 179t76 255.5q33 141 41 251.5t-18.5 185.5t-94 114.5t-188.5 39.5q-123 0 -209 -38.5t-147.5 -114.5t-103.5 -186.5t-75 -251.5t-42 -250t17.5 -180.5t96 -108.5t192.5 -37zM666 -20q-166 0 -263.5 46t-140.5 138t-37 227 t47 314q41 176 98.5 314t143.5 233.5t206 144.5t284 49t261 -49t139 -144.5t36 -232.5t-47 -315q-43 -182 -100.5 -318.5t-141.5 -226.5t-202.5 -135t-282.5 -45zM1305 1722l-82 -127l-412 179l90 141z" />
<glyph unicode="&#xd3;" horiz-adv-x="1343" d="M700 129q123 0 209 35t145.5 106.5t100.5 179t76 255.5q33 141 41 251.5t-18.5 185.5t-94 114.5t-188.5 39.5q-123 0 -209 -38.5t-147.5 -114.5t-103.5 -186.5t-75 -251.5t-42 -250t17.5 -180.5t96 -108.5t192.5 -37zM666 -20q-166 0 -263.5 46t-140.5 138t-37 227 t47 314q41 176 98.5 314t143.5 233.5t206 144.5t284 49t261 -49t139 -144.5t36 -232.5t-47 -315q-43 -182 -100.5 -318.5t-141.5 -226.5t-202.5 -135t-282.5 -45zM1305 1946l22 -144l-491 -176l-23 125z" />
<glyph unicode="&#xd4;" horiz-adv-x="1343" d="M700 129q123 0 209 35t145.5 106.5t100.5 179t76 255.5q33 141 41 251.5t-18.5 185.5t-94 114.5t-188.5 39.5q-123 0 -209 -38.5t-147.5 -114.5t-103.5 -186.5t-75 -251.5t-42 -250t17.5 -180.5t96 -108.5t192.5 -37zM666 -20q-166 0 -263.5 46t-140.5 138t-37 227 t47 314q41 176 98.5 314t143.5 233.5t206 144.5t284 49t261 -49t139 -144.5t36 -232.5t-47 -315q-43 -182 -100.5 -318.5t-141.5 -226.5t-202.5 -135t-282.5 -45zM1055 1925h123l186 -303h-170l-107 172l-190 -172h-170z" />
<glyph unicode="&#xd5;" horiz-adv-x="1343" d="M700 129q123 0 209 35t146.5 106.5t100.5 179t75 255.5q33 141 41 251.5t-17.5 185.5t-94 114.5t-189.5 39.5q-123 0 -209 -38.5t-147.5 -114.5t-103.5 -186.5t-75 -251.5t-42 -250t17.5 -180.5t96 -108.5t192.5 -37zM666 -20q-166 0 -263.5 46t-140.5 138t-37 227 t47 314q41 176 98.5 314t143.5 233.5t206 144.5t284 49t261 -49t139 -144.5t37 -232.5t-46 -315q-43 -182 -100.5 -318.5t-141.5 -226.5t-202.5 -135t-284.5 -45zM1389 1745q-35 -31 -70 -53q-31 -20 -65.5 -36t-65.5 -16q-35 0 -74 16.5t-76 35.5l-70 34q-34 16 -59 17 q-18 0 -46.5 -14.5l-57.5 -30.5l-68 -43l-10 117q39 31 76 55q33 20 68.5 37.5t68.5 17.5q37 0 77 -15.5t76.5 -35t69.5 -34.5t56 -15q16 0 43.5 12t54.5 29q31 18 63 41z" />
<glyph unicode="&#xd6;" horiz-adv-x="1343" d="M700 129q123 0 209 35t146.5 106.5t100.5 179t75 255.5q33 141 41 251.5t-17.5 185.5t-94 114.5t-189.5 39.5q-123 0 -209 -38.5t-147.5 -114.5t-103.5 -186.5t-75 -251.5t-42 -250t17.5 -180.5t96 -108.5t192.5 -37zM666 -20q-166 0 -263.5 46t-140.5 138t-37 227 t47 314q41 176 98.5 314t143.5 233.5t206 144.5t284 49t261 -49t139 -144.5t37 -232.5t-46 -315q-43 -182 -100.5 -318.5t-141.5 -226.5t-202.5 -135t-284.5 -45zM817 1874h148l-43 -184h-148zM1229 1874h147l-43 -184h-147z" />
<glyph unicode="&#xd7;" horiz-adv-x="1458" d="M1012 653l477 396l82 -99l-479 -399l294 -401l-124 -99l-297 398l-480 -398l-79 99l483 401l-293 399l125 99z" />
<glyph unicode="&#xd8;" horiz-adv-x="1333" d="M662 -20q-70 0 -125.5 8t-102.5 24l-178 -254l-125 62l184 262q-88 86 -94 241.5t47 381.5q41 176 98.5 314t143.5 233.5t206 144.5t283 49q139 0 240 -39l162 233l131 -55l-180 -258q80 -92 83 -248.5t-46 -373.5q-43 -182 -100.5 -318.5t-141.5 -226.5t-202.5 -135 t-282.5 -45zM432 705q-37 -162 -43 -278t37 -187l713 1024q-66 33 -172 32q-123 0 -209 -38.5t-147.5 -114.5t-103.5 -186.5t-75 -251.5zM696 129q123 0 209 35t145.5 106.5t100.5 179t76 255.5q35 154 42 269.5t-30 190.5l-707 -1011q64 -25 164 -25z" />
<glyph unicode="&#xd9;" horiz-adv-x="1310" d="M416 430q-18 -84 -8 -140.5t45.5 -91t93 -50t133.5 -15.5q160 0 267.5 64.5t146.5 232.5l229 995h156l-230 -995q-29 -121 -81 -207t-128.5 -139t-176 -77.5t-220.5 -24.5q-117 0 -202 24.5t-135 77.5t-63.5 138t15.5 208l229 995h158zM1165 1722l-82 -127l-411 179 l90 141z" />
<glyph unicode="&#xda;" horiz-adv-x="1314" d="M420 430q-18 -84 -8 -140.5t46 -91t93 -50t133 -15.5q160 0 267.5 64.5t146.5 232.5l229 995h156l-230 -995q-29 -121 -81 -207t-128.5 -139t-176 -77.5t-220.5 -24.5q-117 0 -202 24.5t-135 77.5t-63.5 138t15.5 208l230 995h157zM1294 1946l23 -144l-492 -176l-22 125z " />
<glyph unicode="&#xdb;" horiz-adv-x="1314" d="M420 430q-18 -84 -8 -140.5t46 -91t93 -50t133 -15.5q160 0 267.5 64.5t146.5 232.5l229 995h156l-230 -995q-29 -121 -81 -207t-128.5 -139t-176 -77.5t-220.5 -24.5q-117 0 -202 24.5t-135 77.5t-63.5 138t15.5 208l230 995h157zM1044 1925h123l187 -303h-170l-107 172 l-190 -172h-170z" />
<glyph unicode="&#xdc;" horiz-adv-x="1314" d="M420 430q-18 -84 -8 -140.5t46 -91t93 -50t133 -15.5q160 0 267.5 64.5t146.5 232.5l229 995h156l-230 -995q-29 -121 -81 -207t-128.5 -139t-176 -77.5t-220.5 -24.5q-117 0 -202 24.5t-135 77.5t-63.5 138t15.5 208l230 995h157zM795 1837h147l-43 -184h-147z M1204 1837h150l-43 -184h-150z" />
<glyph unicode="&#xdd;" horiz-adv-x="1105" d="M635 0h-158l141 612l-264 813h176l205 -639l496 639h176l-633 -815zM1174 1946l22 -144l-491 -176l-23 125z" />
<glyph unicode="&#xde;" horiz-adv-x="1189" d="M754 399q154 0 245 91.5t127 248.5q37 160 -17 232.5t-208 72.5h-360l-148 -645h361zM356 248l-55 -248h-156l328 1425h156l-54 -229h363q233 0 317 -111.5t31 -345.5q-53 -233 -193.5 -362t-373.5 -129h-363z" />
<glyph unicode="&#xdf;" horiz-adv-x="1239" d="M178 0l256 1116q25 104 66 176t100 116t139 62.5t185 18.5q217 0 291.5 -67.5t37.5 -225.5q-23 -102 -76 -165.5t-139 -96.5q-45 -16 -73.5 -28.5t-46 -23t-25.5 -21.5t-10 -25q-4 -12 -2 -22.5t17 -26t46 -37t86 -56.5l104.5 -68.5t69 -58t33.5 -61.5t-2 -76 q-29 -123 -71 -209t-109.5 -139t-167 -76.5t-244.5 -23.5q-27 0 -58.5 4l-60.5 8l-67 12l39 127q41 -2 77 -4q31 -2 61 -3t44 -1q104 0 172 16.5t111 52t67.5 90t42.5 130.5q4 14 -2 29.5t-27.5 35t-59.5 45t-95 60.5q-63 35 -100 63.5t-55.5 55t-19.5 55t7 65.5 q18 78 69.5 119t145.5 78q45 16 72.5 34.5t44 39t25.5 44t16 50.5q23 92 -23.5 127t-175.5 35q-61 0 -110.5 -10.5t-87.5 -39t-64.5 -77.5t-44.5 -125l-252 -1098h-156z" />
<glyph unicode="&#xe0;" horiz-adv-x="1069" d="M909 180q4 -49 35 -67.5t78 -24.5l-33 -108q-104 4 -149 39.5t-49 109.5q-18 -23 -52 -48.5t-79.5 -48t-98.5 -37.5t-108 -15q-98 0 -153.5 36.5t-79 105t-17.5 165t35 217.5q61 266 192 402t358 136q70 0 117 -10t74 -14l129 24zM477 121q51 0 105.5 21.5t100.5 50 t81 58.5t45 46l137 586q-27 4 -72 12t-106 8q-154 0 -255 -96t-148 -307q-43 -186 -20 -282.5t132 -96.5zM1020 1311l-78 -119l-410 176l84 135z" />
<glyph unicode="&#xe1;" horiz-adv-x="1069" d="M909 180q4 -49 35 -67.5t78 -24.5l-33 -108q-104 4 -149 39.5t-49 109.5q-18 -23 -52 -48.5t-79.5 -48t-98.5 -37.5t-108 -15q-98 0 -153.5 36.5t-79 105t-17.5 165t35 217.5q61 266 192 402t358 136q70 0 117 -10t74 -14l129 24zM477 121q51 0 105.5 21.5t100.5 50 t81 58.5t45 46l137 586q-27 4 -72 12t-106 8q-154 0 -255 -96t-148 -307q-43 -186 -20 -282.5t132 -96.5zM1188 1516l20 -144l-489 -176l-23 125z" />
<glyph unicode="&#xe2;" horiz-adv-x="1069" d="M909 180q4 -49 35 -67.5t78 -24.5l-33 -108q-104 4 -149 39.5t-49 109.5q-18 -23 -52 -48.5t-79.5 -48t-98.5 -37.5t-108 -15q-98 0 -153.5 36.5t-79 105t-17.5 165t35 217.5q61 266 192 402t358 136q70 0 117 -10t74 -14l129 24zM477 121q51 0 105.5 21.5t100.5 50 t81 58.5t45 46l137 586q-27 4 -72 12t-106 8q-154 0 -255 -96t-148 -307q-43 -186 -20 -282.5t132 -96.5zM823 1499h123l189 -303h-170l-107 172l-190 -172h-170z" />
<glyph unicode="&#xe3;" horiz-adv-x="1069" d="M909 180q4 -49 35 -67.5t78 -24.5l-33 -108q-104 4 -149 39.5t-49 109.5q-18 -23 -52 -48.5t-79.5 -48t-98.5 -37.5t-108 -15q-98 0 -153.5 36.5t-79 105t-17.5 165t35 217.5q61 266 192 402t358 136q70 0 117 -10t74 -14l129 24zM477 121q51 0 105.5 21.5t100.5 50 t81 58.5t45 46l137 586q-27 4 -72 12t-106 8q-154 0 -255 -96t-148 -307q-43 -186 -20 -282.5t132 -96.5zM1208 1341q-33 -31 -69 -53q-31 -20 -67 -35.5t-66 -15.5q-35 0 -73 16.5l-76 34.5l-72 35q-34 16 -58 16q-18 0 -47 -14t-57 -31l-68 -43l-8 117q39 31 76 55 q33 20 68.5 38t68.5 18q37 0 77 -15.5t76.5 -35t69.5 -35t55 -15.5q16 0 43 12.5t54 28.5l65 41z" />
<glyph unicode="&#xe4;" horiz-adv-x="1069" d="M909 180q4 -49 35 -67.5t78 -24.5l-33 -108q-104 4 -149 39.5t-49 109.5q-18 -23 -52 -48.5t-79.5 -48t-98.5 -37.5t-108 -15q-98 0 -153.5 36.5t-79 105t-17.5 165t35 217.5q61 266 192 402t358 136q70 0 117 -10t74 -14l129 24zM477 121q51 0 105.5 21.5t100.5 50 t81 58.5t45 46l137 586q-27 4 -72 12t-106 8q-154 0 -255 -96t-148 -307q-43 -186 -20 -282.5t132 -96.5zM588 1464h147l-43 -184h-147zM997 1464h150l-43 -184h-150z" />
<glyph unicode="&#xe5;" horiz-adv-x="1069" d="M909 180q4 -49 35 -67.5t78 -24.5l-33 -108q-104 4 -149 39.5t-49 109.5q-18 -23 -52 -48.5t-79.5 -48t-98.5 -37.5t-108 -15q-98 0 -153.5 36.5t-79 105t-17.5 165t35 217.5q61 266 192 402t358 136q70 0 117 -10t74 -14l129 24zM477 121q51 0 105.5 21.5t100.5 50 t81 58.5t45 46l137 586q-27 4 -72 12t-106 8q-154 0 -255 -96t-148 -307q-43 -186 -20 -282.5t132 -96.5zM682 1399q23 90 96.5 151.5t165.5 61.5q45 0 80 -16.5t56.5 -45t28.5 -67.5t-3 -84t-34.5 -84t-60.5 -67.5t-78 -45t-87 -16.5q-92 0 -138 60.5t-26 152.5zM795 1399 q-10 -43 12 -74t65 -31t78 31t45 74q10 41 -11 71.5t-64 30.5t-79 -30.5t-46 -71.5z" />
<glyph unicode="&#xe6;" horiz-adv-x="1695" d="M1194 119q57 0 122.5 2t123.5 6q68 4 133 10l-25 -125l-141 -16q-59 -6 -131 -11t-133 -5q-106 0 -173 28.5t-102 81.5l-73 -29l-51 -17q-38 -13 -93 -27.5t-124.5 -25.5t-143.5 -11q-137 0 -188.5 79.5t-16.5 233.5q18 86 53 141t88.5 89t127 51.5t169.5 27.5l271 25 l20 84q23 98 -12 142t-121 44q-57 0 -126.5 -3t-129.5 -7q-70 -6 -141 -10l29 137q74 6 145 14q61 6 132 11t130 5q211 0 242 -149q74 82 163 115.5t191 33.5q205 0 282.5 -113.5t20.5 -365.5l-35 -119h-678q-37 -162 3 -244.5t192 -82.5zM436 113q55 0 118.5 10t120 23.5 t97.5 25.5t49 16q-8 61 2.5 140.5t32.5 173.5l-307 -25q-92 -8 -143.5 -50t-71.5 -130q-23 -92 4.5 -138t97.5 -46zM1561 571q43 184 -2.5 260t-180.5 76q-133 0 -221 -77.5t-129 -258.5h533z" />
<glyph unicode="&#xe7;" horiz-adv-x="894" d="M784 1042q37 0 75 -4t72 -9t59.5 -11t37.5 -10l-41 -140q-10 4 -33.5 9.5t-54.5 10.5t-65.5 8t-67.5 3q-78 0 -139.5 -26.5t-108.5 -73.5t-81 -115t-56 -149q-16 -53 -26.5 -110.5t-10.5 -111.5q0 -41 5 -76.5t20.5 -61t42 -40t67.5 -14.5q51 0 103.5 18.5t97.5 44t78 52 t47 40.5l49 -108q-12 -20 -44 -47t-76 -53.5t-96 -48t-108 -31.5l-20 -88q115 0 165 -31t27 -129t-86 -141t-149 -43q-35 0 -66.5 1t-54.5 5q-29 4 -51 8l29 98l45 -4q20 -2 43 -2h45q43 0 70.5 17.5t37.5 60.5q10 39 -10 54.5t-63 15.5h-86l38 170q-68 2 -114.5 26.5 t-76.5 66.5t-44 96t-14 118q0 160 42 298t118.5 239.5t186 159.5t242.5 58z" />
<glyph unicode="&#xe8;" horiz-adv-x="1032" d="M522 117q63 0 130 25.5t120 56.5q63 37 123 84q2 -37 3 -73t5 -75q-55 -43 -123 -78q-57 -29 -131 -53t-155 -24q-109 0 -175.5 35.5t-99.5 101t-33 159t27 209.5q33 143 93.5 248t135 173.5t159.5 102t167 33.5q94 0 157.5 -24.5t99.5 -66.5t45 -95t-3 -111 q-14 -57 -48 -118.5t-83 -108.5q-68 -63 -153 -101t-170 -58.5t-157.5 -26.5t-115.5 -6q-10 -39 -6 -77t24.5 -66.5t60.5 -47t103 -18.5zM360 465q61 0 148.5 13.5t170.5 45t147.5 83.5t82.5 130q16 70 -26.5 116t-141.5 46q-49 0 -105 -24.5t-108.5 -72.5t-94.5 -121 t-64 -171q-4 -10 -5.5 -22.5t-3.5 -22.5zM1012 1303l-78 -119l-410 176l84 135z" />
<glyph unicode="&#xe9;" horiz-adv-x="1032" d="M522 117q63 0 130 25.5t120 56.5q63 37 123 84q2 -37 3 -73t5 -75q-55 -43 -123 -78q-57 -29 -131 -53t-155 -24q-109 0 -175.5 35.5t-99.5 101t-33 159t27 209.5q33 143 93.5 248t135 173.5t159.5 102t167 33.5q94 0 157.5 -24.5t99.5 -66.5t45 -95t-3 -111 q-14 -57 -48 -118.5t-83 -108.5q-68 -63 -153 -101t-170 -58.5t-157.5 -26.5t-115.5 -6q-10 -39 -6 -77t24.5 -66.5t60.5 -47t103 -18.5zM360 465q61 0 148.5 13.5t170.5 45t147.5 83.5t82.5 130q16 70 -26.5 116t-141.5 46q-49 0 -105 -24.5t-108.5 -72.5t-94.5 -121 t-64 -171q-4 -10 -5.5 -22.5t-3.5 -22.5zM1079 1513l21 -143l-490 -176l-22 125z" />
<glyph unicode="&#xea;" horiz-adv-x="1032" d="M522 117q63 0 130 25.5t120 56.5q63 37 123 84q2 -37 3 -73t5 -75q-55 -43 -123 -78q-57 -29 -131 -53t-155 -24q-109 0 -175.5 35.5t-99.5 101t-33 159t27 209.5q33 143 93.5 248t135 173.5t159.5 102t167 33.5q94 0 157.5 -24.5t99.5 -66.5t45 -95t-3 -111 q-14 -57 -48 -118.5t-83 -108.5q-68 -63 -153 -101t-170 -58.5t-157.5 -26.5t-115.5 -6q-10 -39 -6 -77t24.5 -66.5t60.5 -47t103 -18.5zM360 465q61 0 148.5 13.5t170.5 45t147.5 83.5t82.5 130q16 70 -26.5 116t-141.5 46q-49 0 -105 -24.5t-108.5 -72.5t-94.5 -121 t-64 -171q-4 -10 -5.5 -22.5t-3.5 -22.5zM793 1481h122l189 -303h-170l-107 172l-190 -172h-170z" />
<glyph unicode="&#xeb;" horiz-adv-x="1032" d="M522 117q63 0 130 25.5t120 56.5q63 37 123 84q2 -37 3 -73t5 -75q-55 -43 -123 -78q-57 -29 -131 -53t-155 -24q-109 0 -175.5 35.5t-99.5 101t-33 159t27 209.5q33 143 93.5 248t135 173.5t159.5 102t167 33.5q94 0 157.5 -24.5t99.5 -66.5t45 -95t-3 -111 q-14 -57 -48 -118.5t-83 -108.5q-68 -63 -153 -101t-170 -58.5t-157.5 -26.5t-115.5 -6q-10 -39 -6 -77t24.5 -66.5t60.5 -47t103 -18.5zM360 465q61 0 148.5 13.5t170.5 45t147.5 83.5t82.5 130q16 70 -26.5 116t-141.5 46q-49 0 -105 -24.5t-108.5 -72.5t-94.5 -121 t-64 -171q-4 -10 -5.5 -22.5t-3.5 -22.5zM623 1473h147l-43 -185h-147zM1032 1473h150l-43 -185h-150z" />
<glyph unicode="&#xec;" horiz-adv-x="534" d="M430 1024h152l-236 -1024h-151zM819 1341l-78 -118l-409 176l84 135z" />
<glyph unicode="&#xed;" horiz-adv-x="534" d="M870 1536l21 -143l-490 -176l-22 124zM430 1024h152l-236 -1024h-151z" />
<glyph unicode="&#xee;" horiz-adv-x="540" d="M430 1024h152l-236 -1024h-151zM553 1516h123l188 -304h-170l-106 172l-191 -172h-170z" />
<glyph unicode="&#xef;" horiz-adv-x="534" d="M322 1464h147l-43 -184h-147zM731 1464h148l-43 -184h-148zM430 1024h152l-236 -1024h-151z" />
<glyph unicode="&#xf0;" d="M518 1161l199 123q-47 18 -99.5 34.5t-113.5 33.5l59 129q90 -20 168 -44t143 -55l238 146l47 -96l-180 -111q143 -98 194.5 -243.5t4.5 -356.5q-47 -199 -105.5 -339t-137.5 -229.5t-178.5 -130t-224.5 -40.5q-217 0 -308 120.5t-38 352.5q23 96 71 175t117.5 134 t155.5 86t185 31q57 0 113.5 -11.5t103.5 -25.5q53 -16 102 -35q23 129 -20 233.5t-185 186.5l-264 -164zM690 743q-66 0 -122 -22.5t-100 -60t-75 -91t-45 -114.5q-37 -156 17.5 -243t201.5 -87q82 0 146.5 27.5t117 92t94.5 168t79 257.5q-49 20 -103 37q-45 14 -100.5 25 t-110.5 11z" />
<glyph unicode="&#xf1;" horiz-adv-x="1173" d="M186 0l236 1024h153l-16 -68l115 43q49 16 108.5 30.5t114.5 14.5q104 0 165.5 -27.5t86.5 -89t16.5 -158.5t-41.5 -237l-123 -532h-151l121 530q25 102 33 173t-5.5 116t-51.5 64.5t-107 19.5q-51 0 -105.5 -12t-99.5 -27q-53 -16 -105 -37l-190 -827h-154zM1249 1358 q-35 -31 -69 -53q-31 -20 -66 -36t-65 -16q-35 0 -74 16.5t-77 35.5l-72 34q-34 16 -58 17q-18 0 -47 -14.5t-57 -30.5l-68 -43l-8 116q39 31 76 56q33 20 68.5 37.5t68.5 17.5q37 0 77 -15.5t76.5 -35t69.5 -34.5t55 -15q16 0 44 12t55 29q31 18 63 41z" />
<glyph unicode="&#xf2;" horiz-adv-x="1081" d="M782 1044q233 0 305 -129t11 -393q-31 -133 -74 -234.5t-107.5 -170t-157.5 -103t-222 -34.5t-207 32.5t-112 100t-31 170t36 243.5q31 131 77 229.5t112.5 162t157.5 95t212 31.5zM569 117q90 0 150.5 25.5t102.5 75.5t69 126t49 178q47 205 3 294t-191 89 q-82 0 -141.5 -19.5t-102.5 -64.5t-72.5 -117.5t-54.5 -177.5q-25 -109 -32 -185.5t11.5 -126.5t68.5 -73.5t140 -23.5zM1096 1341l-78 -118l-410 176l84 135z" />
<glyph unicode="&#xf3;" horiz-adv-x="1081" d="M782 1044q233 0 305 -129t11 -393q-31 -133 -74 -234.5t-107.5 -170t-157.5 -103t-222 -34.5t-207 32.5t-112 100t-31 170t36 243.5q31 131 77 229.5t112.5 162t157.5 95t212 31.5zM569 117q90 0 150.5 25.5t102.5 75.5t69 126t49 178q47 205 3 294t-191 89 q-82 0 -141.5 -19.5t-102.5 -64.5t-72.5 -117.5t-54.5 -177.5q-25 -109 -32 -185.5t11.5 -126.5t68.5 -73.5t140 -23.5zM1100 1536l20 -143l-489 -176l-23 124z" />
<glyph unicode="&#xf4;" horiz-adv-x="1081" d="M782 1044q233 0 305 -129t11 -393q-31 -133 -74 -234.5t-107.5 -170t-157.5 -103t-222 -34.5t-207 32.5t-112 100t-31 170t36 243.5q31 131 77 229.5t112.5 162t157.5 95t212 31.5zM569 117q90 0 150.5 25.5t102.5 75.5t69 126t49 178q47 205 3 294t-191 89 q-82 0 -141.5 -19.5t-102.5 -64.5t-72.5 -117.5t-54.5 -177.5q-25 -109 -32 -185.5t11.5 -126.5t68.5 -73.5t140 -23.5zM821 1516h123l189 -304h-170l-107 172l-190 -172h-170z" />
<glyph unicode="&#xf5;" horiz-adv-x="1081" d="M782 1044q233 0 305 -129t11 -393q-31 -133 -74 -234.5t-107.5 -170t-157.5 -103t-222 -34.5t-207 32.5t-112 100t-31 170t36 243.5q31 131 77 229.5t112.5 162t157.5 95t212 31.5zM569 117q90 0 150.5 25.5t102.5 75.5t69 126t49 178q47 205 3 294t-191 89 q-82 0 -141.5 -19.5t-102.5 -64.5t-72.5 -117.5t-54.5 -177.5q-25 -109 -32 -185.5t11.5 -126.5t68.5 -73.5t140 -23.5zM1184 1358q-35 -31 -70 -53q-31 -20 -65.5 -36t-65.5 -16q-35 0 -74 16.5t-76 35.5l-72 34q-34 16 -59 17q-18 0 -46.5 -14.5l-57.5 -30.5l-68 -43 l-8 116q39 31 76 56q33 20 68.5 37.5t68.5 17.5q37 0 77 -15.5t77 -35t69.5 -34.5t55.5 -15q16 0 42.5 12t53.5 29l66 41z" />
<glyph unicode="&#xf6;" horiz-adv-x="1081" d="M782 1044q233 0 305 -129t11 -393q-31 -133 -74 -234.5t-107.5 -170t-157.5 -103t-222 -34.5t-207 32.5t-112 100t-31 170t36 243.5q31 131 77 229.5t112.5 162t157.5 95t212 31.5zM569 117q90 0 150.5 25.5t102.5 75.5t69 126t49 178q47 205 3 294t-191 89 q-82 0 -141.5 -19.5t-102.5 -64.5t-72.5 -117.5t-54.5 -177.5q-25 -109 -32 -185.5t11.5 -126.5t68.5 -73.5t140 -23.5zM592 1464h149l-43 -184h-149zM1004 1464h147l-43 -184h-147z" />
<glyph unicode="&#xf7;" horiz-adv-x="849" d="M299 606h522l-35 -153h-522zM414 311h157l-49 -207h-157zM563 958h158l-49 -206h-158z" />
<glyph unicode="&#xf8;" horiz-adv-x="1081" d="M782 1044q80 0 146 -16l135 213l96 -39l-139 -215q162 -111 78 -465q-31 -133 -74 -234.5t-107.5 -170t-157.5 -103t-222 -34.5q-84 0 -154 16l-141 -225l-95 36l142 226q-90 57 -100.5 179t34.5 314q31 131 77 229.5t112.5 162t157.5 95t212 31.5zM569 117 q90 0 150.5 25.5t102.5 75.5t69 126t49 178q55 238 -16 322l-459 -717q23 -6 48 -8t56 -2zM752 905q-82 0 -141.5 -19.5t-102.5 -64.5t-72.5 -117.5t-54.5 -177.5q-31 -135 -34 -222t38 -134l459 723q-41 12 -92 12z" />
<glyph unicode="&#xf9;" horiz-adv-x="1144" d="M1065 1339l-88 -133l-406 187l93 141zM1200 1024l-235 -1024h-152l14 66q-53 -25 -108 -43q-47 -16 -104.5 -29.5t-110.5 -13.5q-109 0 -169.5 26.5t-85 86t-15 157.5t41.5 239l123 535h152l-123 -532q-25 -106 -34 -178t3.5 -116t51 -62.5t110.5 -18.5q51 0 103.5 11 t95.5 26q51 16 98 39l193 831h151z" />
<glyph unicode="&#xfa;" horiz-adv-x="1144" d="M1200 1024l-235 -1024h-152l14 66q-53 -25 -108 -43q-47 -16 -104.5 -29.5t-110.5 -13.5q-109 0 -169.5 26.5t-85 86t-15 157.5t41.5 239l123 535h152l-123 -532q-25 -106 -34 -178t3.5 -116t51 -62.5t110.5 -18.5q51 0 103.5 11t95.5 26q51 16 98 39l193 831h151z M1126 1536l21 -143l-490 -176l-22 124z" />
<glyph unicode="&#xfb;" horiz-adv-x="1144" d="M1200 1024l-235 -1024h-152l14 66q-53 -25 -108 -43q-47 -16 -104.5 -29.5t-110.5 -13.5q-109 0 -169.5 26.5t-85 86t-15 157.5t41.5 239l123 535h152l-123 -532q-25 -106 -34 -178t3.5 -116t51 -62.5t110.5 -18.5q51 0 103.5 11t95.5 26q51 16 98 39l193 831h151z M834 1516h122l189 -304h-170l-107 172l-190 -172h-170z" />
<glyph unicode="&#xfc;" horiz-adv-x="1144" d="M1200 1024l-235 -1024h-152l14 66q-53 -25 -108 -43q-47 -16 -104.5 -29.5t-110.5 -13.5q-109 0 -169.5 26.5t-85 86t-15 157.5t41.5 239l123 535h152l-123 -532q-25 -106 -34 -178t3.5 -116t51 -62.5t110.5 -18.5q51 0 103.5 11t95.5 26q51 16 98 39l193 831h151z M639 1464h147l-43 -184h-147zM1049 1464h149l-43 -184h-149z" />
<glyph unicode="&#xfd;" horiz-adv-x="987" d="M434 1024l35 -772q4 -57 25.5 -81t50.5 -28l454 881h162l-514 -1004q-51 -98 -100 -166.5t-113.5 -123t-152.5 -101.5t-215 -100q-2 37 -1 74t-2 73q94 43 157 76t108 67t77.5 76t67.5 105q-55 18 -98 71.5t-47 129.5l-41 823h147zM1081 1536l21 -143l-490 -176l-22 124z " />
<glyph unicode="&#xfe;" horiz-adv-x="1101" d="M602 117q104 0 175 24.5t117 74.5t75.5 127t54.5 183q45 199 16.5 288t-161.5 89q-53 0 -105.5 -9t-95.5 -20q-51 -12 -98 -26l-166 -719q37 -4 73 -6q31 -4 61.5 -5t53.5 -1zM926 1044q104 0 169.5 -28.5t95.5 -91t26.5 -159.5t-35.5 -235q-35 -152 -82 -257 t-119 -170.5t-172 -94t-240 -28.5q-47 0 -96 3t-92 7l-102 -445h-152l444 1925h152l-113 -493q49 18 103 33q47 12 102.5 23t110.5 11z" />
<glyph unicode="&#xff;" horiz-adv-x="987" d="M434 1024l35 -772q4 -57 25.5 -81t50.5 -28l454 881h162l-514 -1004q-51 -98 -100 -166.5t-113.5 -123t-152.5 -101.5t-215 -100q-2 37 -1 74t-2 73q94 43 157 76t108 67t77.5 76t67.5 105q-55 18 -98 71.5t-47 129.5l-41 823h147zM500 1440h147l-43 -185h-147zM909 1440 h150l-43 -185h-150z" />
<glyph unicode="&#x152;" horiz-adv-x="1933" d="M954 -2q-31 -4 -70.5 -7t-79.5 -5l-78 -4q-38 -2 -67 -2q-164 0 -259 46t-134 137t-30.5 227t49.5 317q43 186 100 324t141 230.5t199 138.5t272 46q29 0 67 -1t78 -4t76.5 -7t63.5 -9h848l-35 -151h-692l-109 -469h570l-35 -152h-569l-115 -501h692l-37 -154h-846z M715 133q16 0 51 1t75 3t78.5 5t67.5 5l260 1127l-64 5l-77 6q-39 3 -74 5t-53 2q-121 0 -205 -33.5t-144.5 -105.5t-103.5 -182.5t-77 -261.5q-35 -150 -44.5 -258.5t18.5 -179t97.5 -104.5t194.5 -34z" />
<glyph unicode="&#x153;" horiz-adv-x="1794" d="M1292 119q57 0 124 2t124 6q68 4 131 10l-24 -125l-142 -16q-59 -6 -130.5 -11t-133.5 -5q-129 0 -198.5 43t-96.5 127q-63 -88 -156.5 -129t-234.5 -41q-129 0 -207 32.5t-111.5 100t-30.5 170t36 243.5q31 131 77 229.5t112.5 162t157.5 95t212 31.5q135 0 214 -46 t101 -146q78 104 177.5 148t215.5 44q203 0 281 -113.5t20 -365.5l-34 -119h-678q-18 -80 -18.5 -141t22 -103t68.5 -62.5t122 -20.5zM588 117q90 0 150.5 25.5t102.5 75.5t68.5 126t48.5 178q47 205 3.5 294t-191.5 89q-82 0 -141.5 -19.5t-102.5 -64.5t-72.5 -117.5 t-54.5 -177.5q-25 -109 -32 -185.5t11.5 -126.5t69 -73.5t140.5 -23.5zM1659 571q43 184 -2 260t-178 76t-222.5 -78.5t-130.5 -257.5h533z" />
<glyph unicode="&#x178;" horiz-adv-x="1130" d="M647 0h-158l142 612l-264 813h176l205 -639l495 639h176l-633 -815zM707 1864h149l-43 -185h-149zM1130 1864h148l-43 -185h-148z" />
<glyph unicode="&#x2c6;" horiz-adv-x="483" d="M553 1516h123l188 -304h-157l-107 172l-190 -172h-183z" />
<glyph unicode="&#x2dc;" horiz-adv-x="483" d="M909 1358q-33 -31 -69 -53q-31 -20 -67 -36t-66 -16q-35 0 -73 16.5t-76 35.5l-72 34q-34 16 -58 17q-18 0 -47 -14.5t-57 -30.5l-68 -43l-8 116q39 31 76 56q33 20 68.5 37.5t68.5 17.5q37 0 77 -15.5t76.5 -35t69.5 -34.5t55 -15q16 0 43 12t54 29l65 41z" />
<glyph unicode="&#x2000;" horiz-adv-x="972" />
<glyph unicode="&#x2001;" horiz-adv-x="1945" />
<glyph unicode="&#x2002;" horiz-adv-x="972" />
<glyph unicode="&#x2003;" horiz-adv-x="1945" />
<glyph unicode="&#x2004;" horiz-adv-x="647" />
<glyph unicode="&#x2005;" horiz-adv-x="485" />
<glyph unicode="&#x2006;" horiz-adv-x="323" />
<glyph unicode="&#x2007;" horiz-adv-x="323" />
<glyph unicode="&#x2008;" horiz-adv-x="241" />
<glyph unicode="&#x2009;" horiz-adv-x="389" />
<glyph unicode="&#x200a;" horiz-adv-x="106" />
<glyph unicode="&#x2010;" horiz-adv-x="901" d="M281 651h639l-35 -151h-639z" />
<glyph unicode="&#x2011;" horiz-adv-x="901" d="M281 651h639l-35 -151h-639z" />
<glyph unicode="&#x2012;" horiz-adv-x="901" d="M281 651h639l-35 -151h-639z" />
<glyph unicode="&#x2013;" horiz-adv-x="1024" d="M1167 627l-32 -144h-1024l32 144h1024z" />
<glyph unicode="&#x2014;" horiz-adv-x="2048" d="M2191 627l-32 -144h-2048l32 144h2048z" />
<glyph unicode="&#x2018;" horiz-adv-x="348" d="M426 1040h-158l209 449h139z" />
<glyph unicode="&#x2019;" horiz-adv-x="348" d="M512 1528h158l-211 -449h-140z" />
<glyph unicode="&#x201a;" horiz-adv-x="393" d="M164 -211h-158l209 449h139z" />
<glyph unicode="&#x201c;" horiz-adv-x="780" d="M838 1036h-158l211 449h139zM518 1036h-158l211 449h140z" />
<glyph unicode="&#x201d;" horiz-adv-x="792" d="M571 1485h158l-211 -449h-139zM891 1485h158l-211 -449h-140z" />
<glyph unicode="&#x201e;" horiz-adv-x="749" d="M528 -211h-157l209 449h139zM164 -211h-158l209 449h139z" />
<glyph unicode="&#x2022;" d="M475 803h504l-135 -586h-504z" />
<glyph unicode="&#x2026;" horiz-adv-x="1523" d="M229 233h166l-53 -233h-166zM750 233h168l-54 -233h-168zM1272 233h166l-54 -233h-165z" />
<glyph unicode="&#x202f;" horiz-adv-x="389" />
<glyph unicode="&#x2039;" horiz-adv-x="636" d="M352 512l205 -215l-37 -160l-315 309l28 123l455 293l-37 -157z" />
<glyph unicode="&#x203a;" horiz-adv-x="636" d="M311 713l37 157l320 -292l-29 -123l-459 -310l37 160l305 215z" />
<glyph unicode="&#x205f;" horiz-adv-x="485" />
<glyph unicode="&#x20ac;" horiz-adv-x="1136" d="M397 903q39 121 91.5 211t124 149.5t168 89t227.5 29.5q70 0 134 -6t113 -14q57 -8 107 -19l-39 -141l-113 12l-108 10q-59 5 -113 5q-94 0 -161.5 -19.5t-118 -60.5t-85 -102.5t-63.5 -143.5l553 -2l-29 -125h-563l-45 -192l563 -2l-28 -125h-553q-10 -84 -3 -144.5 t39.5 -100.5t92 -59.5t153.5 -19.5q47 0 106.5 4t113.5 10q61 6 122 15l-26 -144q-59 -12 -125 -20q-55 -8 -122 -13t-126 -5q-133 0 -216 29.5t-127 89t-53 148.5t7 210h-129l29 127h120q4 23 9.5 46l11.5 48t11 49.5t13 48.5h-120l28 127h129z" />
<glyph unicode="&#x2122;" d="M311 1290h410l-25 -102h-135l-117 -508h-112l117 508h-162zM784 1290h146l39 -426l241 426h146l-142 -612h-106l106 459l-235 -428h-88l-35 428l-106 -459h-107z" />
<glyph unicode="&#xe000;" horiz-adv-x="1025" d="M0 1025h1025v-1025h-1025v1025z" />
<glyph unicode="&#xfb01;" horiz-adv-x="1167" d="M1085 1024h152l-236 -1024h-151zM1180 1434h151l-41 -179h-151zM389 889h-125l31 135h125l20 92q25 102 56.5 174t75.5 116t101.5 63.5t129.5 19.5q27 0 58.5 -2t60.5 -6q33 -4 67 -6l-31 -132q-29 0 -55 3q-25 2 -52.5 3t-49.5 1q-86 0 -131 -53.5t-76 -182.5l-19 -90 h293l-30 -135h-295l-201 -883q-23 -94 -52.5 -160.5t-77.5 -119t-123 -98.5t-185 -99l-37 129q86 45 140 80t89 72.5t54.5 85t35.5 116.5z" />
<glyph unicode="&#xfb02;" horiz-adv-x="1179" d="M1194 1470h152l-338 -1470h-152zM389 889h-125l31 135h125l20 92q25 102 56.5 174t75.5 116t101.5 63.5t129.5 19.5q27 0 58.5 -2t60.5 -6q33 -4 67 -6l-31 -132q-29 0 -55 3q-25 2 -52.5 3t-49.5 1q-86 0 -131 -53.5t-76 -182.5l-19 -90h293l-30 -135h-295l-201 -883 q-23 -94 -52.5 -160.5t-77.5 -119t-123 -98.5t-185 -99l-37 129q86 45 140 80t89 72.5t54.5 85t35.5 116.5z" />
<glyph unicode="&#xfb03;" horiz-adv-x="1851" d="M1769 1024h152l-236 -1024h-151zM1864 1434h151l-41 -179h-151zM1073 889h-125l31 135h125l20 92q25 102 56.5 174t75.5 116t101.5 63.5t129.5 19.5q27 0 58.5 -2t60.5 -6q33 -4 67 -6l-31 -132q-29 0 -55 3q-25 2 -52.5 3t-49.5 1q-86 0 -131 -53.5t-76 -182.5l-19 -90 h293l-30 -135h-295l-201 -883q-23 -94 -52.5 -160.5t-77.5 -119t-123 -98.5t-185 -99l-37 129q86 45 140 80t89 72.5t54.5 85t35.5 116.5zM389 889h-125l31 135h125l20 92q25 102 56.5 174t75.5 116t101.5 63.5t129.5 19.5q27 0 58.5 -2t60.5 -6q33 -4 67 -6l-31 -132 q-29 0 -55 3q-25 2 -52.5 3t-49.5 1q-86 0 -131 -53.5t-76 -182.5l-19 -90h293l-30 -135h-295l-201 -883q-23 -94 -52.5 -160.5t-77.5 -119t-123 -98.5t-185 -99l-37 129q86 45 140 80t89 72.5t54.5 85t35.5 116.5z" />
<glyph unicode="&#xfb04;" horiz-adv-x="1863" d="M1878 1470h152l-338 -1470h-152zM1073 889h-125l31 135h125l20 92q25 102 56.5 174t75.5 116t101.5 63.5t129.5 19.5q27 0 58.5 -2t60.5 -6q33 -4 67 -6l-31 -132q-29 0 -55 3q-25 2 -52.5 3t-49.5 1q-86 0 -131 -53.5t-76 -182.5l-19 -90h293l-30 -135h-295l-201 -883 q-23 -94 -52.5 -160.5t-77.5 -119t-123 -98.5t-185 -99l-37 129q86 45 140 80t89 72.5t54.5 85t35.5 116.5zM389 889h-125l31 135h125l20 92q25 102 56.5 174t75.5 116t101.5 63.5t129.5 19.5q27 0 58.5 -2t60.5 -6q33 -4 67 -6l-31 -132q-29 0 -55 3q-25 2 -52.5 3t-49.5 1 q-86 0 -131 -53.5t-76 -182.5l-19 -90h293l-30 -135h-295l-201 -883q-23 -94 -52.5 -160.5t-77.5 -119t-123 -98.5t-185 -99l-37 129q86 45 140 80t89 72.5t54.5 85t35.5 116.5z" />
</font>
</defs>
</svg>
