<?xml version="1.0" standalone="no"?>
<!DOCTYPE svg PUBLIC "-//W3C//DTD SVG 1.1//EN" "http://www.w3.org/Graphics/SVG/1.1/DTD/svg11.dtd" >
<svg xmlns="http://www.w3.org/2000/svg">
<metadata>
This is a custom SVG webfont generated by Font Squirrel.
Copyright   : Copyright c Mark Simonson 20092010 All rights reserved
Designer    : Mark Simonson
Foundry URL : httpwwwmsstudiocom
</metadata>
<defs>
<font id="webfonta1j7ljaH" horiz-adv-x="1116" >
<font-face units-per-em="2048" ascent="1675" descent="-373" />
<missing-glyph horiz-adv-x="500" />
<glyph unicode=" " />
<glyph unicode="!" d="M274 0l39 186h187l-39 -186h-187zM403 367l148 938h184l-250 -938h-82z" />
<glyph unicode="&#x22;" d="M309 840l56 465h186l-141 -465h-101zM682 840l55 465h187l-140 -465h-102z" />
<glyph unicode="#" d="M-51 221l22 111h222l59 264h-221l20 109h221l50 229h116l-49 -229h256l49 229h117l-49 -229h221l-22 -109h-222l-57 -264h221l-22 -111h-222l-47 -221h-116l47 221h-256l-47 -221h-117l47 221h-221zM309 332h256l58 264h-256z" />
<glyph unicode="$" d="M-27 342l136 33q4 -104 51 -176q49 -72 159 -95l113 527q-82 33 -135 63q-66 39 -96 74q-37 43 -49 98q-12 59 4 127q12 63 49 119q39 57 92 102q55 47 125 74q78 31 158 39l34 164h138l-35 -164q72 -8 131 -45q53 -33 90 -82q39 -51 53 -108q16 -59 6 -121l-147 -25 q6 88 -31 162q-35 70 -129 92l-100 -471q168 -68 241 -154q72 -84 41 -235q-14 -61 -53 -127t-94 -109q-59 -47 -131 -79q-68 -31 -162 -41l-37 -170h-137l37 170q-82 8 -145 41q-59 29 -103 79q-39 43 -57 109q-19 63 -17 129zM297 995q-15 -77 31 -129q43 -49 135 -90 l90 426q-61 -10 -102 -28q-39 -18 -76 -52q-39 -35 -53 -61q-19 -35 -25 -66zM457 104q121 18 182 80t82 144q15 86 -25 147q-39 59 -137 107z" />
<glyph unicode="%" d="M-90 33l1114 1302l78 -63l-1110 -1299zM106 977q-10 47 3 96q8 49 41 98q35 53 69.5 82t89.5 54q47 20 103 20q53 0 94 -20q45 -23 69 -54q27 -33 37.5 -82t-2.5 -98q-8 -51 -39 -96q-33 -49 -71 -80q-41 -33 -94 -55q-47 -20 -101 -21q-51 0 -92 20.5t-70 55.5 q-28 34 -37 80zM209 1073q-14 -61 20.5 -106t96 -45t116.5 45q49 41 66 106q12 66 -20.5 109t-96.5 43q-65 0 -117 -43q-53 -43 -65 -109zM403 229q12 52 43 99q29 43 70 77.5t90 53.5q55 20 102.5 20t94.5 -20q41 -16 69 -53q27 -33 39 -78q10 -43 -2 -99q-8 -49 -41 -98 q-29 -45 -71 -80q-47 -39 -92 -55q-53 -18 -102.5 -18.5t-92.5 18.5q-41 16 -70 53q-28 34 -37 80q-10 47 0 100zM506 229q-12 -63 22 -106q35 -45 96.5 -45t116.5 45q53 45 66 106q14 61 -21 107q-34 43 -98 43q-61 0 -114.5 -43.5t-67.5 -106.5z" />
<glyph unicode="&#x26;" d="M-53 193q-16 72 0 141q16 66 39 115q23 47 57 96q27 37 70 73q53 45 82 64q-41 68 -62 154q-18 76 -2 155q34 154 141 246q104 90 258 90q70 0 123.5 -20.5t91.5 -59.5q35 -35 48 -92q14 -61 0 -123q-20 -82 -60 -133q-39 -49 -98 -96q-59 -45 -123 -78q-74 -37 -131 -70 l287 -338q59 63 106 138q49 78 80 143l123 -33q-37 -88 -96 -174q-57 -86 -133 -164l126 -147l-116 -107l-125 154q-94 -68 -187 -109q-94 -41 -204 -41q-78 0 -138 27q-61 29 -102 78q-41 52 -55 111zM94 334q-20 -94 29 -159.5t147 -65.5q78 0 152 30q78 33 137 78 l-272 336l-25 29q-66 -49 -104 -103q-46 -61 -64 -145zM266 885q6 -59 47 -135l113 59q59 29 102 61q51 37 80 72q33 39 43 94q18 76 -26 123q-43 45 -121 45q-43 0 -80 -18q-45 -23 -70 -47q-33 -33 -51 -68q-14 -27 -31 -80q-12 -57 -6 -106z" />
<glyph unicode="'" d="M492 836l59 469h186l-143 -469h-102z" />
<glyph unicode="(" d="M182 299q-2 125 27 268q25 125 88 267q61 139 139 251q86 123 187 228q102 106 231 190l51 -90q-106 -74 -205 -172q-100 -100 -170 -205q-72 -109 -124 -229q-57 -133 -80 -240q-25 -123 -25 -241q0 -117 29 -228q25 -98 82 -204q49 -94 133 -175l-90 -90 q-82 78 -148 191q-61 108 -92 227q-29 115 -33 252z" />
<glyph unicode=")" d="M70 -281q115 80 206 172q86 86 170 207q80 117 129 228q51 115 76 239q27 115 27 242q0 111 -33 229q-33 115 -84 205q-57 98 -131 172l92 90q82 -78 148 -190q66 -115 94 -228q33 -127 33 -253.5t-29 -266.5q-27 -133 -86 -266q-61 -139 -139 -252q-80 -117 -189 -227 q-102 -106 -231 -191z" />
<glyph unicode="*" d="M-4 279l383 190l-303 182l76 97l288 -205l68 391h117l-97 -391l375 205l35 -97l-381 -182l301 -190l-76 -95l-288 203l-68 -387h-117l97 387l-375 -203z" />
<glyph unicode="+" d="M-10 420l26 117h408l86 407h117l-86 -407h407l-26 -117h-408l-86 -408h-117l86 408h-407z" />
<glyph unicode="," d="M23 -373l305 559h184l-393 -559h-96z" />
<glyph unicode="-" d="M-10 420l26 117h932l-26 -117h-932z" />
<glyph unicode="." d="M274 0l39 186h187l-39 -186h-187z" />
<glyph unicode="/" d="M-98 -188l1093 1542l88 -51l-1093 -1543z" />
<glyph unicode="0" d="M-20 397q0 127 26 254q25 117 82 252q51 119 133 217q80 94 187 150q111 57 241 57q133 0 219 -57q84 -55 123 -150q41 -98 41 -217q0 -125 -26 -252q-25 -121 -82 -254q-53 -125 -131 -215q-86 -98 -185 -149q-108 -55 -246 -55.5t-221 55.5q-78 53 -121 149 q-40 94 -40 215zM121 379l747 645q-27 88 -88 137t-155 49q-176 0 -301 -149.5t-181 -409.5q-30 -149 -22 -272zM143 268q61 -176 244 -176q174 0 299 150q127 154 182 409q16 66 21 137q3 65 0 123z" />
<glyph unicode="1" d="M59 745l31 142q57 0 139 39q72 35 150 96q68 53 127 133q53 72 69 150h138l-252 -1188h211l-25 -117h-559l25 117h211l188 891q-33 -49 -76 -88t-110 -84q-61 -41 -131 -66q-68 -25 -136 -25z" />
<glyph unicode="2" d="M-59 0l24 121l619 516q72 59 92 78q43 40 80 80q39 41 61 82q27 45 35 90q25 123 -41 182q-68 61 -184 61q-162 0 -266.5 -92t-141.5 -262h-127q45 219 191 346q143 125 368 125q83 0 154 -24q68 -23 117 -70t67 -113q18 -68 0 -153q-12 -51 -30.5 -96.5t-53.5 -88.5 q-31 -39 -84 -92q-47 -47 -125 -112l-551 -461h551l54 256h116l-78 -373h-847z" />
<glyph unicode="3" d="M8 379l137 18q-20 -150 58 -227q76 -76 213 -76q61 0 116 19q53 18 102.5 57t80.5 84q33 47 45 106q16 86 2 132q-16 53 -55 77q-47 31 -111 39q-76 10 -162 10l25 117q70 0 133 13q76 14 121 36q63 31 98 70q37 39 53 113q23 111 -35 176q-59 68 -176 67 q-143 0 -249.5 -77.5t-139.5 -239.5h-129q20 96 73.5 182t119.5 137q70 53 161 86q84 29 189 29q84 0 151.5 -24.5t112.5 -69.5q47 -47 62 -113q16 -70 -3 -153q-25 -113 -106 -185q-83 -74 -209 -92q72 -10 115 -39q49 -33 71 -76q25 -47 31 -100t-6 -115q-18 -88 -68 -157 q-43 -63 -120 -119q-74 -53 -152 -80q-80 -27 -166 -27q-95 0 -172 25q-68 20 -127 78q-53 49 -74 125q-22 80 -10 174z" />
<glyph unicode="4" d="M-20 373l26 119l719 813h174l-172 -813h211l-27 -119h-211l-53 -256h211l-24 -117h-560l25 117h211l53 256h-583zM152 492h438l137 651z" />
<glyph unicode="5" d="M-12 387l137 21q-8 -66 4 -127q12 -57 47 -99q37 -43 84 -65.5t121 -22.5q84 0 149 27q68 28 123 74q47 39 90 110q35 57 52 133q14 74 6 137q-8 61 -43 109q-33 43 -92 74q-53 27 -131 26.5t-160 -34.5q-88 -37 -150 -97h-137l139 652h817l-24 -117h-680l-88 -408 q72 59 156 90t163 31q102 0 177 -33q78 -35 126 -92q47 -57 64 -145q14 -86 -6 -193q-23 -98 -74 -180q-55 -90 -129 -147q-77 -61 -172 -99q-90 -35 -201 -35q-96 0 -167.5 27t-123 82t-71.5 127q-20 76 -6 174z" />
<glyph unicode="6" d="M2 397q0 117 29 254q29 133 88 254q61 123 149 217q86 92 205 150q113 55 254 55q194 0 295 -135l-107 -80q-68 98 -213 98q-100 0 -192 -41q-90 -41 -158 -110q-68 -71 -117 -172.5t-73 -220.5q23 49 74 96q45 43 106 78q57 33 121 51q72 20 123 20q100 0 182 -34 q76 -33 127 -97q47 -59 63 -147q16 -90 -4 -189q-25 -106 -77 -194q-49 -82 -129 -146q-74 -59 -173 -94q-92 -33 -194 -33q-138 0 -221 56q-80 53 -119 149t-39 215zM137 317.5q6 -61.5 39 -114.5t86 -80q57 -29 144 -29q72 0 139 25q70 25 123 69q59 49 94 111 q37 63 55 145q14 74 6 138q-10 70 -41 112q-35 47 -88 74t-133 27q-78 0 -145 -25q-66 -25 -121 -70q-57 -47 -92 -106q-37 -59 -56 -137q-16 -78 -10 -139.5z" />
<glyph unicode="7" d="M147 932l80 373h871l-27 -121q-141 -125 -250 -262q-104 -133 -171.5 -268.5t-119.5 -301.5q-53 -172 -90 -352h-143q45 203 90 342q51 160 127 309q70 137 180 279q106 135 248 258h-623l-55 -256h-117z" />
<glyph unicode="8" d="M-29 193q-20 72 0 174q14 57 41 106q31 55 78 102q43 43 105 76q55 29 124 39q-55 6 -89.5 35t-57 72t-29.5 86q-6 49 2 90q23 94 68 155q47 66 119 109q82 49 151 68q86 23 166 22.5t158 -22.5q68 -20 123 -68q51 -45 71 -109q20 -68 0 -155q-10 -49 -34 -90 q-27 -43 -66 -86q-37 -39 -88 -72q-45 -29 -106 -35q61 -10 106 -39q47 -31 74 -76q25 -41 35 -102q8 -55 0 -106q-20 -98 -74 -174q-49 -68 -127 -121q-76 -49 -168 -72q-96 -23 -191 -23q-98 0 -182 23q-78 20 -135 72q-51 47 -74 121zM109 367q-18 -70 0 -121 q16 -47 59 -84q45 -37 94 -51q59 -16 125 -17q63 0 133 17q57 14 119 51q53 33 90 84q41 59 55 121q16 74 -2 122q-20 53 -57 82q-39 29 -98 45q-55 14 -125 15q-72 0 -131 -15q-61 -14 -117 -45q-53 -29 -92 -82q-37 -48 -53 -122zM283 973q-20 -104 39 -164 q61 -61 204 -61q145 0 231.5 61t106.5 164q25 111 -38.5 174t-201 63t-227 -63t-114.5 -174z" />
<glyph unicode="9" d="M-8 113l106 80q33 -49 90 -74q55 -25 123 -25q109 0 195 39q84 37 156 113q68 71 116 172q47 98 76 221q-27 -49 -76 -96q-45 -43 -106.5 -78t-122.5 -53q-66 -18 -121 -19q-100 0 -180 35q-78 35 -127 96q-51 63 -66 148q-16 86 6 188q20 106 78 195q59 90 129 147 q72 57 170 92q92 33 195 33q135 0 221 -57q84 -57 121 -150q37 -95 37 -215q0 -115 -29 -252t-88 -255.5t-150 -215.5q-88 -94 -204.5 -149.5t-253.5 -55.5q-194 1 -295 136zM193 721q8 -63 40 -111q31 -46 86 -73q53 -27 134 -27q76 0 145.5 24.5t124.5 67.5q49 39 90 107 q39 63 53 139q16 68 11 139q-6 63 -39 117q-31 49 -88.5 77.5t-141.5 28.5q-72 0 -139 -24q-70 -25 -123 -70q-49 -41 -92 -110q-39 -63 -55 -146q-16 -65 -6 -139z" />
<glyph unicode=":" d="M274 0l39 186h187l-39 -186h-187zM432 745l39 187h186l-39 -187h-186z" />
<glyph unicode=";" d="M61 -373l306 559h184l-393 -559h-97zM432 745l39 187h186l-39 -187h-186z" />
<glyph unicode="&#x3c;" d="M201 477l622 512l60 -80l-525 -432l342 -432l-96 -80z" />
<glyph unicode="=" d="M-57 199l26 116h932l-27 -116h-931zM37 641l24 117h932l-24 -117h-932z" />
<glyph unicode="&#x3e;" d="M55 45l523 432l-340 432l96 80l401 -512l-620 -512z" />
<glyph unicode="?" d="M274 0l39 186h187l-39 -186h-187zM274 965q55 168 172 266q115 96 293 96q166 0 242 -86q76 -84 47 -219q-18 -78 -59 -137q-35 -49 -95 -107q-49 -47 -114 -92q-61 -43 -112.5 -88t-92.5 -102q-40 -55 -55 -123h-146q20 82 60 139q45 63 98 115q74 70 115 100 q82 61 116 92q49 43 93 96q41 51 53 107q18 86 -27 137t-145 51q-66 0 -115 -20.5t-90 -54.5q-39 -33 -70 -82q-31 -51 -49 -107z" />
<glyph unicode="@" d="M-18.5 479q6.5 88 24.5 172q18 86 49 174q27 74 72 158q41 78 92 139q45 55 119 109q59 43 143 69.5t168 26.5q137 0 219 -55q86 -57 125 -148q41 -92 43 -204q2 -111 -22 -236q-12 -55 -41 -137q-25 -70 -66 -127q-40 -55 -92 -92q-53 -37 -119 -37q-27 0 -53 10 q-23 8 -43 29q-14 14 -22.5 45t-2.5 57l7 29q-41 -80 -95 -123q-59 -47 -118 -47q-66 0 -105 28q-37 29 -53 78q-16 55 -14 109q4 72 16 125q16 78 45 141.5t78 118.5q47 55 100 82q59 31 125 31q39 0 70 -17q33 -18 51 -55l12 53h131l-112 -524q-6 -33 2 -47.5t33 -14.5 q29 0 53 27q29 31 47 70q22 43 37 92q20 66 26 96q14 59 21 137q6 70 0 131q-6 63 -27 113q-25 57 -55 92q-35 39 -90 60q-53 20 -129 20q-117 0 -199 -47q-88 -51 -151 -129q-59 -74 -105 -187q-43 -109 -67 -223q-23 -109 -27 -221q-2 -100 27 -186q29 -80 94 -129 q66 -47 180 -47q78 0 152 28q68 27 135 78l45 -68q-154 -129 -353 -129q-92 0 -159 25q-63 23 -112.5 72t-72.5 108q-27 68 -34 140q-9 69 -2.5 157zM342 469q14 -55 70 -55q37 0 71 22q39 25 64 58q29 39 49 81q22 46 31 93l28 141q-12 49 -39 68q-31 20 -65.5 20 t-69.5 -23q-33 -20 -59 -61q-29 -43 -45 -84q-20 -49 -29 -96q-22 -109 -6 -164z" />
<glyph unicode="A" d="M-158 0l711 1305h186l158 -1305h-147l-45 373h-517l-198 -373h-148zM254 494h438l-76 673z" />
<glyph unicode="B" d="M-49 0l276 1305h394q80 0 157 -13q72 -12 131 -51q55 -37 80 -102q13 -33 13 -78q0 -41 -11 -94q-43 -203 -262 -277q190 -62 190 -234q0 -39 -10 -83q-41 -188 -180 -281q-141 -92 -362 -92h-416zM113 117h278q152 0 254 65q98 63 127 191q8 38 8 69q0 83 -53 127 q-74 61 -227 62h-279zM246 745h256q63 0 112 9q57 10 105 32q45 23 84 68q35 41 51 113q6 26 6 49q0 35 -12 63q-18 43 -60 68q-39 25 -90 33q-47 8 -102 8h-256z" />
<glyph unicode="C" d="M-8 397q0 127 26 254q25 117 82 252q51 119 133 217q80 94 187 150q111 57 244 57q120 0 196 -43q80 -45 101 -131l32 152h117l-92 -428h-117q9 35 10 70q0 31 -8 61q-14 59 -49 106q-33 43 -90 70q-59 27 -125 26q-102 0 -186 -51q-80 -49 -140 -131q-58 -80 -98 -178 q-35 -84 -59 -199q-20 -98 -25 -198v-24q0 -86 21 -155q25 -78 84 -129q61 -51 165 -51q244 0 404 295l108 -47q-86 -168 -223 -266q-138 -98 -313 -99q-135 0 -219 56q-84 57 -125 149q-41 94 -41 215z" />
<glyph unicode="D" d="M-49 0l276 1305h424q133 0 217 -53.5t125 -143.5q43 -94 45 -209q0 -12 1 -23q0 -105 -25 -225q-27 -129 -80 -250q-51 -117 -133 -208q-80 -89 -185 -142q-102 -51 -241 -51h-424zM113 117h286q170 0 297 139q125 135 181 395q26 119 25 211q0 109 -36 185 q-68 141 -239 141h-287z" />
<glyph unicode="E" d="M-49 0l276 1305h834l-25 -117h-696l-100 -467h514l-25 -117h-514l-102 -487h696l-25 -117h-833z" />
<glyph unicode="F" d="M-49 0l276 1305h834l-25 -117h-696l-100 -467h514l-25 -117h-514l-127 -604h-137z" />
<glyph unicode="G" d="M-8 397q0 127 26 254q25 117 82 252q51 119 133 217q80 94 187 150q111 57 244 57q120 0 196 -43q80 -45 101 -131l32 152h117l-92 -428h-117q10 38 10 75q0 29 -6 58q-12 57 -51 104q-41 47 -90 70q-59 27 -125 26q-102 0 -186 -51q-80 -49 -140 -131q-58 -80 -98 -178 q-35 -84 -59 -199q-20 -98 -25 -198v-24q0 -86 21 -155q25 -78 84 -129q61 -51 165 -51q162 0 277 121t180 344h-289l25 117h434l-6 -27q-27 -127 -82 -254q-53 -123 -133 -215t-189 -147q-106 -55 -241 -55.5t-219 55.5q-84 57 -125 149q-41 94 -41 215z" />
<glyph unicode="H" d="M-49 0l276 1305h138l-125 -584h559l125 584h137l-277 -1305h-137l127 604h-559l-127 -604h-137z" />
<glyph unicode="I" d="M88 0l25 117h211l227 1071h-211l25 117h559l-25 -117h-211l-227 -1071h211l-25 -117h-559z" />
<glyph unicode="J" d="M-29 342l129 45q9 -163 80 -227q72 -66 195 -66q92 0 157 37q68 39 109 94.5t70 128.5q23 55 41 144l172 807h137l-172 -807q-53 -252 -187 -385q-135 -135 -352 -136q-176 0 -272.5 90.5t-106.5 274.5z" />
<glyph unicode="K" d="M-49 0l276 1305h138l-136 -635l695 635h180l-633 -570l356 -735h-168l-299 639l-170 -154l-102 -485h-137z" />
<glyph unicode="L" d="M-49 0l276 1305h138l-252 -1188h696l-25 -117h-833z" />
<glyph unicode="M" d="M-49 0l276 1305h179l92 -682l385 682h178l-277 -1305h-137l230 1087l-375 -673h-99l-86 673l-229 -1087h-137z" />
<glyph unicode="N" d="M-49 0l276 1305h193l280 -1053l224 1053h137l-277 -1305h-170l-292 1104l-234 -1104h-137z" />
<glyph unicode="O" d="M-20 397q0 127 26.5 254t79.5 252q51 119 133 217q78 92 188.5 149.5t241.5 57.5q133 0 219 -57q84 -55 123 -150q37 -90 41 -217v-21q0 -103 -26 -231q-25 -121 -82 -254q-53 -125 -131 -215q-86 -98 -185 -149q-108 -55 -246 -55.5t-221 55.5q-78 53 -121 149 q-40 94 -40 215zM119 453q-1 -17 -1 -34q0 -75 21 -145q25 -78 84 -129q61 -51 164 -51q104 0 188 51q78 47 138 129q66 88 98 179q33 88 57 198q25 116 25 211v21q-4 106 -33 178q-29 68 -90 110q-57 39 -145 39q-102 0 -187 -51q-80 -49 -139 -131q-61 -82 -96 -178 q-39 -102 -60 -199q-16 -77 -24 -198z" />
<glyph unicode="P" d="M-49 0l276 1305h430q215 0 314 -93q69 -65 69 -178q0 -47 -12 -102q-39 -190 -176 -281q-138 -92 -350 -92h-295l-119 -559h-137zM231 676h295q141 0 239.5 61.5t125.5 194.5q8 38 8 70q0 82 -51 126q-68 59 -213 60h-295z" />
<glyph unicode="Q" d="M-20 406q0 106 26 245q27 127 80 252q51 119 133 217q78 92 188.5 149.5t241.5 57.5q133 0 219 -57q84 -55 123 -150q37 -90 41 -217v-21q0 -103 -26 -231q-31 -139 -74 -241q-45 -104 -121 -205q-70 -92 -168 -152q-96 -59 -217 -71q-1 -12 -1 -24q0 -112 54 -161 q57 -51 193 -51h59q16 0 49 4l-26 -117q-37 -4 -56 -4h-51q-205 0 -291 86q-71 71 -70 208q0 29 3 61q-115 16 -178 71q-68 58 -99 148q-32 94 -32 203zM143 651q-26 -124 -26 -222q0 -110 33 -187q61 -147 237 -148q174 0 299 148q127 150 182 409q20 98 25 199v30 q0 87 -19 148q-25 82 -86 131q-63 51 -163 51q-102 0 -187 -51q-80 -49 -139 -131q-61 -82 -96 -178q-40 -103 -60 -199z" />
<glyph unicode="R" d="M-49 0l276 1305h430q215 0 314 -93q69 -65 69 -178q0 -47 -12 -102q-14 -80 -59 -148q-41 -63 -103 -110q-63 -49 -135 -76q-74 -27 -160 -33l275 -565h-174l-262 559h-203l-119 -559h-137zM231 676h293q144 0 240 61t123 195q8 39 8 72q0 80 -49 122q-72 61 -213 62 h-293z" />
<glyph unicode="S" d="M-74 0l84 397h117q-7 -29 -7 -56q0 -35 11 -67q18 -55 59 -96t97 -61q61 -23 123 -23q55 0 110 17q51 14 96 47q43 31 74 73.5t43 100.5q7 28 7 51q0 30 -11 57q-18 45 -57 76q-47 35 -94 55l-109 45q-104 39 -131 52q-66 29 -113 69q-49 43 -69 103q-11 31 -11 71 q0 36 9 80q18 78 65 142q49 66 111 106q68 45 141 66q80 23 156 22q94 0 166 -39q76 -41 102 -119l29 136h120l-79 -373h-121q5 25 5 50q0 30 -7 60q-12 49 -47 88q-33 37 -82 58q-51 23 -111 22q-53 0 -102 -12q-51 -12 -92 -39q-47 -31 -74 -67q-31 -43 -43 -101 q-3 -19 -4 -35q0 -30 12 -53q18 -35 55 -63q39 -29 88 -49l107 -46q12 -4 133 -59q70 -31 117 -76q45 -43 71 -110q13 -33 13 -75q0 -38 -11 -85q-18 -82 -65 -147q-45 -63 -117 -115q-74 -53 -145 -76q-80 -25 -160 -25q-106 0 -192 41q-84 41 -121 121l-29 -139h-117z" />
<glyph unicode="T" d="M84 864l94 441h932l-94 -441h-117l70 324h-281l-227 -1071h211l-25 -117h-559l25 117h211l227 1071h-281l-69 -324h-117z" />
<glyph unicode="U" d="M31 264q-1 18 -2 38q0 77 20 165l178 838h138l-179 -840q-14 -63 -16 -125v-16q0 -54 16 -105t66 -90q43 -35 133 -35t151.5 35t104.5 90t68 121q25 61 36 125l179 840h137l-178 -840q-25 -113 -68 -201t-108 -153q-63 -63 -151.5 -98.5t-195 -35.5t-180.5 35 q-70 33 -106.5 98.5t-42.5 153.5z" />
<glyph unicode="V" d="M119 1305h145l133 -1166l627 1166h150l-713 -1305h-187z" />
<glyph unicode="W" d="M72 0l43 1305h145l-43 -1074l279 701h135l-17 -701l412 1074h148l-512 -1305h-162l2 637l-271 -637h-159z" />
<glyph unicode="X" d="M-121 0l25 117h127l397 540l-166 531h-108l24 117h373l-25 -117h-108l112 -418l287 418h-104l24 117h373l-25 -117h-112l-385 -531l166 -540h127l-25 -117h-371l25 117h88l-115 428l-297 -428h88l-24 -117h-371z" />
<glyph unicode="Y" d="M88 0l25 117h211l94 446l-178 625h-107l25 117h368l-24 -117h-109l123 -492l330 492h-109l25 117h368l-24 -117h-107l-444 -625l-94 -446h211l-25 -117h-559z" />
<glyph unicode="Z" d="M-49 0l24 117l883 1071h-539l-67 -320h-117l92 437h817l-24 -117l-877 -1071h553l68 325h117l-93 -442h-837z" />
<glyph unicode="[" d="M195 -373l395 1864h373l-23 -111h-262l-348 -1640h262l-25 -113h-372z" />
<glyph unicode="\" d="M311 1303l109 51l438 -1542l-108 -52z" />
<glyph unicode="]" d="M8 -373l25 113h262l348 1640h-262l22 111h373l-395 -1864h-373z" />
<glyph unicode="^" d="M23 559l532 746h184l215 -746h-151l-185 612l-444 -612h-151z" />
<glyph unicode="_" d="M-137 -186l24 110h932l-24 -110h-932z" />
<glyph unicode="`" d="M397 1255l88 109l344 -287l-53 -65z" />
<glyph unicode="a" d="M-47 252q18 89 74 147q57 59 137 94t174 50q102 16 192 16q12 0 35 -1t31 -1q37 0 55 -2q8 0 26.5 -1t27.5 -3q12 -2 27.5 -4t29.5 -4l14 67q6 28 7 53q0 35 -13 60q-23 43 -57 68q-43 29 -84 36q-51 10 -78 11q-111 0 -199 -27q-84 -25 -178 -76l-41 103q82 45 209 84 q106 33 236 32q68 0 145 -20q68 -18 119 -60q47 -39 69 -106q11 -33 11 -75q0 -38 -9 -83l-129 -610h-137l33 156q-37 -37 -100 -78q-61 -39 -107 -58q-51 -20 -106 -32q-43 -10 -99 -11q-186 0 -264 70q-58 52 -58 139q0 31 7 66zM90 252q-4 -13 -3 -27q0 -43 36 -82 q45 -49 170 -49q86 0 160 25q72 25 131 63q51 35 92 82q33 37 43 78l18 88q-72 10 -127 10q-23 0 -57.5 1t-48.5 1q-66 0 -144 -10q-63 -8 -127 -33q-55 -23 -94 -57q-39 -37 -49 -90z" />
<glyph unicode="b" d="M-49 0l276 1305h138l-99 -459q71 52 148 80q80 29 151 28q106 0 187 -36q78 -37 127 -100.5t61 -155.5q5 -35 5 -72q0 -60 -13 -125q-20 -102 -76 -197q-53 -92 -127 -155q-72 -61 -170 -101q-90 -35 -203 -35q-78 0 -139 27q-63 27 -113 80l-16 -84h-137zM133 215 q47 -66 107 -92q63 -29 141 -29q80 0 149 29q63 27 121 80q55 51 90 116q29 53 52 146q12 61 11 112q0 18 -1 35q-6 68 -37 117q-33 51 -88 80q-57 29 -139 29q-158 0 -301 -125z" />
<glyph unicode="c" d="M-8 266q-7 35 -7 74q0 58 15 125q20 102 75.5 196.5t125 156t172.5 100.5q94 37 205 36q39 0 86 -10q39 -8 77 -31q33 -18 60 -49q27 -29 35 -67l28 135h123l-78 -373h-123q7 36 8 66q0 25 -6 47q-12 51 -43 88q-27 33 -83 57q-47 20 -111 21q-82 0 -152 -29 q-68 -27 -123 -80q-45 -43 -86 -117q-33 -61 -53 -147q-12 -50 -11 -97q0 -25 3 -51q10 -70 45 -116q37 -49 96 -78q61 -29 142 -29q102 0 194 41q88 39 148 109l82 -66q-80 -92 -195 -147q-109 -53 -254 -54q-113 0 -190 35q-84 37 -135.5 100.5t-69.5 153.5z" />
<glyph unicode="d" d="M-12 268q-4 30 -4 64q0 61 14 133q22 108 74 197q53 92 127 155q72 61 170 101q94 37 206 36q76 0 138 -26q68 -29 112 -80l74 340h-186l24 117h324l-277 -1305h-137l17 86q-76 -55 -148 -82q-74 -27 -149 -27q-115 0 -191 35q-82 39 -127 101q-49 69 -61 155zM125 317 q6 -63 39 -116q33 -51 88 -80q57 -29 137 -29q160 0 303 125l107 498q-49 68 -111 94q-68 29 -141 29q-80 0 -150 -29q-63 -27 -121 -80q-49 -47 -88 -117q-33 -61 -53 -147q-12 -53 -12 -106q0 -21 2 -42z" />
<glyph unicode="e" d="M-12 266q-7 35 -7 74q0 58 15 125q22 108 74 197q53 92 127 153q80 66 172 103q94 37 204 36q117 0 199 -41q78 -39 125 -110q45 -70 51 -168l2 -48q0 -83 -18 -169h-805q-3 -26 -3 -51q0 -113 60 -185q74 -88 224 -88q102 0 194 43q94 43 148 107l81 -66 q-86 -94 -198 -149q-104 -51 -250 -52q-113 0 -190 35q-82 37 -134 101q-53 65 -71 153zM154 535h657q1 18 1 34q0 131 -64 195q-74 74 -201 74q-68 0 -127 -21q-55 -20 -111 -61q-51 -39 -92 -97q-43 -58 -63 -124z" />
<glyph unicode="f" d="M88 0l25 117h211l147 698h-211l25 117h211q39 190 161 293q121 102 322 102q35 0 80 -4q29 -2 53 -6l-25 -117q-18 2 -59 6t-74 4q-131 0 -210.5 -67.5t-110.5 -210.5h397l-24 -117h-398l-147 -698h211l-25 -117h-559z" />
<glyph unicode="g" d="M-104 -193l108 74q27 -63 100.5 -108t176.5 -45q139 0 239 71q98 72 127 207l23 100q-150 -109 -303 -108q-219 0 -318 125q-66 85 -66 211q0 60 15 131q22 108 74 197q53 90 125 153q76 66 170 103q96 37 204 36q80 0 142 -26q68 -29 112 -80l19 84h137l-195 -922 q-23 -102 -69 -172q-51 -78 -119 -127q-63 -47 -160 -78q-90 -29 -184 -28q-137 0 -225 53t-133 149zM135 465q-12 -58 -12 -107q0 -87 39 -147q61 -96 229 -96q80 0 156 30q82 33 149 95l103 475q-49 68 -111 94q-68 29 -143 29q-80 0 -150 -29q-63 -27 -121 -80 q-45 -43 -86 -117q-33 -59 -53 -147z" />
<glyph unicode="h" d="M-49 0l276 1305h138l-129 -607q154 256 407 256q278 0 278 -247q0 -59 -16 -132l-121 -575h-137l121 575q11 52 11 93q0 60 -23 100q-41 70 -162 70q-76 0 -145 -35q-63 -33 -123 -94q-55 -59 -95 -134q-35 -68 -55 -157l-88 -418h-137z" />
<glyph unicode="i" d="M88 0l25 117h211l147 698h-211l25 117h348l-172 -815h211l-25 -117h-559zM512 1118l39 187h186l-39 -187h-186z" />
<glyph unicode="j" d="M-133 -193l117 72q23 -78 69 -117q51 -41 137 -41q68 0 117 19q51 18 84 55q39 41 58 88q22 52 36 117l172 815h-211l25 117h348l-196 -932q-39 -180 -156 -287q-119 -109 -303 -108q-246 -1 -297 202zM698 1118l39 187h187l-39 -187h-187z" />
<glyph unicode="k" d="M-49 0l276 1305h138l-187 -875l637 502h197l-557 -428l376 -504h-194l-293 418l-201 -154l-55 -264h-137z" />
<glyph unicode="l" d="M88 0l25 117h211l227 1071h-211l25 117h348l-252 -1188h211l-25 -117h-559z" />
<glyph unicode="m" d="M-98 0l196 932h138l-29 -135q78 158 221 157q137 0 156 -137q98 137 223 137q119 0 160 -71q22 -39 22 -100q0 -48 -14 -113l-141 -670h-138l142 670q7 39 7 68q0 34 -9 57q-18 43 -72 43q-76 0 -131 -82q-55 -84 -86 -230l-111 -526h-137l141 670q8 36 9 66q0 34 -11 59 q-18 43 -73 43q-49 0 -84 -29t-60 -74q-31 -59 -43 -100q-23 -82 -28 -109l-111 -526h-137z" />
<glyph unicode="n" d="M-49 0l196 932h138l-49 -234q154 256 407 256q278 0 278 -247q0 -59 -16 -132l-121 -575h-137l121 575q11 52 11 93q0 60 -23 100q-41 70 -162 70q-76 0 -145 -35q-63 -33 -123 -94q-55 -59 -95 -134q-35 -68 -55 -157l-88 -418h-137z" />
<glyph unicode="o" d="M-29 264q-6 36 -6 76q0 60 15 123q20 102 77 199q55 92 131 155q74 61 177 101q98 37 206.5 36.5t192.5 -36.5q82 -37 133 -101q49 -61 66 -155q6 -38 6 -80q0 -57 -13 -119q-25 -109 -77 -199q-47 -82 -131 -151q-74 -61 -177 -101q-92 -35 -209 -35q-113 0 -190 35 q-82 37 -133 101q-54 65 -68 151zM106 315q8 -63 46 -116q33 -47 94 -76t141 -29t153.5 29t127.5 76q63 55 96 116q37 68 55 148q12 50 12 97q0 25 -4 50q-8 66 -47 119q-37 53 -94 80q-61 29 -141 29t-154 -29q-72 -29 -127 -80q-61 -57 -94 -119q-39 -70 -53 -147 q-13 -57 -13 -105q-1 -22 2 -43z" />
<glyph unicode="p" d="M-127 -373l274 1305h138l-19 -86q152 109 297 108q106 0 187 -36q78 -37 127 -101q47 -61 63 -155q6 -33 6 -70q0 -57 -14 -127q-25 -109 -78 -199q-51 -88 -127 -153q-72 -61 -170 -101q-90 -35 -203 -35q-76 0 -137 27q-63 27 -113 80l-96 -457h-135zM133 215 q47 -66 107 -92q63 -29 139 -29q82 0 151 29q61 25 123 80q51 45 90 116q29 53 52 146q12 59 11 111q0 19 -1 36q-6 66 -41 117q-37 53 -90 80q-57 29 -137 29q-76 0 -152 -29q-72 -27 -145 -94z" />
<glyph unicode="q" d="M-10 266q-6 32 -6 69q0 61 16 130q20 102 76 197q51 88 129 155q72 61 170 101q95 37 203 36q145 0 247 -108l19 86h137l-276 -1305h-138l97 457q-72 -53 -146 -80t-149 -27q-113 0 -189 35q-78 37 -127 101q-47 63 -63 153zM127 319q6 -59 41 -116q33 -51 88 -80 q57 -29 137 -29q76 0 152 29q74 28 147 92l107 500q-47 68 -109 94q-63 29 -139 29q-80 0 -150 -29q-68 -27 -122 -80q-49 -47 -89 -117q-33 -59 -53 -147q-12 -59 -12 -110q0 -19 2 -36z" />
<glyph unicode="r" d="M-98 0l24 117h211l148 698h-211l24 117h348l-49 -234q152 256 412 256q68 0 123 -10q47 -8 88 -31l-68 -112q-68 37 -170 37q-88 0 -157.5 -35t-131 -96.5t-98.5 -133.5q-43 -84 -57 -155l-64 -301h211l-24 -117h-559z" />
<glyph unicode="s" d="M-86 111l86 118q94 -68 182 -100q94 -35 199 -35q310 0 344 160q3 12 3 22q0 24 -15 41q-23 27 -62 41q-40 15 -92 25q-20 4 -60 9t-53 7q-109 18 -149 27q-82 16 -131 43q-53 29 -84 82q-19 33 -19 77q0 25 7 54q14 68 61 121t113 86q68 33 151 49q88 16 170 16 q117 0 213 -28q90 -27 158 -82l-78 -107q-70 57 -145 78q-80 23 -174 23q-43 0 -97 -7q-45 -6 -102 -26q-49 -18 -86 -49q-39 -33 -47 -74q-3 -12 -3 -22q0 -24 15 -42q20 -25 59 -39t95 -24q18 -4 57 -9l55 -7q109 -18 150 -27q72 -14 131 -43q55 -27 86 -80q17 -31 17 -73 q0 -27 -7 -58q-14 -76 -69 -135q-52 -55 -123 -86q-84 -37 -156 -47q-84 -12 -158 -13q-129 0 -245 37q-121 40 -197 97z" />
<glyph unicode="t" d="M74 815l24 117h211l80 373h137l-80 -373h398l-25 -117h-397l-100 -473q-7 -29 -7 -58q0 -18 2 -38q6 -41 29 -78q25 -37 60 -55q37 -18 92 -19q102 0 184 63.5t115 164.5l108 -25q-45 -147 -164 -234q-117 -86 -268 -86q-84 0 -143 27q-63 29 -99 76q-41 53 -51 115 q-5 28 -5 58q0 41 9 89l101 473h-211z" />
<glyph unicode="u" d="M25 356l122 576h138l-123 -576q-10 -50 -10 -90q0 -64 24 -104q40 -68 160 -68q72 0 145 35q66 31 125 94q61 66 94 133q37 78 56 158l88 418h137l-197 -932h-137l49 233q-154 -256 -407 -256q-279 0 -279 250q0 58 15 129z" />
<glyph unicode="v" d="M68 932h163l160 -817l506 817h164l-600 -932h-185z" />
<glyph unicode="w" d="M66 0l6 932h145l-22 -746l303 746h135l-8 -746l293 746h143l-385 -932h-160l-6 684l-285 -684h-159z" />
<glyph unicode="x" d="M-119 0l25 121h145l332 352l-176 336h-135l26 123h383l-26 -123h-86l116 -254l226 254h-95l27 123h387l-26 -123h-132l-315 -336l180 -352h144l-25 -121h-385l25 121h82l-127 270l-240 -270h76l-25 -121h-381z" />
<glyph unicode="y" d="M-176 -360l51 118q33 -18 84 -28q39 -8 74 -9q68 0 98 33q43 47 62 78l88 141l-213 959h161l164 -815l502 815h164l-752 -1168q-57 -96 -137 -129q-76 -31 -164 -30q-94 0 -182 35z" />
<glyph unicode="z" d="M-51 0l24 117l783 698h-516l-54 -256h-116l77 373h816l-25 -117l-782 -698h540l54 256h116l-78 -373h-839z" />
<glyph unicode="{" d="M195 502l22 112q186 0 223 168l90 430q16 63 45 113q31 51 76 88q45 35 101 57q53 20 116 21h93l-23 -111h-92q-170 0 -207 -168l-90 -430q-12 -43 -29 -71q-20 -37 -51 -70q-27 -29 -66 -55q-33 -23 -75 -29q39 -6 63 -29q25 -20 41.5 -55t22.5 -67q6 -39 -2 -72 l-91 -424q-35 -170 136 -170h92l-25 -113h-92q-66 0 -108 21q-47 23 -76 59.5t-37 87.5q-10 55 2 115l90 424q37 168 -149 168z" />
<glyph unicode="|" d="M258 -186l356 1677h138l-357 -1677h-137z" />
<glyph unicode="}" d="M8 -373l25 113h92q170 0 203 168l90 426q10 35 31 72q29 49 49 69q39 39 67 55q35 20 74 27q-37 10 -63.5 30.5t-43.5 53.5q-12 27 -20 70q-6 39 2 71l90 430q37 168 -131 168h-92l22 111h93q66 0 108 -21q47 -23 78 -59q29 -35 39 -88q8 -47 -4 -111l-90 -430 q-37 -168 147 -168l-22 -112q-184 0 -222 -168l-90 -426q-12 -59 -42.5 -112.5t-78.5 -90.5q-43 -35 -102 -57q-53 -20 -117 -21h-92z" />
<glyph unicode="~" d="M-47 266q23 80 63 166q39 82 84 135.5t105 87.5q57 33 123 33q61 0 98 -24q39 -27 59 -58q23 -35 35 -76q4 -16 27 -75q12 -33 30.5 -57.5t55.5 -24.5t67 24q29 23 54 64q33 53 49 98q43 117 45 123l131 -14q-25 -89 -61 -166q-35 -70 -87 -133q-45 -55 -106 -90 q-57 -33 -121 -33q-61 0 -98 24.5t-57 57.5q-23 35 -35 75q0 4 -27 74q-12 33 -30.5 57.5t-55.5 24.5t-68 -24q-37 -29 -57 -64q-27 -43 -47 -96q-14 -37 -43 -123z" />
<glyph unicode="&#xa0;" />
<glyph unicode="&#xa1;" d="M463 0l250 938h82l-148 -938h-184zM698 1118l39 187h187l-39 -187h-187z" />
<glyph unicode="&#xa2;" d="M47 651q23 100 66 174q49 84 110 144q72 70 144 104q86 43 172 57l36 175h138l-35 -166q123 -6 207 -60q80 -49 121 -139l-111 -66q-29 61 -90 103q-59 39 -152 45l-159 -743q96 10 172 47q84 41 135 102l82 -66q-80 -88 -181 -139q-104 -52 -233 -61l-33 -162h-137 l35 170q-168 33 -248 162q-80 126 -39 319zM184 651q-29 -135 17 -229q45 -96 159 -131l152 719q-127 -31 -213 -129q-88 -101 -115 -230z" />
<glyph unicode="&#xa3;" d="M-49 0l24 117h62q33 0 61 16q23 12 47 41q18 20 33 53q4 10 17 52l67 315h-186l24 117h187l57 264q16 80 51 141q39 68 90 113q47 43 117 71q61 27 143 27q53 0 96.5 -18.5t73.5 -48.5q27 -27 48 -78q18 -47 18 -107l-131 -28q-4 90 -37 127q-34 37 -92 36 q-98 0 -158 -61q-61 -63 -82 -174l-57 -264h186l-24 -117h-187l-57 -270q-14 -76 -53 -131.5t-82 -75.5h207q270 0 430 223l96 -59q-94 -139 -240 -211q-141 -70 -311 -70h-438z" />
<glyph unicode="&#xa4;" d="M-90 223l139 117q-33 61 -43 139t12 170q41 188 164 312l-90 118l94 78l90 -119q147 102 334 103q92 0 164 -27q74 -28 123 -74l143 117l64 -78l-143 -116q35 -59 45 -142q10 -84 -9 -172q-23 -96 -63 -172q-43 -80 -103 -139l91 -115l-97 -78l-92 113q-72 -47 -155 -72 q-82 -25 -176.5 -24.5t-166 27t-124.5 73.5l-140 -117zM150 502q9 -68 43 -117q35 -49 92 -76q63 -29 143 -28q78 0 151.5 28.5t129.5 75.5q59 51 96 117q39 70 53 147q15 80 6 148q-8 66 -43 118q-33 51 -94 80t-141 29t-154 -29q-76 -31 -129 -80q-57 -53 -92 -118 q-41 -76 -55 -148q-16 -71 -6 -147z" />
<glyph unicode="&#xa5;" d="M-12 408l24 120h400l8 35l-64 215h-290l26 121h230l-119 406h153l162 -596h2l416 596h154l-291 -406h225l-27 -121h-286l-156 -215l-8 -35h397l-24 -120h-398l-86 -408h-135l86 408h-399z" />
<glyph unicode="&#xa6;" d="M258 -186l160 745h137l-160 -745h-137zM457 745l157 746h138l-158 -746h-137z" />
<glyph unicode="&#xa7;" d="M-41 178l133 33q0 -139 78 -211q76 -70 227 -70q59 0 109 15q57 16 96 45q47 33 76 73q31 43 43 101q18 86 -25 141t-112 92q-68 35 -158 68q-76 27 -156 76q-71 43 -110 110q-39 66 -15 178q15 77 62 142q45 63 129 119q-55 41 -78 100q-25 63 -4 153q15 80 61 142 q45 59 109 102q70 45 139 66q80 23 160 22q78 0 151 -22q70 -20 123 -66q49 -41 78 -110q27 -68 19 -158l-133 -21q6 133 -59.5 197t-203.5 64q-53 0 -94 -11q-49 -12 -92 -37q-37 -20 -76 -67q-33 -39 -45 -101q-14 -72 29 -118q45 -47 115 -80q86 -39 157 -68 q88 -35 156 -82q74 -51 108 -121q37 -74 13 -186q-20 -76 -57.5 -139.5t-112.5 -118.5q43 -43 61.5 -104.5t-0.5 -149.5q-18 -78 -65 -147q-45 -68 -113 -115q-61 -43 -147 -74q-78 -27 -162 -26q-82 0 -160 22q-72 20 -129 66q-55 43 -90 112.5t-35 163.5zM283 831 q-18 -72 20 -118q37 -45 103 -80q63 -33 145 -61.5t151 -67.5q45 31 82 78q33 41 45 94q16 72 -16 129q-29 49 -88 88q-51 35 -129 63q-82 31 -143 62q-74 -33 -117 -82q-41 -48 -53 -105z" />
<glyph unicode="&#xa8;" d="M326 1118l39 187h186l-39 -187h-186zM698 1118l39 187h187l-39 -187h-187z" />
<glyph unicode="&#xa9;" d="M59 514q-25 104 2 229q25 115 91 218q66 104 157 180q94 78 203 121q111 43 229 43q113 0 205 -43q88 -41 152 -117q57 -70 84 -180q25 -102 0 -222q-25 -111 -88 -211q-68 -109 -156 -180q-94 -78 -201 -123q-109 -45 -233 -45q-113 0 -203 39t-153.5 115t-88.5 176z M123 549q18 -86 72 -156q52 -68 135 -104q88 -39 186 -39q94 0 199 39q96 37 180 104q84 70 141 156q57 88 80 194q20 98 2 191q-18 86 -74 158q-51 68 -133 106q-86 41 -184 41q-104 0 -201 -39q-98 -41 -180 -106q-84 -70 -141 -156q-55 -84 -78 -195q-22 -106 -4 -194z M258 598q-12 66 4 147q20 84 55 142q43 70 97 114q59 49 131 78q74 29 155 29q206 0 271 -147l-121 -72q-33 100 -174 100q-104 0 -176 -69q-74 -70 -94 -175q-23 -102 20 -172q43 -72 147 -71q141 0 215 100l93 -72q-129 -147 -334 -147q-82 0 -141 27q-66 29 -99 73 q-37 49 -49 115z" />
<glyph unicode="&#xaa;" d="M-45 256l25 117h700l-25 -117h-700zM53 760q20 76 62 119q46 49 110 79q72 35 140 46q77 12 153 12h49q23 0 33 -2q14 -2 31 -4q15 -3 43 -6l16 75q6 39 -8 62q-14 25 -39 39q-23 14 -55 20q-31 6 -58 6q-88 0 -157 -18q-78 -20 -144 -62l-30 109q70 41 155 65 q80 23 201 23q51 0 117 -14q57 -12 96 -43q41 -31 57 -74q18 -47 6 -113l-110 -520h-141l22 111q-143 -129 -311 -129q-66 0 -111 14t-77.5 43t-45.5 70q-12 43 -4 92zM195 760q-10 -47 20 -74q33 -29 100 -29q66 0 125.5 16.5t96.5 39.5q49 31 67 51q27 29 29 49l16 80 q-47 8 -86 8q-10 0 -33.5 1t-35.5 1q-121 0 -201 -33q-83 -33 -98 -110z" />
<glyph unicode="&#xab;" d="M16 477l394 330l63 -80l-301 -250l195 -248l-97 -79zM387 477l395 330l62 -80l-299 -250l192 -248l-94 -79z" />
<glyph unicode="&#xac;" d="M-4 446l24 113h932l-118 -559h-113l94 446h-819z" />
<glyph unicode="&#xad;" d="M-10 420l26 117h932l-26 -117h-932z" />
<glyph unicode="&#xae;" d="M98.5 702.5q-24.5 102.5 -0.5 229.5q25 115 90 217q63 100 158 178q92 78 205 121q111 43 227.5 43t204.5 -41q90 -43 152 -119q59 -74 84 -178q23 -96 -2 -221q-23 -113 -87 -213q-65 -101 -153 -178q-84 -74 -203 -121q-117 -47 -233 -47q-106 0 -201 41 q-96 41 -156 112q-61 74 -85.5 176.5zM162 737q23 -90 74 -157q53 -70 133 -105q82 -37 186 -37q100 0 199 37q102 39 180 105q76 63 137 157q57 88 80 195q23 102 4 188q-18 88 -71.5 158t-135.5 108q-80 39 -184 39q-94 0 -199 -39q-100 -39 -180 -102q-82 -66 -141 -158 q-57 -88 -80 -194q-22 -111 -2 -195zM354 596l144 676h268q49 0 96 -12q39 -10 76 -43q29 -27 41 -66q12 -41 0 -96q-14 -76 -77.5 -139.5t-160.5 -71.5l152 -248h-186l-123 242h-35l-51 -242h-144zM573 948h125q55 0 93 31q35 29 47 76q8 45 -13 75q-23 33 -82 33h-125z " />
<glyph unicode="&#xaf;" d="M322 1106l24 113h559l-24 -113h-559z" />
<glyph unicode="&#xb0;" d="M137.5 972.5q-16.5 69.5 1.5 145.5q16 80 60 144q53 78 106 120q63 51 133 80t152 29t139 -29q63 -31 102 -80q35 -45 54 -120q14 -68 0 -144q-18 -74 -63.5 -145.5t-104.5 -118.5q-61 -49 -135 -80q-70 -29 -150 -29q-82 0 -139 29q-59 31 -100 80q-39 49 -55.5 118.5z M229 1008q12 -51 41 -88t76 -60q49 -23 105 -22q57 0 114 22q61 25 103 60q53 47 80 88q27 45 45 110q12 57 0 109q-12 53 -41 90q-31 41 -76 61q-43 20 -104.5 20.5t-114.5 -20.5q-57 -23 -103 -61q-51 -43 -78 -90q-35 -59 -45 -109q-14 -57 -2 -110z" />
<glyph unicode="&#xb1;" d="M-137 -186l22 112h932l-22 -112h-932zM-8 422l22 113h410l88 409h113l-88 -409h409l-22 -113h-410l-90 -422h-113l90 422h-409z" />
<glyph unicode="&#xb2;" d="M100 745l17 78l303 240q55 43 65 88q10 35 -16 53q-25 18 -66 19q-117 0 -143 -138h-102q49 231 266 232q84 0 131 -41q53 -49 39 -125q-12 -53 -53 -100q-23 -29 -95 -82l-69 -54q-16 -12 -98 -79h147l16 73h99l-35 -164h-406z" />
<glyph unicode="&#xb3;" d="M98 936l109 14q-12 -123 96 -123q41 0 76 25q31 23 41 57q12 55 -19 66q-16 10 -82 10l21 100q104 0 121 66q14 74 -72 74q-115 0 -139 -123h-105q20 106 99 162q72 51 164 51t135 -45t26 -119q-14 -76 -90 -111q68 -55 49 -131q-16 -72 -82 -123q-70 -53 -161 -53 q-205 0 -187 203z" />
<glyph unicode="&#xb4;" d="M371 1077l465 287l43 -109l-484 -243z" />
<glyph unicode="&#xb5;" d="M-127 -373l274 1305h138l-121 -574q-27 -125 12 -194.5t160 -69.5q72 0 145 35q66 31 125 94q61 66 94 133q37 78 56 158l88 418h137l-197 -932h-137l49 236q-152 -258 -407 -259q-125 0 -195 56l-86 -406h-135z" />
<glyph unicode="&#xb6;" d="M129 932q80 373 580 373h376l-276 -1305h-137l119 559h-236l-119 -559h-137l119 567q-359 39 -289 365zM268 932q-43 -199 176 -240l105 486q-115 -18 -189 -82q-69 -62 -92 -164zM580 682h235l109 506h-236z" />
<glyph unicode="&#xb7;" d="M354 385l41 186h187l-41 -186h-187z" />
<glyph unicode="&#xb8;" d="M63 -371l25 117q201 0 248 213l10 41h115l-10 -41q-31 -147 -132 -235q-106 -95 -256 -95z" />
<glyph unicode="&#xb9;" d="M113 1001l22 99q33 0 68 14q39 16 69.5 41t59.5 64q23 31 37 86h108l-100 -469h90l-18 -91h-289l18 91h90l62 290q-29 -49 -88 -88q-55 -37 -129 -37z" />
<glyph unicode="&#xba;" d="M-45 256l25 117h745l-25 -117h-745zM76 770q-14 70 4 162q18 86 63 160q47 76 109 125q70 55 141 81q74 27 162 27q84 0 150 -27q63 -27 106 -82t57.5 -124.5t-4.5 -159.5q-18 -88 -63 -160q-41 -66 -109 -123q-61 -52 -141 -80q-82 -29 -162 -28q-82 0 -149 28 q-70 29 -109 78q-39 47 -55 123zM217 932q-27 -125 29 -201q55 -74 168 -74q55 0 104 18.5t92 55.5q45 39 74 88q31 53 43 113q14 55 4 112q-8 51 -37 89q-29 39 -67 55q-47 20 -96.5 20t-104.5 -20q-49 -18 -92 -55q-45 -39 -74 -89q-27 -42 -43 -112z" />
<glyph unicode="&#xbb;" d="M90 227l301 250l-194 250l96 78l254 -328l-393 -327zM463 227l301 250l-195 250l95 78l258 -328l-398 -327z" />
<glyph unicode="&#xbc;" d="M-90 33l1114 1302l78 -63l-1110 -1299zM113 1001l22 99q33 0 68 14q39 16 69.5 41t59.5 64q23 31 37 86h108l-100 -469h90l-18 -91h-289l18 91h90l62 290q-29 -49 -88 -88q-55 -37 -129 -37zM420 150l16 75l316 334h110l-67 -317h90l-21 -92h-90l-12 -60h90l-18 -90h-287 l18 90h92l13 60h-250zM571 242h119l33 159z" />
<glyph unicode="&#xbd;" d="M-90 33l1114 1302l78 -63l-1110 -1299zM113 1001l22 99q33 0 68 14q39 16 69.5 41t59.5 64q23 31 37 86h108l-100 -469h90l-18 -91h-289l18 91h90l62 290q-29 -49 -88 -88q-55 -37 -129 -37zM428 0l16 78l301 239q59 49 68 89q6 35 -18.5 53t-63.5 18q-117 0 -143 -137 h-103q49 231 267 231q84 0 131 -41q55 -51 39 -124q-12 -53 -56 -101q-25 -33 -92 -82q-27 -18 -72 -53l-96 -80h148l16 74h98l-34 -164h-406z" />
<glyph unicode="&#xbe;" d="M-90 33l1114 1302l78 -63l-1110 -1299zM98 936l109 14q-12 -123 96 -123q41 0 76 25q31 23 41 57q12 55 -19 66q-16 10 -82 10l21 100q104 0 121 66q14 74 -72 74q-115 0 -139 -123h-105q20 106 99 162q72 51 164 51t135 -45t26 -119q-14 -76 -90 -111q68 -55 49 -131 q-16 -72 -82 -123q-70 -53 -161 -53q-205 0 -187 203zM420 150l16 75l316 334h110l-67 -317h90l-21 -92h-90l-12 -60h90l-18 -90h-287l18 90h92l13 60h-250zM571 242h119l33 159z" />
<glyph unicode="&#xbf;" d="M170 283q14 72 57 135q39 55 95 108q49 47 114 92q51 35 113 91q53 47 92 100q41 57 55 123h146q-20 -82 -60 -139q-45 -63 -98 -115q-74 -70 -115 -100q-53 -39 -114 -95q-55 -49 -93 -94q-41 -51 -53 -106q-18 -88 25 -138q45 -51 145 -51q125 0 207 76q78 72 119 188 l119 -18q-53 -166 -174 -266q-115 -96 -293 -97q-170 0 -242 84q-74 87 -45 222zM698 1118l39 187h187l-39 -187h-187z" />
<glyph unicode="&#xc0;" d="M-158 0l711 1305h186l158 -1305h-147l-45 373h-517l-198 -373h-148zM254 494h438l-76 673zM477 1628l88 109l344 -287l-53 -65z" />
<glyph unicode="&#xc1;" d="M-158 0l711 1305h186l158 -1305h-147l-45 373h-517l-198 -373h-148zM254 494h438l-76 673zM451 1448l465 287l43 -109l-484 -243z" />
<glyph unicode="&#xc2;" d="M-158 0l711 1305h186l158 -1305h-147l-45 373h-517l-198 -373h-148zM254 494h438l-76 673zM379 1448l358 291l238 -287l-68 -67l-198 205l-289 -207z" />
<glyph unicode="&#xc3;" d="M-158 0l711 1305h186l158 -1305h-147l-45 373h-517l-198 -373h-148zM254 494h438l-76 673zM297 1495q125 156 279 156q57 0 90 -18q31 -16 55 -41q2 -2 45 -39q22 -18 62 -19q102 0 190 113l70 -47q-123 -158 -279 -158q-57 0 -90 19q-31 16 -55 40q-2 2 -45 39 q-22 18 -62 19q-101 0 -190 -111z" />
<glyph unicode="&#xc4;" d="M-158 0l711 1305h186l158 -1305h-147l-45 373h-517l-198 -373h-148zM254 494h438l-76 673zM406 1489l39 187h186l-39 -187h-186zM778 1489l39 187h187l-39 -187h-187z" />
<glyph unicode="&#xc5;" d="M-158 0l680 1251q-43 27 -65.5 80t-5.5 119q8 41 36 88q25 39 64 72q29 25 82 47q43 18 90 18q49 0 86 -18q39 -20 61 -47q20 -25 31 -72q10 -41 0 -88q-16 -70 -55 -117q-43 -53 -101 -80l152 -1253h-147l-45 373h-517l-198 -373h-148zM254 494h438l-76 673zM540.5 1450 q-12.5 -55 18.5 -94q31 -41 88 -41q51 0 103 41q49 41 61 94t-20 94q-31 41 -86 41q-53 0 -105 -41q-47 -39 -59.5 -94z" />
<glyph unicode="&#xc6;" d="M-162 0l672 1305h600l-27 -121h-366l-96 -457h276l-27 -121h-276l-102 -483h366l-24 -123h-506l78 373h-234l-188 -373h-146zM236 494h196l139 659z" />
<glyph unicode="&#xc7;" d="M-8 406q0 109 26 245q25 117 82 252q51 119 133 217q80 94 187 150q111 57 244 57q120 0 196 -43q80 -45 101 -131l32 152h117l-92 -428h-117q18 68 2 131q-14 59 -49 106q-33 43 -90 70q-59 27 -125 26q-102 0 -186 -51q-80 -49 -140 -131q-58 -80 -98 -178 q-35 -84 -59 -199q-20 -98 -24.5 -198.5t20 -178t84.5 -129.5q61 -51 165 -51q244 0 404 295l108 -47q-76 -147 -192 -244q-115 -92 -264 -114l-6 -25q-31 -147 -132 -235q-106 -94 -256 -95l25 117q201 0 248 213l4 21q-129 10 -203 65q-74 57 -112 152q-33 82 -33 209z " />
<glyph unicode="&#xc8;" d="M-49 0l276 1305h834l-25 -117h-696l-100 -467h514l-25 -117h-514l-102 -487h696l-25 -117h-833zM477 1628l88 109l344 -287l-53 -65z" />
<glyph unicode="&#xc9;" d="M-49 0l276 1305h834l-25 -117h-696l-100 -467h514l-25 -117h-514l-102 -487h696l-25 -117h-833zM451 1448l465 287l43 -109l-484 -243z" />
<glyph unicode="&#xca;" d="M-49 0l276 1305h834l-25 -117h-696l-100 -467h514l-25 -117h-514l-102 -487h696l-25 -117h-833zM379 1448l358 291l238 -287l-68 -67l-198 205l-289 -207z" />
<glyph unicode="&#xcb;" d="M-49 0l276 1305h834l-25 -117h-696l-100 -467h514l-25 -117h-514l-102 -487h696l-25 -117h-833zM406 1489l39 187h186l-39 -187h-186zM778 1489l39 187h187l-39 -187h-187z" />
<glyph unicode="&#xcc;" d="M88 0l25 117h211l227 1071h-211l25 117h559l-25 -117h-211l-227 -1071h211l-25 -117h-559zM477 1628l88 109l344 -287l-53 -65z" />
<glyph unicode="&#xcd;" d="M88 0l25 117h211l227 1071h-211l25 117h559l-25 -117h-211l-227 -1071h211l-25 -117h-559zM451 1448l465 287l43 -109l-484 -243z" />
<glyph unicode="&#xce;" d="M88 0l25 117h211l227 1071h-211l25 117h559l-25 -117h-211l-227 -1071h211l-25 -117h-559zM379 1448l358 291l238 -287l-68 -67l-198 205l-289 -207z" />
<glyph unicode="&#xcf;" d="M88 0l25 117h211l227 1071h-211l25 117h559l-25 -117h-211l-227 -1071h211l-25 -117h-559zM406 1489l39 187h186l-39 -187h-186zM778 1489l39 187h187l-39 -187h-187z" />
<glyph unicode="&#xd0;" d="M-88 606l27 117h165l123 582h424q137 0 221 -53.5t125 -143.5q39 -88 43 -209q2 -109 -26.5 -246t-81.5 -254q-53 -115 -135 -206q-78 -88 -187 -142q-102 -51 -235 -51h-424l127 606h-166zM113 117h286q172 0 297 139t181 397q55 260 -11 396q-68 139 -239 139h-287 l-98 -465h254l-27 -117h-254z" />
<glyph unicode="&#xd1;" d="M-49 0l276 1305h193l280 -1053l224 1053h137l-277 -1305h-170l-292 1104l-234 -1104h-137zM297 1495q125 156 279 156q57 0 90 -18q31 -16 55 -41q2 -2 45 -39q22 -18 62 -19q102 0 190 113l70 -47q-123 -158 -279 -158q-57 0 -90 19q-31 16 -55 40q-2 2 -45 39 q-22 18 -62 19q-101 0 -190 -111z" />
<glyph unicode="&#xd2;" d="M-20 397q0 127 26.5 254t79.5 252q51 119 133 217q78 92 188.5 149.5t241.5 57.5q133 0 219 -57q84 -55 123 -150q37 -90 41 -217v-21q0 -103 -26 -231q-25 -121 -82 -254q-53 -125 -131 -215q-86 -98 -185 -149q-108 -55 -246 -55.5t-221 55.5q-78 53 -121 149 q-40 94 -40 215zM119 453q-1 -17 -1 -34q0 -75 21 -145q25 -78 84 -129q61 -51 164 -51q104 0 188 51q78 47 138 129q66 88 98 179q33 88 57 198q25 116 25 211v21q-4 106 -33 178q-29 68 -90 110q-57 39 -145 39q-102 0 -187 -51q-80 -49 -139 -131q-61 -82 -96 -178 q-39 -102 -60 -199q-16 -77 -24 -198zM477 1628l88 109l344 -287l-53 -65z" />
<glyph unicode="&#xd3;" d="M-20 397q0 127 26.5 254t79.5 252q51 119 133 217q78 92 188.5 149.5t241.5 57.5q133 0 219 -57q84 -55 123 -150q37 -90 41 -217v-21q0 -103 -26 -231q-25 -121 -82 -254q-53 -125 -131 -215q-86 -98 -185 -149q-108 -55 -246 -55.5t-221 55.5q-78 53 -121 149 q-40 94 -40 215zM119 453q-1 -17 -1 -34q0 -75 21 -145q25 -78 84 -129q61 -51 164 -51q104 0 188 51q78 47 138 129q66 88 98 179q33 88 57 198q25 116 25 211v21q-4 106 -33 178q-29 68 -90 110q-57 39 -145 39q-102 0 -187 -51q-80 -49 -139 -131q-61 -82 -96 -178 q-39 -102 -60 -199q-16 -77 -24 -198zM451 1448l465 287l43 -109l-484 -243z" />
<glyph unicode="&#xd4;" d="M-20 397q0 127 26.5 254t79.5 252q51 119 133 217q78 92 188.5 149.5t241.5 57.5q133 0 219 -57q84 -55 123 -150q37 -90 41 -217v-21q0 -103 -26 -231q-25 -121 -82 -254q-53 -125 -131 -215q-86 -98 -185 -149q-108 -55 -246 -55.5t-221 55.5q-78 53 -121 149 q-40 94 -40 215zM119 453q-1 -17 -1 -34q0 -75 21 -145q25 -78 84 -129q61 -51 164 -51q104 0 188 51q78 47 138 129q66 88 98 179q33 88 57 198q25 116 25 211v21q-4 106 -33 178q-29 68 -90 110q-57 39 -145 39q-102 0 -187 -51q-80 -49 -139 -131q-61 -82 -96 -178 q-39 -102 -60 -199q-16 -77 -24 -198zM379 1448l358 291l238 -287l-68 -67l-198 205l-289 -207z" />
<glyph unicode="&#xd5;" d="M-20 397q0 127 26.5 254t79.5 252q51 119 133 217q78 92 188.5 149.5t241.5 57.5q133 0 219 -57q84 -55 123 -150q37 -90 41 -217v-21q0 -103 -26 -231q-25 -121 -82 -254q-53 -125 -131 -215q-86 -98 -185 -149q-108 -55 -246 -55.5t-221 55.5q-78 53 -121 149 q-40 94 -40 215zM119 453q-1 -17 -1 -34q0 -75 21 -145q25 -78 84 -129q61 -51 164 -51q104 0 188 51q78 47 138 129q66 88 98 179q33 88 57 198q25 116 25 211v21q-4 106 -33 178q-29 68 -90 110q-57 39 -145 39q-102 0 -187 -51q-80 -49 -139 -131q-61 -82 -96 -178 q-39 -102 -60 -199q-16 -77 -24 -198zM297 1495q125 156 279 156q57 0 90 -18q31 -16 55 -41q2 -2 45 -39q22 -18 62 -19q102 0 190 113l70 -47q-123 -158 -279 -158q-57 0 -90 19q-31 16 -55 40q-2 2 -45 39q-22 18 -62 19q-101 0 -190 -111z" />
<glyph unicode="&#xd6;" d="M-20 397q0 127 26.5 254t79.5 252q51 119 133 217q78 92 188.5 149.5t241.5 57.5q133 0 219 -57q84 -55 123 -150q37 -90 41 -217v-21q0 -103 -26 -231q-25 -121 -82 -254q-53 -125 -131 -215q-86 -98 -185 -149q-108 -55 -246 -55.5t-221 55.5q-78 53 -121 149 q-40 94 -40 215zM119 453q-1 -17 -1 -34q0 -75 21 -145q25 -78 84 -129q61 -51 164 -51q104 0 188 51q78 47 138 129q66 88 98 179q33 88 57 198q25 116 25 211v21q-4 106 -33 178q-29 68 -90 110q-57 39 -145 39q-102 0 -187 -51q-80 -49 -139 -131q-61 -82 -96 -178 q-39 -102 -60 -199q-16 -77 -24 -198zM406 1489l39 187h186l-39 -187h-186zM778 1489l39 187h187l-39 -187h-187z" />
<glyph unicode="&#xd7;" d="M39 186l350 291l-225 291l94 78l227 -291l353 291l63 -78l-354 -291l229 -291l-96 -77l-227 290l-353 -290z" />
<glyph unicode="&#xd8;" d="M-137 29l35 159l94 84q-18 83 -12 179q6 104 26 200q27 127 80 252q51 119 133 217q78 92 188.5 149.5t241.5 57.5q129 0 213 -53t123 -144l166 146l-35 -160l-100 -86q18 -80 14 -178q-4 -96 -24 -201q-25 -121 -82 -254q-53 -125 -131 -215q-86 -98 -185 -149 q-108 -55 -246 -56q-137 0 -215 52q-84 55 -122 141zM119 381l751 651q-27 84 -90 131t-155 47q-102 0 -187 -51q-80 -49 -139 -131q-61 -82 -96 -178q-39 -102 -60 -199q-12 -57 -20 -139q-6 -74 -4 -131zM137 268q25 -78 84 -127q55 -47 166 -47q104 0 188 51 q78 47 138 129q66 88 98 179q33 88 57 198q33 143 23 271z" />
<glyph unicode="&#xd9;" d="M31 264q-1 18 -2 38q0 77 20 165l178 838h138l-179 -840q-14 -63 -16 -125v-16q0 -54 16 -105t66 -90q43 -35 133 -35t151.5 35t104.5 90t68 121q25 61 36 125l179 840h137l-178 -840q-25 -113 -68 -201t-108 -153q-63 -63 -151.5 -98.5t-195 -35.5t-180.5 35 q-70 33 -106.5 98.5t-42.5 153.5zM477 1628l88 109l344 -287l-53 -65z" />
<glyph unicode="&#xda;" d="M31 264q-1 18 -2 38q0 77 20 165l178 838h138l-179 -840q-14 -63 -16 -125v-16q0 -54 16 -105t66 -90q43 -35 133 -35t151.5 35t104.5 90t68 121q25 61 36 125l179 840h137l-178 -840q-25 -113 -68 -201t-108 -153q-63 -63 -151.5 -98.5t-195 -35.5t-180.5 35 q-70 33 -106.5 98.5t-42.5 153.5zM451 1448l465 287l43 -109l-484 -243z" />
<glyph unicode="&#xdb;" d="M31 264q-1 18 -2 38q0 77 20 165l178 838h138l-179 -840q-14 -63 -16 -125v-16q0 -54 16 -105t66 -90q43 -35 133 -35t151.5 35t104.5 90t68 121q25 61 36 125l179 840h137l-178 -840q-25 -113 -68 -201t-108 -153q-63 -63 -151.5 -98.5t-195 -35.5t-180.5 35 q-70 33 -106.5 98.5t-42.5 153.5zM379 1448l358 291l238 -287l-68 -67l-198 205l-289 -207z" />
<glyph unicode="&#xdc;" d="M31 264q-1 18 -2 38q0 77 20 165l178 838h138l-179 -840q-14 -63 -16 -125v-16q0 -54 16 -105t66 -90q43 -35 133 -35t151.5 35t104.5 90t68 121q25 61 36 125l179 840h137l-178 -840q-25 -113 -68 -201t-108 -153q-63 -63 -151.5 -98.5t-195 -35.5t-180.5 35 q-70 33 -106.5 98.5t-42.5 153.5zM406 1489l39 187h186l-39 -187h-186zM778 1489l39 187h187l-39 -187h-187z" />
<glyph unicode="&#xdd;" d="M88 0l25 117h211l94 446l-178 625h-107l25 117h368l-24 -117h-109l123 -492l330 492h-109l25 117h368l-24 -117h-107l-444 -625l-94 -446h211l-25 -117h-559zM451 1448l465 287l43 -109l-484 -243z" />
<glyph unicode="&#xde;" d="M-49 0l276 1305h138l-58 -269h244q250 0 355.5 -93t64.5 -279q-78 -373 -578 -373h-243l-62 -291h-137zM174 406h244q178 0 284 65q104 63 129 193q29 127 -47.5 190.5t-257.5 63.5h-243z" />
<glyph unicode="&#xdf;" d="M-49 0l178 844q14 68 47 162q33 88 84 155q59 76 139 119q88 47 209 47q74 0 131 -22q49 -18 88 -62q33 -37 43 -90q10 -57 -4 -113q-14 -80 -59 -131q-39 -45 -90 -82l-84 -59q-37 -25 -47 -59q-6 -25 20 -47q23 -20 64 -46q4 -2 84 -53q39 -23 80 -67q33 -37 53 -97 q18 -53 2 -131q-12 -63 -49 -114q-35 -49 -95 -93q-55 -41 -124 -61q-74 -23 -146 -23q-102 0 -163.5 27t-121.5 82l101 104q43 -49 92 -73q45 -23 117 -23q90 0 162 43q68 41 90 133q10 57 -11 92q-23 37 -59 66q-39 29 -84 53.5t-84 53t-59.5 67.5t-8.5 96q16 70 56 107 q43 39 88 69q46 31 86 68q41 39 53 98q16 72 -14 119q-33 51 -131 51q-76 0 -127 -30q-61 -37 -92 -80q-39 -55 -60 -117q-14 -43 -39 -137l-178 -846h-137z" />
<glyph unicode="&#xe0;" d="M-45 252q18 89 74 147q57 59 137 94t174 50q102 16 192 16q12 0 35 -1t31 -1q37 0 55 -2q8 0 26.5 -1t27.5 -3q12 -2 27.5 -4t29.5 -4l14 67q6 28 7 53q0 35 -13 60q-23 43 -57 68q-43 29 -84 36q-51 10 -78 11q-111 0 -199 -27q-84 -25 -178 -76l-41 103q82 45 209 84 q106 33 236 32q68 0 145 -20q68 -18 119 -60q47 -39 69 -106q11 -33 11 -75q0 -38 -9 -83l-129 -610h-137l33 156q-37 -37 -100 -78q-61 -39 -107 -58q-51 -20 -106 -32q-43 -10 -99 -11q-186 0 -264 70q-58 52 -58 139q0 31 7 66zM92 252q-4 -13 -3 -27q0 -43 36 -82 q45 -49 170 -49q86 0 160 25q72 25 131 63q51 35 92 82q33 37 43 78l18 88q-72 10 -127 10q-23 0 -57.5 1t-48.5 1q-66 0 -144 -10q-63 -8 -127 -33q-55 -23 -94 -57q-39 -37 -49 -90zM397 1255l88 109l344 -287l-53 -65z" />
<glyph unicode="&#xe1;" d="M-45 252q18 89 74 147q57 59 137 94t174 50q102 16 192 16q12 0 35 -1t31 -1q37 0 55 -2q8 0 26.5 -1t27.5 -3q12 -2 27.5 -4t29.5 -4l14 67q6 28 7 53q0 35 -13 60q-23 43 -57 68q-43 29 -84 36q-51 10 -78 11q-111 0 -199 -27q-84 -25 -178 -76l-41 103q82 45 209 84 q106 33 236 32q68 0 145 -20q68 -18 119 -60q47 -39 69 -106q11 -33 11 -75q0 -38 -9 -83l-129 -610h-137l33 156q-37 -37 -100 -78q-61 -39 -107 -58q-51 -20 -106 -32q-43 -10 -99 -11q-186 0 -264 70q-58 52 -58 139q0 31 7 66zM92 252q-4 -13 -3 -27q0 -43 36 -82 q45 -49 170 -49q86 0 160 25q72 25 131 63q51 35 92 82q33 37 43 78l18 88q-72 10 -127 10q-23 0 -57.5 1t-48.5 1q-66 0 -144 -10q-63 -8 -127 -33q-55 -23 -94 -57q-39 -37 -49 -90zM371 1077l465 287l43 -109l-484 -243z" />
<glyph unicode="&#xe2;" d="M-45 252q18 89 74 147q57 59 137 94t174 50q102 16 192 16q12 0 35 -1t31 -1q37 0 55 -2q8 0 26.5 -1t27.5 -3q12 -2 27.5 -4t29.5 -4l14 67q6 28 7 53q0 35 -13 60q-23 43 -57 68q-43 29 -84 36q-51 10 -78 11q-111 0 -199 -27q-84 -25 -178 -76l-41 103q82 45 209 84 q106 33 236 32q68 0 145 -20q68 -18 119 -60q47 -39 69 -106q11 -33 11 -75q0 -38 -9 -83l-129 -610h-137l33 156q-37 -37 -100 -78q-61 -39 -107 -58q-51 -20 -106 -32q-43 -10 -99 -11q-186 0 -264 70q-58 52 -58 139q0 31 7 66zM92 252q-4 -13 -3 -27q0 -43 36 -82 q45 -49 170 -49q86 0 160 25q72 25 131 63q51 35 92 82q33 37 43 78l18 88q-72 10 -127 10q-23 0 -57.5 1t-48.5 1q-66 0 -144 -10q-63 -8 -127 -33q-55 -23 -94 -57q-39 -37 -49 -90zM299 1077l358 291l238 -287l-68 -67l-198 205l-289 -207z" />
<glyph unicode="&#xe3;" d="M-45 252q18 89 74 147q57 59 137 94t174 50q102 16 192 16q12 0 35 -1t31 -1q37 0 55 -2q8 0 26.5 -1t27.5 -3q12 -2 27.5 -4t29.5 -4l14 67q6 28 7 53q0 35 -13 60q-23 43 -57 68q-43 29 -84 36q-51 10 -78 11q-111 0 -199 -27q-84 -25 -178 -76l-41 103q82 45 209 84 q106 33 236 32q68 0 145 -20q68 -18 119 -60q47 -39 69 -106q11 -33 11 -75q0 -38 -9 -83l-129 -610h-137l33 156q-37 -37 -100 -78q-61 -39 -107 -58q-51 -20 -106 -32q-43 -10 -99 -11q-186 0 -264 70q-58 52 -58 139q0 31 7 66zM92 252q-4 -13 -3 -27q0 -43 36 -82 q45 -49 170 -49q86 0 160 25q72 25 131 63q51 35 92 82q33 37 43 78l18 88q-72 10 -127 10q-23 0 -57.5 1t-48.5 1q-66 0 -144 -10q-63 -8 -127 -33q-55 -23 -94 -57q-39 -37 -49 -90zM217 1124q125 156 279 156q57 0 90 -18q31 -16 55 -41q2 -2 45 -39q22 -18 62 -19 q102 0 190 113l70 -47q-123 -158 -279 -158q-57 0 -90 19q-31 16 -55 40q-2 2 -45 39q-22 18 -62 19q-101 0 -190 -111z" />
<glyph unicode="&#xe4;" d="M-45 252q18 89 74 147q57 59 137 94t174 50q102 16 192 16q12 0 35 -1t31 -1q37 0 55 -2q8 0 26.5 -1t27.5 -3q12 -2 27.5 -4t29.5 -4l14 67q6 28 7 53q0 35 -13 60q-23 43 -57 68q-43 29 -84 36q-51 10 -78 11q-111 0 -199 -27q-84 -25 -178 -76l-41 103q82 45 209 84 q106 33 236 32q68 0 145 -20q68 -18 119 -60q47 -39 69 -106q11 -33 11 -75q0 -38 -9 -83l-129 -610h-137l33 156q-37 -37 -100 -78q-61 -39 -107 -58q-51 -20 -106 -32q-43 -10 -99 -11q-186 0 -264 70q-58 52 -58 139q0 31 7 66zM92 252q-4 -13 -3 -27q0 -43 36 -82 q45 -49 170 -49q86 0 160 25q72 25 131 63q51 35 92 82q33 37 43 78l18 88q-72 10 -127 10q-23 0 -57.5 1t-48.5 1q-66 0 -144 -10q-63 -8 -127 -33q-55 -23 -94 -57q-39 -37 -49 -90zM326 1118l39 187h186l-39 -187h-186zM698 1118l39 187h187l-39 -187h-187z" />
<glyph unicode="&#xe5;" d="M-45 252q18 89 74 147q57 59 137 94t174 50q102 16 192 16q12 0 35 -1t31 -1q37 0 55 -2q8 0 26.5 -1t27.5 -3q12 -2 27.5 -4t29.5 -4l14 67q6 28 7 53q0 35 -13 60q-23 43 -57 68q-43 29 -84 36q-51 10 -78 11q-111 0 -199 -27q-84 -25 -178 -76l-41 103q82 45 209 84 q106 33 236 32q68 0 145 -20q68 -18 119 -60q47 -39 69 -106q11 -33 11 -75q0 -38 -9 -83l-129 -610h-137l33 156q-37 -37 -100 -78q-61 -39 -107 -58q-51 -20 -106 -32q-43 -10 -99 -11q-186 0 -264 70q-58 52 -58 139q0 31 7 66zM92 252q-4 -13 -3 -27q0 -43 36 -82 q45 -49 170 -49q86 0 160 25q72 25 131 63q51 35 92 82q33 37 43 78l18 88q-72 10 -127 10q-23 0 -57.5 1t-48.5 1q-66 0 -144 -10q-63 -8 -127 -33q-55 -23 -94 -57q-39 -37 -49 -90zM410 1257q8 41 36 89q25 39 64 71q35 29 82 49q39 16 90 17q53 0 86 -17q37 -18 61 -49 q20 -25 31 -71q8 -39 0 -89q-10 -47 -35 -88q-25 -39 -63 -71q-35 -29 -82 -49q-39 -16 -92 -17q-51 0 -84 17q-37 18 -62 49q-27 33 -34 71q-10 43 2 88zM500 1257q-12 -55 18 -96q31 -39 88.5 -39t104.5 39q47 37 59 96q12 53 -20 97q-31 39 -86 39q-57 0 -105 -39 q-47 -38 -59 -97z" />
<glyph unicode="&#xe6;" d="M-82 254q14 78 57 139q39 57 95 94q49 33 120 54q63 18 127 18q6 0 22.5 -1t22.5 -1q16 0 46 -4l20 96q14 76 -6.5 133.5t-93.5 57.5q-45 0 -97 -35q-55 -37 -102 -96l-68 84q35 45 76 73q53 37 82 52q35 16 74 26q37 10 59 10q74 0 125 -34q49 -33 55 -113 q49 80 119 113q76 35 144 34q92 0 133 -57q41 -55 49 -137q8 -78 -4 -174q-14 -115 -29 -168h-428q-34 -166 -12 -240q20 -74 100 -74q43 0 88 29q39 27 76 94l109 -37q-61 -113 -132 -161q-72 -51 -176 -52q-74 0 -127 50q-53 51 -57 143q-16 -31 -47 -68q-27 -33 -66 -61 q-41 -31 -79.5 -47.5t-92.5 -16.5q-119 0 -159 78q-43 82 -23 199zM53 244q-12 -55 8 -97q22 -43 80 -43q37 0 68 15q37 16 63 43q33 33 50 61q25 43 32 78l29 137q-8 2 -35 2q-8 0 -22.5 1t-22.5 1q-86 0 -158 -49t-92 -149zM541 539h280q35 164 19 231q-16 70 -88 70 q-66 0 -119 -66q-55 -67 -92 -235z" />
<glyph unicode="&#xe7;" d="M-10 276q-12 82 10 189q20 102 75.5 196.5t125 156t172.5 100.5q94 37 205 36q39 0 86 -10q39 -8 77 -31q33 -18 60 -49q27 -29 35 -67l28 135h123l-78 -373h-123q12 66 2 113q-12 51 -43 88q-27 33 -83 57q-47 20 -111 21q-82 0 -152 -29q-68 -27 -123 -80 q-45 -43 -86 -117q-33 -61 -53 -147q-18 -78 -8 -147.5t45 -116.5q37 -49 96 -78q61 -29 142 -29q102 0 194 41q88 39 148 109l82 -66q-66 -78 -168 -133q-92 -51 -211 -63l-6 -23q-31 -147 -132 -235q-106 -94 -256 -95l25 117q201 0 248 213l4 21q-100 10 -172 44.5 t-119 102.5q-47 65 -59 149z" />
<glyph unicode="&#xe8;" d="M-12 266q-7 35 -7 74q0 58 15 125q22 108 74 197q53 92 127 153q80 66 172 103q94 37 204 36q117 0 199 -41q78 -39 125 -110q45 -70 51 -168l2 -48q0 -83 -18 -169h-805q-3 -26 -3 -51q0 -113 60 -185q74 -88 224 -88q102 0 194 43q94 43 148 107l81 -66 q-86 -94 -198 -149q-104 -51 -250 -52q-113 0 -190 35q-82 37 -134 101q-53 65 -71 153zM154 535h657q1 18 1 34q0 131 -64 195q-74 74 -201 74q-68 0 -127 -21q-55 -20 -111 -61q-51 -39 -92 -97q-43 -58 -63 -124zM397 1255l88 109l344 -287l-53 -65z" />
<glyph unicode="&#xe9;" d="M-12 266q-7 35 -7 74q0 58 15 125q22 108 74 197q53 92 127 153q80 66 172 103q94 37 204 36q117 0 199 -41q78 -39 125 -110q45 -70 51 -168l2 -48q0 -83 -18 -169h-805q-3 -26 -3 -51q0 -113 60 -185q74 -88 224 -88q102 0 194 43q94 43 148 107l81 -66 q-86 -94 -198 -149q-104 -51 -250 -52q-113 0 -190 35q-82 37 -134 101q-53 65 -71 153zM154 535h657q1 18 1 34q0 131 -64 195q-74 74 -201 74q-68 0 -127 -21q-55 -20 -111 -61q-51 -39 -92 -97q-43 -58 -63 -124zM371 1077l465 287l43 -109l-484 -243z" />
<glyph unicode="&#xea;" d="M-12 266q-7 35 -7 74q0 58 15 125q22 108 74 197q53 92 127 153q80 66 172 103q94 37 204 36q117 0 199 -41q78 -39 125 -110q45 -70 51 -168l2 -48q0 -83 -18 -169h-805q-3 -26 -3 -51q0 -113 60 -185q74 -88 224 -88q102 0 194 43q94 43 148 107l81 -66 q-86 -94 -198 -149q-104 -51 -250 -52q-113 0 -190 35q-82 37 -134 101q-53 65 -71 153zM154 535h657q1 18 1 34q0 131 -64 195q-74 74 -201 74q-68 0 -127 -21q-55 -20 -111 -61q-51 -39 -92 -97q-43 -58 -63 -124zM299 1077l358 291l238 -287l-68 -67l-198 205l-289 -207z " />
<glyph unicode="&#xeb;" d="M-12 266q-7 35 -7 74q0 58 15 125q22 108 74 197q53 92 127 153q80 66 172 103q94 37 204 36q117 0 199 -41q78 -39 125 -110q45 -70 51 -168l2 -48q0 -83 -18 -169h-805q-3 -26 -3 -51q0 -113 60 -185q74 -88 224 -88q102 0 194 43q94 43 148 107l81 -66 q-86 -94 -198 -149q-104 -51 -250 -52q-113 0 -190 35q-82 37 -134 101q-53 65 -71 153zM154 535h657q1 18 1 34q0 131 -64 195q-74 74 -201 74q-68 0 -127 -21q-55 -20 -111 -61q-51 -39 -92 -97q-43 -58 -63 -124zM326 1118l39 187h186l-39 -187h-186zM698 1118l39 187 h187l-39 -187h-187z" />
<glyph unicode="&#xec;" d="M647 0h-559l25 117h211l147 694h-211l25 121h348l-172 -815h211zM397 1255l88 109l344 -287l-53 -65z" />
<glyph unicode="&#xed;" d="M647 0h-559l25 117h211l147 694h-211l25 121h348l-172 -815h211zM371 1077l465 287l43 -109l-484 -243z" />
<glyph unicode="&#xee;" d="M647 0h-559l25 117h211l147 694h-211l25 121h348l-172 -815h211zM299 1077l358 291l238 -287l-68 -67l-198 205l-289 -207z" />
<glyph unicode="&#xef;" d="M647 0h-559l25 117h211l147 694h-211l25 121h348l-172 -815h211zM326 1118l39 187h186l-39 -187h-186zM698 1118l39 187h187l-39 -187h-187z" />
<glyph unicode="&#xf0;" d="M-45 354q23 106 98 187q77 80 191 141q104 57 258 102q144 43 307 68q-29 72 -76 125q-55 63 -108 102l-222 -182l-61 80l193 160q-29 18 -74 39q-47 20 -84 34l69 117q115 -49 199 -98l174 143l62 -80l-148 -123q76 -55 123 -114q53 -68 84 -142q33 -80 41 -170 q8 -92 -16 -206q-27 -125 -86 -232q-58 -104 -142 -178q-78 -70 -186 -111q-102 -39 -225 -39q-205 0 -307.5 96.5t-63.5 280.5zM92 354q-25 -117 45 -188q68 -72 213 -72q88 0 170 33q80 33 139 88q61 58 105 141q41 80 63 181q10 49 15 104q2 45 -4 98q-137 -14 -279 -51 q-125 -33 -227 -84q-98 -49 -162 -112q-60 -60 -78 -138z" />
<glyph unicode="&#xf1;" d="M-49 0l196 932h138l-49 -234q154 256 407 256q278 0 278 -247q0 -59 -16 -132l-121 -575h-137l121 575q11 52 11 93q0 60 -23 100q-41 70 -162 70q-76 0 -145 -35q-63 -33 -123 -94q-55 -59 -95 -134q-35 -68 -55 -157l-88 -418h-137zM217 1124q125 156 279 156 q57 0 90 -18q31 -16 55 -41q2 -2 45 -39q22 -18 62 -19q102 0 190 113l70 -47q-123 -158 -279 -158q-57 0 -90 19q-31 16 -55 40q-2 2 -45 39q-22 18 -62 19q-101 0 -190 -111z" />
<glyph unicode="&#xf2;" d="M-29 264q-6 36 -6 76q0 60 15 123q20 102 77 199q55 92 131 155q74 61 177 101q98 37 206.5 36.5t192.5 -36.5q82 -37 133 -101q49 -61 66 -155q6 -38 6 -80q0 -57 -13 -119q-25 -109 -77 -199q-47 -82 -131 -151q-74 -61 -177 -101q-92 -35 -209 -35q-113 0 -190 35 q-82 37 -133 101q-54 65 -68 151zM106 315q8 -63 46 -116q33 -47 94 -76t141 -29t153.5 29t127.5 76q63 55 96 116q37 68 55 148q12 50 12 97q0 25 -4 50q-8 66 -47 119q-37 53 -94 80q-61 29 -141 29t-154 -29q-72 -29 -127 -80q-61 -57 -94 -119q-39 -70 -53 -147 q-13 -57 -13 -105q-1 -22 2 -43zM397 1255l88 109l344 -287l-53 -65z" />
<glyph unicode="&#xf3;" d="M-29 264q-6 36 -6 76q0 60 15 123q20 102 77 199q55 92 131 155q74 61 177 101q98 37 206.5 36.5t192.5 -36.5q82 -37 133 -101q49 -61 66 -155q6 -38 6 -80q0 -57 -13 -119q-25 -109 -77 -199q-47 -82 -131 -151q-74 -61 -177 -101q-92 -35 -209 -35q-113 0 -190 35 q-82 37 -133 101q-54 65 -68 151zM106 315q8 -63 46 -116q33 -47 94 -76t141 -29t153.5 29t127.5 76q63 55 96 116q37 68 55 148q12 50 12 97q0 25 -4 50q-8 66 -47 119q-37 53 -94 80q-61 29 -141 29t-154 -29q-72 -29 -127 -80q-61 -57 -94 -119q-39 -70 -53 -147 q-13 -57 -13 -105q-1 -22 2 -43zM371 1077l465 287l43 -109l-484 -243z" />
<glyph unicode="&#xf4;" d="M-29 264q-6 36 -6 76q0 60 15 123q20 102 77 199q55 92 131 155q74 61 177 101q98 37 206.5 36.5t192.5 -36.5q82 -37 133 -101q49 -61 66 -155q6 -38 6 -80q0 -57 -13 -119q-25 -109 -77 -199q-47 -82 -131 -151q-74 -61 -177 -101q-92 -35 -209 -35q-113 0 -190 35 q-82 37 -133 101q-54 65 -68 151zM106 315q8 -63 46 -116q33 -47 94 -76t141 -29t153.5 29t127.5 76q63 55 96 116q37 68 55 148q12 50 12 97q0 25 -4 50q-8 66 -47 119q-37 53 -94 80q-61 29 -141 29t-154 -29q-72 -29 -127 -80q-61 -57 -94 -119q-39 -70 -53 -147 q-13 -57 -13 -105q-1 -22 2 -43zM299 1077l358 291l238 -287l-68 -67l-198 205l-289 -207z" />
<glyph unicode="&#xf5;" d="M-29 264q-6 36 -6 76q0 60 15 123q20 102 77 199q55 92 131 155q74 61 177 101q98 37 206.5 36.5t192.5 -36.5q82 -37 133 -101q49 -61 66 -155q6 -38 6 -80q0 -57 -13 -119q-25 -109 -77 -199q-47 -82 -131 -151q-74 -61 -177 -101q-92 -35 -209 -35q-113 0 -190 35 q-82 37 -133 101q-54 65 -68 151zM106 315q8 -63 46 -116q33 -47 94 -76t141 -29t153.5 29t127.5 76q63 55 96 116q37 68 55 148q12 50 12 97q0 25 -4 50q-8 66 -47 119q-37 53 -94 80q-61 29 -141 29t-154 -29q-72 -29 -127 -80q-61 -57 -94 -119q-39 -70 -53 -147 q-13 -57 -13 -105q-1 -22 2 -43zM217 1124q125 156 279 156q57 0 90 -18q31 -16 55 -41q2 -2 45 -39q22 -18 62 -19q102 0 190 113l70 -47q-123 -158 -279 -158q-57 0 -90 19q-31 16 -55 40q-2 2 -45 39q-22 18 -62 19q-101 0 -190 -111z" />
<glyph unicode="&#xf6;" d="M-29 264q-6 36 -6 76q0 60 15 123q20 102 77 199q55 92 131 155q74 61 177 101q98 37 206.5 36.5t192.5 -36.5q82 -37 133 -101q49 -61 66 -155q6 -38 6 -80q0 -57 -13 -119q-25 -109 -77 -199q-47 -82 -131 -151q-74 -61 -177 -101q-92 -35 -209 -35q-113 0 -190 35 q-82 37 -133 101q-54 65 -68 151zM106 315q8 -63 46 -116q33 -47 94 -76t141 -29t153.5 29t127.5 76q63 55 96 116q37 68 55 148q12 50 12 97q0 25 -4 50q-8 66 -47 119q-37 53 -94 80q-61 29 -141 29t-154 -29q-72 -29 -127 -80q-61 -57 -94 -119q-39 -70 -53 -147 q-13 -57 -13 -105q-1 -22 2 -43zM326 1118l39 187h186l-39 -187h-186zM698 1118l39 187h187l-39 -187h-187z" />
<glyph unicode="&#xf7;" d="M-10 420l26 117h932l-26 -117h-932zM276 12l39 187h187l-39 -187h-187zM434 758l41 186h187l-41 -186h-187z" />
<glyph unicode="&#xf8;" d="M-141 0l26 119l105 74q-43 119 -10 270q20 102 77 199q55 92 131 155q74 61 177 101q98 37 206 36q113 0 195 -36q78 -35 133 -107l176 121l-24 -119l-111 -76q47 -123 16 -274q-25 -109 -77 -199q-47 -82 -131 -151q-74 -61 -177 -101q-92 -35 -209 -35q-113 0 -194 37 q-83 37 -135 105zM115 279l665 452q-37 49 -96 78q-61 29 -139 29q-80 0 -154 -29q-72 -29 -127 -80q-61 -57 -94 -119q-39 -70 -53 -147q-25 -106 -2 -184zM152 201q39 -51 94 -78q61 -29 141 -29t153.5 29t127.5 76q63 55 96 116q37 68 55 148q23 111 -4 190z" />
<glyph unicode="&#xf9;" d="M25 356l122 576h138l-123 -576q-10 -50 -10 -90q0 -64 24 -104q40 -68 160 -68q72 0 145 35q66 31 125 94q61 66 94 133q37 78 56 158l88 418h137l-197 -932h-137l49 233q-154 -256 -407 -256q-279 0 -279 250q0 58 15 129zM397 1257l88 109l344 -287l-53 -65z" />
<glyph unicode="&#xfa;" d="M25 356l122 576h138l-123 -576q-10 -50 -10 -90q0 -64 24 -104q40 -68 160 -68q72 0 145 35q66 31 125 94q61 66 94 133q37 78 56 158l88 418h137l-197 -932h-137l49 233q-154 -256 -407 -256q-279 0 -279 250q0 58 15 129zM371 1077l465 287l43 -109l-484 -243z" />
<glyph unicode="&#xfb;" d="M25 356l122 576h138l-123 -576q-10 -50 -10 -90q0 -64 24 -104q40 -68 160 -68q72 0 145 35q66 31 125 94q61 66 94 133q37 78 56 158l88 418h137l-197 -932h-137l49 233q-154 -256 -407 -256q-279 0 -279 250q0 58 15 129zM299 1077l358 291l238 -287l-68 -67l-198 205 l-289 -207z" />
<glyph unicode="&#xfc;" d="M25 356l122 576h138l-123 -576q-10 -50 -10 -90q0 -64 24 -104q40 -68 160 -68q72 0 145 35q66 31 125 94q61 66 94 133q37 78 56 158l88 418h137l-197 -932h-137l49 233q-154 -256 -407 -256q-279 0 -279 250q0 58 15 129zM326 1118l39 187h186l-39 -187h-186zM698 1118 l39 187h187l-39 -187h-187z" />
<glyph unicode="&#xfd;" d="M-176 -360l51 118q33 -18 84 -28q39 -8 74 -9q68 0 98 33q43 47 62 78l88 141l-213 959h161l164 -815l502 815h164l-752 -1168q-57 -96 -137 -129q-76 -31 -164 -30q-94 0 -182 35zM371 1077l465 287l43 -109l-484 -243z" />
<glyph unicode="&#xfe;" d="M-127 -373l354 1678h138l-97 -449q147 98 297 98q104 0 187 -34q78 -33 127 -99q47 -63 63 -153q14 -84 -8 -203q-27 -115 -76 -199q-51 -88 -127 -153.5t-170 -102.5q-90 -35 -205 -35q-150 0 -254 99l-94 -447h-135zM133 215q89 -129 246 -129q78 0 151 29 q71 28 123 80q53 53 88 120q33 63 54 150q16 86 10 151q-6 68 -37 117q-35 53 -88 80q-61 29 -139 29q-156 0 -301 -127z" />
<glyph unicode="&#xff;" d="M-176 -360l51 118q33 -18 84 -28q39 -8 74 -9q68 0 98 33q43 47 62 78l88 141l-213 959h161l164 -815l502 815h164l-752 -1168q-57 -96 -137 -129q-76 -31 -164 -30q-94 0 -182 35zM326 1118l39 187h186l-39 -187h-186zM698 1118l39 187h187l-39 -187h-187z" />
<glyph unicode="&#x131;" d="M647 0h-559l25 117h211l147 694h-211l25 121h348l-172 -815h211z" />
<glyph unicode="&#x152;" d="M25 651q143 676 432 676q72 0 100.5 -39t40.5 -117l29 134h483l-25 -117h-372l-101 -467h283l-25 -117h-282l-103 -487h373l-24 -117h-484l27 133q-49 -86 -88 -119q-43 -37 -119 -37q-286 0 -145 674zM104 250q0 -74 23 -115t68 -41q47 0 84 41q39 43 69 115 q33 80 60 176q14 53 53 225q37 186 43 226q16 111 16 178q0 76 -20 114q-23 41 -68 41q-49 0 -86 -41q-35 -37 -70 -114q-34 -74 -61 -178q-33 -127 -53 -226q-27 -121 -43 -225q-15 -94 -15 -176z" />
<glyph unicode="&#x153;" d="M-37 465q104 489 383 489q164 0 168 -194q45 94 111 145q63 49 149 49q98 0 146 -53q45 -51 57 -131q10 -72 -2 -174q-12 -95 -31 -178h-428q-34 -166 -12 -240q20 -74 100 -74q47 0 86 27q37 27 70 100l117 -41q-115 -213 -299 -213q-178 0 -185 201q-86 -201 -256 -201 q-274 1 -174 488zM100 465q-80 -377 61.5 -377t221.5 377q80 375 -61.5 375t-221.5 -375zM541 539h280q33 150 21 227q-12 74 -92 74q-84 0 -129 -78q-47 -80 -80 -223z" />
<glyph unicode="&#x178;" d="M88 0l25 117h211l94 446l-178 625h-107l25 117h368l-24 -117h-109l123 -492l330 492h-109l25 117h368l-24 -117h-107l-444 -625l-94 -446h211l-25 -117h-559zM406 1489l39 187h186l-39 -187h-186zM778 1489l39 187h187l-39 -187h-187z" />
<glyph unicode="&#x2c6;" d="M299 1077l358 291l238 -287l-68 -67l-198 205l-289 -207z" />
<glyph unicode="&#x2da;" d="M410 1257q8 41 36 89q25 39 64 71q35 29 82 49q39 16 90 17q53 0 86 -17q37 -18 61 -49q20 -25 31 -71q8 -39 0 -89q-10 -47 -35 -88q-25 -39 -63 -71q-35 -29 -82 -49q-39 -16 -92 -17q-51 0 -84 17q-37 18 -62 49q-27 33 -34 71q-10 43 2 88zM500 1257q-12 -55 18 -96 q31 -39 88.5 -39t104.5 39q47 37 59 96q12 53 -20 97q-31 39 -86 39q-57 0 -105 -39q-47 -38 -59 -97z" />
<glyph unicode="&#x2dc;" d="M217 1124q125 156 279 156q57 0 90 -18q31 -16 55 -41q2 -2 45 -39q22 -18 62 -19q102 0 190 113l70 -47q-123 -158 -279 -158q-57 0 -90 19q-31 16 -55 40q-2 2 -45 39q-22 18 -62 19q-101 0 -190 -111z" />
<glyph unicode="&#x2000;" horiz-adv-x="868" />
<glyph unicode="&#x2001;" horiz-adv-x="1738" />
<glyph unicode="&#x2002;" horiz-adv-x="868" />
<glyph unicode="&#x2003;" horiz-adv-x="1738" />
<glyph unicode="&#x2004;" horiz-adv-x="577" />
<glyph unicode="&#x2005;" horiz-adv-x="432" />
<glyph unicode="&#x2006;" horiz-adv-x="288" />
<glyph unicode="&#x2007;" horiz-adv-x="288" />
<glyph unicode="&#x2008;" horiz-adv-x="215" />
<glyph unicode="&#x2009;" horiz-adv-x="346" />
<glyph unicode="&#x200a;" horiz-adv-x="94" />
<glyph unicode="&#x2010;" d="M-10 420l26 117h932l-26 -117h-932z" />
<glyph unicode="&#x2011;" d="M-10 420l26 117h932l-26 -117h-932z" />
<glyph unicode="&#x2012;" d="M-10 420l26 117h932l-26 -117h-932z" />
<glyph unicode="&#x2013;" d="M-10 424l24 108h932l-24 -108h-932z" />
<glyph unicode="&#x2014;" d="M-100 424l22 108h1118l-24 -108h-1116z" />
<glyph unicode="&#x2018;" d="M485 745l45 218q23 82 50 131q33 61 82 106q51 47 116 76q61 27 146 27l-25 -117q-203 0 -252 -223l-6 -31h203l-39 -187h-320z" />
<glyph unicode="&#x2019;" d="M246 748l24 116q205 0 250 223l8 31h-202l39 187h319l-47 -218q-18 -78 -47 -131q-31 -57 -84 -106q-49 -45 -115 -74q-67 -28 -145 -28z" />
<glyph unicode="&#x201a;" d="M381 -371l22 117q205 0 250 223l9 31h-201l39 186h317l-47 -217q-18 -78 -47 -131q-31 -57 -84 -106q-49 -47 -113 -74q-67 -29 -145 -29z" />
<glyph unicode="&#x201c;" d="M115 745l45 218q14 59 49 131q29 55 82 106q53 49 114.5 76t145.5 27l-25 -117q-201 0 -250 -223l-6 -31h201l-39 -187h-317zM672 745l45 218q16 72 49 131q31 57 84 106t114.5 76t145.5 27l-25 -117q-203 0 -251 -223l-7 -31h203l-39 -187h-319z" />
<glyph unicode="&#x201d;" d="M59 748l25 116q205 0 250 223l8 31h-203l39 187h320l-47 -218q-18 -78 -48 -131q-31 -57 -84 -106q-49 -45 -114 -74q-68 -28 -146 -28zM618 748l25 116q203 0 248 223l8 31h-201l39 187h318l-47 -218q-18 -78 -47 -131q-33 -61 -82.5 -106t-114.5 -74q-68 -28 -146 -28z " />
<glyph unicode="&#x201e;" d="M-178 -371l24 117q205 0 250 223l8 31h-202l39 186h319l-47 -217q-18 -78 -47 -131q-31 -57 -84 -106q-49 -45 -115 -74q-67 -29 -145 -29zM381 -371l25 117q203 0 247 223l9 31h-201l39 186h317l-47 -217q-18 -78 -47 -131q-33 -61 -82 -106t-115 -74q-67 -29 -145 -29z " />
<glyph unicode="&#x2022;" d="M203 414q-14 66 4 145q16 82 59 146q49 74 105 116q61 49 135 80t151 31q76 0 138 -31q63 -31 102 -80q40 -49 55 -116q16 -68 0 -146q-18 -78 -61 -145.5t-105 -116.5q-66 -51 -137 -82q-70 -29 -149 -29q-82 0 -140 29q-59 31 -102 82q-40 49 -55 117z" />
<glyph unicode="&#x2026;" d="M-98 0l39 186h186l-39 -186h-186zM274 0l39 186h187l-39 -186h-187zM647 0l39 186h186l-38 -186h-187z" />
<glyph unicode="&#x202f;" horiz-adv-x="346" />
<glyph unicode="&#x2039;" d="M201 477l397 330l61 -80l-301 -250l195 -248l-94 -79z" />
<glyph unicode="&#x203a;" d="M276 227l302 250l-195 250l96 78l256 -328l-395 -327z" />
<glyph unicode="&#x205f;" horiz-adv-x="432" />
<glyph unicode="&#x20ac;" d="M-4 446l24 113h154q0 2 2 19.5t4 27.5q8 35 10 45q2 8 5.5 23.5t5.5 23.5q8 33 12 47h-154l25 113h166q29 82 82 182q41 76 110 150q61 63 138 100t165 37q141 0 216 -88q76 -90 83 -276l-126 -31q-4 125 -52 201q-49 78 -141 77q-100 0 -186 -88q-88 -90 -152 -264h256 l-25 -113h-268q-2 -8 -5 -23t-5 -22l-12 -49q-4 -33 -9 -47q-4 -12 -8 -45h269l-25 -113h-256q-16 -180 37 -266t151 -86q94 0 175 78q82 78 137 203l114 -33q-90 -184 -204 -276q-109 -88 -250 -89q-88 0 -150 37q-63 37 -96 99q-35 63 -47 149t-6 184h-164z" />
<glyph unicode="&#x2122;" d="M154 1192l24 113h465l-25 -113h-176l-94 -447h-112l94 447h-176zM621 745l118 560h158l51 -328l191 328h157l-118 -560h-111l84 394l-201 -334h-78l-57 334l-84 -394h-110z" />
<glyph unicode="&#xe000;" horiz-adv-x="930" d="M0 930h930v-930h-930v930z" />
<glyph unicode="&#xfb01;" d="M-98 0l24 117h211l148 698h-211l24 117h211q41 190 162 291q123 100 322 100q59 0 79 -2q12 -2 32 -5t22 -3l-25 -117q-18 2 -59 6t-74 4q-129 0 -211 -65q-80 -65 -111 -209h560l-172 -815h210l-24 -117h-1118zM274 117h422l148 698h-422z" />
<glyph unicode="&#xfb02;" d="M-98 0l24 117h211l148 698h-211l24 117h211q41 190 162 291q123 100 322 100q111 0 168 -8q72 -10 120 -27l-247 -1171h210l-24 -117h-1118zM274 117h422l228 1075q-4 0 -14.5 2t-21.5 3t-22 3q-37 6 -98 6q-129 0 -211 -65q-80 -65 -111 -209h211l-24 -117h-211z" />
<glyph unicode="&#xfb03;" horiz-adv-x="3352" d="M2324 0l25 117h211l147 698h-211l25 117h348l-172 -815h211l-25 -117h-559zM2748 1118l39 187h186l-39 -187h-186zM1206 0l25 117h211l147 698h-211l25 117h211q39 190 161 293q121 102 322 102q35 0 80 -4q29 -2 53 -6l-25 -117q-18 2 -59 6t-74 4q-131 0 -210.5 -67.5 t-110.5 -210.5h397l-24 -117h-398l-147 -698h211l-25 -117h-559zM88 0l25 117h211l147 698h-211l25 117h211q39 190 161 293q121 102 322 102q35 0 80 -4q29 -2 53 -6l-25 -117q-18 2 -59 6t-74 4q-131 0 -210.5 -67.5t-110.5 -210.5h397l-24 -117h-398l-147 -698h211 l-25 -117h-559z" />
<glyph unicode="&#xfb04;" horiz-adv-x="3352" d="M2324 0l25 117h211l227 1071h-211l25 117h348l-252 -1188h211l-25 -117h-559zM1206 0l25 117h211l147 698h-211l25 117h211q39 190 161 293q121 102 322 102q35 0 80 -4q29 -2 53 -6l-25 -117q-18 2 -59 6t-74 4q-131 0 -210.5 -67.5t-110.5 -210.5h397l-24 -117h-398 l-147 -698h211l-25 -117h-559zM88 0l25 117h211l147 698h-211l25 117h211q39 190 161 293q121 102 322 102q35 0 80 -4q29 -2 53 -6l-25 -117q-18 2 -59 6t-74 4q-131 0 -210.5 -67.5t-110.5 -210.5h397l-24 -117h-398l-147 -698h211l-25 -117h-559z" />
</font>
</defs>
</svg>
