<?xml version="1.0" standalone="no"?>
<!DOCTYPE svg PUBLIC "-//W3C//DTD SVG 1.1//EN" "http://www.w3.org/Graphics/SVG/1.1/DTD/svg11.dtd" >
<svg xmlns="http://www.w3.org/2000/svg">
<metadata>
This is a custom SVG webfont generated by Font Squirrel.
Copyright   : Copyright c Mark Simonson 20092010 All rights reserved
Designer    : Mark Simonson
Foundry URL : httpwwwmsstudiocom
</metadata>
<defs>
<font id="webfonty8871YFO" horiz-adv-x="1116" >
<font-face units-per-em="2048" ascent="1675" descent="-373" />
<missing-glyph horiz-adv-x="500" />
<glyph unicode=" " />
<glyph unicode="!" d="M373 0v186h186v-186h-186zM373 1305h184l-51 -938h-82z" />
<glyph unicode="&#x22;" d="M186 1305h187l-43 -465h-101zM559 1305h186l-40 -465h-103z" />
<glyph unicode="#" d="M0 221v111h221v264h-221v109h221v229h117v-229h256v229h117v-229h221v-109h-221v-264h221v-111h-221v-221h-117v221h-256v-221h-117v221h-221zM338 332h256v264h-256v-264z" />
<glyph unicode="$" d="M0 342l129 33q20 -100 88 -176q63 -74 180 -95v527q-96 35 -149 63q-76 41 -113 74q-45 41 -69 98q-23 51 -23 127q0 63 25 119q27 59 69 102q46 46 111 74q70 31 149 39v164h138v-164q70 -8 139 -45q61 -33 108 -82q45 -47 74 -108.5t35 -120.5l-143 -25q-12 86 -66 162 q-49 70 -147 92v-471q182 -68 274 -154q90 -84 90 -235q0 -66 -24.5 -127t-71.5 -109q-45 -45 -115 -79q-61 -31 -153 -41v-170h-138v170q-84 10 -153 41q-61 29 -117 79q-55 53 -84 109q-31 61 -43 129zM184 995q0 -78 58 -129q55 -49 155 -90v426q-61 -10 -96 -28 q-39 -20 -65 -52q-29 -31 -39 -61q-13 -33 -13 -66zM535 104q117 18 165 80q45 57 50 144q0 88 -54 147q-55 61 -161 107v-478z" />
<glyph unicode="%" d="M-20 1073q0 47 20 98.5t51 82t80 53.5q43 20 98.5 20t98.5 -20q49 -23 80 -54q35 -35 53 -82q20 -51 20 -98q0 -45 -20 -96q-18 -45 -53 -80q-34 -34 -80 -55q-43 -20 -98.5 -20.5t-98.5 20.5q-46 22 -80 55q-33 33 -51 80q-20 51 -20 96zM2 33l838 1302l92 -63 l-836 -1299zM80 1073q0 -63 43 -106q45 -45 106.5 -45t106.5 45q43 43 43 106q0 66 -43 109t-106.5 43t-106.5 -43t-43 -109zM455 229q0 55 20.5 98.5t54.5 78.5q37 37 78 53q51 20 98.5 20t98.5 -20q45 -18 80 -53t55.5 -78t20.5 -98.5t-21 -98.5q-23 -49 -53 -80 q-37 -37 -82 -55q-46 -18 -98.5 -18.5t-98.5 18.5q-41 16 -78 53q-34 34 -55 80q-20 43 -20 100zM557 229.5q0 -63.5 43 -106.5q45 -45 106.5 -45t106.5 45t45 106.5t-45 106.5q-43 43 -106.5 43t-106.5 -43t-43 -106.5z" />
<glyph unicode="&#x26;" d="M-25 334q0 63 13 115q12 53 37 96q16 29 57 73q37 41 68 64q-63 80 -96.5 153.5t-33.5 155.5q0 156 88.5 246t239.5 90q72 0 127 -20q61 -23 104.5 -60t68 -92t24.5 -123q0 -78 -31 -133q-27 -49 -78 -96q-45 -43 -106 -78q-78 -45 -117 -70l360 -338q45 59 78 138 q33 80 47 143l131 -33q-18 -86 -59 -174t-98 -164l157 -147l-94 -107l-157 154q-76 -66 -164 -109q-84 -41 -195 -41q-78 0 -143.5 27t-116.5 78q-55 55 -82 111q-29 59 -29 141zM123 334q0 -92 63 -160q61 -66 160 -65q78 0 146 30q74 33 120 78l-344 336l-30 29 q-55 -49 -84 -103q-31 -57 -31 -145zM162 991q0 -49 18 -106q23 -70 74 -135l102 59q47 27 88 61q37 31 61.5 72t24.5 94q0 76 -53 123q-51 45 -129 45q-45 0 -78 -18q-39 -20 -59 -47q-27 -33 -37 -68q-12 -40 -12 -80z" />
<glyph unicode="'" d="M373 1305h186l-43 -469h-102z" />
<glyph unicode="(" d="M188 567q0 143 29 267q31 132 86 251q53 117 139 228q83 108 191 190l72 -90q-98 -80 -170 -172q-72 -94 -125 -205q-49 -102 -78 -229q-27 -115 -27 -240q0 -127 27 -241q29 -127 78 -228q53 -109 125 -204q76 -100 170 -175l-72 -90q-108 83 -191 191q-86 111 -139 227 q-55 120 -86 252q-29 123 -29 268z" />
<glyph unicode=")" d="M229 -281q98 80 170 172q76 96 127 207q49 104 78 228q27 115 27 239q0 127 -27 242q-29 127 -78 229q-49 104 -127 205q-72 92 -170 172l72 90q108 -83 191 -190q78 -100 139 -228q55 -115 88 -254q29 -123 29 -266t-29 -266q-31 -135 -88 -252q-61 -127 -139 -227 q-83 -108 -191 -191z" />
<glyph unicode="*" d="M35 279l342 190l-342 182l55 97l332 -205l-14 391h116l-14 -391l332 205l55 -97l-342 -182l342 -190l-55 -95l-332 203l14 -387h-116l14 387l-332 -203z" />
<glyph unicode="+" d="M0 420v117h408v407h116v-407h408v-117h-408v-408h-116v408h-408z" />
<glyph unicode="," d="M240 -373l186 559h184l-274 -559h-96z" />
<glyph unicode="-" d="M0 420v117h932v-117h-932z" />
<glyph unicode="." d="M373 0v186h186v-186h-186z" />
<glyph unicode="/" d="M41 -188l766 1542l98 -51l-766 -1543z" />
<glyph unicode="0" d="M-33 651q0 125 29 252q27 121 86 217q57 94 154 150q98 57 231 57t231 -57q94 -55 156 -150q57 -88 86 -217q27 -119 27 -252q0 -135 -27 -254q-28 -123 -86 -215q-61 -96 -154 -149q-95 -55 -233 -56q-135 0 -231.5 55.5t-155.5 149.5q-58 92 -86 215q-27 119 -27 254z M104 651q0 -143 35 -272l611 645q-49 88 -119 137t-164 49q-178 0 -270 -149q-93 -152 -93 -410zM186 268q98 -176 281 -176q172 0 266 150q96 152 96 409q0 66 -10 137q-9 65 -24 123z" />
<glyph unicode="1" d="M0 745v142q57 0 131 39q68 35 129 96q57 57 98 133q39 72 39 150h138v-1188h210v-117h-559v117h211v891q-23 -47 -57.5 -88t-91.5 -84q-55 -41 -117 -66q-65 -25 -131 -25z" />
<glyph unicode="2" d="M10 856q0 221 117 346t342 125q84 0 158 -24q78 -27 133 -70q55 -45 90 -113q33 -66 33 -153q0 -57 -9 -97q-10 -43 -34 -88q-23 -39 -66 -92q-41 -49 -100 -112l-455 -461h551v256h117v-373h-848v121l508 516q39 39 74 78q33 35 63 80q33 47 45 82q16 45 16 90 q0 121 -79.5 182t-196.5 61q-166 0 -248 -92q-84 -94 -84 -262h-127z" />
<glyph unicode="3" d="M27 379l133 18q12 -151 104 -227q90 -76 232 -76q58 0 110 19q49 16 92 57q41 39 62 84q23 51 22 106q0 78 -26 132q-25 51 -74 77q-55 31 -117 39q-78 10 -164 10v117q66 0 131 13q72 14 113 36q53 31 82 70q31 43 31 113q0 109 -74 176t-188 67q-143 0 -234 -77 q-88 -76 -88 -240h-129q0 104 33 182q35 84 92 137q58 55 141 86q78 29 185 29q84 0 157 -24q72 -25 127 -70q53 -43 84 -113q31 -68 31 -153q0 -113 -66 -185q-68 -74 -190 -92q74 -10 123 -39q53 -31 86 -76q37 -49 53 -100q18 -55 19 -115q0 -84 -35 -157 q-31 -66 -94 -119q-66 -55 -134 -80q-74 -27 -161 -27q-94 0 -177 25q-74 23 -143 78q-63 51 -102 125q-37 72 -47 174z" />
<glyph unicode="4" d="M0 373v119l547 813h174v-813h211v-119h-211v-256h211v-117h-559v117h211v256h-584zM145 492h439v651z" />
<glyph unicode="5" d="M4 387l133 21q6 -63 33 -127q25 -58 68 -99q47 -45 98 -65q53 -23 125 -23q84 0 143 27q66 29 107 74q41 43 67 110q23 55 23 133t-23 137q-23 61 -67 109q-43 46 -105 74q-59 27 -139 26q-78 0 -154 -34q-74 -33 -127 -97h-137v652h817v-117h-680v-408q66 61 136 90 q76 31 157 31q104 0 185 -33q84 -35 145 -92q59 -55 94 -145q35 -88 35 -193q0 -98 -37 -180q-39 -88 -98 -147q-61 -61 -150 -99q-84 -35 -192 -35q-96 0 -174 27q-72 25 -140 82q-63 53 -98 127t-45 174z" />
<glyph unicode="6" d="M-8 651q0 127 35 254q33 119 102 217q66 92 174 150q104 55 242 55q195 0 323 -135l-90 -80q-89 98 -233 98q-102 0 -185 -41q-84 -43 -135 -110q-52 -71 -80 -172q-27 -98 -26 -221q16 53 53 96q39 45 90 78q49 33 111 51q66 20 119 20q100 0 188 -34 q84 -33 147.5 -96.5t96.5 -147.5q35 -88 34 -189q0 -109 -36 -194q-37 -88 -99 -146q-63 -59 -149 -94q-84 -33 -189 -33q-138 0 -233 56q-90 53 -152 149q-57 90 -82 215q-26 133 -26 254zM150 457q0 -78 20 -140q25 -72 61 -114q47 -53 105 -80q63 -29 149 -29 q74 0 135.5 24.5t106.5 69.5t69.5 111t24.5 145q0 70 -22 138q-23 66 -66 112q-45 47 -102 74q-59 27 -139 27q-74 0 -140 -25q-63 -25 -108 -70t-69.5 -106t-24.5 -137z" />
<glyph unicode="7" d="M49 932v373h871v-121q-121 -131 -197 -262q-78 -135 -115 -269q-37 -131 -53 -301q-12 -135 -16 -352h-144q4 213 19 342q18 164 61 309q41 141 121 279q78 135 192 258h-622v-256h-117z" />
<glyph unicode="8" d="M-8 367q0 45 20 106q18 57 55 102.5t89 75.5q49 29 116 39q-59 6 -98 35q-37 27 -72 72q-33 43 -47 86q-16 49 -16 90q0 86 35 155q31 61 94 108.5t137 68.5q80 23 162 22.5t162 -22.5q74 -20 137 -67.5t94 -109.5q35 -70 35 -155q0 -41 -16 -90q-14 -43 -48 -86 q-35 -45 -71 -72q-39 -29 -101 -35q63 -8 115 -39q55 -33 90 -76t58 -102q20 -53 20 -106q0 -100 -37 -174q-35 -70 -102 -121q-66 -51 -152 -72q-90 -23 -184 -23q-96 0 -186 23q-82 20 -150 71.5t-102 121.5q-37 74 -37 174zM129 367q0 -70 27 -121q25 -47 75 -84 q49 -37 109 -51q66 -16 127 -17q63 0 129 17q55 14 106.5 51t75.5 84q27 51 27 121q0 76 -27 122q-29 51 -76 82q-45 29 -106 45q-57 14 -129 15q-70 0 -127 -15q-66 -16 -109 -45q-47 -31 -75 -82q-27 -46 -27 -122zM176 973q0 -102 74 -163.5t217 -61.5t217 61t74 164 q0 109 -78 174q-76 63 -213 63t-213 -63q-78 -65 -78 -174z" />
<glyph unicode="9" d="M-23 860q0 113 35 195q37 88 101 147q59 57 149 92q84 33 189 33q133 0 231 -57q96 -55 154 -150q57 -92 82 -215q27 -129 26 -252q0 -129 -35 -256q-31 -111 -104 -215q-66 -94 -172 -149q-104 -55 -242 -56q-195 0 -323 136l90 80q46 -49 104 -74q57 -25 129 -25 q106 0 184 39q74 37 134 113q53 70 82 172q27 98 26 221q-14 -47 -53 -96q-33 -41 -90.5 -78t-110.5 -53q-61 -18 -119 -19q-100 0 -188 35q-84 33 -147.5 96.5t-96.5 147.5q-35 88 -35 188zM115 860q0 -72 22 -139q20 -63 65.5 -110.5t102.5 -73.5q59 -27 139 -27 q76 0 140 25q61 23 108 67q43 41 70 107q25 61 24.5 139t-20.5 139q-25 76 -61 117q-45 51 -105 78q-63 29 -149 28q-74 0 -135.5 -24.5t-106.5 -69.5t-70 -110q-24 -64 -24 -146z" />
<glyph unicode=":" d="M373 0v186h186v-186h-186zM373 745v187h186v-187h-186z" />
<glyph unicode=";" d="M240 -373l186 559h184l-274 -559h-96zM373 745v187h186v-187h-186z" />
<glyph unicode="&#x3c;" d="M199 477l512 512l77 -80l-432 -432l432 -432l-77 -80z" />
<glyph unicode="=" d="M0 199v116h932v-116h-932zM0 639v119h932v-119h-932z" />
<glyph unicode="&#x3e;" d="M143 45l432 432l-432 432l78 80l512 -512l-512 -512z" />
<glyph unicode="?" d="M168 965q18 170 114.5 266t274.5 96q166 0 258 -86q94 -88 94 -219q0 -76 -28 -137q-25 -53 -72 -107q-45 -51 -94 -92q-51 -43 -94 -88q-45 -47 -72 -102q-29 -57 -29 -123h-145q0 78 31 139q35 70 71 115q47 57 96 100q47 41 95 92q41 43 73 96q29 45 29 107 q0 90 -53 137q-57 51 -158 51q-68 0 -110 -20q-46 -22 -80 -55q-33 -33 -52 -82q-20 -57 -26 -107zM373 0v186h186v-186h-186z" />
<glyph unicode="@" d="M-33 651q0 88 13 174q12 82 36 158q27 80 64 139.5t96 108.5q53 43 127 69q76 27 164 27q135 0 231 -55q94 -55 156 -148q57 -86 86 -204q27 -109 27 -236q0 -78 -11 -137q-12 -76 -38 -127q-29 -57 -72 -92q-47 -37 -113 -37q-25 0 -55 10q-23 8 -47 29q-20 18 -35 45 q-12 25 -12 57v29q-23 -76 -70 -123t-108 -47q-63 0 -109 28q-43 29 -72 78q-23 41 -37 109q-12 61 -12 125q0 74 18.5 141.5t51.5 118.5q33 49 84 82q49 31 116 31q39 0 74 -17q39 -18 64 -55v53h131v-524q0 -31 12 -47q12 -14 35 -15q29 0 49 27q16 23 31 70q12 43 18 92 q4 33 4 96q0 78 -8 137q-10 78 -26.5 131.5t-51.5 112.5q-29 47 -76 92q-39 37 -102 60q-55 20 -133 20q-115 0 -188 -47q-77 -49 -123 -129q-47 -80 -68 -187q-18 -92 -18 -223t18 -221q23 -109 68 -186q46 -80 123 -129q74 -47 188 -47q80 0 147 28q63 27 117 78l60 -68 q-129 -129 -324 -129q-90 0 -164 25q-72 25 -129 72q-55 47 -94 108q-41 68 -66 140q-20 61 -34 157q-13 82 -13 172zM313 633q0 -106 29 -164q27 -55 82 -55q33 0 65 22q31 20 52 58q20 35 32 81q10 39 11 93v141q-20 49 -54 68q-35 20 -69 20q-37 0 -66 -23 q-27 -20 -47 -61q-16 -33 -26 -84q-9 -41 -9 -96z" />
<glyph unicode="A" d="M-59 0l434 1305h186l434 -1305h-147l-123 373h-516l-121 -373h-147zM248 494h438l-219 673z" />
<glyph unicode="B" d="M49 0v1305h393q80 0 160 -13q78 -12 143 -51q59 -35 101 -102q39 -63 39 -172q0 -203 -203 -277q248 -76 248 -317q0 -188 -121 -281q-120 -92 -344 -92h-416zM186 117h279q152 0 240 65.5t88 190.5q0 133 -88 196q-86 61 -240 62h-279v-514zM186 745h256q61 0 111 9 q55 8 96 32q45 25 72 68q27 41 27 113q0 68 -29 112q-28 43 -74 68q-45 25 -98 33q-49 8 -105 8h-256v-443z" />
<glyph unicode="C" d="M-20 651q0 133 26 252q29 123 88 217q61 94 156 150q98 57 231 57q121 0 207 -43q88 -43 127 -131v152h117v-428h-117q0 72 -27 131q-29 63 -71 106q-45 45 -107 70q-66 27 -129 26q-102 0 -176 -51q-63 -45 -110 -131q-39 -74 -60 -178q-18 -98 -18 -198.5t18 -198.5 q20 -104 60 -179q45 -84 110 -129q74 -51 176 -51q244 0 340 295l119 -47q-51 -168 -168 -266.5t-291 -98.5q-137 0 -231 56q-92 53 -156 149q-59 90 -88 215q-26 119 -26 254z" />
<glyph unicode="D" d="M49 0v1305h424q133 0 229 -54q92 -49 156 -143q59 -86 88 -209q29 -121 29 -248q0 -135 -27 -250q-29 -123 -88 -208q-61 -90 -155.5 -141.5t-231.5 -51.5h-424zM186 117h287q172 0 268.5 139t96.5 395q0 252 -97 396q-94 141 -268 141h-287v-1071z" />
<glyph unicode="E" d="M49 0v1305h834v-117h-697v-467h514v-117h-514v-487h697v-117h-834z" />
<glyph unicode="F" d="M49 0v1305h834v-117h-697v-467h514v-117h-514v-604h-137z" />
<glyph unicode="G" d="M-20 651q0 133 26 252q29 123 88 217q61 94 156 150q98 57 231 57q121 0 207 -43q88 -43 127 -131v152h117v-428h-117q0 74 -27 133q-29 66 -71 104q-51 47 -107 70q-66 27 -129 26q-102 0 -176 -51q-63 -45 -110 -131q-39 -74 -60 -178q-18 -98 -18 -198.5t18 -198.5 q20 -104 60 -179q45 -84 110 -129q74 -51 176 -51q158 0 248 121t109 344h-289v117h434v-27q0 -139 -27 -254q-29 -127 -88 -215q-61 -92 -157.5 -147.5t-229.5 -55.5q-137 0 -231 56q-92 53 -156 149q-59 90 -88 215q-26 119 -26 254z" />
<glyph unicode="H" d="M49 0v1305h137v-584h559v584h138v-1305h-138v604h-559v-604h-137z" />
<glyph unicode="I" d="M186 0v117h211v1071h-211v117h559v-117h-210v-1071h210v-117h-559z" />
<glyph unicode="J" d="M-2 342l119 45q43 -163 129 -227q88 -66 209 -66q90 0 149 37q57 37 88 94q29 53 41 129q12 72 12 144v807h138v-807q0 -250 -104.5 -385.5t-323.5 -135.5q-176 0 -291 91q-121 94 -166 274z" />
<glyph unicode="K" d="M49 0v1305h137v-635l559 635h181l-512 -570l512 -735h-168l-434 639l-138 -154v-485h-137z" />
<glyph unicode="L" d="M49 0v1305h137v-1188h697v-117h-834z" />
<glyph unicode="M" d="M49 0v1305h178l238 -682l240 682h178v-1305h-138v1087l-231 -673h-98l-230 673v-1087h-137z" />
<glyph unicode="N" d="M49 0v1305h193l503 -1053v1053h138v-1305h-170l-527 1104v-1104h-137z" />
<glyph unicode="O" d="M-33 651q0 133 27 252q29 129 86 217q61 94 156 150q98 57 231 57t231 -57q96 -55 154 -150q59 -96 86 -217q29 -127 29 -252q0 -135 -27 -254q-28 -123 -86 -215q-61 -96 -154 -149q-95 -55 -233 -56q-135 0 -231.5 55.5t-155.5 149.5q-58 92 -86 215q-27 119 -27 254z M104 651q0 -94 17 -198q16 -100 57 -179q43 -82 113 -129q74 -51 176 -51t176 51q70 47 113 129q41 78 57 179q16 104 16 198q0 127 -24 232q-25 102 -72 178q-43 70 -112 110q-66 39 -154 39q-102 0 -176 -51q-68 -47 -113 -131q-41 -78 -57 -178q-17 -105 -17 -199z" />
<glyph unicode="P" d="M49 0v1305h430q215 0 332 -93q119 -94 119 -280.5t-119 -280.5q-117 -92 -330 -92h-295v-559h-137zM186 676h295q141 0 228 61q84 59 84 195q0 137 -84 196.5t-228 59.5h-295v-512z" />
<glyph unicode="Q" d="M-33 651q0 133 27 252q29 129 86 217q61 94 156 150q98 57 231 57t231 -57q96 -55 154 -150q59 -96 86 -217q29 -127 29 -252q0 -135 -23 -241q-25 -113 -76 -205t-137 -152q-84 -59 -203 -71q20 -131 93 -185q70 -51 204 -51h60q18 0 47 4v-117q-37 -4 -55 -4h-52 q-203 0 -307 86t-127 269q-115 16 -190 71q-82 59 -133.5 147.5t-75.5 203.5q-25 116 -25 245zM104 651q0 -264 95 -409q96 -147 268 -147.5t266 147.5q96 150 96 409q0 100 -18 199q-18 102 -57 178q-41 80 -113 131q-74 51 -174 51q-102 0 -176 -51q-68 -47 -113 -131 q-41 -78 -57 -178q-17 -105 -17 -199z" />
<glyph unicode="R" d="M49 0v1305h430q215 0 332 -93q119 -94 119 -280q0 -80 -29 -148q-25 -59 -80 -110q-53 -51 -119 -76q-68 -27 -151 -33l393 -565h-174l-381 559h-203v-559h-137zM186 676h293q143 0 226 61q84 61 83.5 194.5t-83.5 194.5q-82 61 -226 62h-293v-512z" />
<glyph unicode="S" d="M25 0v397h116q0 -68 31 -123q33 -57 80 -96q49 -40 110 -61q63 -23 127 -23q53 0 107 17q47 14 86 46.5t59.5 73.5t20.5 101q0 63 -26.5 108t-73.5 76q-53 37 -107 55l-117 45l-141 52q-76 29 -127 69q-63 49 -92 103q-35 63 -35 151q0 78 35 142q37 66 88 106 q57 45 129 66q78 23 149 22q96 0 174 -39q82 -41 127 -119v136h121v-373h-121q0 58 -24 110q-25 51 -68 88t-96 58q-57 23 -113 22q-53 0 -102 -12q-47 -12 -84 -39q-37 -29 -57 -67q-20 -41 -21 -101q0 -51 25 -88q23 -33 69 -63q43 -28 99 -49l116 -46q25 -8 148 -59 q74 -31 131 -76t94 -110t37 -160q0 -78 -35 -147q-33 -68 -90 -115q-63 -53 -131 -76q-74 -25 -154 -25q-109 0 -202 41q-88 39 -146 121v-139h-116z" />
<glyph unicode="T" d="M0 864v441h932v-441h-117v324h-280v-1071h210v-117h-559v117h211v1071h-280v-324h-117z" />
<glyph unicode="U" d="M49 467v838h137v-840q0 -53 11 -125q8 -63 41 -121q31 -53 84 -90q51 -35 143 -35t143 35q57 39 86 90q33 57 41 121q10 72 10 125v840h138v-840q0 -113 -25 -201q-25 -90 -76 -153q-53 -66 -131 -99q-82 -35 -186 -35q-106 0 -189 35q-78 33 -126 99q-53 70 -76 153 q-25 92 -25 203z" />
<glyph unicode="V" d="M-59 1305h145l381 -1166l379 1166h149l-436 -1305h-186z" />
<glyph unicode="W" d="M-63 1305h145l184 -1074l131 701h135l132 -701l184 1074h147l-235 -1305h-162l-133 637l-135 -637h-160z" />
<glyph unicode="X" d="M-23 0v117h127l283 540l-278 531h-109v117h373v-117h-109l203 -418l197 418h-105v117h373v-117h-113l-272 -531l280 -540h127v-117h-370v117h88l-205 428l-207 -428h88v-117h-371z" />
<glyph unicode="Y" d="M-20 1188v117h368v-117h-108l227 -492l225 492h-108v117h368v-117h-106l-311 -625v-446h210v-117h-559v117h211v446l-311 625h-106z" />
<glyph unicode="Z" d="M49 0v117l656 1071h-539v-320h-117v437h817v-117l-649 -1071h553v325h117v-442h-838z" />
<glyph unicode="[" d="M373 -373v1864h372v-111h-262v-1640h262v-113h-372z" />
<glyph unicode="\" d="M133 1303l98 51l766 -1542l-98 -52z" />
<glyph unicode="]" d="M186 -260h263v1640h-263v111h373v-1864h-373v113z" />
<glyph unicode="^" d="M2 559l373 746h184l375 -746h-152l-315 612l-313 -612h-152z" />
<glyph unicode="_" d="M0 -70h932v-116h-932v116z" />
<glyph unicode="`" d="M229 1255l66 109l405 -287l-41 -65z" />
<glyph unicode="a" d="M-2 252q0 86 45 147.5t114.5 94t164.5 49.5q98 16 188 16q12 0 33.5 -1t31.5 -1q39 0 58 -2q10 -2 26.5 -2t26.5 -2q8 0 28.5 -3t30.5 -5v67q0 70 -30 113q-33 45 -72 68q-51 29 -90 36q-51 10 -80 11q-106 0 -192 -27q-78 -25 -164 -76l-62 103q76 47 189 84 q100 33 229 32q68 0 150 -20q70 -18 131 -60q59 -41 94 -106.5t35 -157.5v-610h-138v156q-35 -43 -81 -78q-51 -37 -97 -58q-43 -18 -98 -32q-41 -10 -96 -11q-186 0 -280.5 70t-94.5 205zM135 252q0 -59 57.5 -108.5t180.5 -49.5q88 0 155 25q57 20 115 63q45 33 76 82 q27 41 26 78v88q-76 10 -129 10q-23 0 -57.5 1t-48.5 1q-68 0 -143 -10q-59 -8 -119 -33q-51 -20 -82 -57t-31 -90z" />
<glyph unicode="b" d="M49 0v1305h137v-459q63 55 129 80q74 29 146 28q109 0 194 -36q90 -39 149.5 -100.5t94.5 -155.5q33 -86 33 -197t-33 -197q-35 -94 -94.5 -155.5t-149.5 -100.5q-82 -35 -194 -35q-78 0 -146 27q-66 25 -129 80v-84h-137zM186 215q61 -65 129 -92q70 -29 146 -29 q80 0 143 29q57 27 105 80q41 47 63 116q20 63 21 146q0 84 -21 147q-23 74 -61 117q-47 53 -105 80q-63 29 -145 29q-158 0 -275 -125v-498z" />
<glyph unicode="c" d="M0 465q0 111 33 197q35 94 94 155q61 63 149 101q89 37 197 36q37 0 88 -10q43 -8 84 -31q47 -27 74 -49q33 -29 47 -67v135h123v-373h-123q0 57 -23 113q-20 51 -61 88t-92 57q-53 20 -117 21q-84 0 -147 -29q-57 -27 -105 -80q-41 -47 -63 -117q-20 -63 -21 -147 q0 -80 25 -148q25 -66 72 -116.5t110 -77.5q68 -29 148 -29q104 0 186 41q80 39 123 109l96 -66q-57 -90 -162 -147q-98 -53 -243 -54q-111 0 -199 35q-92 37 -155.5 100.5t-100.5 153.5t-37 199z" />
<glyph unicode="d" d="M-2 464.5q0 110.5 33 197.5q37 98 92 155q61 63 149 100t199 37q78 0 145 -26q71 -28 129 -80v340h-186v117h324v-1305h-138v86q-61 -55 -128.5 -82t-145.5 -27q-115 0 -199 35q-88 37 -149 101q-55 57 -92 155q-33 86 -33 196.5zM135 465q0 -84 21 -148q23 -70 63 -116 q47 -53 105 -80q63 -29 145 -29q160 0 276 125v498q-61 68 -129 94q-74 29 -147 29q-82 0 -145 -29q-57 -27 -105 -80q-41 -47 -63 -117q-21 -63 -21 -147z" />
<glyph unicode="e" d="M-4 465q0 111 33 197q35 90 94 153q63 68 149 103q89 37 197 36q117 0 209 -41q89 -40 147 -110q61 -76 88 -168q29 -102 29 -217h-805q14 -145 109 -236q90 -88 241 -88q102 0 186.5 43t123.5 107l96 -66q-70 -98 -168 -149q-96 -51 -238 -52q-115 0 -198 35 q-94 39 -156 101q-63 63 -100 153t-37 199zM139 535h658q-23 156 -111 229.5t-217 73.5q-70 0 -123 -21q-55 -22 -98 -61q-43 -41 -72 -97q-27 -54 -37 -124z" />
<glyph unicode="f" d="M186 0v117h211v698h-211v117h211q0 190 98.5 292.5t301.5 102.5q35 0 80 -4q34 -3 55 -6v-117q-18 2 -59.5 6t-75.5 4q-132 0 -197 -67q-66 -70 -65 -211h397v-117h-397v-698h210v-117h-559z" />
<glyph unicode="g" d="M-2 465q0 111 33 197q35 94 92 153q63 66 147 103q86 37 197 36q80 0 147 -26q74 -29 131 -80v84h138v-922q0 -100 -33 -172q-35 -76 -92 -127q-53 -49 -140 -78q-82 -29 -180 -28q-137 0 -237 53q-98 51 -168 149l96 74q43 -63 125 -108q84 -45 184 -45q139 0 223 71.5 t84 206.5v100q-125 -109 -278 -108q-219 0 -344 125t-125 342zM135 465q0 -160 82 -254q84 -96 250 -96q78 0 149.5 30.5t128.5 94.5v475q-61 68 -129 94q-74 29 -149 29q-82 0 -145 -29q-59 -27 -102.5 -80t-64 -116.5t-20.5 -147.5z" />
<glyph unicode="h" d="M49 0v1305h137v-607q98 256 353 256q344 0 344 -379v-575h-138v575q0 125 -55 193q-57 70 -174 70q-74 0 -137 -35q-59 -33 -104.5 -94.5t-65.5 -133.5q-23 -80 -23 -157v-418h-137z" />
<glyph unicode="i" d="M186 0v117h211v698h-211v117h349v-815h210v-117h-559zM373 1118v187h186v-187h-186z" />
<glyph unicode="j" d="M4 -193l105 72q37 -78 94 -117q59 -41 145 -41q70 0 115 19q43 16 72 55q27 35 38 88q10 43 11 117v815h-211v117h348v-932q0 -180 -94 -287q-96 -109 -279 -108q-246 -1 -344 202zM559 1118v187h186v-187h-186z" />
<glyph unicode="k" d="M49 0v1305h137v-875l531 502h196l-467 -428l484 -504h-195l-381 418l-168 -154v-264h-137z" />
<glyph unicode="l" d="M186 0v117h211v1071h-211v117h349v-1188h210v-117h-559z" />
<glyph unicode="m" d="M0 0v932h137v-135q43 158 187 157q137 0 186 -137q68 137 192 137q119 0 174.5 -71.5t55.5 -212.5v-670h-137v670q0 84 -27 125q-27 43 -82 43q-78 0 -115 -82q-37 -84 -36 -230v-526h-138v670q0 80 -28 125q-29 43 -82 43q-49 0 -78 -29q-31 -31 -45 -74 q-16 -51 -23 -100q-4 -37 -4 -109v-526h-137z" />
<glyph unicode="n" d="M49 0v932h137v-234q98 256 353 256q344 0 344 -379v-575h-138v575q0 125 -55 193q-57 70 -174 70q-74 0 -137 -35q-59 -33 -104.5 -94.5t-65.5 -133.5q-23 -80 -23 -157v-418h-137z" />
<glyph unicode="o" d="M-20 463q0 104 34 199q33 90 99 155q61 61 155 101q88 37 199 36.5t201 -36.5q94 -39 155 -101q66 -66 99 -155q35 -94 34 -199q0 -106 -34 -199q-33 -86 -99 -151q-61 -61 -155 -101q-84 -35 -201 -35q-115 0 -199 35q-94 39 -155 101q-66 66 -99 151q-34 93 -34 199z M117 463q0 -80 24 -148q27 -74 68 -116q45 -47 110 -76q68 -29 148 -29t147 29q66 29 111 76t70 116q25 68 24 148q0 80 -24.5 147.5t-69.5 118.5q-46 52 -111 80q-68 29 -147.5 29t-147.5 -29q-65 -28 -110 -80q-41 -47 -68 -119q-24 -67 -24 -147z" />
<glyph unicode="p" d="M49 -373v1305h137v-86q127 109 273 108q109 0 194 -36q90 -39 149.5 -100.5t94.5 -155.5q35 -92 35 -197q0 -106 -35 -199q-35 -90 -94 -153q-59 -61 -150 -101q-82 -35 -194 -35q-76 0 -144 27q-66 25 -129 80v-457h-137zM186 215q63 -66 127 -92q70 -29 146 -29 q82 0 145 29q57 27 105 80q45 51 65 116q20 63 21 146q0 84 -21 147q-20 66 -65 117q-47 53 -105 80q-63 29 -145 29q-76 0 -146 -29q-61 -25 -127 -94v-500z" />
<glyph unicode="q" d="M0 465q0 104 35 197q35 94 94 155q59 63 147 101q86 37 197 36q145 0 272 -108v86h138v-1305h-138v457q-58 -52 -129 -80q-68 -27 -143 -27q-115 0 -197 35q-88 37 -147 100.5t-94 153.5q-35 93 -35 199zM137 465q0 -82 21 -146q20 -66 65 -116q47 -53 105 -80 q63 -29 145 -29q76 0 145.5 29t126.5 92v500q-61 68 -127 94q-70 29 -145 29q-82 0 -145 -29q-57 -27 -105 -80q-45 -51 -65 -117q-21 -63 -21 -147z" />
<glyph unicode="r" d="M0 0v117h211v698h-211v117h348v-234q96 256 357 256q68 0 124 -10q49 -8 97 -31l-45 -112q-74 37 -176 37q-88 0 -150 -35q-68 -39 -113 -96.5t-69 -133.5q-25 -78 -25 -155v-301h211v-117h-559z" />
<glyph unicode="s" d="M-10 111l61 118q115 -72 203 -100q104 -35 207 -35q309 0 309 160q0 39 -24.5 63.5t-69.5 40.5q-43 15 -98 25q-20 4 -60.5 9l-56.5 7q-113 18 -156 27q-84 16 -139 43q-59 29 -103 82q-39 47 -38 131q0 68 36.5 121t94 86t139.5 49q86 16 166 16q119 0 221 -28 q92 -27 174 -82l-55 -107q-82 57 -162 78q-86 23 -178 23q-43 0 -96 -7q-43 -4 -97 -26q-45 -18 -75.5 -49t-30.5 -74q0 -37 26 -64q23 -23 68 -38q43 -15 98 -25q20 -4 60.5 -9l56.5 -7q102 -16 154 -27q77 -15 141 -43q57 -25 102 -80q39 -47 39 -131q0 -78 -41 -135 q-39 -53 -106 -86q-78 -37 -144 -47q-80 -12 -155 -13q-126 0 -252 37q-133 40 -219 97z" />
<glyph unicode="t" d="M0 815v117h211v373h137v-373h397v-117h-397v-473q0 -47 17 -96q14 -45 45 -78q37 -41 71 -55q43 -18 97 -19q104 0 170 64q72 68 79 164l115 -25q-14 -147 -115 -234q-98 -86 -249 -86q-84 0 -150 27q-70 29 -117 76q-45 45 -73 115q-27 66 -27 147v473h-211z" />
<glyph unicode="u" d="M49 356v576h137v-576q0 -129 54 -194q55 -68 176 -68q74 0 137 35q59 33 104 94.5t66 132.5q23 80 22 158v418h138v-932h-138v233q-98 -256 -352 -256q-344 0 -344 379z" />
<glyph unicode="v" d="M-31 932h164l334 -817l332 817h164l-404 -932h-184z" />
<glyph unicode="w" d="M-27 932h146l135 -746l145 746h136l149 -746l135 746h144l-189 -932h-160l-149 684l-141 -684h-160z" />
<glyph unicode="x" d="M-20 0v121h145l256 352l-246 336h-135v123h383v-123h-86l170 -254l172 254h-94v123h387v-123h-131l-246 -336l256 -352h143v-121h-385v121h82l-184 270l-182 -270h75v-121h-380z" />
<glyph unicode="y" d="M-31 932h162l336 -815l330 815h164l-504 -1168q-40 -98 -111 -129q-72 -31 -156 -30q-94 0 -192 35l27 118q39 -18 92 -28q41 -8 73 -9q68 0 93 33q31 43 45 78l57 141z" />
<glyph unicode="z" d="M47 0v117l635 698h-516v-256h-117v373h815v-117l-635 -698h541v256h117v-373h-840z" />
<glyph unicode="{" d="M186 502v112q186 0 187 168v430q0 63 20 113q20 51 57 88t89 57q49 20 112 21h92v-111h-92q-170 0 -170 -168v-430q0 -35 -12 -71q-10 -33 -37 -70q-20 -29 -53 -55q-27 -23 -70 -29q35 -6 68 -29q25 -18 55 -55q25 -31 37 -67.5t12 -71.5v-424q0 -170 170 -170h92v-113 h-92q-63 0 -112.5 20.5t-87.5 59.5q-37 35 -58 88q-20 49 -20 115v424q-1 168 -187 168z" />
<glyph unicode="|" d="M397 -186v1677h138v-1677h-138z" />
<glyph unicode="}" d="M186 -260h93q168 0 167 168v426q0 35 13 72q14 41 37 69q27 35 57 55q29 20 68 27q-35 8 -70 31q-33 20 -55 53q-27 37 -37 70q-12 37 -13 71v430q0 168 -167 168h-93v111h93q63 0 112 -20.5t88 -59.5t59.5 -88t20.5 -111v-430q0 -168 184 -168v-112q-184 0 -184 -168 v-426q0 -63 -20 -113q-23 -53 -60 -90t-88 -57q-49 -20 -112 -21h-93v113z" />
<glyph unicode="~" d="M-4 266q6 94 27 166q20 76 57 135q31 49 86 88q47 33 115 33q61 0 104 -24q37 -20 70 -58q25 -29 51 -76q29 -53 43 -75q25 -39 43 -58q25 -25 59 -24q37 0 62 24q31 31 43 64q18 49 26 98l19 123l135 -14q-6 -94 -26.5 -166t-57.5 -133q-35 -57 -86 -90t-115 -33 q-59 0 -102 24q-47 27 -71.5 57.5t-49.5 75.5q-22 40 -43 74q-20 35 -45 58q-25 25 -59 24q-37 0 -62 -24q-31 -31 -43 -64q-18 -49 -26 -96l-19 -123z" />
<glyph unicode="&#xa0;" />
<glyph unicode="&#xa1;" d="M559 1118v187h186v-187h-186zM561 0l51 938h82l51 -938h-184z" />
<glyph unicode="&#xa2;" d="M8 651q0 96 27 174q29 84 80 144q57 68 123 104q76 43 159 57v175h138v-166q127 -6 221 -60q90 -51 149 -139l-96 -66q-41 63 -111 103q-68 39 -163 45v-743q98 10 163 47q72 41 111 102l96 -66q-59 -88 -149 -139q-92 -51 -221 -61v-162h-138v170q-182 35 -284 162 q-105 129 -105 319zM145 651q0 -129 66 -229q63 -96 186 -131v719q-123 -31 -186 -129q-66 -101 -66 -230z" />
<glyph unicode="&#xa3;" d="M49 0v117h62q33 0 59 16q23 14 39 41q14 20 20 53q6 27 7 52v315h-187v117h187v264q0 74 22 141q23 66 66 113q41 45 102 71q59 27 137 27q52 0 99 -18q51 -20 86 -49q33 -29 63 -78q29 -49 41 -107l-125 -28q-20 88 -63 127q-41 37 -101 36q-96 0 -143 -61 q-47 -63 -47 -174v-264h186v-117h-186v-270q0 -78 -24.5 -131.5t-67.5 -75.5h206q272 0 383 223l109 -59q-63 -137 -197 -211q-127 -70 -295 -70h-438z" />
<glyph unicode="&#xa4;" d="M-39 223l115 117q-47 63 -72 139q-25 78 -24 170q0 186 98 312l-117 118l78 78l117 -119q123 102 311 103q94 0 172 -27t137 -74l117 117l80 -78l-117 -116q47 -59 76 -142q27 -78 26.5 -172t-26.5 -172q-27 -76 -74 -139l115 -115l-80 -78l-115 113q-66 -49 -139 -72 q-80 -25 -172 -24q-94 0 -172 26q-80 28 -141 74l-115 -117zM117 649q0 -80 24 -147q27 -74 68 -117q45 -47 110 -76q68 -29 148 -28.5t147 28.5q66 29 111 76t70 117q25 68 24 147q0 80 -24.5 147.5t-69.5 118.5q-46 52 -111 80q-68 29 -147.5 29t-147.5 -29 q-65 -28 -110 -80q-41 -47 -68 -118q-24 -68 -24 -148z" />
<glyph unicode="&#xa5;" d="M0 408v120h399v35l-108 215h-291v121h229l-204 406h153l289 -596h2l289 596h153l-204 -406h225v-121h-287l-110 -215v-35h397v-120h-397v-408h-136v408h-399z" />
<glyph unicode="&#xa6;" d="M397 -186v745h138v-745h-138zM397 745v746h138v-746h-138z" />
<glyph unicode="&#xa7;" d="M20 178l127 33q29 -139 121 -211q90 -70 244 -70q61 0 106 15q51 16 86 44.5t57.5 74t22.5 100.5q0 84 -53 141q-51 55 -133 92q-80 37 -172 68q-82 27 -172 76q-82 43 -133 110q-53 70 -53 178q0 72 32 142q29 61 103 119q-59 39 -97 100q-39 66 -38 153q0 76 32 142 q29 57 86 102q59 45 127 66q78 23 154 22.5t154 -22.5q74 -23 137 -66q63 -45 102 -110q41 -70 53 -158l-129 -21q-20 131 -102 197q-78 63 -215 64q-53 0 -92 -11q-47 -12 -84 -37q-33 -23 -62 -67q-25 -39 -24 -101q0 -72 53 -118q51 -45 133 -80q80 -34 172 -68 q96 -35 172 -82q84 -51 133 -121q53 -76 54 -186q0 -74 -27 -139q-27 -63 -88 -119q53 -45 84 -104q31 -61 31 -150q0 -82 -33 -147q-35 -68 -90 -115q-53 -45 -131 -74q-72 -27 -156 -26q-82 0 -166 22q-76 20 -143 66q-63 43 -115 112q-45 62 -68 164zM205 831 q0 -72 47 -118q45 -45 119 -80q68 -33 157 -62q86 -28 166 -67q41 35 65.5 78t24.5 94q0 77 -43 129q-43 51 -106 88q-61 35 -143 63q-76 27 -156 62q-68 -33 -100 -82q-31 -47 -31 -105z" />
<glyph unicode="&#xa8;" d="M186 1118v187h187v-187h-187zM559 1118v187h186v-187h-186z" />
<glyph unicode="&#xa9;" d="M2 743q0 117 43 218q43 102 121 180t178 121q102 43 219 43q114 0 215.5 -43t177.5 -117q72 -70 121 -180q45 -102 45 -222q0 -109 -43 -211q-45 -104 -116 -180q-74 -76 -177 -123q-98 -45 -223 -45q-111 0 -209 39q-102 41 -180 115q-80 76 -125 176q-47 104 -47 229z M68 743.5q0 -108.5 38 -194.5q41 -90 107 -156q68 -68 156 -104q94 -39 194 -39q96 0 191 39q90 37 157 104q68 66 107 156q39 86 39 194q0 104 -39 191q-43 96 -105 158q-66 66 -157.5 106.5t-192.5 40.5q-106 0 -192 -39q-92 -41 -158 -106.5t-107 -155.5 q-38 -86 -38 -194.5zM203 745q0 72 26 142q25 63 72 114q49 51 113 78q70 29 151 29q206 0 301 -147l-106 -72q-55 100 -195 100q-102 0 -159 -69q-59 -72 -60 -175q0 -98 57 -172q55 -72 162 -71q139 0 195 100l106 -72q-95 -147 -301 -147q-82 0 -147 27q-70 29 -115 73.5 t-74 114.5q-26 65 -26 147z" />
<glyph unicode="&#xaa;" d="M-8 760q0 68 35 119q34 49 92 79q63 33 133 46q74 12 149 12h50q25 0 34 -2q8 -2 15.5 -2t15.5 -2q15 -3 43 -6v75q0 35 -20 62q-16 23 -47 39q-27 14 -60 20q-35 6 -59 6q-84 0 -152 -18q-74 -20 -131 -62l-55 109q63 41 141 65q74 23 197 23q51 0 119 -14 q61 -12 106 -43q49 -33 74 -74q29 -47 28 -113v-520h-141v111q-117 -129 -285 -129q-63 0 -112 14q-51 14 -88 43q-37 27 -60 70q-22 41 -22 92zM0 256v117h700v-117h-700zM133 760q0 -46 37 -74q39 -29 104.5 -29t120.5 17q57 16 90 39q35 23 54 51q20 31 20 49v80 q-47 8 -88 8q-10 0 -33.5 1t-36.5 1q-121 0 -192 -33q-76 -34 -76 -110z" />
<glyph unicode="&#xab;" d="M14 477l324 330l80 -80l-248 -250l248 -248l-80 -79zM385 477l326 330l77 -80l-245 -250l245 -248l-77 -79z" />
<glyph unicode="&#xac;" d="M0 446v113h932v-559h-113v446h-819z" />
<glyph unicode="&#xad;" d="M0 420v117h932v-117h-932z" />
<glyph unicode="&#xae;" d="M0 932q0 117 43 217t121 178t178 121t219 43q117 0 213 -41q100 -43 176 -119q77 -77 123 -178q45 -98 45 -221q0 -113 -43 -213q-45 -104 -114 -178q-70 -72 -177 -121q-104 -47 -223 -47q-104 0 -209 41q-106 43 -180 112q-80 76 -125 176q-47 105 -47 230zM66 931.5 q0 -108.5 38 -194.5q43 -96 105 -157q68 -68 158 -105q88 -37 194 -37q101 0 191 37t157 105q61 61 105 157q39 86 39 195q0 100 -37 188q-37 90 -105 158q-68 70 -157 108q-86 39 -193 39q-98 0 -192.5 -38.5t-157.5 -102.5q-66 -66 -107 -158q-38 -86 -38 -194.5zM328 596 v676h268q52 0 98 -12q39 -10 82 -43q37 -29 58 -66q20 -39 20 -96q0 -78 -49 -140q-49 -63 -143 -71l204 -248h-186l-174 242h-35v-242h-143zM471 948h125q55 0 86 31t31 76q0 43 -29 75.5t-88 32.5h-125v-215z" />
<glyph unicode="&#xaf;" d="M186 1106v113h559v-113h-559z" />
<glyph unicode="&#xb0;" d="M0 1118q0 80 29 144q35 76 80 120q47 47 118 80q63 29 145.5 29t145.5 -29q72 -33 119 -80q43 -43 78 -120q31 -68 30 -144q0 -78 -30 -145q-35 -76 -78 -119q-47 -47 -119 -80q-63 -29 -145 -29t-146 29q-72 33 -119 80t-79 119q-29 63 -29 145zM92 1118 q0 -63 20.5 -110t61.5 -88q37 -37 88 -59.5t111 -22.5q53 0 108 22q51 20 90 60q37 37 59.5 88t22.5 110q0 53 -22 109q-20 51 -60 90q-41 41 -90 61.5t-108 20.5q-63 0 -110.5 -20.5t-88.5 -61.5t-61.5 -90.5t-20.5 -108.5z" />
<glyph unicode="&#xb1;" d="M0 -74h932v-112h-932v112zM0 422v113h410v409h112v-409h410v-113h-410v-422h-112v422h-410z" />
<glyph unicode="&#xb2;" d="M27 1085q0 231 217 232q82 0 139 -41q66 -49 66 -125q0 -55 -33 -100q-23 -35 -76 -82l-59 -54l-80 -79h147v73h98v-164h-405v78l252 240q47 47 47 88q0 35 -26.5 53.5t-69.5 18.5q-115 0 -115 -138h-102z" />
<glyph unicode="&#xb3;" d="M-2 936l106 14q15 -123 123 -123q43 0 70 25q29 25 29 57q0 57 -33 66q-20 10 -84 10v100q106 0 106 66q0 74 -88 74q-113 0 -112 -123h-105q0 106 64 162q63 51 153 51q92 0 144 -45q53 -47 53 -119q0 -76 -66 -111q76 -51 76 -131q0 -72 -57 -123q-59 -53 -150 -53 q-204 0 -229 203z" />
<glyph unicode="&#xb4;" d="M242 1077l403 287l66 -109l-432 -243z" />
<glyph unicode="&#xb5;" d="M49 -373v1305h137v-574q0 -127 54 -194q55 -70 176 -70q74 0 137 35q59 33 104 94.5t66 132.5q23 80 22 158v418h138v-932h-138v236q-94 -258 -352 -259q-123 0 -207 56v-406h-137z" />
<glyph unicode="&#xb6;" d="M31 932q0 373 499 373h377v-1305h-137v559h-235v-559h-138v567q-366 41 -366 365zM170 932q0 -200 227 -240v486q-113 -18 -170 -82t-57 -164zM535 682h235v506h-235v-506z" />
<glyph unicode="&#xb7;" d="M373 385v186h186v-186h-186z" />
<glyph unicode="&#xb8;" d="M242 -254q203 0 202 213v41h115v-41q0 -147 -82 -235q-88 -94 -235 -95v117z" />
<glyph unicode="&#xb9;" d="M0 1001v99q33 0 63 14q41 18 64 41q27 27 45 63.5t18 86.5h109v-469h90v-91h-289v91h90v290q-23 -53 -67 -88q-49 -37 -123 -37z" />
<glyph unicode="&#xba;" d="M-18 932q0 86 30.5 159.5t81.5 125.5q55 55 123 81.5t156 26.5q84 0 155 -27q70 -27 125 -81q51 -51 82 -125t31 -160t-31 -160q-29 -70 -82 -123t-125 -80q-76 -29 -155 -28q-82 0 -156 28.5t-123 77.5q-51 51 -82 123q-30 70 -30 162zM0 256v117h745v-117h-745z M119 932q0 -125 71 -201q72 -74 183 -74q53 0 100 19q49 20 82 55q39 43 55 88q18 53 19 113q0 63 -21 112q-20 51 -55 89q-33 35 -82 55q-51 20 -98 20q-49 0 -101 -20q-46 -18 -79 -55q-37 -39 -54 -89q-20 -57 -20 -112z" />
<glyph unicode="&#xbb;" d="M141 227l248 250l-248 250l80 78l324 -328l-324 -327zM514 227l248 250l-248 250l78 78l328 -328l-328 -327z" />
<glyph unicode="&#xbc;" d="M0 1001v99q33 0 63 14q41 18 64 41q27 27 45 63.5t18 86.5h109v-469h90v-91h-289v91h90v290q-23 -53 -67 -88q-49 -37 -123 -37zM2 33l838 1302l92 -63l-836 -1299zM487 150v75l244 334h111v-317h90v-92h-90v-60h90v-90h-287v90h92v60h-250zM618 242h119v159z" />
<glyph unicode="&#xbd;" d="M0 1001v99q33 0 63 14q41 18 64 41q27 27 45 63.5t18 86.5h109v-469h90v-91h-289v91h90v290q-23 -53 -67 -88q-49 -37 -123 -37zM2 33l838 1302l92 -63l-836 -1299zM512 340q0 231 217 231q82 0 139 -41q66 -49 66 -124q0 -55 -33 -101q-18 -33 -76 -82l-59 -53l-80 -80 h148v74h98v-164h-406v78l252 239q47 51 47 89q0 35 -28 53t-68 18q-115 0 -115 -137h-102z" />
<glyph unicode="&#xbe;" d="M-2 936l106 14q15 -123 123 -123q43 0 70 25q29 25 29 57q0 57 -33 66q-20 10 -84 10v100q106 0 106 66q0 74 -88 74q-113 0 -112 -123h-105q0 106 64 162q63 51 153 51q92 0 144 -45q53 -47 53 -119q0 -76 -66 -111q76 -51 76 -131q0 -72 -57 -123q-59 -53 -150 -53 q-204 0 -229 203zM2 33l838 1302l92 -63l-836 -1299zM487 150v75l244 334h111v-317h90v-92h-90v-60h90v-90h-287v90h92v60h-250zM618 242h119v159z" />
<glyph unicode="&#xbf;" d="M209 283q0 74 29 135q27 57 71.5 108.5t93.5 91.5q43 37 95 91q47 49 71 100q29 57 29 123h145q0 -78 -30 -139q-35 -70 -72 -115q-51 -63 -94 -100q-47 -41 -96 -95q-39 -41 -72 -94q-31 -49 -31 -106q0 -88 55 -138q57 -51 156 -51q125 0 191 76q61 72 77 188l123 -18 q-18 -168 -116 -266q-96 -96 -273 -97q-170 0 -260 84q-92 87 -92 222zM559 1118v187h186v-187h-186z" />
<glyph unicode="&#xc0;" d="M-59 0l434 1305h186l434 -1305h-147l-123 373h-516l-121 -373h-147zM248 494h438l-219 673zM229 1628l66 109l405 -287l-41 -65z" />
<glyph unicode="&#xc1;" d="M-59 0l434 1305h186l434 -1305h-147l-123 373h-516l-121 -373h-147zM248 494h438l-219 673zM242 1448l403 287l66 -109l-432 -243z" />
<glyph unicode="&#xc2;" d="M-59 0l434 1305h186l434 -1305h-147l-123 373h-516l-121 -373h-147zM248 494h438l-219 673zM170 1448l297 291l297 -287l-53 -67l-242 205l-246 -207z" />
<glyph unicode="&#xc3;" d="M-59 0l434 1305h186l434 -1305h-147l-123 373h-516l-121 -373h-147zM248 494h438l-219 673zM78 1495q92 156 246 156q57 0 94 -18q31 -14 63 -41q31 -25 54 -39q27 -18 65 -19q102 0 166 113l80 -47q-90 -158 -246 -158q-55 0 -92 19q-31 14 -64 40q-18 14 -55 39 q-29 18 -65 19q-102 0 -166 -111z" />
<glyph unicode="&#xc4;" d="M-59 0l434 1305h186l434 -1305h-147l-123 373h-516l-121 -373h-147zM248 494h438l-219 673zM186 1489v187h187v-187h-187zM559 1489v187h186v-187h-186z" />
<glyph unicode="&#xc5;" d="M-59 0l415 1251q-51 27 -82 80q-33 55 -32 119q0 53 16 88q18 41 49 72q27 27 72 47q39 18 88 18t88 -18q45 -20 71.5 -47t47.5 -72q18 -39 18 -88q0 -65 -30 -117q-31 -51 -84 -80l417 -1253h-147l-123 373h-516l-121 -373h-147zM248 494h438l-219 673zM332 1450 q0 -53 41 -94t94 -41t94 41t41 94t-41 94t-94 41t-94 -41t-41 -94z" />
<glyph unicode="&#xc6;" d="M-63 0l395 1305h600v-121h-367v-457h277v-121h-277v-483h367v-123h-506v373h-233l-111 -373h-145zM229 494h197v659z" />
<glyph unicode="&#xc7;" d="M-20 651q0 133 26 252q29 123 88 217q61 94 156 150q98 57 231 57q121 0 207 -43q88 -43 127 -131v152h117v-428h-117q0 72 -27 131q-29 63 -71 106q-45 45 -107 70q-66 27 -129 26q-102 0 -176 -51q-63 -45 -110 -131q-39 -74 -60 -178q-18 -98 -18 -198.5t18 -198.5 q20 -104 60 -179q45 -84 110 -129q74 -51 176 -51q244 0 340 295l119 -47q-45 -147 -141 -244q-92 -92 -240 -114v-25q0 -147 -82 -235q-88 -94 -235 -95v117q203 0 202 213v21q-131 10 -217 65q-86 57 -143 152q-55 92 -79.5 208.5t-24.5 245.5z" />
<glyph unicode="&#xc8;" d="M49 0v1305h834v-117h-697v-467h514v-117h-514v-487h697v-117h-834zM229 1628l66 109l405 -287l-41 -65z" />
<glyph unicode="&#xc9;" d="M49 0v1305h834v-117h-697v-467h514v-117h-514v-487h697v-117h-834zM242 1448l403 287l66 -109l-432 -243z" />
<glyph unicode="&#xca;" d="M49 0v1305h834v-117h-697v-467h514v-117h-514v-487h697v-117h-834zM170 1448l297 291l297 -287l-53 -67l-242 205l-246 -207z" />
<glyph unicode="&#xcb;" d="M49 0v1305h834v-117h-697v-467h514v-117h-514v-487h697v-117h-834zM186 1489v187h187v-187h-187zM559 1489v187h186v-187h-186z" />
<glyph unicode="&#xcc;" d="M186 0v117h211v1071h-211v117h559v-117h-210v-1071h210v-117h-559zM229 1628l66 109l405 -287l-41 -65z" />
<glyph unicode="&#xcd;" d="M186 0v117h211v1071h-211v117h559v-117h-210v-1071h210v-117h-559zM242 1448l403 287l66 -109l-432 -243z" />
<glyph unicode="&#xce;" d="M186 0v117h211v1071h-211v117h559v-117h-210v-1071h210v-117h-559zM170 1448l297 291l297 -287l-53 -67l-242 205l-246 -207z" />
<glyph unicode="&#xcf;" d="M186 0v117h211v1071h-211v117h559v-117h-210v-1071h210v-117h-559zM186 1489v187h187v-187h-187zM559 1489v187h186v-187h-186z" />
<glyph unicode="&#xd0;" d="M-117 606v117h166v582h424q135 0 232 -54q94 -51 157 -143q55 -80 86 -209q27 -113 27 -246t-31 -253.5t-90 -206.5q-61 -90 -155.5 -141.5t-225.5 -51.5h-424v606h-166zM186 117h287q174 0 268 139q96 143 97 397q0 256 -96.5 395.5t-268.5 139.5h-287v-465h254v-117 h-254v-489z" />
<glyph unicode="&#xd1;" d="M49 0v1305h193l503 -1053v1053h138v-1305h-170l-527 1104v-1104h-137zM78 1495q92 156 246 156q57 0 94 -18q31 -14 63 -41q31 -25 54 -39q27 -18 65 -19q102 0 166 113l80 -47q-90 -158 -246 -158q-55 0 -92 19q-31 14 -64 40q-18 14 -55 39q-29 18 -65 19 q-102 0 -166 -111z" />
<glyph unicode="&#xd2;" d="M-33 651q0 133 27 252q29 129 86 217q61 94 156 150q98 57 231 57t231 -57q96 -55 154 -150q59 -96 86 -217q29 -127 29 -252q0 -135 -27 -254q-28 -123 -86 -215q-61 -96 -154 -149q-95 -55 -233 -56q-135 0 -231.5 55.5t-155.5 149.5q-58 92 -86 215q-27 119 -27 254z M104 651q0 -94 17 -198q16 -100 57 -179q43 -82 113 -129q74 -51 176 -51t176 51q70 47 113 129q41 78 57 179q16 104 16 198q0 127 -24 232q-25 102 -72 178q-43 70 -112 110q-66 39 -154 39q-102 0 -176 -51q-68 -47 -113 -131q-41 -78 -57 -178q-17 -105 -17 -199z M229 1628l66 109l405 -287l-41 -65z" />
<glyph unicode="&#xd3;" d="M-33 651q0 133 27 252q29 129 86 217q61 94 156 150q98 57 231 57t231 -57q96 -55 154 -150q59 -96 86 -217q29 -127 29 -252q0 -135 -27 -254q-28 -123 -86 -215q-61 -96 -154 -149q-95 -55 -233 -56q-135 0 -231.5 55.5t-155.5 149.5q-58 92 -86 215q-27 119 -27 254z M104 651q0 -94 17 -198q16 -100 57 -179q43 -82 113 -129q74 -51 176 -51t176 51q70 47 113 129q41 78 57 179q16 104 16 198q0 127 -24 232q-25 102 -72 178q-43 70 -112 110q-66 39 -154 39q-102 0 -176 -51q-68 -47 -113 -131q-41 -78 -57 -178q-17 -105 -17 -199z M242 1448l403 287l66 -109l-432 -243z" />
<glyph unicode="&#xd4;" d="M-33 651q0 133 27 252q29 129 86 217q61 94 156 150q98 57 231 57t231 -57q96 -55 154 -150q59 -96 86 -217q29 -127 29 -252q0 -135 -27 -254q-28 -123 -86 -215q-61 -96 -154 -149q-95 -55 -233 -56q-135 0 -231.5 55.5t-155.5 149.5q-58 92 -86 215q-27 119 -27 254z M104 651q0 -94 17 -198q16 -100 57 -179q43 -82 113 -129q74 -51 176 -51t176 51q70 47 113 129q41 78 57 179q16 104 16 198q0 127 -24 232q-25 102 -72 178q-43 70 -112 110q-66 39 -154 39q-102 0 -176 -51q-68 -47 -113 -131q-41 -78 -57 -178q-17 -105 -17 -199z M170 1448l297 291l297 -287l-53 -67l-242 205l-246 -207z" />
<glyph unicode="&#xd5;" d="M-33 651q0 133 27 252q29 129 86 217q61 94 156 150q98 57 231 57t231 -57q96 -55 154 -150q59 -96 86 -217q29 -127 29 -252q0 -135 -27 -254q-28 -123 -86 -215q-61 -96 -154 -149q-95 -55 -233 -56q-135 0 -231.5 55.5t-155.5 149.5q-58 92 -86 215q-27 119 -27 254z M104 651q0 -94 17 -198q16 -100 57 -179q43 -82 113 -129q74 -51 176 -51t176 51q70 47 113 129q41 78 57 179q16 104 16 198q0 127 -24 232q-25 102 -72 178q-43 70 -112 110q-66 39 -154 39q-102 0 -176 -51q-68 -47 -113 -131q-41 -78 -57 -178q-17 -105 -17 -199z M78 1495q92 156 246 156q57 0 94 -18q31 -14 63 -41q31 -25 54 -39q27 -18 65 -19q102 0 166 113l80 -47q-90 -158 -246 -158q-55 0 -92 19q-31 14 -64 40q-18 14 -55 39q-29 18 -65 19q-102 0 -166 -111z" />
<glyph unicode="&#xd6;" d="M-33 651q0 133 27 252q29 129 86 217q61 94 156 150q98 57 231 57t231 -57q96 -55 154 -150q59 -96 86 -217q29 -127 29 -252q0 -135 -27 -254q-28 -123 -86 -215q-61 -96 -154 -149q-95 -55 -233 -56q-135 0 -231.5 55.5t-155.5 149.5q-58 92 -86 215q-27 119 -27 254z M104 651q0 -94 17 -198q16 -100 57 -179q43 -82 113 -129q74 -51 176 -51t176 51q70 47 113 129q41 78 57 179q16 104 16 198q0 127 -24 232q-25 102 -72 178q-43 70 -112 110q-66 39 -154 39q-102 0 -176 -51q-68 -47 -113 -131q-41 -78 -57 -178q-17 -105 -17 -199z M186 1489v187h187v-187h-187zM559 1489v187h186v-187h-186z" />
<glyph unicode="&#xd7;" d="M98 186l289 291l-289 291l78 78l291 -291l289 291l80 -78l-291 -291l291 -291l-80 -77l-289 290l-291 -290z" />
<glyph unicode="&#xd8;" d="M-45 29v159l78 84q-37 92 -51 179q-14 88 -15 200q0 133 27 252q29 129 86 217q61 94 156 150q98 57 231 57q129 0 223 -53t154 -144l135 146v-160l-82 -86q35 -88 53 -178q16 -84 17 -201q0 -135 -27 -254q-28 -123 -86 -215q-61 -96 -154 -149q-95 -55 -233 -56 q-137 0 -227 52q-94 53 -152 141zM104 651q0 -72 7 -139q4 -55 26 -131l613 651q-49 86 -119 131q-72 47 -164 47q-102 0 -176 -51q-68 -47 -113 -131q-41 -78 -57 -178q-17 -105 -17 -199zM180 268q41 -78 111 -127q68 -47 176 -47q102 0 176 51q70 47 113 129 q41 78 57 179q16 104 16 198q0 147 -34 271z" />
<glyph unicode="&#xd9;" d="M49 467v838h137v-840q0 -53 11 -125q8 -63 41 -121q31 -53 84 -90q51 -35 143 -35t143 35q57 39 86 90q33 57 41 121q10 72 10 125v840h138v-840q0 -113 -25 -201q-25 -90 -76 -153q-53 -66 -131 -99q-82 -35 -186 -35q-106 0 -189 35q-78 33 -126 99q-53 70 -76 153 q-25 92 -25 203zM229 1628l66 109l405 -287l-41 -65z" />
<glyph unicode="&#xda;" d="M49 467v838h137v-840q0 -53 11 -125q8 -63 41 -121q31 -53 84 -90q51 -35 143 -35t143 35q57 39 86 90q33 57 41 121q10 72 10 125v840h138v-840q0 -113 -25 -201q-25 -90 -76 -153q-53 -66 -131 -99q-82 -35 -186 -35q-106 0 -189 35q-78 33 -126 99q-53 70 -76 153 q-25 92 -25 203zM242 1448l403 287l66 -109l-432 -243z" />
<glyph unicode="&#xdb;" d="M49 467v838h137v-840q0 -53 11 -125q8 -63 41 -121q31 -53 84 -90q51 -35 143 -35t143 35q57 39 86 90q33 57 41 121q10 72 10 125v840h138v-840q0 -113 -25 -201q-25 -90 -76 -153q-53 -66 -131 -99q-82 -35 -186 -35q-106 0 -189 35q-78 33 -126 99q-53 70 -76 153 q-25 92 -25 203zM170 1448l297 291l297 -287l-53 -67l-242 205l-246 -207z" />
<glyph unicode="&#xdc;" d="M49 467v838h137v-840q0 -53 11 -125q8 -63 41 -121q31 -53 84 -90q51 -35 143 -35t143 35q57 39 86 90q33 57 41 121q10 72 10 125v840h138v-840q0 -113 -25 -201q-25 -90 -76 -153q-53 -66 -131 -99q-82 -35 -186 -35q-106 0 -189 35q-78 33 -126 99q-53 70 -76 153 q-25 92 -25 203zM186 1489v187h187v-187h-187zM559 1489v187h186v-187h-186z" />
<glyph unicode="&#xdd;" d="M-20 1188v117h368v-117h-108l227 -492l225 492h-108v117h368v-117h-106l-311 -625v-446h210v-117h-559v117h211v446l-311 625h-106zM242 1448l403 287l66 -109l-432 -243z" />
<glyph unicode="&#xde;" d="M49 0v1305h137v-269h244q500 0 500 -372.5t-500 -372.5h-244v-291h-137zM186 406h244q180 0 270.5 65.5t90.5 192.5q0 254 -361 254h-244v-512z" />
<glyph unicode="&#xdf;" d="M49 0v844q0 76 12 162q12 82 53.5 155.5t114.5 118.5q76 47 197 47q74 0 135 -22q55 -20 101 -62q39 -37 61 -90q23 -55 22 -113q0 -84 -32.5 -131t-73.5 -82l-72 -59q-33 -25 -32 -59q0 -25 30 -47q23 -16 74 -46q18 -10 30.5 -16t28 -16.5t35.5 -20.5q49 -27 94 -67 q41 -39 74 -97q31 -55 31 -131q0 -63 -27 -114q-28 -52 -74 -93q-45 -39 -112.5 -61.5t-138.5 -22.5q-102 0 -170 27q-70 27 -138 82l78 104q53 -49 107 -73q51 -23 123 -23q92 0 153 43q59 41 60 133q0 57 -29 92q-33 39 -74 66q-51 33 -94 53q-49 25 -96 54q-43 28 -74 67 q-29 37 -29 96q0 72 33 107q41 43 74 69q33 25 71 68q33 35 33 98q0 68 -41 119t-141 51q-74 0 -121 -30q-49 -33 -74 -80q-28 -52 -36 -117q-8 -57 -9 -137v-846h-137z" />
<glyph unicode="&#xe0;" d="M0 252q0 86 45 147.5t114.5 94t164.5 49.5q98 16 188 16q12 0 33.5 -1t31.5 -1q39 0 58 -2q10 -2 26.5 -2t26.5 -2q8 0 28.5 -3t30.5 -5v67q0 70 -30 113q-33 45 -72 68q-51 29 -90 36q-51 10 -80 11q-106 0 -192 -27q-78 -25 -164 -76l-62 103q76 47 189 84 q100 33 229 32q68 0 150 -20q70 -18 131 -60q59 -41 94 -106.5t35 -157.5v-610h-138v156q-35 -43 -81 -78q-51 -37 -97 -58q-43 -18 -98 -32q-41 -10 -96 -11q-186 0 -280.5 70t-94.5 205zM137 252q0 -59 57.5 -108.5t180.5 -49.5q88 0 155 25q57 20 115 63q45 33 76 82 q27 41 26 78v88q-76 10 -129 10q-23 0 -57.5 1t-48.5 1q-68 0 -143 -10q-59 -8 -119 -33q-51 -20 -82 -57t-31 -90zM229 1255l66 109l405 -287l-41 -65z" />
<glyph unicode="&#xe1;" d="M0 252q0 86 45 147.5t114.5 94t164.5 49.5q98 16 188 16q12 0 33.5 -1t31.5 -1q39 0 58 -2q10 -2 26.5 -2t26.5 -2q8 0 28.5 -3t30.5 -5v67q0 70 -30 113q-33 45 -72 68q-51 29 -90 36q-51 10 -80 11q-106 0 -192 -27q-78 -25 -164 -76l-62 103q76 47 189 84 q100 33 229 32q68 0 150 -20q70 -18 131 -60q59 -41 94 -106.5t35 -157.5v-610h-138v156q-35 -43 -81 -78q-51 -37 -97 -58q-43 -18 -98 -32q-41 -10 -96 -11q-186 0 -280.5 70t-94.5 205zM137 252q0 -59 57.5 -108.5t180.5 -49.5q88 0 155 25q57 20 115 63q45 33 76 82 q27 41 26 78v88q-76 10 -129 10q-23 0 -57.5 1t-48.5 1q-68 0 -143 -10q-59 -8 -119 -33q-51 -20 -82 -57t-31 -90zM242 1077l403 287l66 -109l-432 -243z" />
<glyph unicode="&#xe2;" d="M0 252q0 86 45 147.5t114.5 94t164.5 49.5q98 16 188 16q12 0 33.5 -1t31.5 -1q39 0 58 -2q10 -2 26.5 -2t26.5 -2q8 0 28.5 -3t30.5 -5v67q0 70 -30 113q-33 45 -72 68q-51 29 -90 36q-51 10 -80 11q-106 0 -192 -27q-78 -25 -164 -76l-62 103q76 47 189 84 q100 33 229 32q68 0 150 -20q70 -18 131 -60q59 -41 94 -106.5t35 -157.5v-610h-138v156q-35 -43 -81 -78q-51 -37 -97 -58q-43 -18 -98 -32q-41 -10 -96 -11q-186 0 -280.5 70t-94.5 205zM137 252q0 -59 57.5 -108.5t180.5 -49.5q88 0 155 25q57 20 115 63q45 33 76 82 q27 41 26 78v88q-76 10 -129 10q-23 0 -57.5 1t-48.5 1q-68 0 -143 -10q-59 -8 -119 -33q-51 -20 -82 -57t-31 -90zM170 1077l297 291l297 -287l-53 -67l-242 205l-246 -207z" />
<glyph unicode="&#xe3;" d="M0 252q0 86 45 147.5t114.5 94t164.5 49.5q98 16 188 16q12 0 33.5 -1t31.5 -1q39 0 58 -2q10 -2 26.5 -2t26.5 -2q8 0 28.5 -3t30.5 -5v67q0 70 -30 113q-33 45 -72 68q-51 29 -90 36q-51 10 -80 11q-106 0 -192 -27q-78 -25 -164 -76l-62 103q76 47 189 84 q100 33 229 32q68 0 150 -20q70 -18 131 -60q59 -41 94 -106.5t35 -157.5v-610h-138v156q-35 -43 -81 -78q-51 -37 -97 -58q-43 -18 -98 -32q-41 -10 -96 -11q-186 0 -280.5 70t-94.5 205zM137 252q0 -59 57.5 -108.5t180.5 -49.5q88 0 155 25q57 20 115 63q45 33 76 82 q27 41 26 78v88q-76 10 -129 10q-23 0 -57.5 1t-48.5 1q-68 0 -143 -10q-59 -8 -119 -33q-51 -20 -82 -57t-31 -90zM78 1124q92 156 246 156q57 0 94 -18q31 -14 63 -41q31 -25 54 -39q27 -18 65 -19q102 0 166 113l80 -47q-90 -158 -246 -158q-55 0 -92 19q-31 14 -64 40 q-18 14 -55 39q-29 18 -65 19q-102 0 -166 -111z" />
<glyph unicode="&#xe4;" d="M0 252q0 86 45 147.5t114.5 94t164.5 49.5q98 16 188 16q12 0 33.5 -1t31.5 -1q39 0 58 -2q10 -2 26.5 -2t26.5 -2q8 0 28.5 -3t30.5 -5v67q0 70 -30 113q-33 45 -72 68q-51 29 -90 36q-51 10 -80 11q-106 0 -192 -27q-78 -25 -164 -76l-62 103q76 47 189 84 q100 33 229 32q68 0 150 -20q70 -18 131 -60q59 -41 94 -106.5t35 -157.5v-610h-138v156q-35 -43 -81 -78q-51 -37 -97 -58q-43 -18 -98 -32q-41 -10 -96 -11q-186 0 -280.5 70t-94.5 205zM137 252q0 -59 57.5 -108.5t180.5 -49.5q88 0 155 25q57 20 115 63q45 33 76 82 q27 41 26 78v88q-76 10 -129 10q-23 0 -57.5 1t-48.5 1q-68 0 -143 -10q-59 -8 -119 -33q-51 -20 -82 -57t-31 -90zM186 1118v187h187v-187h-187zM559 1118v187h186v-187h-186z" />
<glyph unicode="&#xe5;" d="M0 252q0 86 45 147.5t114.5 94t164.5 49.5q98 16 188 16q12 0 33.5 -1t31.5 -1q39 0 58 -2q10 -2 26.5 -2t26.5 -2q8 0 28.5 -3t30.5 -5v67q0 70 -30 113q-33 45 -72 68q-51 29 -90 36q-51 10 -80 11q-106 0 -192 -27q-78 -25 -164 -76l-62 103q76 47 189 84 q100 33 229 32q68 0 150 -20q70 -18 131 -60q59 -41 94 -106.5t35 -157.5v-610h-138v156q-35 -43 -81 -78q-51 -37 -97 -58q-43 -18 -98 -32q-41 -10 -96 -11q-186 0 -280.5 70t-94.5 205zM137 252q0 -59 57.5 -108.5t180.5 -49.5q88 0 155 25q57 20 115 63q45 33 76 82 q27 41 26 78v88q-76 10 -129 10q-23 0 -57.5 1t-48.5 1q-68 0 -143 -10q-59 -8 -119 -33q-51 -20 -82 -57t-31 -90zM242 1257.5q0 53.5 16 88.5q18 41 49 71.5t72 48.5q35 16 88 16.5t88 -16.5q41 -18 72 -49q27 -27 47 -71q18 -39 18 -88.5t-18 -88.5q-20 -45 -47 -71 q-31 -31 -72 -49q-35 -16 -88 -16.5t-88 16.5q-41 18 -72 48.5t-49 71.5q-16 35 -16 88.5zM332 1257.5q0 -55.5 41 -96.5q39 -39 94 -39t94 39q41 41 41 96.5t-41 96.5q-39 39 -94 39t-94 -39q-41 -41 -41 -96.5z" />
<glyph unicode="&#xe6;" d="M-37 254q0 78 29 139q27 57 74 94q43 35 106 54q61 18 125 18q6 0 21.5 -1t23.5 -1q18 0 47 -4v96q0 74 -35 133q-33 57 -106 58q-45 0 -88 -35q-49 -39 -82 -96l-86 84q20 37 61 73q37 33 70 52q31 16 67.5 26t57.5 10q78 0 135 -34q55 -35 78 -113q29 78 94.5 112.5 t134.5 34.5q92 0 146 -57q57 -61 79 -137q25 -84 31 -174q8 -123 8 -168h-428q0 -168 39 -240q40 -74 117 -74q45 0 84 29q33 25 53 94l117 -37q-33 -106 -98 -161q-59 -51 -164 -52q-76 0 -139.5 49.5t-85.5 143.5q-10 -31 -35 -68q-23 -37 -52 -61q-35 -31 -69.5 -47.5 t-87.5 -16.5q-121 0 -180 78q-62 80 -62 199zM100 244q0 -55 29 -97q31 -43 90 -43q35 0 64 15q27 14 53 43q25 29 39 61q14 35 14 78v137q-8 2 -35 2q-6 0 -22.5 1t-22.5 1q-86 0 -147.5 -49t-61.5 -149zM526 539h281q0 160 -33 231q-31 70 -102 70q-68 0 -107 -65.5 t-39 -235.5z" />
<glyph unicode="&#xe7;" d="M0 465q0 111 33 197q35 94 94 155q61 63 149 101q89 37 197 36q37 0 88 -10q43 -8 84 -31q47 -27 74 -49q33 -29 47 -67v135h123v-373h-123q0 57 -23 113q-20 51 -61 88t-92 57q-53 20 -117 21q-84 0 -147 -29q-57 -27 -105 -80q-41 -47 -63 -117q-20 -63 -21 -147 q0 -80 25 -148q25 -66 72 -116.5t110 -77.5q68 -29 148 -29q104 0 186 41q80 39 123 109l96 -66q-51 -80 -137 -133q-84 -51 -201 -63v-23q0 -147 -82 -235q-88 -94 -235 -95v117q203 0 202 213v21q-102 10 -182 45q-82 37 -141 102q-61 68 -90 149q-31 87 -31 189z" />
<glyph unicode="&#xe8;" d="M-4 465q0 111 33 197q35 90 94 153q63 68 149 103q89 37 197 36q117 0 209 -41q89 -40 147 -110q61 -76 88 -168q29 -102 29 -217h-805q14 -145 109 -236q90 -88 241 -88q102 0 186.5 43t123.5 107l96 -66q-70 -98 -168 -149q-96 -51 -238 -52q-115 0 -198 35 q-94 39 -156 101q-63 63 -100 153t-37 199zM139 535h658q-23 156 -111 229.5t-217 73.5q-70 0 -123 -21q-55 -22 -98 -61q-43 -41 -72 -97q-27 -54 -37 -124zM229 1255l66 109l405 -287l-41 -65z" />
<glyph unicode="&#xe9;" d="M-4 465q0 111 33 197q35 90 94 153q63 68 149 103q89 37 197 36q117 0 209 -41q89 -40 147 -110q61 -76 88 -168q29 -102 29 -217h-805q14 -145 109 -236q90 -88 241 -88q102 0 186.5 43t123.5 107l96 -66q-70 -98 -168 -149q-96 -51 -238 -52q-115 0 -198 35 q-94 39 -156 101q-63 63 -100 153t-37 199zM139 535h658q-23 156 -111 229.5t-217 73.5q-70 0 -123 -21q-55 -22 -98 -61q-43 -41 -72 -97q-27 -54 -37 -124zM242 1077l403 287l66 -109l-432 -243z" />
<glyph unicode="&#xea;" d="M-4 465q0 111 33 197q35 90 94 153q63 68 149 103q89 37 197 36q117 0 209 -41q89 -40 147 -110q61 -76 88 -168q29 -102 29 -217h-805q14 -145 109 -236q90 -88 241 -88q102 0 186.5 43t123.5 107l96 -66q-70 -98 -168 -149q-96 -51 -238 -52q-115 0 -198 35 q-94 39 -156 101q-63 63 -100 153t-37 199zM139 535h658q-23 156 -111 229.5t-217 73.5q-70 0 -123 -21q-55 -22 -98 -61q-43 -41 -72 -97q-27 -54 -37 -124zM170 1077l297 291l297 -287l-53 -67l-242 205l-246 -207z" />
<glyph unicode="&#xeb;" d="M-4 465q0 111 33 197q35 90 94 153q63 68 149 103q89 37 197 36q117 0 209 -41q89 -40 147 -110q61 -76 88 -168q29 -102 29 -217h-805q14 -145 109 -236q90 -88 241 -88q102 0 186.5 43t123.5 107l96 -66q-70 -98 -168 -149q-96 -51 -238 -52q-115 0 -198 35 q-94 39 -156 101q-63 63 -100 153t-37 199zM139 535h658q-23 156 -111 229.5t-217 73.5q-70 0 -123 -21q-55 -22 -98 -61q-43 -41 -72 -97q-27 -54 -37 -124zM186 1118v187h187v-187h-187zM559 1118v187h186v-187h-186z" />
<glyph unicode="&#xec;" d="M745 0h-559v117h211v694h-211v121h349v-815h210v-117zM229 1255l66 109l405 -287l-41 -65z" />
<glyph unicode="&#xed;" d="M745 0h-559v117h211v694h-211v121h349v-815h210v-117zM242 1077l403 287l66 -109l-432 -243z" />
<glyph unicode="&#xee;" d="M745 0h-559v117h211v694h-211v121h349v-815h210v-117zM170 1077l297 291l297 -287l-53 -67l-242 205l-246 -207z" />
<glyph unicode="&#xef;" d="M745 0h-559v117h211v694h-211v121h349v-815h210v-117zM186 1118v187h187v-187h-187zM559 1118v187h186v-187h-186z" />
<glyph unicode="&#xf0;" d="M-20 354q0 104 59 186.5t158 141.5q92 57 237 102q135 43 293 68q-37 68 -102 125q-68 61 -131 102l-183 -182l-78 80l160 160q-27 14 -84 39l-90 34l45 117q121 -47 219 -98l144 143l78 -80l-121 -123q86 -57 147 -114q68 -65 117 -142q43 -68 74 -170q29 -96 28 -206 q0 -133 -35 -232q-37 -104 -104 -178q-61 -68 -164 -111q-92 -39 -217 -39q-203 0 -328 97q-122 94 -122 280zM117 354q0 -117 84 -188.5t229 -71.5q88 0 164 33q70 31 119 88q53 61 75 141q25 82 25 181q0 61 -8 104q-12 70 -25 98q-133 -14 -268 -51q-113 -31 -209 -84 q-84 -47 -137 -112q-49 -62 -49 -138z" />
<glyph unicode="&#xf1;" d="M49 0v932h137v-234q98 256 353 256q344 0 344 -379v-575h-138v575q0 125 -55 193q-57 70 -174 70q-74 0 -137 -35q-59 -33 -104.5 -94.5t-65.5 -133.5q-23 -80 -23 -157v-418h-137zM78 1124q92 156 246 156q57 0 94 -18q31 -14 63 -41q31 -25 54 -39q27 -18 65 -19 q102 0 166 113l80 -47q-90 -158 -246 -158q-55 0 -92 19q-31 14 -64 40q-18 14 -55 39q-29 18 -65 19q-102 0 -166 -111z" />
<glyph unicode="&#xf2;" d="M-20 463q0 104 34 199q33 90 99 155q61 61 155 101q88 37 199 36.5t201 -36.5q94 -39 155 -101q66 -66 99 -155q35 -94 34 -199q0 -106 -34 -199q-33 -86 -99 -151q-61 -61 -155 -101q-84 -35 -201 -35q-115 0 -199 35q-94 39 -155 101q-66 66 -99 151q-34 93 -34 199z M117 463q0 -80 24 -148q27 -74 68 -116q45 -47 110 -76q68 -29 148 -29t147 29q66 29 111 76t70 116q25 68 24 148q0 80 -24.5 147.5t-69.5 118.5q-46 52 -111 80q-68 29 -147.5 29t-147.5 -29q-65 -28 -110 -80q-41 -47 -68 -119q-24 -67 -24 -147zM229 1255l66 109 l405 -287l-41 -65z" />
<glyph unicode="&#xf3;" d="M-20 463q0 104 34 199q33 90 99 155q61 61 155 101q88 37 199 36.5t201 -36.5q94 -39 155 -101q66 -66 99 -155q35 -94 34 -199q0 -106 -34 -199q-33 -86 -99 -151q-61 -61 -155 -101q-84 -35 -201 -35q-115 0 -199 35q-94 39 -155 101q-66 66 -99 151q-34 93 -34 199z M117 463q0 -80 24 -148q27 -74 68 -116q45 -47 110 -76q68 -29 148 -29t147 29q66 29 111 76t70 116q25 68 24 148q0 80 -24.5 147.5t-69.5 118.5q-46 52 -111 80q-68 29 -147.5 29t-147.5 -29q-65 -28 -110 -80q-41 -47 -68 -119q-24 -67 -24 -147zM242 1077l403 287 l66 -109l-432 -243z" />
<glyph unicode="&#xf4;" d="M-20 463q0 104 34 199q33 90 99 155q61 61 155 101q88 37 199 36.5t201 -36.5q94 -39 155 -101q66 -66 99 -155q35 -94 34 -199q0 -106 -34 -199q-33 -86 -99 -151q-61 -61 -155 -101q-84 -35 -201 -35q-115 0 -199 35q-94 39 -155 101q-66 66 -99 151q-34 93 -34 199z M117 463q0 -80 24 -148q27 -74 68 -116q45 -47 110 -76q68 -29 148 -29t147 29q66 29 111 76t70 116q25 68 24 148q0 80 -24.5 147.5t-69.5 118.5q-46 52 -111 80q-68 29 -147.5 29t-147.5 -29q-65 -28 -110 -80q-41 -47 -68 -119q-24 -67 -24 -147zM170 1077l297 291 l297 -287l-53 -67l-242 205l-246 -207z" />
<glyph unicode="&#xf5;" d="M-20 463q0 104 34 199q33 90 99 155q61 61 155 101q88 37 199 36.5t201 -36.5q94 -39 155 -101q66 -66 99 -155q35 -94 34 -199q0 -106 -34 -199q-33 -86 -99 -151q-61 -61 -155 -101q-84 -35 -201 -35q-115 0 -199 35q-94 39 -155 101q-66 66 -99 151q-34 93 -34 199z M117 463q0 -80 24 -148q27 -74 68 -116q45 -47 110 -76q68 -29 148 -29t147 29q66 29 111 76t70 116q25 68 24 148q0 80 -24.5 147.5t-69.5 118.5q-46 52 -111 80q-68 29 -147.5 29t-147.5 -29q-65 -28 -110 -80q-41 -47 -68 -119q-24 -67 -24 -147zM78 1124q92 156 246 156 q57 0 94 -18q31 -14 63 -41q31 -25 54 -39q27 -18 65 -19q102 0 166 113l80 -47q-90 -158 -246 -158q-55 0 -92 19q-31 14 -64 40q-18 14 -55 39q-29 18 -65 19q-102 0 -166 -111z" />
<glyph unicode="&#xf6;" d="M-20 463q0 104 34 199q33 90 99 155q61 61 155 101q88 37 199 36.5t201 -36.5q94 -39 155 -101q66 -66 99 -155q35 -94 34 -199q0 -106 -34 -199q-33 -86 -99 -151q-61 -61 -155 -101q-84 -35 -201 -35q-115 0 -199 35q-94 39 -155 101q-66 66 -99 151q-34 93 -34 199z M117 463q0 -80 24 -148q27 -74 68 -116q45 -47 110 -76q68 -29 148 -29t147 29q66 29 111 76t70 116q25 68 24 148q0 80 -24.5 147.5t-69.5 118.5q-46 52 -111 80q-68 29 -147.5 29t-147.5 -29q-65 -28 -110 -80q-41 -47 -68 -119q-24 -67 -24 -147zM186 1118v187h187v-187 h-187zM559 1118v187h186v-187h-186z" />
<glyph unicode="&#xf7;" d="M0 420v117h932v-117h-932zM373 12v187h186v-187h-186zM373 758v186h186v-186h-186z" />
<glyph unicode="&#xf8;" d="M-43 0v119l92 74q-70 121 -69 270q0 104 34 199q33 90 99 155q61 61 155 101q88 37 199 36q114 0 203 -36q90 -37 155 -107l152 121v-119l-94 -76q74 -119 73 -274q0 -106 -34 -199q-33 -86 -99 -151q-61 -61 -155 -101q-84 -35 -201 -35q-113 0 -205 37q-90 37 -156 105 zM117 463q0 -109 39 -184l569 452q-47 51 -111 78q-68 29 -147.5 29t-147.5 -29q-65 -28 -110 -80q-41 -47 -68 -119q-24 -67 -24 -147zM209 201q47 -51 110 -78q68 -29 148 -29t147 29q66 29 111 76t70 116q25 68 24 148q0 108 -43 190z" />
<glyph unicode="&#xf9;" d="M49 356v576h137v-576q0 -129 54 -194q55 -68 176 -68q74 0 137 35q59 33 104 94.5t66 132.5q23 80 22 158v418h138v-932h-138v233q-98 -256 -352 -256q-344 0 -344 379zM229 1257l66 109l405 -287l-41 -65z" />
<glyph unicode="&#xfa;" d="M49 356v576h137v-576q0 -129 54 -194q55 -68 176 -68q74 0 137 35q59 33 104 94.5t66 132.5q23 80 22 158v418h138v-932h-138v233q-98 -256 -352 -256q-344 0 -344 379zM242 1077l403 287l66 -109l-432 -243z" />
<glyph unicode="&#xfb;" d="M49 356v576h137v-576q0 -129 54 -194q55 -68 176 -68q74 0 137 35q59 33 104 94.5t66 132.5q23 80 22 158v418h138v-932h-138v233q-98 -256 -352 -256q-344 0 -344 379zM170 1077l297 291l297 -287l-53 -67l-242 205l-246 -207z" />
<glyph unicode="&#xfc;" d="M49 356v576h137v-576q0 -129 54 -194q55 -68 176 -68q74 0 137 35q59 33 104 94.5t66 132.5q23 80 22 158v418h138v-932h-138v233q-98 -256 -352 -256q-344 0 -344 379zM186 1118v187h187v-187h-187zM559 1118v187h186v-187h-186z" />
<glyph unicode="&#xfd;" d="M-31 932h162l336 -815l330 815h164l-504 -1168q-40 -98 -111 -129q-72 -31 -156 -30q-94 0 -192 35l27 118q39 -18 92 -28q41 -8 73 -9q68 0 93 33q31 43 45 78l57 141zM242 1077l403 287l66 -109l-432 -243z" />
<glyph unicode="&#xfe;" d="M49 -373v1678h137v-449q125 98 275 98q102 0 194 -34q88 -33 150 -99q59 -63 94 -153q35 -92 35 -203q0 -113 -33 -199q-35 -94 -92 -153q-63 -68 -150 -103q-84 -35 -198 -35q-150 0 -275 99v-447h-137zM186 215q121 -129 275 -129q78 0 145 29q65 28 105 80 q45 57 63 120q20 68 21 150q0 88 -20.5 151.5t-63.5 116.5t-105 80q-68 29 -145 29q-154 0 -275 -127v-500z" />
<glyph unicode="&#xff;" d="M-31 932h162l336 -815l330 815h164l-504 -1168q-40 -98 -111 -129q-72 -31 -156 -30q-94 0 -192 35l27 118q39 -18 92 -28q41 -8 73 -9q68 0 93 33q31 43 45 78l57 141zM186 1118v187h187v-187h-187zM559 1118v187h186v-187h-186z" />
<glyph unicode="&#x131;" d="M745 0h-559v117h211v694h-211v121h349v-815h210v-117z" />
<glyph unicode="&#x152;" d="M-14 651q0 676 288 676q72 0 111 -39q35 -35 64 -117v134h483v-117h-373v-467h283v-117h-283v-487h373v-117h-483v133q-29 -84 -64 -119q-37 -37 -111 -37q-288 0 -288 674zM123 651q0 -123 6 -225q6 -96 23 -176q16 -78 45 -115q31 -41 78 -41t75 41q31 43 45 115 q16 80 23 176q4 68 4 225q0 156 -4 226q-6 98 -23 178q-14 72 -45 114q-29 41 -76 41t-77 -41q-29 -37 -45 -114q-16 -80 -23 -178q-6 -105 -6 -226z" />
<glyph unicode="&#x153;" d="M-37 465q0 489 279 489q164 0 211 -194q20 94 77 145q55 49 140 49q100 0 157.5 -53t83.5 -131q29 -84 35 -174q8 -127 8 -178h-428q0 -168 39 -240q40 -74 117 -74q47 0 80 27q31 25 47 100l127 -41q-68 -213 -254 -213q-178 0 -227 201q-43 -201 -213 -201 q-279 1 -279 488zM100 465q0 -377 141.5 -377t141.5 377q0 375 -141.5 375t-141.5 -375zM526 539h281q0 156 -27 227q-28 74 -110 74q-84 0 -111 -78q-31 -86 -33 -223z" />
<glyph unicode="&#x178;" d="M-20 1188v117h368v-117h-108l227 -492l225 492h-108v117h368v-117h-106l-311 -625v-446h210v-117h-559v117h211v446l-311 625h-106zM186 1489v187h187v-187h-187zM559 1489v187h186v-187h-186z" />
<glyph unicode="&#x2c6;" d="M170 1077l297 291l297 -287l-53 -67l-242 205l-246 -207z" />
<glyph unicode="&#x2da;" d="M242 1257.5q0 53.5 16 88.5q18 41 49 71.5t72 48.5q35 16 88 16.5t88 -16.5q41 -18 72 -49q27 -27 47 -71q18 -39 18 -88.5t-18 -88.5q-20 -45 -47 -71q-31 -31 -72 -49q-35 -16 -88 -16.5t-88 16.5q-41 18 -72 48.5t-49 71.5q-16 35 -16 88.5zM332 1257.5 q0 -55.5 41 -96.5q39 -39 94 -39t94 39q41 41 41 96.5t-41 96.5q-39 39 -94 39t-94 -39q-41 -41 -41 -96.5z" />
<glyph unicode="&#x2dc;" d="M78 1124q92 156 246 156q57 0 94 -18q31 -14 63 -41q31 -25 54 -39q27 -18 65 -19q102 0 166 113l80 -47q-90 -158 -246 -158q-55 0 -92 19q-31 14 -64 40q-18 14 -55 39q-29 18 -65 19q-102 0 -166 -111z" />
<glyph unicode="&#x2000;" horiz-adv-x="868" />
<glyph unicode="&#x2001;" horiz-adv-x="1738" />
<glyph unicode="&#x2002;" horiz-adv-x="868" />
<glyph unicode="&#x2003;" horiz-adv-x="1738" />
<glyph unicode="&#x2004;" horiz-adv-x="577" />
<glyph unicode="&#x2005;" horiz-adv-x="432" />
<glyph unicode="&#x2006;" horiz-adv-x="288" />
<glyph unicode="&#x2007;" horiz-adv-x="288" />
<glyph unicode="&#x2008;" horiz-adv-x="215" />
<glyph unicode="&#x2009;" horiz-adv-x="346" />
<glyph unicode="&#x200a;" horiz-adv-x="94" />
<glyph unicode="&#x2010;" d="M0 420v117h932v-117h-932z" />
<glyph unicode="&#x2011;" d="M0 420v117h932v-117h-932z" />
<glyph unicode="&#x2012;" d="M0 420v117h932v-117h-932z" />
<glyph unicode="&#x2013;" d="M0 424v108h932v-108h-932z" />
<glyph unicode="&#x2014;" d="M-92 424v108h1118v-108h-1118z" />
<glyph unicode="&#x2018;" d="M426 745v218q0 72 20.5 131t61.5 106q43 49 98.5 76t138.5 27v-117q-203 0 -202 -223v-31h202v-187h-319z" />
<glyph unicode="&#x2019;" d="M186 748v116q203 0 203 223v31h-203v187h320v-218q0 -72 -21 -131q-23 -63 -59 -106q-39 -45 -100.5 -73.5t-139.5 -28.5z" />
<glyph unicode="&#x201a;" d="M557 0v186h322v-217q0 -72 -20.5 -131t-61.5 -106q-40 -46 -99 -74q-61 -29 -141 -29v117q205 0 205 223v31h-205z" />
<glyph unicode="&#x201c;" d="M55 745v218q0 70 19 131q18 57 59 106q41 47 100 76q55 27 140 27v-117q-201 0 -201 -223v-31h201v-187h-318zM612 745v218q0 72 21 131q23 63 59 106q41 47 101 76q55 27 139 27v-117q-203 0 -203 -223v-31h203v-187h-320z" />
<glyph unicode="&#x201d;" d="M0 748v116q203 0 203 223v31h-203v187h319v-218q0 -72 -20 -131q-23 -63 -59 -106q-39 -45 -100.5 -73.5t-139.5 -28.5zM559 748v116q201 0 201 223v31h-201v187h318v-218q0 -70 -19 -131q-18 -57 -59 -106q-39 -45 -100.5 -73.5t-139.5 -28.5z" />
<glyph unicode="&#x201e;" d="M0 0v186h319v-217q0 -72 -20 -131q-23 -63 -59 -106q-39 -45 -100.5 -74t-139.5 -29v117q203 0 203 223v31h-203zM559 0v186h318v-217q0 -70 -19 -131q-18 -57 -59 -106q-39 -45 -100.5 -74t-139.5 -29v117q201 0 201 223v31h-201z" />
<glyph unicode="&#x2022;" d="M186 559q0 82 29 145.5t82 116.5q49 49 116.5 80t145.5 31t145.5 -31t116.5 -80t80 -116.5t31 -145.5t-31 -145.5t-80 -116.5q-53 -53 -116.5 -82t-145.5 -29t-145.5 29t-116.5 82t-82 116.5t-29 145.5z" />
<glyph unicode="&#x2026;" d="M0 0v186h186v-186h-186zM373 0v186h186v-186h-186zM745 0v186h187v-186h-187z" />
<glyph unicode="&#x202f;" horiz-adv-x="346" />
<glyph unicode="&#x2039;" d="M199 477l327 330l78 -80l-248 -250l248 -248l-78 -79z" />
<glyph unicode="&#x203a;" d="M328 227l247 250l-247 250l80 78l325 -328l-325 -327z" />
<glyph unicode="&#x205f;" horiz-adv-x="432" />
<glyph unicode="&#x20ac;" d="M0 446v113h154q-2 14 -2 47v45v47q0 33 2 47h-154v113h166q16 100 45 182q33 90 78 150q47 63 117 100q68 37 157 37q141 0 232 -88q94 -90 145 -276l-121 -31q-27 121 -94 201q-66 78 -158 77q-100 0 -168 -88q-70 -90 -96 -264h256v-113h-268q-2 -14 -2 -45v-49v-47 q0 -31 2 -45h268v-113h-256q25 -182 94 -266q70 -86 170 -86q94 0 158 78q68 84 94 203l121 -33q-51 -186 -145 -276q-90 -88 -232 -89q-90 0 -157.5 37t-116.5 99q-47 59 -80 149q-29 82 -45 184h-164z" />
<glyph unicode="&#x2122;" d="M0 1192v113h465v-113h-176v-447h-113v447h-176zM561 745v560h158l121 -328l121 328h157v-560h-110v394l-129 -334h-78l-129 334v-394h-111z" />
<glyph unicode="&#xe000;" horiz-adv-x="930" d="M0 930h930v-930h-930v930z" />
<glyph unicode="&#xfb01;" d="M0 0v117h211v698h-211v117h211q0 190 100.5 290.5t298.5 100.5q57 0 80 -2l35 -5l20 -3v-117l-61 6q-41 4 -74 4q-131 0 -196.5 -65.5t-65.5 -208.5h559v-815h211v-117h-1118zM348 117h422v698h-422v-698z" />
<glyph unicode="&#xfb02;" d="M0 0v117h211v698h-211v117h211q0 190 100.5 290.5t298.5 100.5q111 0 170 -8q76 -10 127 -27v-1171h211v-117h-1118zM348 117h422v1075l-22 3q-23 3 -37 5q-37 6 -101 6q-131 0 -196.5 -65.5t-65.5 -208.5h211v-117h-211v-698z" />
<glyph unicode="&#xfb03;" horiz-adv-x="3352" d="M2422 0v117h211v698h-211v117h349v-815h210v-117h-559zM2609 1118v187h186v-187h-186zM1304 0v117h211v698h-211v117h211q0 190 98.5 292.5t301.5 102.5q35 0 80 -4q34 -3 55 -6v-117q-18 2 -59.5 6t-75.5 4q-132 0 -197 -67q-66 -70 -65 -211h397v-117h-397v-698h210 v-117h-559zM186 0v117h211v698h-211v117h211q0 190 98.5 292.5t301.5 102.5q35 0 80 -4q34 -3 55 -6v-117q-18 2 -59.5 6t-75.5 4q-132 0 -197 -67q-66 -70 -65 -211h397v-117h-397v-698h210v-117h-559z" />
<glyph unicode="&#xfb04;" horiz-adv-x="3352" d="M2422 0v117h211v1071h-211v117h349v-1188h210v-117h-559zM1304 0v117h211v698h-211v117h211q0 190 98.5 292.5t301.5 102.5q35 0 80 -4q34 -3 55 -6v-117q-18 2 -59.5 6t-75.5 4q-132 0 -197 -67q-66 -70 -65 -211h397v-117h-397v-698h210v-117h-559zM186 0v117h211v698 h-211v117h211q0 190 98.5 292.5t301.5 102.5q35 0 80 -4q34 -3 55 -6v-117q-18 2 -59.5 6t-75.5 4q-132 0 -197 -67q-66 -70 -65 -211h397v-117h-397v-698h210v-117h-559z" />
</font>
</defs>
</svg>
