<?xml version="1.0" standalone="no"?>
<!DOCTYPE svg PUBLIC "-//W3C//DTD SVG 1.1//EN" "http://www.w3.org/Graphics/SVG/1.1/DTD/svg11.dtd" >
<svg xmlns="http://www.w3.org/2000/svg">
<metadata>
This is a custom SVG webfont generated by Font Squirrel.
Copyright   : Copyright c 20082009 Accademia di Belle Arti di Urbino andstudents of MA course of Visual design wwwcampivisivinetwith Reserved Font Name TitilliumCopyright c 2011 Chank Co wwwchankcom with Reserved Font Name PanefrescoThis Font Software is licensed under the SIL Open Font License Version 11
Foundry     : Campivisivi  Chank Co
</metadata>
<defs>
<font id="webfont0hxac4ER" horiz-adv-x="1085" >
<font-face units-per-em="2048" ascent="1536" descent="-512" />
<missing-glyph horiz-adv-x="481" />
<glyph unicode=" "  horiz-adv-x="481" />
<glyph unicode="&#x09;" horiz-adv-x="481" />
<glyph unicode="&#xa0;" horiz-adv-x="481" />
<glyph unicode="!" horiz-adv-x="948" d="M432 295h242l-68 -295h-241zM692 1434h244l-219 -926h-232z" />
<glyph unicode="&#x22;" horiz-adv-x="688" d="M639 915l111 502h217l-123 -502h-205zM291 915l110 502h217l-122 -502h-205z" />
<glyph unicode="#" d="M946 350l-80 -350h-196l80 350h-256l-80 -350h-197l80 350h-209l43 189h209l66 278h-209l43 189h209l79 350h197l-80 -350h256l80 350h197l-80 -350h209l-43 -189h-209l-66 -278h209l-43 -189h-209zM858 817h-256l-65 -278h256z" />
<glyph unicode="$" d="M1225 1143l-113 12q-49 4 -108.5 8t-114.5 6l-90 -397q55 -27 109.5 -57.5t97.5 -70.5t70.5 -92t27.5 -122q0 -96 -30 -176t-90 -138.5t-152.5 -94t-215.5 -41.5l-51 -226l-100 15l47 208q-100 2 -201.5 16.5t-167.5 31.5l56 186q31 -4 74.5 -9t92 -9.5t98.5 -7.5t95 -5 l100 434q-55 27 -111 57.5t-101.5 69.5t-74 89.5t-28.5 119.5q0 176 127 292t363 132l57 244h102l-57 -244q90 -4 179 -19l163 -28zM881 408q0 53 -37 90t-92 69l-88 -383q39 8 77.5 24.5t69.5 44.5t50.5 67t19.5 88zM565 975q0 -51 41 -87t101 -69l79 350q-45 -6 -84.5 -21 t-70.5 -40t-48.5 -58.5t-17.5 -74.5z" />
<glyph unicode="%" d="M561 1296q-41 0 -63.5 -36.5t-38.5 -114.5q-18 -78 -14 -117t44 -39q41 0 65 38t42 118q16 78 11 114.5t-46 36.5zM1034 1464l137 -49l-786 -1452l-137 49zM289 1145q35 150 112.5 220.5t190.5 70.5t160 -71t12 -220q-35 -150 -115 -222.5t-192 -72.5q-113 0 -158 72.5 t-10 222.5zM670 295q35 150 113.5 220.5t191.5 70.5t159 -71t11 -220q-35 -150 -114 -222.5t-191 -72.5q-113 0 -159 72.5t-11 222.5zM838 295q-18 -80 -13.5 -118t45.5 -38t63.5 38t41.5 118q18 78 13 114.5t-46 36.5t-63.5 -36.5t-40.5 -114.5z" />
<glyph unicode="&#x26;" horiz-adv-x="1433" d="M983 1446q182 0 272.5 -86t51.5 -252q-16 -72 -46 -127t-77 -104.5t-113.5 -93.5t-155.5 -91l172 -221l28 52l35 73l33 76l25 61l215 -4q-18 -49 -44 -104l-52 -109l-53 -101l-47 -83l178 -215l-166 -144l-164 189q-63 -51 -119.5 -87t-115 -57.5t-124 -31t-145.5 -9.5 q-242 0 -342 120t-49 337q33 145 139.5 240.5t247.5 148.5q-20 39 -33.5 72t-18.5 67.5t-2 74.5t15 89q18 76 60.5 135.5t102 100.5t134 62.5t158.5 21.5zM612 182q94 0 168 28t158 89l-270 373q-98 -29 -170 -93.5t-90 -150.5q-27 -115 22 -180.5t182 -65.5zM748 1096 q-16 -66 -9.5 -121t45.5 -103l33 -43q117 57 177.5 113.5t80.5 142.5q35 158 -127 158q-76 0 -130 -37.5t-70 -109.5z" />
<glyph unicode="'" horiz-adv-x="204" d="M311 1417h217l-120 -491h-207z" />
<glyph unicode="(" horiz-adv-x="532" d="M831 1536q-90 -156 -169 -315q-35 -68 -70 -144t-66.5 -154.5t-58.5 -156.5t-43 -150t-25.5 -147.5t-13.5 -150t-3 -146.5t5 -135q8 -150 31 -293h-242q-27 135 -35 283q-10 125 -4 280.5t41 308.5q18 76 45 157t58.5 160t67.5 153l71 143q80 158 170 307h241z" />
<glyph unicode=")" horiz-adv-x="532" d="M-33 -246q88 156 168 316l68 143q35 76 66.5 153.5t58 155.5t43.5 152q33 143 38 296.5t-1 282.5q-8 150 -29 293h242q27 -137 34 -282q8 -127 2 -282t-41 -308q-18 -78 -44.5 -158t-58.5 -160t-68 -154l-68 -143q-80 -158 -170 -305h-240z" />
<glyph unicode="*" d="M883 1001l24 -239l-168 -49l-24 243l-244 -157l-68 127l246 153l-172 152l127 133l170 -145l139 241l146 -55l-137 -238h252l-39 -166h-252z" />
<glyph unicode="+" d="M242 688h346l82 356h229l-82 -356h352l-51 -221h-352l-82 -354h-229l82 354h-347z" />
<glyph unicode="," horiz-adv-x="348" d="M-43 -252l78 116q39 60 69.5 124.5t49 131t20.5 134.5h242q-10 -135 -75 -259t-163 -247h-221z" />
<glyph unicode="-" horiz-adv-x="901" d="M295 659h614l-49 -210h-614z" />
<glyph unicode="." horiz-adv-x="507" d="M186 295h242l-68 -295h-241z" />
<glyph unicode="/" d="M1057 1464l194 -73l-907 -1428l-194 74z" />
<glyph unicode="0" d="M858 1374q115 0 200 -34.5t132 -117.5t51 -219.5t-43 -340.5q-47 -199 -112.5 -331t-150.5 -210t-185.5 -111t-212.5 -33q-115 0 -201 33t-133 111t-53.5 210t40.5 331q47 205 115 342t153 219t185 116.5t215 34.5zM811 1163q-66 0 -120 -24.5t-100 -83t-84 -154.5 t-71 -239q-33 -139 -37 -230.5t15.5 -146t63.5 -76t110 -21.5q63 0 116.5 21.5t97.5 76t80 145.5t68 231q33 143 41 239t-9 154.5t-60 83t-111 24.5z" />
<glyph unicode="1" d="M836 1352h215l-312 -1352h-229l250 1087l-352 -206l-66 180z" />
<glyph unicode="2" d="M102 0l48 207l411 334l142 119q62 54 108.5 104.5t75 99.5t41.5 103q23 98 -20.5 145t-166.5 47q-53 0 -115.5 -6t-115.5 -14q-63 -8 -125 -21l29 203q68 14 139 27q61 10 135 18t146 8q211 0 297 -100t40 -293q-18 -80 -45.5 -141.5t-71.5 -118.5t-106.5 -115.5 t-150.5 -128.5l-330 -262h553l-49 -215h-869z" />
<glyph unicode="3" d="M428 1323q68 14 137 25q59 10 130 18t136 8q240 0 322 -95t41 -280q-16 -66 -43 -111.5t-60.5 -77.5t-69.5 -54.5t-69 -40.5q41 -20 73 -47t49.5 -65t19.5 -90t-15 -126q-49 -211 -181 -310.5t-357 -99.5q-76 0 -153 6.5t-138 16.5q-72 10 -139 25l67 196q66 -8 133 -14 q57 -6 124 -10t124 -4q117 0 189.5 51t95.5 149q23 102 -28.5 144.5t-149.5 46.5h-265l48 200h262q37 0 75.5 16.5t71.5 43t57.5 61.5t34.5 72q23 98 -25 143t-153 45q-63 0 -127.5 -6t-118.5 -12q-63 -8 -120 -19z" />
<glyph unicode="4" d="M702 231h-593l41 185l583 936h250l-565 -906h334l88 385h229l-88 -385h141l-49 -215h-141l-58 -247h-229z" />
<glyph unicode="5" d="M1264 1354l-50 -217h-583l-111 -336q43 14 86 26q37 10 79 18.5t77 8.5q199 0 293 -101.5t43 -322.5q-27 -119 -79 -204t-124 -140t-162 -82t-190 -27q-78 0 -155 9.5t-142 21.5q-76 14 -146 33l74 199q70 -14 141 -25q61 -10 132 -17.5t137 -7.5q96 0 171.5 58.5 t104.5 181.5q27 115 -20 165t-150 50q-51 0 -97 -8t-81 -19q-41 -10 -78 -24l-170 37l209 723h791z" />
<glyph unicode="6" d="M1225 1128l-117 17q-53 6 -116.5 11t-123.5 5q-147 0 -243.5 -92t-143.5 -287l29 11l73 24t97 25.5t100 11.5q211 0 306.5 -107.5t43.5 -328.5q-53 -225 -203.5 -333t-375.5 -108q-248 0 -330 179.5t-4 517.5q45 199 117 334t162 216t196.5 115.5t225.5 34.5 q57 0 121.5 -7t121.5 -15q66 -8 131 -21zM715 653q-47 0 -96.5 -8t-90.5 -18q-47 -12 -92 -27q-18 -84 -21 -158.5t15.5 -132t59 -90.5t110.5 -33q113 0 189.5 61.5t105.5 182.5q27 115 -23.5 169t-156.5 54z" />
<glyph unicode="7" d="M424 1354h831l-65 -281l-746 -1106l-211 64l711 1046l14 60h-583z" />
<glyph unicode="8" d="M868 1376q102 0 185.5 -25.5t136.5 -73.5t74.5 -119t1.5 -159q-14 -61 -34 -104t-49.5 -76t-70.5 -60.5t-98 -58.5q82 -49 117.5 -127.5t7.5 -203.5q-25 -109 -81.5 -183.5t-136 -122t-177 -69t-203.5 -21.5q-104 0 -190.5 22.5t-142.5 71t-77.5 123t2.5 181.5 q14 68 42 118t63.5 88.5t78.5 67.5t89 55q-80 63 -103.5 137t4.5 189q20 88 70.5 153.5t124 109.5t168 65.5t198.5 21.5zM590 182q119 0 200.5 49.5t108.5 165.5q18 78 -14.5 123t-104.5 72h-192q-86 -29 -136.5 -76t-66.5 -123q-27 -113 30.5 -162t174.5 -49zM819 1167 q-111 0 -182.5 -45t-93.5 -141q-16 -70 6 -114t84 -79h192q80 35 125 79t62 112q23 96 -27.5 142t-165.5 46z" />
<glyph unicode="9" d="M174 221q55 -8 117 -16q53 -6 115.5 -11.5t123.5 -5.5q150 0 248.5 95.5t141.5 275.5l-30 -9q-30 -9 -73 -20.5t-94 -21.5t-94 -10q-100 0 -178 28.5t-127.5 86t-63.5 140.5t10 191q25 109 80.5 189.5t132 134t168.5 80t195 26.5q244 0 330 -179t6 -527 q-47 -199 -117 -332t-160 -213t-197.5 -113t-226.5 -33q-57 0 -122.5 6.5t-120.5 14.5q-66 8 -129 22zM684 702q45 0 94 6.5t90 16.5q49 8 97 23q20 94 22 170.5t-17.5 132t-61.5 85t-109 29.5q-104 0 -185.5 -62.5t-107.5 -176.5q-27 -115 22.5 -169.5t155.5 -54.5z" />
<glyph unicode=":" horiz-adv-x="425" d="M303 915h242l-70 -294h-242zM160 295h241l-67 -295h-242z" />
<glyph unicode=";" horiz-adv-x="456" d="M207 285h242l-271 -523h-207zM336 915h242l-70 -294h-242z" />
<glyph unicode="&#x3c;" d="M530 600l418 -281l-55 -235l-608 395l53 234l790 391l-55 -236z" />
<glyph unicode="=" d="M311 870h863l-52 -217h-862zM215 459h862l-49 -219h-862z" />
<glyph unicode="&#x3e;" d="M401 881l54 223l610 -391l-53 -234l-793 -395l57 248l545 280z" />
<glyph unicode="?" horiz-adv-x="790" d="M1049 1059q-16 -72 -55.5 -131.5t-89.5 -108.5t-103 -92l-101 -81q-47 -38 -79.5 -74.5t-40.5 -73.5l-19 -78h-227l4 45l4 38q2 19 6 32q18 80 86 148.5t145 130.5l141 120q65 57 77 113q12 47 13 82.5t-16.5 59t-54.5 36t-102 12.5q-39 0 -93.5 -7t-105.5 -18 q-59 -10 -121 -24l21 201l139 34q59 14 123 25.5t111 11.5q219 0 303 -93t35 -308zM289 281h241l-63 -281h-242z" />
<glyph unicode="@" horiz-adv-x="2017" d="M2058 575q-43 -182 -95 -297.5t-116.5 -182t-141.5 -91t-167 -24.5q-92 0 -147.5 20t-83.5 78l-76 -32q-43 -17 -90 -31.5t-95.5 -23.5t-91.5 -9q-82 0 -144 25.5t-97 87t-39 162.5t31 253q29 127 69.5 226.5t101 167t145.5 103t206 35.5q29 0 62.5 -7t64.5 -17 q37 -10 73 -23l7 29h223l-94 -410q-35 -145 -48.5 -229t-9.5 -126t24.5 -53t57.5 -11q39 0 71 13t60.5 54t56 120t58.5 208l8 37q39 174 30 297t-71.5 200.5t-179.5 114.5t-293 37q-358 0 -582.5 -182.5t-310.5 -558.5q-47 -203 -39 -345.5t74 -231.5t194 -129t320 -40 q31 0 81 2t97 6q55 4 119 10l-41 -210q-61 -6 -117 -11q-47 -4 -99 -7t-89 -3q-227 0 -392 49t-258.5 163t-112.5 301t46 464q57 248 163.5 425t256 289.5t336 166t401.5 53.5q457 0 624 -226.5t68 -650.5zM1022 201q61 0 131 18.5t119 34.5q4 53 15 118.5t30 149.5l65 279 l-57 14q-25 6 -51.5 11t-48.5 5q-70 0 -117 -17t-81 -57t-57.5 -104.5t-43.5 -158.5q-20 -90 -21.5 -146.5t13 -89.5t42 -45t62.5 -12z" />
<glyph unicode="A" horiz-adv-x="1239" d="M633 1212q18 39 49 76t73 65.5t97 46t123 17.5h190l15 -1417h-226l-16 293h-498l-141 -293h-240zM942 1217h-5q-40 0 -68 -31q-30 -33 -44 -68l-286 -612h405z" />
<glyph unicode="B" horiz-adv-x="1249" d="M1006 1417q92 0 165.5 -22.5t120.5 -67.5t64 -114q7 -30 7 -65q0 -44 -11 -95q-16 -70 -38 -121t-50.5 -90t-66.5 -68t-87 -53q88 -39 123 -115q18 -39 18 -95q0 -53 -16 -122q-25 -106 -76 -180t-121.5 -120t-157.5 -67.5t-184 -21.5h-526l326 1417h510zM539 614 l-95 -407h287q94 0 169 49t99 160q7 30 8 54q0 23 -7 41q-13 38 -40.5 61.5t-64.5 32.5t-74 9h-282zM676 1212l-92 -399h278q92 0 157.5 56.5t88.5 154.5q8 31 7 58q0 52 -30 83q-45 47 -137 47h-272z" />
<glyph unicode="C" horiz-adv-x="1087" d="M1010 18q-72 -12 -144 -20q-61 -8 -130.5 -14.5t-123.5 -6.5q-156 0 -244.5 48.5t-125.5 142.5q-29 75 -30 179q0 26 2 53q9 138 50 317q43 190 101.5 326.5t139.5 225.5t190.5 131t254.5 42q61 0 128 -7.5t122 -17.5q66 -10 129 -22l-55 -203q-68 6 -131 14 q-53 4 -112.5 9.5t-100.5 5.5q-92 0 -158.5 -29t-116 -92.5t-86.5 -161.5t-69 -240q-31 -135 -40 -230q-3 -29 -3 -54q0 -59 15 -102q22 -60 76 -87.5t152 -27.5q35 0 95 4l116 8q68 6 140 14z" />
<glyph unicode="D" horiz-adv-x="1296" d="M170 0l326 1417h469q164 0 261 -47t140 -137q38 -81 38 -192v-27q-5 -129 -42 -293q-39 -166 -93.5 -300t-138 -227.5t-203.5 -143.5t-288 -50h-469zM1126 733q25 106 33 195q2 25 3 48q0 57 -15 101q-20 61 -75.5 95t-156.5 34h-241l-228 -993h242q100 0 172 41 t123 111.5t84.5 164.5t58.5 203z" />
<glyph unicode="E" horiz-adv-x="1142" d="M1034 0h-454q-96 0 -172 23.5t-123 72.5t-61 126q-4 26 -4 55q0 58 18 129q18 70 43.5 121t60.5 87.5t78 62t96 44.5q-33 27 -56.5 57.5t-34.5 70.5q-10 34 -10 76q0 8 1 16q2 52 20 122q25 92 75 158.5t118.5 110.5t153.5 64.5t178 20.5h399l-49 -209h-393 q-92 0 -162 -45t-94 -139q-9 -37 -10 -69q0 -51 25 -88q40 -58 132 -58h285l-45 -207h-295q-37 0 -79 -9t-82 -31.5t-70.5 -60.5t-45.5 -95q-10 -38 -10 -69q0 -55 34 -82q52 -42 146 -42h434z" />
<glyph unicode="F" horiz-adv-x="1114" d="M496 1417h862l-49 -213h-635l-111 -479h512l-47 -209h-512l-119 -516h-227z" />
<glyph unicode="G" horiz-adv-x="1228" d="M889 756h395l-80 -348q-16 -84 -39.5 -156t-59.5 -127t-85 -90t-117 -41q-66 -6 -134.5 -11.5t-121.5 -5.5q-158 0 -252 51.5t-136 147.5q-37 86 -37 205v30q5 138 46 312q43 182 102.5 317.5t143.5 224.5t197.5 133t265.5 44q76 0 156.5 -8.5t146.5 -18.5 q78 -10 152 -24l-54 -201l-143 16q-61 6 -135 12.5t-137 6.5q-98 0 -170 -29t-126.5 -90.5t-93 -158.5t-69.5 -236q-31 -135 -40 -234q-3 -29 -3 -54q0 -63 16 -108q23 -63 80 -92.5t160 -29.5q33 0 68.5 2t68.5 6q14 2 29.5 6t30 22.5t28.5 55.5t31 104l39 166h-170z" />
<glyph unicode="H" horiz-adv-x="1374" d="M1118 612h-579l-142 -612h-227l326 1417h227l-135 -592h579l136 592h227l-326 -1417h-227z" />
<glyph unicode="I" horiz-adv-x="542" d="M481 1417h232l-326 -1417h-231z" />
<glyph unicode="J" horiz-adv-x="636" d="M530 229q-25 -113 -60.5 -184.5t-93 -113.5t-139 -58t-198.5 -16l47 202q102 2 148.5 39t68.5 140l272 1181h228z" />
<glyph unicode="K" horiz-adv-x="1212" d="M1415 1417q-29 -96 -56.5 -200.5t-74.5 -205t-123 -188.5t-198 -149l186 -674h-258l-156 600l-55 -8l-57 -8l-95 -9l-131 -575h-227l326 1417h227l-143 -626l69 4q137 23 228.5 81t150.5 141t94 185.5t60 214.5h233z" />
<glyph unicode="L" horiz-adv-x="1015" d="M170 0l326 1417h227l-277 -1202h537l-49 -215h-764z" />
<glyph unicode="M" horiz-adv-x="1738" d="M436 1155q14 55 33.5 104.5t50.5 84t75 55.5q40 19 96 18h11h172l66 -1108l438 838q59 121 134 194.5t176 75.5h204l-325 -1417h-219l266 1157q-12 -2 -27.5 -20.5t-32.5 -44.5l-432 -822q-59 -106 -106 -155t-88 -58h-156l-74 1106q-16 0 -24 -21.5t-19 -54.5 l-249 -1087h-236z" />
<glyph unicode="N" horiz-adv-x="1427" d="M496 1417h186q43 0 80 -6t66.5 -27.5t50 -60.5t28.5 -102l135 -924q6 -60 35 -60q2 0 4 1l273 1179h229l-326 -1417h-174q-94 4 -152.5 48t-74.5 142l-143 918q-8 72 -41 72l-271 -1180h-231z" />
<glyph unicode="O" horiz-adv-x="1325" d="M705 188q92 0 160.5 29t120.5 91.5t90 159.5t69 232q37 161 37 273q0 73 -16 125q-40 131 -222 131q-92 0 -160.5 -33t-121 -98.5t-92.5 -164.5t-70 -233q-36 -159 -37 -267q0 -74 17 -123q43 -122 225 -122zM655 -23q-156 0 -252 46.5t-140 138.5q-42 88 -42 217v12 q2 137 43 318q41 178 102.5 315t149.5 230.5t206 140.5t271 47q156 0 251 -50.5t139 -145.5q41 -89 42 -216q0 -9 -1 -18q-3 -139 -44 -320q-41 -182 -101 -316t-147.5 -223.5t-204 -132.5t-272.5 -43z" />
<glyph unicode="P" horiz-adv-x="1224" d="M500 434l-99 -434h-231l326 1417h493q229 0 326 -124q61 -79 61 -203q0 -72 -20 -158q-53 -238 -209 -368t-385 -130h-262zM811 645q127 0 205 83t106 212q13 54 13 97q0 61 -25 101q-43 69 -170 68h-262l-129 -561h262z" />
<glyph unicode="Q" horiz-adv-x="1325" d="M1124 -461q-84 14 -140 57.5t-93 104.5t-61.5 135t-47.5 152q-29 -4 -60.5 -7.5t-66.5 -3.5q-160 0 -256 48.5t-139 141.5q-40 87 -40 212v18q3 137 44 314q41 174 100.5 310t146.5 230.5t206 142.5t276 48q160 0 255 -51.5t138 -148.5q39 -89 40 -213q0 -12 -1 -23 q-4 -139 -45 -316q-53 -236 -144 -396.5t-232 -242.5l28 -106q14 -53 38 -97.5t60.5 -75t92.5 -36.5zM705 188q96 0 165.5 31t120.5 93.5t87 158.5t67 229q31 129 39 228q2 27 2 52q0 65 -16 114q-22 68 -77 101.5t-149 33.5q-96 0 -165.5 -34t-122 -100.5t-89.5 -166 t-67 -228.5q-31 -131 -37 -227q-1 -21 -1 -40q0 -70 17 -120q23 -63 77.5 -94t148.5 -31z" />
<glyph unicode="R" horiz-adv-x="1261" d="M774 498h-262l-115 -498h-227l326 1417h499q231 0 333 -111q66 -72 66 -198q0 -68 -20 -152q-35 -158 -120 -255t-210 -150l113 -551h-242l-96 500zM1141 961q9 40 9 74q0 64 -33 107q-50 65 -161 64h-282l-115 -504h287q119 0 193.5 74t101.5 185z" />
<glyph unicode="S" horiz-adv-x="1087" d="M1255 1202q-76 6 -149 15q-63 4 -134 9t-130 5q-53 0 -103.5 -13.5t-88.5 -40t-60.5 -64.5t-22.5 -87q0 -53 42 -91t103.5 -72t135.5 -68.5t135 -80.5t103 -109.5t42 -151.5q0 -104 -34.5 -191.5t-104 -151t-176 -98.5t-250.5 -35q-57 0 -117.5 4.5t-119 11.5t-109.5 15 t-88 19l57 196q37 -6 90 -11l112 -10q58 -5 116.5 -8.5t105.5 -3.5q45 0 95.5 14.5t93.5 43t70.5 75t27.5 107.5q0 57 -41 98t-103.5 76t-135 69t-135 78t-103.5 103t-41 145q0 98 38 180.5t111.5 141.5t180 92t243.5 33q102 0 207 -17.5l193 -33.5z" />
<glyph unicode="T" horiz-adv-x="993" d="M342 1417h958l-51 -221h-360l-275 -1196h-227l275 1196h-371z" />
<glyph unicode="U" horiz-adv-x="1320" d="M487 453q-12 -52 -12 -92q0 -67 34 -103q54 -57 193 -57q141 0 224.5 57t115.5 195l222 964h229l-221 -964q-29 -125 -77 -214t-121 -146.5t-172 -84t-232 -26.5q-262 0 -367 110q-67 71 -66 198q0 72 21 163l221 964h230z" />
<glyph unicode="V" horiz-adv-x="1236" d="M1505 1417l-565 -1198q-111 -219 -360 -219h-179l-16 1417h231v-1210q41 4 74 29.5t62 85.5l503 1095h250z" />
<glyph unicode="W" horiz-adv-x="1892" d="M631 1417l-53 -1210q29 0 47 22.5t28 59.5l396 917q35 88 85 142q47 49 117 49h11h131l-37 -1190q29 -4 46 20.5t30 59.5l469 1130h245l-538 -1245q-39 -92 -112 -133q-69 -39 -167 -39h-10h-164l41 1092l-385 -920q-35 -86 -102 -130q-65 -42 -161 -42h-9h-179l35 1417 h236z" />
<glyph unicode="X" horiz-adv-x="1189" d="M786 868l410 549h266l-557 -715l232 -702h-250l-160 539l-408 -539h-266l561 702l-235 715h250z" />
<glyph unicode="Y" horiz-adv-x="1153" d="M692 0h-227l139 606l-239 811h245l152 -567l412 567h266l-609 -811z" />
<glyph unicode="Z" horiz-adv-x="1167" d="M459 1417h895q2 -15 2 -31q0 -69 -44 -150q-54 -99 -141 -206l-649 -735q-27 -29 -37 -48.5t-12 -31.5h610l-49 -215h-893v14q0 74 38 161q42 95 140 210l652 735q23 20 36 41t13 41h-610z" />
<glyph unicode="[" horiz-adv-x="614" d="M852 1315h-252l-311 -1348h252l-52 -219h-479l410 1786h481z" />
<glyph unicode="\" horiz-adv-x="1081" d="M729 0l-299 1430l236 8l295 -1432z" />
<glyph unicode="]" horiz-adv-x="614" d="M414 1534h481l-414 -1786h-479l51 219h252l311 1348h-251z" />
<glyph unicode="^" d="M813 1130l-360 -479h-246l526 701h236l209 -701h-228z" />
<glyph unicode="_" d="M989 -174l-47 -205h-973l45 205h975z" />
<glyph unicode="`" horiz-adv-x="1116" d="M1098 1374l-113 -186l-461 166l125 211z" />
<glyph unicode="a" horiz-adv-x="1075" d="M936 254q0 -35 28.5 -58.5t73.5 -31.5l-55 -184q-104 4 -162.5 26.5t-81.5 69.5q-53 -39 -124.5 -67.5t-157.5 -28.5q-150 0 -216.5 76.5t-66.5 215.5q0 82 15.5 171t47 174t80 163t114 136.5t148.5 92t185 33.5q57 0 99 -7t77 -17l180 26zM473 170q37 0 77 14.5t77 35 t66.5 44t45.5 39.5l64 277l29.5 127l29.5 129h-4l-54 9q-30 5 -59 5q-88 0 -156.5 -54.5t-116.5 -138.5t-73.5 -185t-25.5 -196q0 -49 25.5 -77.5t74.5 -28.5z" />
<glyph unicode="b" horiz-adv-x="1114" d="M608 946q61 37 132 63.5t137 26.5q139 0 204.5 -76.5t65.5 -216.5q0 -82 -15.5 -171t-47 -174t-80 -162.5t-114 -136t-149.5 -92.5t-184 -34q-55 2 -123 8l-127 9l-139 12l334 1446h223zM848 846q-31 0 -70 -12.5t-80 -32t-78.5 -42t-64.5 -40.5l-125 -539q43 -6 86 -10 t59 -4q88 0 157 54t117 138t73.5 185.5t25.5 195.5q0 49 -26.5 78t-73.5 29z" />
<glyph unicode="c" horiz-adv-x="892" d="M829 135q-33 -29 -78.5 -56.5t-97 -50t-102.5 -35.5t-94 -13q-150 0 -216.5 76.5t-66.5 215.5q0 82 15.5 171t47 174t80 163t114 136.5t148.5 92t185 33.5q57 0 129 -11t139 -36l-49 -186q-6 6 -38 13t-71.5 13.5t-76.5 10.5t-52 4q-88 0 -156.5 -54.5t-116.5 -138.5 t-73.5 -185t-25.5 -196q0 -49 26.5 -77.5t73.5 -28.5q37 0 83 16.5t90 39t79 47t51 40.5z" />
<glyph unicode="d" horiz-adv-x="1114" d="M952 0h-225l25 109q-23 -23 -63 -46.5t-84 -42t-87 -29.5t-72 -11q-133 0 -202.5 76.5t-69.5 215.5q0 82 15.5 171t47 174t80 163t114 136.5t148.5 92t185 33.5q41 0 92 -6t105 -20l100 432h225zM473 170q35 0 85 19.5t99.5 46t89 54t56.5 44.5l115 495q-23 4 -50 8 l-51 6q-25 3 -44 5t-28 2q-88 0 -156.5 -54.5t-116.5 -138.5t-73.5 -185t-25.5 -196q0 -49 26.5 -77.5t73.5 -28.5z" />
<glyph unicode="e" horiz-adv-x="1038" d="M922 100q-25 -16 -66 -36.5t-93 -39t-112.5 -31.5t-124.5 -13q-176 0 -249.5 85t-73.5 236q0 104 28 219q33 131 93.5 229.5t135.5 164t157.5 97t160.5 31.5q152 0 227.5 -76.5t75.5 -189.5q0 -66 -28.5 -132t-89.5 -132q-57 -61 -133 -100t-154 -61.5t-148.5 -32 t-119.5 -11.5q0 -27 5 -51.5t20.5 -42.5t45 -28.5t76.5 -10.5q43 0 94 14.5t101.5 36t94.5 46t73 44.5zM754 852q-41 0 -88.5 -23.5t-92.5 -67.5t-80.5 -109.5t-56.5 -151.5q66 4 143.5 21.5t144.5 50t112 83t45 117.5q0 80 -127 80z" />
<glyph unicode="f" horiz-adv-x="694" d="M352 827h-110l45 195h110l15 68q47 207 140 292.5t243 85.5q27 0 61.5 -3t65.5 -7q37 -6 73 -10l-47 -186l-51 4q-23 2 -49.5 4t-48.5 2q-70 0 -106 -46t-58 -139l-14 -65h262l-45 -195h-263l-188 -817q-25 -102 -55.5 -174t-81.5 -127t-130 -102t-198 -101l-57 187 q82 41 134 72.5t84 65.5t49.5 76t31.5 105z" />
<glyph unicode="g" horiz-adv-x="1083" d="M414 -487q-53 0 -104.5 4t-92.5 10q-49 8 -92 16l53 191l82 -8q35 -4 74 -6.5t67 -2.5q141 0 228.5 99.5t109.5 277.5q-16 -12 -48 -31.5t-69.5 -39t-77.5 -33t-75 -13.5q-100 0 -163.5 37t-94.5 104.5t-31 163t27 212.5q27 115 75 215t118.5 174.5t167 117.5t220.5 43 q41 0 109 -4l131 -8q74 -6 154 -10l-98 -423l-65 -285l-40 -172l-21 -88q-6 -28 -7 -32l-1 -6q-59 -260 -189 -381.5t-347 -121.5zM743 850q-57 0 -106 -29.5t-89 -79t-69.5 -112t-48.5 -125.5q-31 -113 -30 -185q0 -39 9 -67q26 -78 119 -78q35 0 81 21.5t87 48.5 q49 31 99 69l120 525q-33 2 -65 6l-57 4q-30 2 -50 2z" />
<glyph unicode="h" horiz-adv-x="1150" d="M162 0l334 1448h223l-121 -512q23 20 58.5 39.5t77.5 35t87 24.5t88 9q100 0 156.5 -33.5t79.5 -98.5q17 -47 16 -111q0 -23 -2 -48q-8 -95 -37 -218l-123 -535h-223l123 537l25 123q7 38 6 69q0 15 -1 29q-5 41 -30 63.5t-78 22.5q-70 0 -135 -25.5t-131 -70.5 l-170 -748h-223z" />
<glyph unicode="i" horiz-adv-x="522" d="M385 1022h223l-235 -1022h-223zM475 1419h223l-53 -235h-223z" />
<glyph unicode="j" horiz-adv-x="534" d="M397 1022h226l-234 -1012q-25 -102 -55.5 -174t-81.5 -127t-130 -102t-198 -101l-57 187q82 41 134 72.5t83 65.5t48.5 76t31.5 105zM487 1417h226l-54 -235h-225z" />
<glyph unicode="k" horiz-adv-x="1042" d="M168 0l334 1448h223l-190 -825l47 6q166 35 255 139t132 254h231q-39 -168 -127 -289t-217 -198l178 -535h-241l-156 438q-20 -6 -41 -11t-41 -9l-72 -12l-92 -406h-223z" />
<glyph unicode="l" horiz-adv-x="526" d="M485 1448h224l-334 -1448h-223z" />
<glyph unicode="m" horiz-adv-x="1748" d="M172 0l236 1022h223l-35 -141q61 66 144 114.5t159 48.5q82 0 142.5 -27.5t86.5 -92.5q33 20 76 41.5t90 39t96.5 28.5t96.5 11q98 0 158.5 -31.5t88.5 -94.5q24 -55 24 -136q0 -12 -1 -24q-4 -96 -33 -223l-122 -535h-224l121 524q16 74 25 133q4 30 4 55t-4 46 q-8 41 -36 62.5t-83 21.5q-78 0 -142.5 -34t-99.5 -67q0 -16 -11 -76.5t-28 -134.5l-120 -530h-226l121 526q18 76 27 136q5 34 4 61q0 21 -2 38q-6 40 -33 60.5t-78 20.5q-35 0 -72.5 -16.5t-74.5 -41t-69 -53.5t-52 -53l-154 -678h-223z" />
<glyph unicode="n" horiz-adv-x="1155" d="M168 0l235 1022h224l-29 -117q33 27 72 51.5t82 44t88 31.5t88 12q96 0 150.5 -33.5t74.5 -98.5q15 -46 15 -107q0 -25 -3 -52q-8 -95 -37 -218l-122 -535h-226l123 532q14 70 28.5 126.5t14.5 97.5t-20.5 63.5t-73.5 22.5q-41 0 -83 -12.5t-82 -33t-73.5 -46 t-60.5 -50.5l-162 -700h-223z" />
<glyph unicode="o" horiz-adv-x="1083" d="M782 1044q125 0 202 -41.5t111.5 -114.5t34.5 -172.5t-26 -215.5q-27 -117 -70 -213.5t-110.5 -165t-162.5 -106.5t-224 -38q-131 0 -207 43t-110 120q-31 70 -31 163v16q3 102 32 224q27 117 70 209t108.5 157.5t159.5 100t223 34.5zM582 172q70 0 118 25.5t82.5 71.5 t57 110.5t41.5 140.5q18 76 21 137q1 10 1 20q0 49 -13 85q-15 43 -52 65.5t-101 22.5q-66 0 -114 -23.5t-83.5 -66.5t-59 -105.5t-42.5 -140.5q-18 -78 -24 -141q-2 -19 -2 -37q0 -41 10 -72q14 -45 52 -68.5t108 -23.5z" />
<glyph unicode="p" horiz-adv-x="1114" d="M403 1022h224l-19 -82q63 39 136 67.5t143 28.5q139 0 204.5 -76.5t65.5 -216.5q0 -82 -15.5 -171t-47 -174t-79.5 -162.5t-113.5 -136t-149.5 -92.5t-185 -34q-39 0 -85 5.5t-93 15.5l-100 -434h-223zM858 846q-31 0 -73 -14.5t-85 -35t-81.5 -44t-63.5 -41.5l-123 -529 q45 -8 91 -12t63 -4q88 0 156.5 54t116.5 138t73.5 185.5t25.5 195.5q0 49 -26.5 78t-73.5 29z" />
<glyph unicode="q" horiz-adv-x="1110" d="M618 -440l121 522q-74 -45 -150.5 -73.5t-131.5 -28.5q-150 0 -216.5 76.5t-66.5 215.5q0 82 15.5 171t47 174t80 163t114 136.5t148.5 92t185 33.5q21 1 45 2q65 0 145 -9q111 -11 228 -21l-336 -1454h-228zM475 178q31 0 76 15.5t91 37t87 47t68 46.5l121 505 q-23 4 -50 8l-51 6q-25 3 -44 5t-28 2q-88 0 -156.5 -53.5t-116.5 -136t-72.5 -182t-24.5 -193.5q0 -49 26.5 -78t73.5 -29z" />
<glyph unicode="r" horiz-adv-x="733" d="M389 1022h225l-34 -156l53 47q31 27 71.5 51.5t94 47t121.5 35.5l-56 -240q-72 -12 -125 -33.5t-93 -45t-68 -48.5l-54 -45l-145 -635h-225z" />
<glyph unicode="s" horiz-adv-x="995" d="M1026 817l-129 17q-53 6 -112.5 12t-104.5 6q-78 0 -131 -38t-53 -89q0 -31 33.5 -53.5t84.5 -43.5l110 -46q58 -25 109.5 -57.5t85 -79t33.5 -109.5q0 -74 -26.5 -138.5t-83 -112.5t-145.5 -75.5t-212 -27.5q-49 0 -111.5 5t-117.5 13q-66 8 -131 18l53 191 q68 -12 133 -21q55 -8 114.5 -14t102.5 -6q39 0 76 12.5t64.5 32.5t44 47t16.5 55q0 33 -33.5 57.5t-83 47t-109 46t-108.5 56.5t-82.5 80t-33.5 115q0 70 28.5 129t86 104t143.5 71t198 26q41 0 90 -5.5t95.5 -12.5t87.5 -15t65 -17z" />
<glyph unicode="t" horiz-adv-x="727" d="M586 825l-103 -436q-16 -72 -16 -118q0 -25 5 -43q13 -50 77 -50h49q27 0 49 2l55 4l-30 -182q-37 -8 -74 -14l-65.5 -8.5t-61.5 -4.5q-164 0 -214 88q-26 45 -26 123q0 72 23 172l108 467h-122l43 195h123l69 301h223l-69 -301h270l-43 -195h-270z" />
<glyph unicode="u" horiz-adv-x="1146" d="M1221 1022l-236 -1022h-225l26 106q-27 -23 -64.5 -45t-81.5 -40.5t-90 -31t-87 -12.5q-164 0 -213 121q-22 54 -22 137q0 104 34 252l125 535h225l-123 -533q-33 -140 -32 -215q0 -14 1 -25q7 -75 87 -75q33 0 77 15.5t87 39t77.5 49t51.5 46.5l157 698h226z" />
<glyph unicode="v" horiz-adv-x="989" d="M500 1022l2 -832q25 4 49 25t41 55l356 752h236l-400 -821q-23 -41 -51 -78t-65 -63.5t-87.5 -43t-115.5 -16.5h-164l-25 1022h224z" />
<glyph unicode="w" horiz-adv-x="1542" d="M489 1022l-34 -823q41 6 82 73l278 598q63 129 150 134h147v-805q25 0 43.5 19.5t30.5 47.5l321 756h230l-369 -844q-41 -90 -116.5 -132t-180.5 -46h-151l8 698l-230 -512q-78 -182 -272 -186h-176l24 1022h215z" />
<glyph unicode="x" horiz-adv-x="950" d="M514 1022l109 -352l272 352h248l-414 -512l178 -510h-233l-111 350l-270 -350h-248l410 510l-174 512h233z" />
<glyph unicode="y" horiz-adv-x="991" d="M485 1022l21 -694q6 -102 51 -113l399 807h230l-498 -1012q-51 -102 -100 -174t-114.5 -127t-156 -102t-223.5 -101l-10 207l148.5 66.5t98.5 57.5t68.5 68t57.5 97q-29 0 -56.5 16.5t-50 46t-37 71.5t-14.5 95l-25 791h211z" />
<glyph unicode="z" horiz-adv-x="978" d="M354 1022h733q3 -17 3 -34q0 -47 -20 -99q-28 -72 -114 -162l-528 -528h477l-45 -199h-731v16q0 62 27 128q31 75 108 157l518 522h-473z" />
<glyph unicode="{" horiz-adv-x="665" d="M555 350q-6 -25 -15 -54l-20 -63l-19 -64l-16 -58q-10 -41 -9 -70t16.5 -48.5t49 -29.5t89.5 -14l-53 -219q-219 8 -300 90t-40 266q6 31 16 65.5t21.5 68.5t20.5 64.5t13 49.5q18 76 -10.5 127t-136.5 84l43 188q63 14 105 32.5t70 43.5t43 55.5t26 69.5q4 20 9 53 l11 70l12 72q6 36 13 65q23 96 62.5 162.5t101 108.5t145.5 62.5t194 24.5l-47 -219q-57 -4 -95 -13t-62.5 -27.5t-39 -46t-22.5 -68.5q-6 -25 -11 -60t-11 -71l-12 -70q-5 -33 -11 -55q-14 -63 -35.5 -108.5t-53.5 -77t-76 -54.5t-103 -41q104 -37 135 -101.5t2 -189.5z " />
<glyph unicode="|" d="M772 1536h229l-473 -2048h-229z" />
<glyph unicode="}" horiz-adv-x="665" d="M399 926q6 25 16 54l19 62l20 65q9 32 15 58q8 39 8 69t-15.5 49.5t-49 29.5t-88.5 14l53 219q219 -8 300 -90t40 -266q-6 -31 -18 -66l-21 -68l-20 -65q-9 -31 -13 -49q-18 -78 10.5 -128t137.5 -83l-43 -188q-63 -14 -105.5 -32.5t-70 -43.5t-44 -55.5t-24.5 -69.5 l-9 -54l-12 -69l-12 -73q-6 -36 -12 -64q-23 -96 -63 -162.5t-101 -108.5t-145 -62.5t-195 -24.5l47 219q57 4 95 13t62.5 27.5t38 46t23.5 68.5q6 25 11.5 60l11.5 71l11 70q5 33 9 55q14 63 36 107.5t54.5 77t76.5 55t104 41.5q-104 37 -135.5 101.5t-2.5 189.5z" />
<glyph unicode="~" d="M1092 573q-37 -31 -78 -53q-35 -20 -82 -36.5t-94 -16.5q-41 0 -89.5 14.5t-96.5 32.5t-91 32.5t-74 14.5q-35 0 -75.5 -14.5t-75.5 -30.5l-84 -43l29 211q41 31 86 53q39 20 87 38t99 18q41 0 87 -14.5t92 -33t89 -33t80 -14.5q29 0 68 13.5t73 29.5q41 18 84 43z" />
<glyph unicode="&#xa1;" horiz-adv-x="948" d="M770 727h-242l70 295h242zM510 -412h-244l219 926h232z" />
<glyph unicode="&#xa2;" horiz-adv-x="894" d="M432 66q-176 10 -247.5 111.5t-18.5 332.5q53 225 175 330.5t298 117.5l49 222h189l-52 -230q31 -4 62 -7t55 -7q29 -4 55 -6l-51 -195l-96 4q-41 2 -83 3t-71 1q-70 0 -120 -11t-84.5 -37.5t-58 -71.5t-38.5 -113q-16 -68 -14 -113t25.5 -71.5t70.5 -36.5t121 -10 q29 0 71 1t81 3q45 2 94 6l-37 -195l-59 -8q-27 -4 -60 -6t-63 -6l-56 -234h-190z" />
<glyph unicode="&#xa3;" d="M1204 1157q-59 4 -110 8q-43 4 -86 7.5t-62 3.5q-82 0 -124 -41t-68 -158l-21 -84h400l-48 -205h-401l-86 -371q-10 -37 -21.5 -65.5t-27.5 -44.5h295q96 4 155 33l-10 -203q-33 -18 -77 -25.5t-97 -9.5h-170q-90 0 -182 -1t-182 -1h-170l47 207h114q41 0 70 38t45 109 l78 334h-166l47 205h166l20 86q27 117 67 196.5t91 128t113.5 69t134.5 20.5q41 0 96.5 -7.5t104.5 -15.5q57 -10 118 -22z" />
<glyph unicode="&#xa4;" d="M766 174q-98 -47 -196.5 -46t-174.5 48l-180 -147l-119 153l183 148q-29 86 -6.5 185t87.5 185l-110 150l190 154l113 -148q98 47 196.5 47t174.5 -47l184 148l117 -154l-183 -150q29 -86 6.5 -185t-90.5 -185l113 -148l-188 -153zM500 385q20 -27 52 -40t66.5 -13 t71.5 13t70 40t54.5 61.5t29.5 69.5t2 68.5t-27 60.5q-20 27 -51 40t-65.5 13t-72.5 -13t-71 -40t-53.5 -60.5t-28.5 -68.5t-2.5 -69.5t25.5 -61.5z" />
<glyph unicode="&#xa5;" horiz-adv-x="1105" d="M281 791h235l-201 561h256l172 -529l414 529h256l-455 -561h232l-45 -191h-326l-14 -22l-23 -97h336l-45 -190h-336l-65 -291h-232l66 291h-342l45 190h342l22 97l-6 22h-331z" />
<glyph unicode="&#xa6;" d="M1008 1538l-195 -842h-229l194 842h230zM733 354l-198 -866h-230l199 866h229z" />
<glyph unicode="&#xa7;" d="M1167 1092q-63 6 -123 14q-51 6 -105 11t-91 5q-125 0 -180.5 -35.5t-75.5 -119.5q-8 -35 3 -58.5t42 -41t81 -32t122 -30.5q82 -18 137 -40t86 -55.5t38 -84t-11 -125.5q-10 -39 -29 -79t-41.5 -77t-48 -68.5l-45.5 -54.5q31 -33 40 -77t-12 -138q-43 -190 -164.5 -275 t-338.5 -85q-53 0 -117 6t-119 14q-66 8 -129 21l66 182l120 -16q51 -6 106.5 -10.5t98.5 -4.5q113 0 177.5 37t82.5 117q8 39 -2 62.5t-40.5 40t-83 30.5t-130.5 33q-80 18 -137 41.5t-89 58.5t-40 86t10 127q8 41 31 82t50.5 78t56 65.5t51.5 42.5q-37 33 -49.5 82 t10.5 142q41 184 170 269t334 85q53 0 112.5 -7t110.5 -16q59 -8 117 -20zM696 623q-41 10 -83 19t-70 22q-6 -6 -18.5 -22.5t-25 -38t-23.5 -46.5t-17 -45q-8 -37 -5 -61.5t19 -42t46 -28.5t73 -22q117 -29 182 -55q6 6 17.5 24.5t23.5 41t22.5 49t16.5 51.5 q16 70 -21 99.5t-137 54.5z" />
<glyph unicode="&#xa8;" horiz-adv-x="1257" d="M504 1491h215l-55 -234h-215zM934 1491h213l-55 -234h-213z" />
<glyph unicode="&#xa9;" d="M221 887q27 115 89.5 215t150.5 174t193.5 117t217.5 43q117 0 204 -44t139.5 -120t66.5 -174.5t-10 -208.5q-27 -115 -87.5 -214.5t-147.5 -173t-194.5 -115.5t-226.5 -42q-111 0 -195.5 42t-138 115.5t-70 173t8.5 212.5zM340 889q-20 -88 -8 -166t53 -135.5t107.5 -91 t154.5 -33.5q90 0 173 33.5t150.5 91t117 135.5t69.5 166t7 167t-54 137t-108.5 92t-155.5 34t-171 -34t-150.5 -92t-116 -137t-68.5 -167zM836 588l-43 -8q-23 -4 -51.5 -6.5t-63.5 -2.5q-141 0 -183 77t-1 249q35 154 111.5 230.5t217.5 76.5q35 0 63.5 -2t49.5 -4 q23 -4 41 -6l-45 -186q-18 2 -41 6q-20 2 -48 4t-63 2q-47 0 -70.5 -37t-33.5 -84q-12 -53 -5 -95t50 -42q35 0 61.5 1t48.5 3q23 2 46 6z" />
<glyph unicode="&#xaa;" d="M971 934q-4 -23 2 -38t37 -22l-39 -124q-39 2 -81 9t-63 29q-35 -12 -71 -20q-33 -8 -71 -13t-73 -5q-92 0 -130 51t-15 149q39 174 244 187l161 8l5 18q4 23 -2.5 46.5t-47.5 23.5q-27 0 -70 -2l-85 -4l-103 -4l25 125q61 4 115 10l95 8q48 4 77 4q88 0 125.5 -55 t15.5 -154zM698 1024q-37 -4 -55 -20.5t-29 -55.5q-10 -41 3.5 -56t44.5 -15q47 0 98 10l55 12l31 131z" />
<glyph unicode="&#xab;" horiz-adv-x="1179" d="M428 504l195 -191l-54 -229l-350 334l37 166l502 317l-53 -227zM934 504l194 -191l-53 -229l-350 334l37 166l502 317l-54 -227z" />
<glyph unicode="&#xac;" d="M1141 735l-121 -526h-217l71 309h-647l49 217h865z" />
<glyph unicode="&#xad;" horiz-adv-x="901" d="M295 659h614l-49 -210h-614z" />
<glyph unicode="&#xae;" d="M193 889q27 117 88 221t150 182t203 124t245 46q129 0 223 -45t150.5 -122.5t71.5 -182t-11 -223.5q-27 -117 -91.5 -221.5t-156.5 -183t-207 -125t-244 -46.5q-131 0 -223 46.5t-145 124t-67.5 183t14.5 222.5zM307 889q-23 -94 -7.5 -178t59.5 -147.5t117 -100.5 t165 -37t181 37t163 100.5t128 147.5t77 178q23 98 7.5 182t-61.5 146.5t-118 98.5t-164 36q-94 0 -183 -36t-163 -98.5t-126 -146.5t-75 -182zM721 784h-74l-51 -219h-170l149 645h244q119 0 174.5 -45t28.5 -159q-18 -78 -47 -122t-86 -77l45 -242h-184zM674 913h78 q82 0 102 82q18 84 -72 84h-69z" />
<glyph unicode="&#xaf;" horiz-adv-x="974" d="M498 1479h639l-45 -195h-639z" />
<glyph unicode="&#xb0;" d="M465 1155q14 68 49 122t84 94t108.5 61.5t127.5 21.5q135 0 198.5 -82t32.5 -217q-16 -68 -50 -122t-83 -94t-108.5 -61.5t-127.5 -21.5q-135 0 -198.5 82t-32.5 217zM598 1155q-18 -76 17.5 -123t111.5 -47t134.5 47t76.5 123q16 76 -20.5 124t-112.5 48t-133.5 -48 t-73.5 -124z" />
<glyph unicode="&#xb1;" d="M260 807h352l56 235h229l-55 -235h352l-49 -221h-352l-52 -221h-229l51 221h-352zM1073 283l-51 -222h-934l51 222h934z" />
<glyph unicode="&#xb2;" horiz-adv-x="542" d="M260 979l35 156l199 143q59 43 89.5 73.5t39.5 65.5q6 29 -13.5 38t-60.5 9q-20 0 -48 -2t-55 -6q-31 -4 -65 -6l33 168q41 4 82 10q35 4 74.5 7t74.5 3q121 0 160 -46t14 -150q-16 -70 -57 -118t-113 -97l-117 -84h220l-37 -164h-455z" />
<glyph unicode="&#xb3;" horiz-adv-x="542" d="M426 1620l78 8q35 4 72.5 7t70.5 3q233 0 193 -176q-14 -63 -45 -99t-56 -48q35 -16 48.5 -49t-3.5 -105q-23 -104 -96.5 -154.5t-181.5 -50.5q-39 0 -80 2.5t-76 6.5q-41 4 -82 10l47 160l70 -9q29 -4 63.5 -5t63.5 -1q41 0 61.5 13.5t26.5 42.5q8 31 -7 41t-50 10h-135 l34 149h131q25 0 44.5 14.5t25.5 39.5q8 47 -61 47q-31 0 -63 -2t-58 -5q-31 -4 -60 -6z" />
<glyph unicode="&#xb4;" horiz-adv-x="1191" d="M1067 1567l27 -211l-539 -168l-25 188z" />
<glyph unicode="&#xb5;" d="M369 1022h225l-129 -557q-35 -145 -19.5 -218t123.5 -73q35 0 73 7t73 18q39 10 78 26l184 797h225l-235 -1022h-226l13 53q-47 -23 -92 -39q-41 -14 -85.5 -25.5t-78.5 -11.5q-39 0 -64.5 9.5t-40 19.5t-20.5 20.5t-6 14.5l-115 -498h-225z" />
<glyph unicode="&#x3bc;" d="M369 1022h225l-129 -557q-35 -145 -19.5 -218t123.5 -73q35 0 73 7t73 18q39 10 78 26l184 797h225l-235 -1022h-226l13 53q-47 -23 -92 -39q-41 -14 -85.5 -25.5t-78.5 -11.5q-39 0 -64.5 9.5t-40 19.5t-20.5 20.5t-6 14.5l-115 -498h-225z" />
<glyph unicode="&#xb6;" d="M1044 1257h-151l-289 -1257h-192l149 649h-14q-86 0 -149.5 29t-101.5 80t-49 122.5t9 157.5t64.5 159t105.5 125t138 82t163 30h680l-41 -177h-131l-289 -1257h-190z" />
<glyph unicode="&#xb7;" horiz-adv-x="507" d="M291 752h241l-67 -295h-242z" />
<glyph unicode="&#xb8;" horiz-adv-x="1705" d="M1098 -260q-23 -98 -91.5 -148.5t-166.5 -50.5q-66 0 -123 10q-31 4 -58 11l37 133q20 -2 41 -2q16 -2 37 -2h37q82 0 96 63q8 33 -10 44.5t-59 11.5h-66l45 192h98l-20 -88q61 0 104 -7t70 -26.5t34 -53.5t-5 -87z" />
<glyph unicode="&#xb9;" horiz-adv-x="542" d="M631 1618h166l-148 -639h-182l100 438l-131 -78l-53 129z" />
<glyph unicode="&#xba;" d="M840 1370q63 0 111 -16.5t76 -53t33 -95t-13 -142.5q-39 -168 -130.5 -240.5t-220.5 -72.5t-184 72.5t-16 240.5t127 237.5t217 69.5zM729 889q66 0 103.5 37t60.5 137q23 94 1 131t-87 37q-63 0 -99 -37t-59 -131q-23 -100 -3 -137t83 -37z" />
<glyph unicode="&#xbb;" horiz-adv-x="1179" d="M786 690l54 228l354 -320l-39 -166l-504 -332l51 228l281 192zM281 690l53 228l354 -320l-39 -166l-504 -332l52 228l280 192z" />
<glyph unicode="&#xbf;" horiz-adv-x="790" d="M4 -53q16 72 56 132t89.5 111.5t103.5 96.5l101 85q47 40 81 77.5t42 74.5l17 78h227l-4 -45q-2 -18 -4 -38.5t-6 -31.5q-12 -53 -48 -101t-83.5 -93t-99.5 -86t-97 -80t-79 -77t-42 -75q-10 -47 -10 -80.5t17.5 -55t55 -32t103.5 -10.5q39 0 92 5t102 14q57 8 119 18 l-20 -201q-72 -20 -139 -36q-59 -14 -123 -24.5t-111 -10.5q-219 0 -303 86t-37 299zM766 741h-242l66 281h241z" />
<glyph unicode="&#xc0;" horiz-adv-x="1239" d="M1278 1749l-115 -188l-461 168l125 210zM633 1212q18 39 49 76t73 65.5t97 46t123 17.5h190l15 -1417h-226l-16 293h-498l-141 -293h-240zM942 1217q-43 2 -72.5 -31t-44.5 -68l-286 -612h405z" />
<glyph unicode="&#xc1;" horiz-adv-x="1239" d="M1260 1956l26 -211l-538 -168l-25 188zM633 1212q18 39 49 76t73 65.5t97 46t123 17.5h190l15 -1417h-226l-16 293h-498l-141 -293h-240zM942 1217q-43 2 -72.5 -31t-44.5 -68l-286 -612h405z" />
<glyph unicode="&#xc2;" horiz-adv-x="1239" d="M950 1911h205l203 -293h-254l-90 115l-142 -115h-260zM633 1212q18 39 49 76t73 65.5t97 46t123 17.5h190l15 -1417h-226l-16 293h-498l-141 -293h-240zM942 1217q-43 2 -72.5 -31t-44.5 -68l-286 -612h405z" />
<glyph unicode="&#xc3;" horiz-adv-x="1239" d="M1399 1737q-41 -37 -82 -64q-35 -23 -76 -42t-78 -19q-39 0 -84 15t-88 34.5t-81 35t-62 15.5q-23 0 -54.5 -14.5t-60.5 -30.5q-35 -20 -71 -45l-11 170q41 35 82 63q35 23 78 43.5t80 20.5q43 0 90 -15.5t89 -33.5l78 -34q36 -15 58 -15q18 0 49 13t60 30q35 18 74 43z M633 1212q18 39 49 76t73 65.5t97 46t123 17.5h190l15 -1417h-226l-16 293h-498l-141 -293h-240zM942 1217q-43 2 -72.5 -31t-44.5 -68l-286 -612h405z" />
<glyph unicode="&#xc4;" horiz-adv-x="1239" d="M729 1882h215l-55 -233h-215zM1171 1882h213l-55 -233h-213zM633 1212q18 39 49 76t73 65.5t97 46t123 17.5h190l15 -1417h-226l-16 293h-498l-141 -293h-240zM942 1217q-43 2 -72.5 -31t-44.5 -68l-286 -612h405z" />
<glyph unicode="&#xc5;" horiz-adv-x="1239" d="M1247 1495q-10 -43 -31.5 -79t-50.5 -64l15 -1352h-222l-16 293h-504l-141 -293h-238l639 1356q-29 57 -10 139q12 57 45 102t77 76t98.5 47.5t113.5 16.5q57 0 105.5 -16.5t79 -47.5t41.5 -76t-1 -102zM537 506h411l-2 711h-76zM862 1495q-14 -61 47 -78h78q70 16 86 78 q10 39 -14.5 60.5t-73.5 21.5q-47 0 -80 -21.5t-43 -60.5z" />
<glyph unicode="&#xc6;" horiz-adv-x="1677" d="M774 293h-366l-142 -293h-231l672 1417h1185l-49 -213h-635l-92 -397h512l-45 -203h-512l-90 -391h635l-49 -213h-860zM506 506h317l160 700h-149z" />
<glyph unicode="&#xc7;" horiz-adv-x="1099" d="M831 -260q-23 -98 -91 -148.5t-167 -50.5q-66 0 -122 10q-31 4 -58 11l37 133q20 -2 41 -2q16 -2 37 -2h37q82 0 96 63q8 33 -10.5 44.5t-59.5 11.5h-65l39 172q-133 8 -208 59t-104.5 143t-19.5 222.5t49 300.5q43 190 101.5 328.5t140.5 228.5t191.5 134t254.5 44 q61 0 128 -7.5t122 -17.5q66 -10 129 -22l-55 -203q-68 6 -131 14q-53 4 -112.5 9.5t-100.5 5.5q-92 0 -158.5 -28t-116 -89.5t-86.5 -158.5t-69 -238q-31 -135 -40 -231.5t12.5 -158t75.5 -91t152 -29.5q35 0 95 4l116 8q68 6 140 14l-41 -205q-63 -10 -129 -18 q-55 -8 -119 -14t-119 -9l-14 -63q61 0 104 -7t69.5 -26.5t33.5 -53.5t-5 -87z" />
<glyph unicode="&#xc8;" horiz-adv-x="1142" d="M1298 1749l-114 -188l-461 168l125 210zM1034 0h-454q-96 0 -172 23.5t-123 72.5t-60.5 126t13.5 184q18 70 43.5 121t60.5 87.5t78 62t96 44.5q-33 27 -56.5 57.5t-34.5 70.5t-9 92t20 122q25 92 75 158.5t118.5 110.5t153.5 64.5t178 20.5h399l-49 -209h-393 q-92 0 -162 -45t-94 -139q-25 -98 15 -156.5t132 -58.5h285l-45 -207h-295q-37 0 -79 -9t-82 -31.5t-70.5 -60.5t-45.5 -95q-29 -109 23.5 -151t146.5 -42h434z" />
<glyph unicode="&#xc9;" horiz-adv-x="1142" d="M1290 1956l27 -211l-539 -168l-24 188zM1034 0h-454q-96 0 -172 23.5t-123 72.5t-60.5 126t13.5 184q18 70 43.5 121t60.5 87.5t78 62t96 44.5q-33 27 -56.5 57.5t-34.5 70.5t-9 92t20 122q25 92 75 158.5t118.5 110.5t153.5 64.5t178 20.5h399l-49 -209h-393 q-92 0 -162 -45t-94 -139q-25 -98 15 -156.5t132 -58.5h285l-45 -207h-295q-37 0 -79 -9t-82 -31.5t-70.5 -60.5t-45.5 -95q-29 -109 23.5 -151t146.5 -42h434z" />
<glyph unicode="&#xca;" horiz-adv-x="1142" d="M948 1915h205l203 -293h-254l-90 115l-142 -115h-260zM1034 0h-454q-96 0 -172 23.5t-123 72.5t-60.5 126t13.5 184q18 70 43.5 121t60.5 87.5t78 62t96 44.5q-33 27 -56.5 57.5t-34.5 70.5t-9 92t20 122q25 92 75 158.5t118.5 110.5t153.5 64.5t178 20.5h399l-49 -209 h-393q-92 0 -162 -45t-94 -139q-25 -98 15 -156.5t132 -58.5h285l-45 -207h-295q-37 0 -79 -9t-82 -31.5t-70.5 -60.5t-45.5 -95q-29 -109 23.5 -151t146.5 -42h434z" />
<glyph unicode="&#xcb;" horiz-adv-x="1142" d="M731 1882h215l-55 -233h-215zM1174 1882h212l-55 -233h-213zM1034 0h-454q-96 0 -172 23.5t-123 72.5t-60.5 126t13.5 184q18 70 43.5 121t60.5 87.5t78 62t96 44.5q-33 27 -56.5 57.5t-34.5 70.5t-9 92t20 122q25 92 75 158.5t118.5 110.5t153.5 64.5t178 20.5h399 l-49 -209h-393q-92 0 -162 -45t-94 -139q-25 -98 15 -156.5t132 -58.5h285l-45 -207h-295q-37 0 -79 -9t-82 -31.5t-70.5 -60.5t-45.5 -95q-29 -109 23.5 -151t146.5 -42h434z" />
<glyph unicode="&#xcc;" horiz-adv-x="542" d="M481 1417h232l-326 -1417h-231zM897 1749l-115 -188l-460 168l124 210z" />
<glyph unicode="&#xcd;" horiz-adv-x="542" d="M481 1417h232l-326 -1417h-231zM975 1956l26 -211l-538 -168l-25 188z" />
<glyph unicode="&#xce;" horiz-adv-x="542" d="M481 1417h232l-326 -1417h-231zM606 1915h205l203 -293h-254l-90 115l-142 -115h-260z" />
<glyph unicode="&#xcf;" horiz-adv-x="542" d="M481 1417h232l-326 -1417h-231zM385 1901h215l-55 -234h-215zM827 1901h213l-55 -234h-213z" />
<glyph unicode="&#xd0;" horiz-adv-x="1296" d="M225 817h133l138 600h469q164 0 261 -45t140 -133t39 -215t-41 -291q-39 -166 -93 -302t-138 -231.5t-205 -147.5t-289 -52h-469l137 596h-133zM1126 733q25 106 33 194.5t-12.5 150t-75.5 95t-156 33.5h-241l-88 -389h280l-51 -221h-280l-89 -383h242q100 0 172 41 t123 111.5t84.5 164.5t58.5 203z" />
<glyph unicode="&#xd1;" horiz-adv-x="1427" d="M1499 1733q-41 -37 -82 -64q-35 -23 -76 -42t-77 -19q-39 0 -84 15t-89 35l-82 35q-38 15 -63 15q-23 0 -53.5 -14.5t-58.5 -30.5q-35 -20 -72 -45l-12 170q41 35 81 63q35 23 78 43.5t80 20.5q43 0 90 -15.5t89 -33.5l78 -34q36 -15 59 -15q18 0 48.5 13t61.5 30 q35 18 74 43zM496 1417h186q43 0 80 -6t66.5 -27.5t50 -60.5t28.5 -102l135 -924q6 -63 39 -59l273 1179h229l-326 -1417h-174q-94 4 -152.5 48t-74.5 142l-143 918q-8 72 -41 72l-271 -1180h-231z" />
<glyph unicode="&#xd2;" horiz-adv-x="1325" d="M705 188q92 0 160.5 29t120.5 91.5t90 159.5t69 232q61 266 21 397.5t-222 131.5q-92 0 -160.5 -33t-121 -98.5t-92.5 -164.5t-70 -233q-61 -268 -19 -390t224 -122zM655 -23q-156 0 -252 45.5t-141 136.5t-43 226t43 315q41 178 102.5 316.5t149.5 232.5t207 143.5 t272 49.5q156 0 251 -48t140.5 -142.5t42 -232.5t-44.5 -319q-41 -182 -101 -317t-148.5 -225t-205 -135.5t-272.5 -45.5zM1343 1749l-114 -188l-461 168l125 210z" />
<glyph unicode="&#xd3;" horiz-adv-x="1325" d="M705 188q92 0 160.5 29t120.5 91.5t90 159.5t69 232q61 266 21 397.5t-222 131.5q-92 0 -160.5 -33t-121 -98.5t-92.5 -164.5t-70 -233q-61 -268 -19 -390t224 -122zM655 -23q-156 0 -252 45.5t-141 136.5t-43 226t43 315q41 178 102.5 316.5t149.5 232.5t207 143.5 t272 49.5q156 0 251 -48t140.5 -142.5t42 -232.5t-44.5 -319q-41 -182 -101 -317t-148.5 -225t-205 -135.5t-272.5 -45.5zM1298 1956l27 -211l-539 -168l-24 188z" />
<glyph unicode="&#xd4;" horiz-adv-x="1325" d="M705 188q92 0 160.5 29t120.5 91.5t90 159.5t69 232q61 266 21 397.5t-222 131.5q-92 0 -160.5 -33t-121 -98.5t-92.5 -164.5t-70 -233q-61 -268 -19 -390t224 -122zM655 -23q-156 0 -252 45.5t-141 136.5t-43 226t43 315q41 178 102.5 316.5t149.5 232.5t207 143.5 t272 49.5q156 0 251 -48t140.5 -142.5t42 -232.5t-44.5 -319q-41 -182 -101 -317t-148.5 -225t-205 -135.5t-272.5 -45.5zM1010 1913h204l203 -293h-254l-90 115l-141 -115h-260z" />
<glyph unicode="&#xd5;" horiz-adv-x="1325" d="M705 188q92 0 160.5 29t120.5 91.5t90 159.5t69 232q61 266 21 397.5t-222 131.5q-92 0 -160.5 -33t-121 -98.5t-92.5 -164.5t-70 -233q-61 -268 -19 -390t224 -122zM655 -23q-156 0 -252 45.5t-141 136.5t-43 226t43 315q41 178 102.5 316.5t149.5 232.5t207 143.5 t272 49.5q156 0 251 -48t140.5 -142.5t42 -232.5t-44.5 -319q-41 -182 -101 -317t-148.5 -225t-205 -135.5t-272.5 -45.5zM1444 1733q-41 -37 -82 -64q-35 -23 -76 -42t-78 -19q-39 0 -84 15t-89 35l-82 35q-38 15 -62 15q-23 0 -53.5 -14.5t-59.5 -30.5q-35 -20 -71 -45 l-13 170q41 35 82 63q35 23 78 43.5t80 20.5q43 0 90 -15.5t89 -33.5l78 -34q36 -15 58 -15q18 0 49 13t62 30q35 18 74 43z" />
<glyph unicode="&#xd6;" horiz-adv-x="1325" d="M705 188q92 0 160.5 29t120.5 91.5t90 159.5t69 232q61 266 21 397.5t-222 131.5q-92 0 -160.5 -33t-121 -98.5t-92.5 -164.5t-70 -233q-61 -268 -19 -390t224 -122zM655 -23q-156 0 -252 45.5t-141 136.5t-43 226t43 315q41 178 102.5 316.5t149.5 232.5t207 143.5 t272 49.5q156 0 251 -48t140.5 -142.5t42 -232.5t-44.5 -319q-41 -182 -101 -317t-148.5 -225t-205 -135.5t-272.5 -45.5zM774 1882h215l-55 -233h-215zM1217 1882h213l-56 -233h-213z" />
<glyph unicode="&#xd7;" d="M702 717l353 284l121 -155l-351 -287l215 -278l-194 -158l-215 280l-350 -286l-123 157l354 285l-217 281l194 157z" />
<glyph unicode="&#xd8;" horiz-adv-x="1343" d="M655 -23q-133 0 -225 35l-178 -256l-123 68l182 262q-84 86 -92 238.5t43 375.5q41 178 102.5 316.5t149.5 232.5t207 143.5t272 49.5q137 0 236 -41l170 241l133 -53l-191 -272q78 -92 85.5 -245.5t-44.5 -371.5q-41 -182 -101 -317t-148.5 -225t-205 -135.5 t-272.5 -45.5zM500 700q-29 -129 -37 -222t12 -156l612 876q-55 31 -143 31q-92 0 -160.5 -33t-121 -98.5t-92 -165t-70.5 -232.5zM705 188q92 0 160.5 29t120.5 91.5t90 159.5t69 232q59 246 29 375l-605 -864q48 -23 136 -23z" />
<glyph unicode="&#xd9;" horiz-adv-x="1320" d="M487 453q-33 -137 21.5 -194.5t193.5 -57.5q141 0 224.5 57t115.5 195l222 964h229l-221 -964q-29 -125 -80 -214t-127 -146.5t-178.5 -84t-235.5 -26.5q-262 0 -357 110.5t-36 360.5l221 964h230zM1329 1749l-115 -188l-460 168l125 210z" />
<glyph unicode="&#xda;" horiz-adv-x="1320" d="M487 453q-33 -137 21.5 -194.5t193.5 -57.5q141 0 224.5 57t115.5 195l222 964h229l-221 -964q-29 -125 -80 -214t-127 -146.5t-178.5 -84t-235.5 -26.5q-262 0 -357 110.5t-36 360.5l221 964h230zM1300 1956l27 -211l-539 -168l-24 188z" />
<glyph unicode="&#xdb;" horiz-adv-x="1320" d="M487 453q-33 -137 21.5 -194.5t193.5 -57.5q141 0 224.5 57t115.5 195l222 964h229l-221 -964q-29 -125 -80 -214t-127 -146.5t-178.5 -84t-235.5 -26.5q-262 0 -357 110.5t-36 360.5l221 964h230zM997 1911h205l203 -293h-254l-90 115l-141 -115h-261z" />
<glyph unicode="&#xdc;" horiz-adv-x="1320" d="M487 453q-33 -137 21.5 -194.5t193.5 -57.5q141 0 224.5 57t115.5 195l222 964h229l-221 -964q-29 -125 -80 -214t-127 -146.5t-178.5 -84t-235.5 -26.5q-262 0 -357 110.5t-36 360.5l221 964h230zM772 1901h215l-55 -234h-215zM1214 1901h213l-55 -234h-213z" />
<glyph unicode="&#xdd;" horiz-adv-x="1153" d="M692 0h-227l139 606l-239 811h256l151 -567l412 567h256l-609 -811zM1282 1956l27 -211l-539 -168l-25 188z" />
<glyph unicode="&#xde;" horiz-adv-x="1224" d="M766 444q127 0 202.5 75t104.5 204q29 123 -13 192.5t-169 69.5h-262l-125 -541h262zM453 223l-52 -223h-231l326 1417h231l-49 -213h262q242 0 332 -123t37 -358q-55 -242 -204 -371t-390 -129h-262z" />
<glyph unicode="&#xdf;" horiz-adv-x="1265" d="M154 0l249 1090q25 104 69 176.5t109.5 118t153.5 64.5t201 19q233 0 321.5 -69.5t47.5 -237.5q-12 -57 -32 -96t-48.5 -67.5t-67.5 -50t-92 -44.5q-82 -35 -111.5 -60.5t-38.5 -58.5q-4 -12 -0.5 -24t18.5 -25.5t48 -33t90 -48.5q63 -31 103 -59.5t60.5 -62t23 -76.5 t-12.5 -105q-25 -109 -63.5 -179.5t-98 -112.5t-142.5 -59t-196 -17q-23 0 -66.5 5t-86.5 11q-51 8 -107 18l52 181q59 -2 108 -4q41 -2 80 -3.5t53 -1.5q59 0 99.5 7.5t67 25t40.5 45t25 68.5q6 25 2 44t-20.5 37.5t-48.5 38t-83 42.5q-66 29 -106.5 55.5t-60 59 t-21.5 72.5t10 95q10 45 27.5 79t44 60.5t61.5 47t80 41.5q47 20 79 36.5t51 32t29.5 32.5t16.5 40q16 70 -29 94.5t-153 24.5q-104 0 -170 -39t-92 -150l-248 -1077h-225z" />
<glyph unicode="&#xe0;" d="M936 254q0 -35 28.5 -58.5t73.5 -31.5l-55 -184q-104 4 -162.5 26.5t-81.5 69.5q-53 -39 -124.5 -67.5t-157.5 -28.5q-150 0 -211.5 76.5t-61.5 215.5q0 53 8.5 116t24.5 128q59 244 193.5 385t353.5 141q57 0 99 -7t77 -17l180 26zM473 170q37 0 77 14.5t77 35t66.5 44 t45.5 39.5l64 277l29.5 127l29.5 129h-4l-54 9q-30 5 -59 5q-133 0 -209.5 -93t-117.5 -268q-16 -66 -25.5 -120t-9.5 -93q0 -49 20.5 -77.5t69.5 -28.5zM1122 1374l-112 -186l-461 166l125 211z" />
<glyph unicode="&#xe1;" d="M936 254q0 -35 28.5 -58.5t73.5 -31.5l-55 -184q-104 4 -162.5 26.5t-81.5 69.5q-53 -39 -124.5 -67.5t-157.5 -28.5q-150 0 -211.5 76.5t-61.5 215.5q0 53 8.5 116t24.5 128q59 244 193.5 385t353.5 141q57 0 99 -7t77 -17l180 26zM473 170q37 0 77 14.5t77 35t66.5 44 t45.5 39.5l64 277l29.5 127l29.5 129h-4l-54 9q-30 5 -59 5q-133 0 -209.5 -93t-117.5 -268q-16 -66 -25.5 -120t-9.5 -93q0 -49 20.5 -77.5t69.5 -28.5zM1176 1567l26 -211l-538 -168l-25 188z" />
<glyph unicode="&#xe2;" d="M936 254q0 -35 28.5 -58.5t73.5 -31.5l-55 -184q-104 4 -162.5 26.5t-81.5 69.5q-53 -39 -124.5 -67.5t-157.5 -28.5q-150 0 -211.5 76.5t-61.5 215.5q0 53 8.5 116t24.5 128q59 244 193.5 385t353.5 141q57 0 99 -7t77 -17l180 26zM473 170q37 0 77 14.5t77 35t66.5 44 t45.5 39.5l64 277l29.5 127l29.5 129h-4l-54 9q-30 5 -59 5q-133 0 -209.5 -93t-117.5 -268q-16 -66 -25.5 -120t-9.5 -93q0 -49 20.5 -77.5t69.5 -28.5zM774 1530h180l191 -332h-242l-80 145l-145 -145h-242z" />
<glyph unicode="&#xe3;" d="M936 254q0 -35 28.5 -58.5t73.5 -31.5l-55 -184q-104 4 -162.5 26.5t-81.5 69.5q-53 -39 -124.5 -67.5t-157.5 -28.5q-150 0 -211.5 76.5t-61.5 215.5q0 53 8.5 116t24.5 128q59 244 193.5 385t353.5 141q57 0 99 -7t77 -17l180 26zM473 170q37 0 77 14.5t77 35t66.5 44 t45.5 39.5l64 277l29.5 127l29.5 129h-4l-54 9q-30 5 -59 5q-133 0 -209.5 -93t-117.5 -268q-16 -66 -25.5 -120t-9.5 -93q0 -49 20.5 -77.5t69.5 -28.5zM1180 1339q-39 -35 -78 -59q-35 -23 -75 -41t-77 -18t-76.5 15t-76.5 33l-70 33q-33 15 -57 15q-23 0 -52.5 -13.5 t-58.5 -29.5l-70 -43l-10 170q39 33 80 59q35 23 77 42.5t79 19.5q43 0 83 -14.5t76 -31.5l68 -32q31 -14 53 -14q18 0 48 11t59 27l69 41z" />
<glyph unicode="&#xe4;" d="M936 254q0 -35 28.5 -58.5t73.5 -31.5l-55 -184q-104 4 -162.5 26.5t-81.5 69.5q-53 -39 -124.5 -67.5t-157.5 -28.5q-150 0 -211.5 76.5t-61.5 215.5q0 53 8.5 116t24.5 128q59 244 193.5 385t353.5 141q57 0 99 -7t77 -17l180 26zM473 170q37 0 77 14.5t77 35t66.5 44 t45.5 39.5l64 277l29.5 127l29.5 129h-4l-54 9q-30 5 -59 5q-133 0 -209.5 -93t-117.5 -268q-16 -66 -25.5 -120t-9.5 -93q0 -49 20.5 -77.5t69.5 -28.5zM592 1491h215l-55 -234h-215zM1022 1491h213l-55 -234h-213z" />
<glyph unicode="&#xe5;" d="M936 254q0 -35 28.5 -58.5t73.5 -31.5l-55 -184q-104 4 -162.5 26.5t-81.5 69.5q-53 -39 -124.5 -67.5t-157.5 -28.5q-150 0 -211.5 76.5t-61.5 215.5q0 53 8.5 116t24.5 128q59 244 193.5 385t353.5 141q57 0 99 -7t77 -17l180 26zM473 170q37 0 77 14.5t77 35t66.5 44 t45.5 39.5l64 277l29.5 127l29.5 129h-4l-54 9q-30 5 -59 5q-133 0 -209.5 -93t-117.5 -268q-16 -66 -25.5 -120t-9.5 -93q0 -49 20.5 -77.5t69.5 -28.5zM616 1354q10 47 38 89t66 72.5t84 48t95 17.5q47 0 85 -17.5t60.5 -48t30.5 -72.5t-2 -89q-12 -49 -38.5 -91 t-64.5 -73t-84 -48.5t-93 -17.5q-98 0 -149 66t-28 164zM768 1354q-8 -35 9.5 -57.5t51.5 -22.5q33 0 61 22.5t36 57.5q8 33 -9.5 55.5t-50.5 22.5q-35 0 -62.5 -22.5t-35.5 -55.5z" />
<glyph unicode="&#xe6;" horiz-adv-x="1695" d="M1198 174q55 0 119.5 2t122.5 6q68 4 133 11l-35 -168q-61 -14 -129 -25q-57 -10 -129 -16.5t-143 -6.5q-217 0 -293 103l-62 -25l-57 -21q-35 -13 -81 -25.5t-101.5 -22t-118.5 -9.5q-135 0 -200.5 86.5t-30.5 239.5q18 82 56 139.5t91 93t120.5 54t149.5 26.5l244 19 l16 70q16 66 -9 100.5t-85 34.5q-57 0 -126.5 -4.5l-131.5 -8.5l-143 -12l39 191q76 10 149 18q63 8 134 14t130 6q94 0 158 -25.5t90 -84.5q66 59 143.5 84.5t170.5 25.5q213 0 287.5 -120.5t23.5 -345.5l-51 -160h-619q-25 -115 10 -179.5t158 -64.5zM502 166q41 0 87 7 t86 16.5t66.5 16.5t30.5 9q4 53 15.5 118.5t27.5 131.5l-231 -14q-63 -4 -105.5 -40t-58.5 -102q-16 -70 9.5 -106.5t72.5 -36.5zM1481 588q31 135 1 201.5t-143 66.5t-177 -68.5t-95 -199.5h414z" />
<glyph unicode="&#xe7;" horiz-adv-x="892" d="M733 -260q-23 -98 -91.5 -148.5t-166.5 -50.5q-66 0 -123 10q-31 4 -57 11l37 133q20 -2 41 -2q16 -2 37 -2h36q82 0 97 63q8 33 -10.5 44.5t-59.5 11.5h-65l38 172q-186 16 -237 150t8 392q59 262 191.5 391t349.5 129q53 0 104 -5t92 -11q49 -8 93 -14l-54 -191 q-43 4 -82 8q-35 4 -73.5 6.5t-67.5 2.5q-72 0 -123 -17.5t-90 -56.5t-65.5 -98.5t-45.5 -143.5q-41 -174 -7 -258t182 -84q29 0 68.5 1t76.5 5l86 9l-39 -191l-88 -12l-86 -9q-47 -5 -94 -8l-15 -63q61 0 104.5 -7t70 -26.5t33.5 -53.5t-5 -87z" />
<glyph unicode="&#xe8;" horiz-adv-x="1038" d="M1073 1374l-112 -186l-461 166l125 211zM922 100q-25 -16 -66 -36.5t-93 -39t-112.5 -31.5t-124.5 -13q-176 0 -249.5 85t-73.5 236q0 104 28 219q33 131 93.5 229.5t135.5 164t157.5 97t160.5 31.5q152 0 227.5 -76.5t75.5 -189.5q0 -66 -28.5 -132t-89.5 -132 q-57 -61 -133 -100t-154 -61.5t-148.5 -32t-119.5 -11.5q0 -27 5 -51.5t20.5 -42.5t45 -28.5t76.5 -10.5q43 0 94 14.5t101.5 36t94.5 46t73 44.5zM754 852q-41 0 -88.5 -23.5t-92.5 -67.5t-80.5 -109.5t-56.5 -151.5q66 4 143.5 21.5t144.5 50t112 83t45 117.5 q0 80 -127 80z" />
<glyph unicode="&#xe9;" horiz-adv-x="1038" d="M1106 1567l27 -211l-539 -168l-25 188zM922 100q-25 -16 -66 -36.5t-93 -39t-112.5 -31.5t-124.5 -13q-176 0 -249.5 85t-73.5 236q0 104 28 219q33 131 93.5 229.5t135.5 164t157.5 97t160.5 31.5q152 0 227.5 -76.5t75.5 -189.5q0 -66 -28.5 -132t-89.5 -132 q-57 -61 -133 -100t-154 -61.5t-148.5 -32t-119.5 -11.5q0 -27 5 -51.5t20.5 -42.5t45 -28.5t76.5 -10.5q43 0 94 14.5t101.5 36t94.5 46t73 44.5zM754 852q-41 0 -88.5 -23.5t-92.5 -67.5t-80.5 -109.5t-56.5 -151.5q66 4 143.5 21.5t144.5 50t112 83t45 117.5 q0 80 -127 80z" />
<glyph unicode="&#xea;" horiz-adv-x="1038" d="M799 1530h180l190 -332h-241l-80 145l-146 -145h-241zM922 100q-25 -16 -66 -36.5t-93 -39t-112.5 -31.5t-124.5 -13q-176 0 -249.5 85t-73.5 236q0 104 28 219q33 131 93.5 229.5t135.5 164t157.5 97t160.5 31.5q152 0 227.5 -76.5t75.5 -189.5q0 -66 -28.5 -132 t-89.5 -132q-57 -61 -133 -100t-154 -61.5t-148.5 -32t-119.5 -11.5q0 -27 5 -51.5t20.5 -42.5t45 -28.5t76.5 -10.5q43 0 94 14.5t101.5 36t94.5 46t73 44.5zM754 852q-41 0 -88.5 -23.5t-92.5 -67.5t-80.5 -109.5t-56.5 -151.5q66 4 143.5 21.5t144.5 50t112 83t45 117.5 q0 80 -127 80z" />
<glyph unicode="&#xeb;" horiz-adv-x="1038" d="M606 1491h215l-55 -234h-215zM1036 1491h213l-55 -234h-213zM922 100q-25 -16 -66 -36.5t-93 -39t-112.5 -31.5t-124.5 -13q-176 0 -249.5 85t-73.5 236q0 104 28 219q33 131 93.5 229.5t135.5 164t157.5 97t160.5 31.5q152 0 227.5 -76.5t75.5 -189.5q0 -66 -28.5 -132 t-89.5 -132q-57 -61 -133 -100t-154 -61.5t-148.5 -32t-119.5 -11.5q0 -27 5 -51.5t20.5 -42.5t45 -28.5t76.5 -10.5q43 0 94 14.5t101.5 36t94.5 46t73 44.5zM754 852q-41 0 -88.5 -23.5t-92.5 -67.5t-80.5 -109.5t-56.5 -151.5q66 4 143.5 21.5t144.5 50t112 83t45 117.5 q0 80 -127 80z" />
<glyph unicode="&#xec;" horiz-adv-x="544" d="M395 1022h226l-236 -1022h-225zM780 1374l-112 -186l-461 166l125 211z" />
<glyph unicode="&#xed;" horiz-adv-x="534" d="M877 1567l26 -211l-538 -168l-25 188zM395 1022h226l-236 -1022h-225z" />
<glyph unicode="&#xee;" horiz-adv-x="544" d="M395 1022h226l-236 -1022h-225zM524 1530h181l190 -332h-242l-80 145l-145 -145h-242z" />
<glyph unicode="&#xef;" horiz-adv-x="544" d="M332 1491h215l-55 -234h-216zM762 1491h213l-55 -234h-213zM395 1022h226l-236 -1022h-225z" />
<glyph unicode="&#xf0;" d="M481 1133l146 92q-41 10 -85 19l-93 20l77 190q98 -14 183.5 -31.5t156.5 -44.5l232 150l61 -129l-143 -92q135 -88 183 -230.5t-3 -361.5q-43 -190 -103.5 -329.5t-142.5 -228.5t-186.5 -132t-239.5 -43q-229 0 -321 122.5t-37 364.5q23 96 72 174t119.5 133t159.5 85 t188 30q53 0 104 -10.5t90 -20.5q45 -12 84 -29q16 113 -21.5 194t-162.5 140l-254 -164zM672 692q-49 0 -93 -17.5t-79 -48t-59.5 -71.5t-34.5 -86q-29 -129 8 -205t159 -76q133 0 221.5 103.5t143.5 343.5q-37 16 -78 29q-37 10 -85 19t-103 9z" />
<glyph unicode="&#xf1;" horiz-adv-x="1175" d="M182 0l236 1022h223l-12 -53q47 20 98 37q41 14 91 26t93 12q100 0 161 -33.5t85.5 -98t19 -160t-33.5 -217.5l-123 -535h-225l123 532q14 70 21 126.5t-1 97.5t-36 63.5t-81 22.5q-37 0 -78 -8.5t-75 -18.5q-41 -12 -82 -27l-180 -788h-224zM1260 1339q-39 -35 -78 -59 q-35 -23 -75 -41t-77 -18t-77 15t-76 33l-70 33q-33 15 -57 15q-23 0 -52.5 -13.5t-58.5 -29.5l-70 -43l-10 170q39 33 80 59q35 23 77 42.5t79 19.5q43 0 83 -14.5t76 -31.5l68 -32q31 -14 53 -14q18 0 48 11t59 27l69 41z" />
<glyph unicode="&#xf2;" horiz-adv-x="1087" d="M782 1044q125 0 202 -38.5t114 -109.5t37 -167t-27 -213t-71 -215t-111.5 -171t-163.5 -113t-225 -40q-131 0 -208 40t-112 111t-34 170t30 220q27 117 71 213t111.5 166t162.5 108.5t224 38.5zM582 172q70 0 118 25.5t81.5 70.5t56 108.5t41.5 139.5q18 76 22 137.5 t-11.5 105.5t-52 67.5t-100.5 23.5q-66 0 -114 -22.5t-82.5 -65.5t-58 -104.5t-42.5 -139.5q-18 -78 -24 -142.5t7 -109.5t51 -69.5t108 -24.5zM1040 1374l-112 -186l-461 166l125 211z" />
<glyph unicode="&#xf3;" horiz-adv-x="1087" d="M782 1044q125 0 202 -38.5t114 -109.5t37 -167t-27 -213t-71 -215t-111.5 -171t-163.5 -113t-225 -40q-131 0 -208 40t-112 111t-34 170t30 220q27 117 71 213t111.5 166t162.5 108.5t224 38.5zM582 172q70 0 118 25.5t81.5 70.5t56 108.5t41.5 139.5q18 76 22 137.5 t-11.5 105.5t-52 67.5t-100.5 23.5q-66 0 -114 -22.5t-82.5 -65.5t-58 -104.5t-42.5 -139.5q-18 -78 -24 -142.5t7 -109.5t51 -69.5t108 -24.5zM1092 1567l26 -211l-538 -168l-25 188z" />
<glyph unicode="&#xf4;" horiz-adv-x="1087" d="M782 1044q125 0 202 -38.5t114 -109.5t37 -167t-27 -213t-71 -215t-111.5 -171t-163.5 -113t-225 -40q-131 0 -208 40t-112 111t-34 170t30 220q27 117 71 213t111.5 166t162.5 108.5t224 38.5zM582 172q70 0 118 25.5t81.5 70.5t56 108.5t41.5 139.5q18 76 22 137.5 t-11.5 105.5t-52 67.5t-100.5 23.5q-66 0 -114 -22.5t-82.5 -65.5t-58 -104.5t-42.5 -139.5q-18 -78 -24 -142.5t7 -109.5t51 -69.5t108 -24.5zM762 1530h180l191 -332h-242l-80 145l-145 -145h-242z" />
<glyph unicode="&#xf5;" horiz-adv-x="1087" d="M782 1044q125 0 202 -38.5t114 -109.5t37 -167t-27 -213t-71 -215t-111.5 -171t-163.5 -113t-225 -40q-131 0 -208 40t-112 111t-34 170t30 220q27 117 71 213t111.5 166t162.5 108.5t224 38.5zM582 172q70 0 118 25.5t81.5 70.5t56 108.5t41.5 139.5q18 76 22 137.5 t-11.5 105.5t-52 67.5t-100.5 23.5q-66 0 -114 -22.5t-82.5 -65.5t-58 -104.5t-42.5 -139.5q-18 -78 -24 -142.5t7 -109.5t51 -69.5t108 -24.5zM1153 1339q-39 -35 -78 -59q-35 -23 -74.5 -41t-76.5 -18t-77 15t-77 33l-70 33q-33 15 -57 15q-23 0 -52.5 -13.5t-58.5 -29.5 l-69 -43l-10 170q39 33 79 59q35 23 77 42.5t79 19.5q43 0 83 -14.5t77 -31.5l67 -32q31 -14 54 -14q18 0 48 11t58 27l70 41z" />
<glyph unicode="&#xf6;" horiz-adv-x="1087" d="M782 1044q125 0 202 -38.5t114 -109.5t37 -167t-27 -213t-71 -215t-111.5 -171t-163.5 -113t-225 -40q-131 0 -208 40t-112 111t-34 170t30 220q27 117 71 213t111.5 166t162.5 108.5t224 38.5zM582 172q70 0 118 25.5t81.5 70.5t56 108.5t41.5 139.5q18 76 22 137.5 t-11.5 105.5t-52 67.5t-100.5 23.5q-66 0 -114 -22.5t-82.5 -65.5t-58 -104.5t-42.5 -139.5q-18 -78 -24 -142.5t7 -109.5t51 -69.5t108 -24.5zM569 1491h215l-55 -234h-215zM999 1491h213l-55 -234h-213z" />
<glyph unicode="&#xf7;" d="M674 1069h223l-55 -244h-224zM254 690h887l-51 -223h-887zM504 330h223l-57 -244h-224z" />
<glyph unicode="&#xf8;" horiz-adv-x="1083" d="M135 -174l146 225q-82 70 -91.5 195t27.5 284q27 117 70 211.5t110.5 162t161.5 104t223 36.5q70 0 125 -12l133 209l129 -51l-141 -215q86 -66 99.5 -187.5t-21.5 -277.5q-27 -117 -71 -215t-111.5 -169t-162.5 -110t-224 -39q-78 0 -140 17l-135 -219zM440 518 q-20 -84 -25 -150.5t11 -111.5l371 586q-14 4 -28.5 6t-31.5 2q-66 0 -114 -22.5t-82.5 -65.5t-58.5 -104.5t-42 -139.5zM582 172q70 0 118 25.5t81.5 70.5t56 108.5t41.5 139.5q18 78 21 141.5t-13 106.5l-367 -586q27 -6 62 -6z" />
<glyph unicode="&#xf9;" horiz-adv-x="1146" d="M1221 1022l-236 -1022h-225l12 53q-49 -23 -98 -39q-41 -14 -90 -25.5t-90 -11.5q-98 0 -159 30t-87.5 92.5t-21.5 158.5t36 229l125 535h225l-123 -533q-39 -166 -24.5 -240.5t117.5 -74.5q35 0 74.5 9.5t74.5 19.5q41 12 82 28l182 791h226zM1069 1374l-113 -186 l-460 166l125 211z" />
<glyph unicode="&#xfa;" horiz-adv-x="1146" d="M1221 1022l-236 -1022h-225l12 53q-49 -23 -98 -39q-41 -14 -90 -25.5t-90 -11.5q-98 0 -159 30t-87.5 92.5t-21.5 158.5t36 229l125 535h225l-123 -533q-39 -166 -24.5 -240.5t117.5 -74.5q35 0 74.5 9.5t74.5 19.5q41 12 82 28l182 791h226zM1120 1567l27 -211 l-539 -168l-24 188z" />
<glyph unicode="&#xfb;" horiz-adv-x="1146" d="M1221 1022l-236 -1022h-225l12 53q-49 -23 -98 -39q-41 -14 -90 -25.5t-90 -11.5q-98 0 -159 30t-87.5 92.5t-21.5 158.5t36 229l125 535h225l-123 -533q-39 -166 -24.5 -240.5t117.5 -74.5q35 0 74.5 9.5t74.5 19.5q41 12 82 28l182 791h226zM791 1530h180l190 -332 h-241l-80 145l-146 -145h-241z" />
<glyph unicode="&#xfc;" horiz-adv-x="1146" d="M1221 1022l-236 -1022h-225l12 53q-49 -23 -98 -39q-41 -14 -90 -25.5t-90 -11.5q-98 0 -159 30t-87.5 92.5t-21.5 158.5t36 229l125 535h225l-123 -533q-39 -166 -24.5 -240.5t117.5 -74.5q35 0 74.5 9.5t74.5 19.5q41 12 82 28l182 791h226zM598 1491h215l-55 -234 h-215zM1028 1491h213l-55 -234h-213z" />
<glyph unicode="&#xfd;" horiz-adv-x="991" d="M485 1022l21 -694q6 -102 51 -113l399 807h230l-498 -1012q-51 -102 -100 -174t-114.5 -127t-156 -102t-223.5 -101l-10 207l148.5 66.5t98.5 57.5t68.5 68t57.5 97q-29 0 -56.5 16.5t-50 46t-37 71.5t-14.5 95l-25 791h211zM1139 1567l26 -211l-538 -168l-25 188z" />
<glyph unicode="&#xfe;" horiz-adv-x="1118" d="M604 172q129 0 199.5 89t111.5 263q35 147 7.5 233.5t-127.5 86.5q-37 0 -75 -6.5l-71 -12.5q-37 -8 -74 -18l-141 -621q23 -4 49 -8q45 -6 121 -6zM866 1044q203 0 270.5 -125.5t6.5 -394.5q-35 -154 -87 -258t-123 -168.5t-162 -92.5t-208 -28q-33 0 -64.5 1.5 t-56.5 3.5l-55 4l-98 -426h-223l436 1888h223l-107 -463q41 16 82 29q35 10 79 20t87 10z" />
<glyph unicode="&#xff;" horiz-adv-x="991" d="M485 1022l21 -694q6 -102 51 -113l399 807h230l-498 -1012q-51 -102 -100 -174t-114.5 -127t-156 -102t-223.5 -101l-10 207l148.5 66.5t98.5 57.5t68.5 68t57.5 97q-29 0 -56.5 16.5t-50 46t-37 71.5t-14.5 95l-25 791h211zM496 1491h215l-56 -234h-215zM926 1491h213 l-56 -234h-213z" />
<glyph unicode="&#x152;" horiz-adv-x="1843" d="M877 0q-66 -10 -139.5 -16.5t-131.5 -6.5q-150 0 -240 48.5t-131.5 140.5t-37.5 228t45 313q88 377 257 556t445 179q57 0 127 -7.5t127 -17.5h860l-49 -213h-633l-92 -397h510l-45 -203h-510l-90 -391h633l-49 -213h-856zM686 193q16 0 45 1t60.5 3t65.5 5t63 5 l231 1003l-123 10q-68 5 -106 5q-88 0 -156 -29t-121 -91.5t-93 -160.5t-73 -237q-31 -133 -39 -230.5t14.5 -160t79 -93t152.5 -30.5z" />
<glyph unicode="&#x153;" horiz-adv-x="1794" d="M1296 174q55 0 120 2t122 6q68 4 133 11l-35 -168q-61 -14 -129 -25q-57 -10 -128.5 -16.5t-143.5 -6.5q-227 0 -297 129q-66 -66 -151 -97.5t-207 -31.5q-133 0 -211 39t-113 110t-33 170t31 222q27 119 71 215t112.5 166t163.5 107.5t224 37.5q123 0 196 -35.5 t107 -107.5q72 76 159 109.5t194 33.5q217 0 292.5 -120.5t24.5 -345.5l-51 -160h-619q-25 -115 10 -179.5t158 -64.5zM625 172q70 0 119 24.5t83.5 69.5t57 108.5t41.5 141.5q39 168 10 251t-156 83q-68 0 -116 -22.5t-82.5 -64.5t-58 -103.5t-42.5 -141.5 q-18 -80 -24 -144.5t7 -109.5t51 -68.5t110 -23.5zM1579 588q33 141 5 199.5t-140 58.5q-113 0 -180.5 -63.5t-98.5 -194.5h414z" />
<glyph unicode="&#x178;" horiz-adv-x="1153" d="M692 0h-227l139 606l-239 811h245l152 -567l412 567h266l-609 -811zM700 1882h215l-55 -233h-215zM1143 1882h213l-56 -233h-213z" />
<glyph unicode="&#x2c6;" horiz-adv-x="1705" d="M1098 1530h180l190 -332h-241l-80 145l-146 -145h-241z" />
<glyph unicode="&#x2dc;" horiz-adv-x="944" d="M1122 1339q-39 -35 -78 -59q-35 -23 -74.5 -41t-76.5 -18t-77 15t-77 33l-69 33q-33 15 -58 15q-23 0 -52.5 -13.5t-57.5 -29.5l-70 -43l-10 170q39 33 80 59q35 23 77 42.5t78 19.5q43 0 83 -14.5t77 -31.5l68 -32q31 -14 53 -14q18 0 48 11t58 27l70 41z" />
<glyph unicode="&#x2000;" horiz-adv-x="976" />
<glyph unicode="&#x2001;" horiz-adv-x="1955" />
<glyph unicode="&#x2002;" horiz-adv-x="976" />
<glyph unicode="&#x2003;" horiz-adv-x="1955" />
<glyph unicode="&#x2004;" horiz-adv-x="651" />
<glyph unicode="&#x2005;" horiz-adv-x="487" />
<glyph unicode="&#x2006;" horiz-adv-x="325" />
<glyph unicode="&#x2007;" horiz-adv-x="325" />
<glyph unicode="&#x2008;" horiz-adv-x="243" />
<glyph unicode="&#x2009;" horiz-adv-x="391" />
<glyph unicode="&#x200a;" horiz-adv-x="108" />
<glyph unicode="&#x2010;" horiz-adv-x="901" d="M295 659h614l-49 -210h-614z" />
<glyph unicode="&#x2011;" horiz-adv-x="901" d="M295 659h614l-49 -210h-614z" />
<glyph unicode="&#x2012;" horiz-adv-x="901" d="M295 659h614l-49 -210h-614z" />
<glyph unicode="&#x2013;" horiz-adv-x="1024" d="M1176 662l-48 -205h-1024l48 205h1024z" />
<glyph unicode="&#x2014;" horiz-adv-x="2048" d="M2200 662l-48 -205h-2048l48 205h2048z" />
<glyph unicode="&#x2018;" horiz-adv-x="430" d="M739 1524q-43 -57 -80.5 -115.5t-66.5 -119t-45.5 -122t-16.5 -125.5h-227q10 141 74.5 257t148.5 225h213z" />
<glyph unicode="&#x2019;" horiz-adv-x="430" d="M274 1042q43 57 81 116t67 119t45 121.5t16 125.5h228q-10 -141 -75 -257t-149 -225h-213z" />
<glyph unicode="&#x201a;" horiz-adv-x="430" d="M223 303h228l-226 -481h-213z" />
<glyph unicode="&#x201c;" horiz-adv-x="894" d="M743 1524q-43 -57 -80.5 -115.5t-66.5 -119t-45 -122t-16 -125.5h-228q10 141 74.5 257t148.5 225h213zM1133 1524q-43 -57 -81 -115.5t-67 -119t-45 -122t-16 -125.5h-228q10 141 75 257t149 225h213z" />
<glyph unicode="&#x201d;" horiz-adv-x="868" d="M307 1042q43 57 81 116t66.5 119t45 121.5t16.5 125.5h227q-10 -141 -74.5 -257t-148.5 -225h-213zM688 1042q43 57 81 116t66.5 119t45 121.5t16.5 125.5h227q-10 -141 -74.5 -257t-148.5 -225h-213z" />
<glyph unicode="&#x201e;" horiz-adv-x="868" d="M256 303h227l-225 -481h-213zM637 303h227l-225 -481h-213z" />
<glyph unicode="&#x2022;" d="M475 788h496l-133 -579h-496z" />
<glyph unicode="&#x2026;" horiz-adv-x="1523" d="M205 295h241l-67 -295h-242zM727 295h242l-68 -295h-242zM1249 295h242l-68 -295h-241z" />
<glyph unicode="&#x202f;" horiz-adv-x="391" />
<glyph unicode="&#x2039;" horiz-adv-x="1073" d="M424 496l194 -191l-49 -221l-350 334l37 166l502 317l-58 -235z" />
<glyph unicode="&#x203a;" horiz-adv-x="1073" d="M285 702l49 216l354 -320l-39 -166l-504 -332l56 240l280 192z" />
<glyph unicode="&#x205f;" horiz-adv-x="487" />
<glyph unicode="&#x20ac;" horiz-adv-x="1181" d="M444 924q45 127 98.5 214t125 140t165 76.5t216.5 23.5q66 0 130 -6t113 -14q57 -8 111 -19l-57 -190q-55 4 -111 10q-47 4 -101.5 8t-101.5 4q-154 0 -231.5 -62t-116.5 -187h479l-39 -177h-495q-4 -8 -10.5 -30.5t-10.5 -40.5l-16 -80h495l-38 -176h-480 q-8 -59 -1 -102.5t35 -73t78 -44t128 -14.5q41 0 97.5 3t107.5 8q59 4 119 10l-37 -193q-61 -10 -125 -18q-53 -6 -120 -11.5t-126 -5.5q-125 0 -207 32t-129 89.5t-60.5 139t-0.5 180.5h-125l39 176h112l17 80q4 18 10 40.5t10 30.5h-112l40 179h125z" />
<glyph unicode="&#x2122;" d="M315 1309h410l-33 -142h-100l-113 -487h-157l112 487h-151zM780 1309h189l20 -357l191 357h188l-145 -631h-148l90 391l-174 -352h-104l-15 352l-90 -391h-147z" />
<glyph unicode="&#xe000;" horiz-adv-x="1020" d="M0 1020h1020v-1020h-1020v1020z" />
<glyph unicode="&#xfb01;" horiz-adv-x="1216" d="M1079 1022h223l-235 -1022h-223zM1169 1419h223l-53 -235h-223zM352 827h-110l45 195h110l15 68q47 207 140 292.5t243 85.5q27 0 61.5 -3t65.5 -7q37 -6 73 -10l-47 -186l-51 4q-23 2 -49.5 4t-48.5 2q-70 0 -106 -46t-58 -139l-14 -65h262l-45 -195h-263l-188 -817 q-25 -102 -55.5 -174t-81.5 -127t-130 -102t-198 -101l-57 187q82 41 134 72.5t84 65.5t49.5 76t31.5 105z" />
<glyph unicode="&#xfb02;" horiz-adv-x="1220" d="M1179 1448h224l-334 -1448h-223zM352 827h-110l45 195h110l15 68q47 207 140 292.5t243 85.5q27 0 61.5 -3t65.5 -7q37 -6 73 -10l-47 -186l-51 4q-23 2 -49.5 4t-48.5 2q-70 0 -106 -46t-58 -139l-14 -65h262l-45 -195h-263l-188 -817q-25 -102 -55.5 -174t-81.5 -127 t-130 -102t-198 -101l-57 187q82 41 134 72.5t84 65.5t49.5 76t31.5 105z" />
<glyph unicode="&#xfb03;" horiz-adv-x="1910" d="M1774 1022h223l-235 -1022h-223zM1864 1419h223l-53 -235h-223zM1046 827h-110l45 195h110l15 68q47 207 140 292.5t243 85.5q27 0 61.5 -3t65.5 -7q37 -6 73 -10l-47 -186l-51 4q-23 2 -49.5 4t-48.5 2q-70 0 -106 -46t-58 -139l-14 -65h262l-45 -195h-263l-188 -817 q-25 -102 -55.5 -174t-81.5 -127t-130 -102t-198 -101l-57 187q82 41 134 72.5t84 65.5t49.5 76t31.5 105zM352 827h-110l45 195h110l15 68q47 207 140 292.5t243 85.5q27 0 61.5 -3t65.5 -7q37 -6 73 -10l-47 -186l-51 4q-23 2 -49.5 4t-48.5 2q-70 0 -106 -46t-58 -139 l-14 -65h262l-45 -195h-263l-188 -817q-25 -102 -55.5 -174t-81.5 -127t-130 -102t-198 -101l-57 187q82 41 134 72.5t84 65.5t49.5 76t31.5 105z" />
<glyph unicode="&#xfb04;" horiz-adv-x="1914" d="M1874 1448h224l-334 -1448h-223zM1046 827h-110l45 195h110l15 68q47 207 140 292.5t243 85.5q27 0 61.5 -3t65.5 -7q37 -6 73 -10l-47 -186l-51 4q-23 2 -49.5 4t-48.5 2q-70 0 -106 -46t-58 -139l-14 -65h262l-45 -195h-263l-188 -817q-25 -102 -55.5 -174t-81.5 -127 t-130 -102t-198 -101l-57 187q82 41 134 72.5t84 65.5t49.5 76t31.5 105zM352 827h-110l45 195h110l15 68q47 207 140 292.5t243 85.5q27 0 61.5 -3t65.5 -7q37 -6 73 -10l-47 -186l-51 4q-23 2 -49.5 4t-48.5 2q-70 0 -106 -46t-58 -139l-14 -65h262l-45 -195h-263 l-188 -817q-25 -102 -55.5 -174t-81.5 -127t-130 -102t-198 -101l-57 187q82 41 134 72.5t84 65.5t49.5 76t31.5 105z" />
</font>
</defs>
</svg>
