<?xml version="1.0" standalone="no"?>
<!DOCTYPE svg PUBLIC "-//W3C//DTD SVG 1.1//EN" "http://www.w3.org/Graphics/SVG/1.1/DTD/svg11.dtd" >
<svg xmlns="http://www.w3.org/2000/svg">
<metadata>
This is a custom SVG webfont generated by Font Squirrel.
Copyright   : Copyright c 20082009 Accademia di Belle Arti di Urbino andstudents of MA course of Visual design wwwcampivisivinetwith Reserved Font Name TitilliumCopyright c 2011 Chank Co wwwchankcom with Reserved Font Name PanefrescoThis Font Software is licensed under the SIL Open Font License Version 11
Foundry     : Campivisivi  Chank Co
</metadata>
<defs>
<font id="webfontYk6nZluA" horiz-adv-x="1085" >
<font-face units-per-em="2048" ascent="1536" descent="-512" />
<missing-glyph horiz-adv-x="481" />
<glyph unicode=" "  horiz-adv-x="481" />
<glyph unicode="&#x09;" horiz-adv-x="481" />
<glyph unicode="&#xa0;" horiz-adv-x="481" />
<glyph unicode="!" d="M512 270h209l-62 -270h-208zM780 1434h209l-223 -940h-197z" />
<glyph unicode="&#x22;" horiz-adv-x="665" d="M625 950l106 471h187l-115 -471h-178zM303 950l107 471h186l-115 -471h-178z" />
<glyph unicode="#" d="M936 358l-82 -358h-172l82 358h-283l-82 -358h-172l82 358h-215l37 164h215l74 316h-215l37 163h215l84 359h172l-84 -359h282l84 359h172l-84 -359h217l-36 -163h-217l-74 -316h217l-37 -164h-217zM874 838h-282l-74 -316h283z" />
<glyph unicode="$" d="M1217 1165l-107 13l-104 9q-57 5 -111 9l-98 -436q53 -25 105 -54.5t93 -68.5t66.5 -89t25.5 -118q0 -80 -26.5 -157.5t-83.5 -140t-146.5 -103.5t-214.5 -49l-51 -226l-92 15l49 211q-53 2 -110.5 8t-108.5 12l-90 11t-53 9l49 168q14 -2 53 -7l89 -11q50 -6 106.5 -10 t103.5 -6l56 236l55 237q-55 27 -110.5 57.5t-99.5 68.5t-73 87t-29 116q0 86 31 160t92.5 129t151.5 89t209 40l57 244h94l-57 -244q49 -2 99 -8t95 -13l78 -14q35 -6 54 -8zM549 973q0 -57 48 -96t116 -74l45 196l45 197q-51 -4 -97.5 -22.5t-81 -47t-55 -68.5t-20.5 -85z M893 412q0 57 -39 97t-98 75l-50 -213q-26 -106 -49 -213q41 8 83 28.5t76 52t55.5 75t21.5 98.5z" />
<glyph unicode="%" d="M971 584q123 0 165 -74t9 -215t-108.5 -217t-198.5 -76q-125 0 -166 76t-8 217t107.5 215t199.5 74zM1147 1427l96 -63l-950 -1350l-94 64zM813 295q-20 -84 -11 -126t64 -42t82 41t47 127q18 86 10 125t-63 39t-83 -39t-46 -125zM596 1436q123 0 165 -74t9 -213 q-33 -141 -108.5 -217t-198.5 -76q-125 0 -166 76t-8 217q33 139 107.5 213t199.5 74zM438 1149q-20 -86 -11 -127t65 -41q53 0 80.5 41t48.5 127q20 86 10 125t-64 39q-55 0 -82 -39t-47 -125z" />
<glyph unicode="&#x26;" horiz-adv-x="1433" d="M993 1446q190 0 264 -87t37 -247q-16 -72 -45.5 -128t-77 -102t-114 -88t-156.5 -85l193 -250q12 23 27 55l32 69l32 72q15 37 25 66l187 -4q-18 -49 -40 -101.5t-46.5 -103.5t-49 -96t-47.5 -80l197 -240l-147 -133l-183 217q-61 -55 -120.5 -96t-122 -66.5t-130 -39 t-147.5 -13.5q-242 0 -336 117t-45 332q39 166 143.5 261t258.5 154q-23 41 -36.5 75t-16.5 68t1.5 70.5t14.5 83.5q35 147 152.5 233.5t295.5 86.5zM608 145q104 0 185 35t170 121l-291 393q-121 -41 -195 -107.5t-98 -170.5q-29 -129 28.5 -200t200.5 -71zM735 1102 q-16 -66 -8 -118t47 -105l35 -48q66 29 114 55.5t81.5 57.5t55 67t34.5 83q20 86 -13.5 129t-128.5 43q-86 0 -142.5 -39t-74.5 -125z" />
<glyph unicode="'" horiz-adv-x="204" d="M326 1419h190l-121 -479h-176z" />
<glyph unicode="(" horiz-adv-x="532" d="M813 1536q-90 -156 -170 -315q-35 -68 -69.5 -144t-66.5 -154.5t-58.5 -156.5t-42.5 -150t-25.5 -147.5t-14 -150t-3 -146.5t5.5 -135q8 -150 30 -293h-209q-27 135 -34 283q-10 125 -4 280.5t41 308.5q18 76 44.5 157t58.5 160t68 153l70 143q80 158 170 307h209z" />
<glyph unicode=")" horiz-adv-x="532" d="M614 1536q23 -143 31 -297q6 -131 0 -289.5t-41 -312.5q-18 -78 -45 -157t-58.5 -155.5t-66.5 -150.5l-67 -137q-80 -152 -166 -293h-207q88 147 166 303l66 139q34 74 65 151t57.5 152.5t42.5 147.5q35 145 41 303t0 291q-8 156 -26 305h208z" />
<glyph unicode="*" d="M889 1038l22 -254l-125 -34l-24 256l-254 -162l-53 94l256 162l-176 155l94 99l178 -152l141 250l111 -39l-141 -256h262l-27 -119h-264z" />
<glyph unicode="+" horiz-adv-x="987" d="M129 651h422l96 422h180l-96 -422h426l-41 -176h-426l-98 -426h-180l98 426h-422z" />
<glyph unicode="," horiz-adv-x="348" d="M184 240h211l-231 -492h-191z" />
<glyph unicode="-" horiz-adv-x="901" d="M289 670h631l-43 -189h-631z" />
<glyph unicode="." horiz-adv-x="507" d="M197 270h211l-62 -270h-211z" />
<glyph unicode="/" d="M1061 1460l178 -65l-905 -1426l-178 66z" />
<glyph unicode="0" d="M856 1374q121 0 207 -35.5t132 -118.5t48 -220.5t-45 -340.5q-45 -195 -109.5 -324.5t-147.5 -209.5t-185.5 -114t-220.5 -34q-119 0 -205 34t-132 113t-50.5 210t40.5 325q47 203 113 340.5t148.5 220.5t184 118.5t222.5 35.5zM815 1184q-76 0 -137.5 -24.5t-110.5 -84 t-90 -161t-76 -257.5q-35 -147 -38 -241t20 -149.5t73 -77t124 -21.5t133 21.5t108 77t89 150.5t75 242q35 154 42 255.5t-14.5 161t-71.5 84t-126 24.5z" />
<glyph unicode="1" d="M852 1352h186l-311 -1352h-199l258 1122l-376 -217l-58 158z" />
<glyph unicode="2" d="M113 0l41 182l438 363l141 119q63 55 112.5 106t81 102.5t44.5 106.5q25 111 -31.5 155t-194.5 44q-55 0 -116.5 -6.5t-112.5 -14.5q-59 -8 -117 -18l27 182l133 27q59 10 131 18t144 8q221 0 306 -89t42 -281q-18 -78 -49 -140.5t-79 -122t-115 -120t-155 -132.5 l-362 -299h602l-43 -190h-868z" />
<glyph unicode="3" d="M424 1325q68 14 137 25q59 10 132 17t141 7q125 0 204.5 -21.5t122.5 -66.5t50.5 -111.5t-13.5 -158.5q-16 -72 -48 -122t-70 -85t-74 -56l-64 -36q43 -20 78 -44t55.5 -61t24.5 -89t-15 -130q-47 -209 -177 -312.5t-365 -103.5q-78 0 -156 7.5t-141 17.5q-74 10 -142 25 l64 180q61 -10 129 -19q57 -8 128 -13t138 -5q266 2 316 217q14 59 3.5 99t-39 64.5t-72.5 35t-95 12.5h-273l41 182h273q37 0 80 16.5t82 44t68.5 65.5t39.5 83q25 106 -27.5 149.5t-179.5 43.5q-68 0 -135 -5.5t-121 -11.5l-121 -16z" />
<glyph unicode="4" d="M739 233h-633l37 164l592 955h219l-577 -928h405l99 424h198l-98 -424h156l-43 -191h-156l-57 -245h-199z" />
<glyph unicode="5" d="M1268 1354l-45 -193h-621l-119 -370q47 16 97 30q41 12 90 22.5t92 10.5q104 0 181 -22.5t122 -71.5t56.5 -127t-13.5 -189q-53 -229 -200.5 -346.5t-364.5 -117.5q-78 0 -158 9t-143 19q-76 12 -144 31l64 180q72 -14 143 -24q61 -10 135 -17.5t142 -7.5 q117 0 202.5 68.5t114.5 195.5q31 129 -27.5 181.5t-171.5 52.5q-55 0 -107 -10.5t-93 -22.5q-49 -14 -90 -31l-152 33l209 717h801z" />
<glyph unicode="6" d="M1231 1157l-115 12l-115 10q-63 5 -129 5q-166 0 -273 -101.5t-153 -300.5l33 11q33 10 82 23t106.5 24.5t106.5 11.5q227 0 319.5 -102.5t41.5 -321.5q-51 -223 -204 -337t-382 -114q-129 0 -211 47.5t-122 136.5t-39 219t40 298q45 193 112.5 325t156.5 214.5 t198 119.5t231 37q66 0 132.5 -6t119.5 -12l123 -17zM717 670q-53 -4 -109.5 -13.5t-101.5 -19.5q-53 -12 -103 -29q-20 -92 -23 -173t17.5 -141.5t67.5 -94t127 -33.5q135 0 220 64.5t116 197.5q29 127 -27.5 184.5t-183.5 57.5z" />
<glyph unicode="7" d="M420 1354h848l-58 -248l-774 -1135l-172 56l744 1087l10 47h-643z" />
<glyph unicode="8" d="M864 1374q109 0 195 -22.5t141 -66.5t75.5 -111.5t0.5 -155.5q-14 -63 -36.5 -109.5t-54.5 -82t-77 -65.5t-104 -59q43 -29 76.5 -58.5t54 -67t24.5 -89t-12 -120.5q-25 -111 -83 -184.5t-138 -120t-178.5 -66t-204.5 -19.5q-104 0 -192.5 17.5t-148 60.5t-84 114 t0.5 175q18 76 46 130t64.5 95t83.5 72t103 61q-43 31 -72 62t-44 67.5t-16 83t13 105.5q20 88 70.5 153.5t124 110.5t167.5 67.5t205 22.5zM586 168q135 0 230 51t124 172q10 47 3 82t-27.5 59.5t-53.5 42t-74 31.5h-204q-98 -29 -157.5 -79t-82.5 -142q-27 -115 42 -166 t200 -51zM823 1184q-129 0 -212 -42t-107 -151q-18 -80 13.5 -127t107.5 -82h204q94 35 150.5 82t75.5 127q25 106 -37 149.5t-195 43.5z" />
<glyph unicode="9" d="M168 193q55 -8 115 -15q51 -4 114.5 -8t128.5 -4q170 0 276.5 102.5t153.5 296.5l-33 -9l-84.5 -21.5t-108.5 -22.5t-107 -10q-217 0 -310.5 102.5t-42.5 319.5q25 106 78 190t129 142.5t170 88t203 29.5q260 0 337 -180t1 -518q-47 -199 -114.5 -333t-157 -215 t-198 -116t-235.5 -35q-66 0 -132 5.5t-120 13.5q-63 8 -122 18zM682 684q49 0 105.5 9t103.5 22q55 12 110 30q20 94 21.5 176.5t-21 140.5t-69.5 92t-125 34q-125 0 -214 -69.5t-118 -194.5q-29 -127 24.5 -183.5t182.5 -56.5z" />
<glyph unicode=":" horiz-adv-x="397" d="M315 907h209l-63 -270h-209zM168 270h209l-62 -270h-209z" />
<glyph unicode=";" horiz-adv-x="436" d="M205 264h211l-258 -504h-178zM340 907h209l-64 -270h-209z" />
<glyph unicode="&#x3c;" d="M463 637l450 -318l-49 -204q-47 27 -128 83l-170 118l-174 122q-85 59 -140 94l45 201l807 412l-49 -205z" />
<glyph unicode="=" d="M258 868h948l-41 -178h-948zM166 463h948l-41 -178h-948z" />
<glyph unicode="&#x3e;" d="M344 940l49 205l615 -412l-45 -201l-115 -59l-145 -75l-156 -83l-154 -81l-136 -69q-62 -32 -103 -50l49 204l594 318z" />
<glyph unicode="?" horiz-adv-x="790" d="M1051 1085q-20 -90 -63.5 -155.5t-97.5 -116.5t-114 -91l-109 -77q-50 -37 -87 -72.5t-48 -80.5l-18 -78h-205l21 84q14 68 54 118t91 92t108.5 78.5t107.5 77.5t89 88t54 111q25 104 -15.5 149t-177.5 45q-39 0 -93 -7t-106 -15l-125 -23l19 189q72 16 139 29 q57 10 118.5 19t102.5 9q223 0 312.5 -83t42.5 -290zM274 270h209l-61 -270h-209z" />
<glyph unicode="@" horiz-adv-x="2017" d="M2054 590q-43 -190 -96 -309t-116.5 -185.5t-138.5 -91t-161 -24.5q-90 0 -144.5 20t-78.5 84q-31 -14 -76 -32.5t-94 -34t-100.5 -25.5t-96.5 -10q-76 0 -137 20.5t-98 77.5t-44 156.5t29 259.5q31 127 72 228t103.5 172t150.5 108.5t209 37.5q31 0 66.5 -7t68.5 -17 q37 -10 76 -25l8 31h193l-95 -410q-37 -158 -52 -248t-10 -135t28.5 -56t64.5 -11q43 0 78 12t67.5 56t63.5 129t64 229l8 37q41 180 31.5 307t-74 208t-186 118.5t-306.5 37.5q-371 0 -596 -183t-317 -580q-49 -213 -42 -360.5t75.5 -238t198.5 -130t327 -39.5q31 0 81 3 t97 7q55 4 119 10l-35 -186q-61 -6 -117 -11q-47 -4 -99 -7t-89 -3q-227 0 -391 45t-257 154.5t-111.5 294t46.5 461.5q57 250 162.5 430t253 295.5t333 170t404.5 54.5q459 0 623 -217t65 -643zM1012 170q70 0 147.5 22.5t130.5 45.5q4 55 17.5 129.5t35.5 173.5l68 284 l-63 17l-60 12q-31 6 -57 6q-78 0 -130 -20.5t-89 -64.5t-63.5 -113.5t-49.5 -167.5q-25 -102 -23.5 -166t19.5 -98.5t49 -47t68 -12.5z" />
<glyph unicode="A" horiz-adv-x="1239" d="M61 0l289 593l287 593q49 102 133 167.5t209 65.5h164l31 -1419h-191q-6 80 -11 159t-9 160h-531l-160 -319h-211zM520 506h447q-4 186 -7.5 368.5t-7.5 368.5q-47 0 -80.5 -38t-60.5 -93z" />
<glyph unicode="B" horiz-adv-x="1257" d="M1020 1421q199 0 293 -84q65 -58 64 -163q0 -48 -13 -107q-16 -72 -40 -125t-54.5 -93t-69.5 -68.5t-86 -51.5q43 -18 76 -44t51.5 -63.5t21.5 -92.5v-17q0 -49 -14 -113q-25 -109 -74 -185.5t-118.5 -123.5t-156.5 -68.5t-187 -21.5h-543l328 1421h522zM510 627 l-102 -443h337q117 0 195 50.5t107 179.5q8 36 8 64q0 27 -7 47q-15 42 -47 64.5t-75 30t-84 7.5h-332zM651 1237l-100 -430h328q117 0 182 58.5t92 170.5q9 38 9 68q0 57 -30 87q-46 46 -163 46h-318z" />
<glyph unicode="C" horiz-adv-x="1095" d="M1022 27q-72 -14 -143 -25q-61 -10 -133 -17.5t-132 -7.5q-160 0 -251 47.5t-127 139.5q-29 74 -30 176q0 26 2 53q9 137 50 316q43 186 99.5 324t137 229.5t192.5 136.5t265 45q68 0 136.5 -8.5t123.5 -18.5q66 -10 123 -24l-47 -179l-129 17q-53 6 -115.5 12t-111.5 6 q-106 0 -180 -30.5t-126.5 -95t-90 -168t-70.5 -246.5q-33 -141 -43 -243q-3 -32 -3 -60q0 -62 15 -107q23 -66 83.5 -96.5t170.5 -30.5q45 0 107.5 5t122.5 11q68 8 139 19z" />
<glyph unicode="D" horiz-adv-x="1304" d="M170 0l328 1421h491q164 0 258 -47t135 -136q36 -79 37 -188q0 -14 -1 -28q-5 -127 -42 -287q-37 -162 -91 -297t-137 -232t-202 -151.5t-284 -54.5h-492zM1171 735q27 111 35 202q2 24 2 47q0 62 -16 111q-23 67 -81 102.5t-167 35.5h-295l-239 -1045h295 q109 0 185.5 44t130.5 119t89.5 174t60.5 210z" />
<glyph unicode="E" horiz-adv-x="1148" d="M1034 0h-450q-96 0 -172 22.5t-123 70.5t-62 124q-5 27 -5 57q0 56 18 125q39 143 112.5 215t177.5 107q-31 25 -55 55.5t-37 70.5q-11 37 -11 85q0 57 17 129q25 92 76 159.5t122 111.5t157 66.5t180 22.5h383l-45 -184h-387q-106 0 -183 -53.5t-104 -153.5 q-10 -41 -10 -76q0 -54 25 -91q42 -60 151 -60h283l-41 -182h-291q-37 0 -83 -9.5t-91 -34t-82 -66.5t-53 -108q-11 -41 -11 -73q0 -16 2 -30q8 -42 34 -66.5t68 -36t95 -11.5h436z" />
<glyph unicode="F" horiz-adv-x="1122" d="M498 1421h874l-45 -190h-678l-117 -504h555l-43 -188h-555l-122 -539h-197z" />
<glyph unicode="G" horiz-adv-x="1236" d="M889 748h391l-96 -422q-12 -61 -36 -117.5t-57.5 -101t-80.5 -74t-107 -37.5q-66 -10 -133.5 -14.5t-120.5 -4.5q-158 0 -251 51.5t-134 148.5q-36 86 -36 205v30q5 137 46 309q41 178 99.5 314t141.5 226.5t196.5 136.5t267.5 46q76 0 155.5 -8.5t145.5 -18.5 q78 -10 150 -24l-48 -176q-74 10 -145 18q-63 6 -135 12t-137 6q-109 0 -186 -32.5t-133 -100t-96 -171t-71 -244.5q-33 -139 -42 -241q-3 -28 -2 -53q0 -67 18 -114q25 -66 86 -98.5t170 -32.5q35 0 74.5 3t74.5 7q18 2 37.5 10.5t36 29t33 55t28.5 87.5l49 213h-194z" />
<glyph unicode="H" horiz-adv-x="1392" d="M1165 625h-653l-143 -625h-199l328 1421h198l-141 -606h653l142 606h200l-327 -1421h-201z" />
<glyph unicode="I" horiz-adv-x="526" d="M492 1421h198l-328 -1421h-198z" />
<glyph unicode="J" horiz-adv-x="634" d="M797 1421l-71 -308l-66 -287l-65 -288l-73 -311q-29 -123 -69.5 -195.5t-99 -112.5t-137.5 -52t-185 -12l43 184q57 0 98 6t69.5 27.5t48 61.5t36.5 110l272 1177h199z" />
<glyph unicode="K" horiz-adv-x="1218" d="M1413 1419q-31 -123 -67.5 -235.5t-93 -208.5t-135.5 -173t-191 -126l215 -676h-226l-188 616q-51 -10 -106.5 -14t-108.5 -4l-135 -598h-199l328 1419h199l-148 -635q154 6 266.5 56.5t190.5 135.5t124 197.5t66 245.5h209z" />
<glyph unicode="L" horiz-adv-x="1032" d="M170 0l328 1421h198l-284 -1231h585l-43 -190h-784z" />
<glyph unicode="M" horiz-adv-x="1738" d="M451 1180q12 51 32.5 96t49 77.5t67.5 50t90 17.5h148l88 -1149l497 918q53 102 122 165.5t173 65.5h168l-327 -1421h-195l276 1198q-14 0 -30.5 -16.5t-28.5 -38.5l-487 -897q-53 -98 -101.5 -143.5t-99.5 -49.5h-115l-94 1149q-16 0 -24.5 -19.5t-16.5 -49.5 l-262 -1133h-203z" />
<glyph unicode="N" horiz-adv-x="1423" d="M506 1421h162q86 0 140 -41t73 -151l166 -969q4 -27 15 -42t28 -11l280 1214h201l-328 -1421h-156q-178 4 -208 184l-174 973q-8 57 -46 57l-278 -1214h-203z" />
<glyph unicode="O" horiz-adv-x="1329" d="M702 170q111 0 189 31.5t133 97.5t93 166t69 237q31 131 39 234q2 26 2 51q0 70 -18 122q-24 71 -85 106.5t-172 35.5t-188.5 -35.5t-134 -105.5t-95 -172t-69.5 -236q-31 -133 -39 -233q-2 -25 -2 -48q0 -69 18 -119q25 -67 87 -99.5t173 -32.5zM657 -23 q-164 0 -262 46.5t-142 138.5q-39 83 -40 199q0 14 1 28q5 135 46 313q41 176 99.5 314.5t144.5 234t206.5 144.5t284.5 49t262.5 -49t141.5 -145q39 -87 39 -209v-23q-4 -137 -45 -316q-43 -182 -101.5 -317t-144.5 -226t-205 -136.5t-285 -45.5z" />
<glyph unicode="P" horiz-adv-x="1230" d="M473 453l-104 -453h-199l328 1421h516q238 0 324 -115q54 -72 54 -191q0 -73 -20 -163q-55 -238 -199.5 -368.5t-381.5 -130.5h-318zM834 643q137 0 219 83t116 226q13 58 14 104q0 67 -29 107q-48 68 -185 68h-318l-135 -588h318z" />
<glyph unicode="Q" horiz-adv-x="1329" d="M1120 -463q-59 12 -108 55t-88 105.5t-68 139.5t-43 157q-35 -6 -75 -11.5t-81 -5.5q-160 0 -256 49.5t-139 142.5q-38 83 -38 201v28q5 136 46 313q41 174 99.5 310t144.5 230.5t204 143.5t277 49q160 0 255.5 -52.5t137.5 -150.5q37 -88 37 -208q0 -15 -1 -29 q-5 -139 -46 -314q-53 -238 -142 -398.5t-235 -238.5q23 -129 71 -225t147 -133zM700 164q106 0 181 33.5t130.5 101.5t93.5 169t71 239q31 133 38 236q2 27 3 51q0 70 -18 122q-24 70 -83 105.5t-164 35.5q-104 0 -180 -36.5t-132 -108.5t-95 -176.5t-70 -239.5t-38 -234 q-2 -23 -1 -45q0 -70 18 -121q24 -67 83 -99.5t163 -32.5z" />
<glyph unicode="R" horiz-adv-x="1269" d="M844 512h-359l-116 -512h-199l328 1421h530q236 0 326 -104q57 -66 56 -183q0 -69 -19 -157q-39 -164 -121 -263.5t-217 -148.5l121 -565h-220zM1184 973q12 49 11 89q0 171 -212 171h-332l-123 -533h334q145 0 219 75t103 198z" />
<glyph unicode="S" horiz-adv-x="1089" d="M1249 1219q-72 10 -143 18q-61 6 -134 12t-132 6t-112.5 -16t-94.5 -46t-65.5 -72t-24.5 -93q0 -55 42 -94t105.5 -73t138 -68.5t138 -80.5t105.5 -108.5t42 -150.5t-30.5 -173t-98 -153t-173 -109t-253.5 -41q-57 0 -127 5.5t-134.5 13.5t-114.5 15t-66 12l63 184l66 -8 q49 -6 110.5 -12.5t128 -11.5t115.5 -5q47 0 101.5 15.5t100.5 48t75.5 80.5t29.5 116q0 59 -42 102t-104.5 80t-136 72t-136 78t-104.5 101.5t-42 142.5q0 94 36 175t107.5 139t177 92t244.5 34q55 0 115.5 -6t116 -13.5t99.5 -15.5l65 -12z" />
<glyph unicode="T" horiz-adv-x="999" d="M315 1421h1024l-45 -190h-409l-283 -1231h-201l283 1231h-414z" />
<glyph unicode="U" horiz-adv-x="1310" d="M446 442q-10 -47 -10 -84q0 -23 4 -43q10 -51 42 -81.5t85.5 -44t122.5 -13.5q72 0 132.5 13.5t108.5 44t82 82t50 126.5l227 979h201l-227 -979q-29 -125 -82.5 -212t-131 -142t-179 -80.5t-226.5 -25.5q-121 0 -209 25.5t-139 80.5t-65 142q-4 28 -4 59q0 68 20 153 l227 979h199z" />
<glyph unicode="V" horiz-adv-x="1226" d="M1491 1421l-565 -1190q-111 -229 -353 -231h-157l-27 1421h201l10 -1239q47 4 85 36t71 95l520 1108h215z" />
<glyph unicode="W" horiz-adv-x="1869" d="M604 1421l-47 -1239q49 0 82 76l416 952q39 86 84 140q43 51 104 51h4h119l-29 -1219q53 6 80 72l490 1167h215l-543 -1253q-41 -96 -110.5 -132t-161.5 -36h-146l35 1135l-410 -965q-35 -78 -98 -123t-168 -47h-151l32 1421h203z" />
<glyph unicode="X" horiz-adv-x="1189" d="M776 858l451 563h235l-573 -716l246 -705h-207l-193 555l-448 -555h-236l576 705l-248 716h207z" />
<glyph unicode="Y" horiz-adv-x="1144" d="M674 0h-199l139 608l-254 813h209l183 -590l452 590h236l-627 -813z" />
<glyph unicode="Z" horiz-adv-x="1167" d="M461 1421h891q2 -13 1 -27q0 -58 -28 -124q-35 -82 -123 -191l-725 -809q-31 -35 -41 -52t-8 -30h649l-45 -188h-897v14q0 85 44 165q48 87 128 179l711 793q23 25 38 44t13 38h-653z" />
<glyph unicode="[" horiz-adv-x="614" d="M844 1346h-262l-326 -1409h262l-43 -189h-459l410 1786h461z" />
<glyph unicode="\" horiz-adv-x="1107" d="M745 -45l-307 1423l221 88l308 -1427z" />
<glyph unicode="]" horiz-adv-x="614" d="M426 1534h461l-414 -1786h-459l43 189h262l326 1409h-262z" />
<glyph unicode="^" d="M807 1159l-377 -502h-205l523 695h202l211 -695h-207z" />
<glyph unicode="_" horiz-adv-x="1064" d="M928 -10l-41 -176h-877l41 176h877z" />
<glyph unicode="`" horiz-adv-x="505" d="M836 1360l-93 -152l-440 172l103 172z" />
<glyph unicode="a" horiz-adv-x="1073" d="M1130 1044l-94 -401l-94 -403q0 -45 27.5 -67.5t74.5 -31.5q-10 -41 -23 -81l-26 -80q-199 6 -233 106q-51 -41 -131 -73.5t-174 -32.5q-74 0 -125 22.5t-85 63t-49.5 97t-15.5 124.5q0 137 38 272t113 242.5t184.5 174t254.5 66.5q53 0 104 -9l85 -15zM473 145 q43 0 88 15.5t86 39t74 48t49 43.5l28 126q13 62 29 128l72 309l-45 6l-49 9q-19 4 -37 4q-7 0 -14 -1q-96 0 -169 -53t-123 -136t-76 -187.5t-26 -204.5q0 -57 28 -101.5t85 -44.5z" />
<glyph unicode="b" horiz-adv-x="1112" d="M586 938q66 43 141.5 71.5t144.5 28.5q141 0 206 -86t65 -221t-38 -270t-114 -242.5t-186.5 -175.5t-253.5 -68q-45 0 -100.5 3.5t-109.5 7.5t-98 9t-67 9l336 1454h193zM850 870q-37 0 -82 -13t-88 -34.5t-81 -47t-62 -50.5l-131 -563q39 -8 84 -13.5t79 -5.5 q94 0 168 53.5t124 136.5t76 186.5t26 205.5q0 57 -28 101t-85 44z" />
<glyph unicode="c" horiz-adv-x="892" d="M846 152q-29 -33 -75 -64t-100.5 -55.5t-109.5 -38.5t-102 -14q-145 0 -211 87t-66 222t39 270t114 242.5t185.5 175t255.5 67.5q66 0 134.5 -13t119.5 -32l-43 -161q-12 6 -38.5 12t-60.5 11t-69 8t-61 3q-96 0 -169 -52t-123 -136t-75.5 -187.5t-25.5 -203.5 q0 -57 27.5 -101.5t82.5 -44.5q43 0 90 16.5t91 40t79 50.5t53 45z" />
<glyph unicode="d" horiz-adv-x="1118" d="M940 0h-195l31 119q-31 -29 -72.5 -53.5t-87 -44t-87.5 -30.5t-74 -11q-139 0 -204 87t-65 222t38 270t113 242.5t184.5 175t254.5 67.5q51 0 103.5 -9t99.5 -21l102 444h197zM475 147q41 0 92 20.5t100.5 49.5t90.5 58.5t61 50.5l121 524q-39 8 -90 15t-92 7 q-96 0 -169 -52t-123 -136t-75.5 -187.5t-25.5 -203.5q0 -57 27.5 -101.5t82.5 -44.5z" />
<glyph unicode="e" horiz-adv-x="1038" d="M541 150q55 0 116.5 21.5t115.5 49t95 53t54 35.5l41 -157q-18 -23 -63.5 -52.5t-108 -56.5t-135 -45t-146.5 -18q-172 0 -244.5 82.5t-72.5 232.5q0 188 57 328.5t143 233.5t187.5 139t189.5 46q74 0 129 -20.5t93 -55t56.5 -81.5t18.5 -103q0 -66 -28.5 -131 t-90.5 -131q-59 -66 -138 -104.5t-161 -61t-154.5 -31t-119.5 -10.5q-8 -33 1 -62.5t30.5 -52t56.5 -35.5t78 -13zM745 874q-47 0 -99 -25.5t-100 -74.5t-87 -121.5t-58 -167.5q68 2 153 19.5t159.5 52.5t125 89t50.5 132q0 47 -38 71.5t-106 24.5z" />
<glyph unicode="f" horiz-adv-x="690" d="M367 852h-117l41 170h115l18 78q47 205 137 291t238 86q27 0 59.5 -3.5t63.5 -7.5l71 -8l-41 -162l-53 4q-23 2 -49.5 3.5t-48.5 1.5q-78 0 -118 -49.5t-65 -157.5l-16 -76h275l-39 -170h-275l-194 -842q-23 -100 -52.5 -169.5t-80 -124t-127 -101.5t-193.5 -100l-49 163 q84 43 136 76t85 68t51.5 80t34.5 110z" />
<glyph unicode="g" horiz-adv-x="1073" d="M756 872q-72 0 -127.5 -28.5t-98.5 -78.5t-73.5 -118.5t-50.5 -150.5q-29 -115 -29 -185q0 -78 33.5 -118.5t111.5 -40.5q41 0 89 16t89 39q49 23 97 55l68 299l69 299q-35 2 -68 6l-58 4q-29 2 -52 2zM397 -489q-49 0 -97 4t-89 10l-90 16q12 41 23 83l22 83l82 -8 q35 -4 73.5 -6t67.5 -2q154 0 240 104.5t123 290.5q-10 -6 -38 -24.5t-64 -37t-78 -33t-80 -14.5q-80 0 -137.5 24t-94.5 66t-53.5 97t-16.5 121q0 47 4.5 100t18.5 113q29 125 77 226t117.5 172t165 109.5t220.5 38.5q41 0 105 -4l124 -8q70 -6 145 -10l-233 -1006 q-59 -262 -188.5 -383.5t-348.5 -121.5z" />
<glyph unicode="h" horiz-adv-x="1153" d="M170 0l336 1458h196l-129 -534q20 18 54.5 39.5t77.5 39t92 29.5t100 12q100 0 157.5 -32.5t80.5 -96.5q17 -48 17 -115q0 -21 -2 -44q-7 -96 -36 -221l-123 -535h-196l123 535q18 78 28 140q6 37 6 67q0 21 -3 38q-7 43 -34.5 65.5t-87.5 22.5q-92 0 -164.5 -38.5 t-130.5 -79.5l-167 -750h-195z" />
<glyph unicode="i" horiz-adv-x="505" d="M391 1022h195l-236 -1022h-194zM485 1436h195l-49 -215h-195z" />
<glyph unicode="j" horiz-adv-x="524" d="M410 1022h194l-233 -1012q-23 -98 -55.5 -167.5t-85 -125t-130 -102.5t-192.5 -98l-47 161q82 43 136 76t89 68t54.5 80t35.5 110zM506 1446h194l-49 -213h-194z" />
<glyph unicode="k" horiz-adv-x="1032" d="M174 0l336 1456h195l-193 -840q102 4 178 39t132.5 90.5t95 127t67.5 149.5h205q-68 -203 -165 -320.5t-216 -183.5l190 -518h-211l-174 449q-41 -10 -76.5 -13.5t-70.5 -7.5l-98 -428h-195z" />
<glyph unicode="l" horiz-adv-x="514" d="M496 1458h194l-336 -1458h-194z" />
<glyph unicode="m" horiz-adv-x="1757" d="M178 0l236 1022h194l-35 -143q27 29 63 58.5t76 53t83 38.5t84 15q88 0 151.5 -34.5t87.5 -112.5q31 23 71 48.5t88 48t102.5 36.5t113.5 14q190 0 237 -125q20 -55 20 -136q0 -104 -34 -251l-123 -532h-196l121 526q18 82 29 146q7 37 7 66q0 22 -4 40q-8 43 -36.5 65.5 t-90.5 22.5q-43 0 -85 -13t-77.5 -32.5t-64.5 -42t-47 -43.5q-4 -16 -12.5 -69.5t-26.5 -135.5l-121 -530h-196l120 526q20 86 28 150q3 26 3 48q0 32 -6 57q-10 42 -41 63.5t-88 21.5q-37 0 -78 -17.5t-78 -42t-68.5 -53t-52.5 -51.5l-159 -702h-195z" />
<glyph unicode="n" horiz-adv-x="1159" d="M174 0l236 1022h196l-33 -123q29 25 67 50.5t82 47t92 34.5t95 13q96 0 151.5 -32.5t78.5 -97.5q17 -49 17 -115q0 -21 -2 -44q-7 -95 -36 -223l-123 -532h-196l123 530q18 80 30 143q9 44 9 78q0 14 -2 27q-5 43 -30.5 65.5t-84.5 22.5q-47 0 -90 -14t-82 -35.5 t-74 -48.5l-66 -51l-161 -717h-197z" />
<glyph unicode="o" horiz-adv-x="1081" d="M782 1044q121 0 196 -39.5t109.5 -110.5t34.5 -170t-26 -218q-29 -121 -72 -218.5t-108.5 -166t-158.5 -106.5t-220 -38q-129 0 -205 40t-109 114q-30 67 -30 160q0 9 1 17q3 103 31 229q27 119 71 214t109.5 159.5t157.5 99t219 34.5zM575 147q76 0 129.5 28t90 78 t62.5 118.5t44 152.5q22 93 22 163q0 55 -14 95q-31 92 -166 92q-141 0 -213.5 -94t-111.5 -264q-20 -88 -27 -157q-2 -20 -2 -37q0 -45 11 -78q15 -47 57 -72t118 -25z" />
<glyph unicode="p" horiz-adv-x="1114" d="M410 1022h196l-22 -88q70 45 146.5 74.5t148.5 29.5q139 0 203.5 -86t64.5 -221t-38 -270t-112.5 -242.5t-185.5 -175.5t-254 -68q-41 0 -91 5.5t-97 15.5l-103 -442h-196zM856 870q-39 0 -85 -14t-90 -35.5t-82 -47t-62 -50.5l-131 -559q41 -8 87 -13.5t82 -5.5 q94 0 168 52.5t124.5 136.5t76 186.5t25.5 204.5q0 57 -28 101t-85 44z" />
<glyph unicode="q" horiz-adv-x="1099" d="M475 145q39 0 88 19.5t97.5 46.5t90.5 56.5t66 51.5l121 527q-39 8 -90 17t-92 9q-94 0 -168 -53t-124 -136t-76 -187.5t-26 -204.5q0 -57 28 -101.5t85 -44.5zM829 -446h-188l123 548q-76 -53 -160 -87.5t-145 -34.5q-74 0 -125 22.5t-85 63t-49.5 97t-15.5 124.5 q0 137 38 272t113 242.5t184.5 174t254.5 66.5q57 0 116.5 -8t117.5 -18q41 0 81.5 1t81.5 1z" />
<glyph unicode="r" horiz-adv-x="733" d="M399 1022h195l-35 -152l41 33q31 25 78 52.5t107.5 52t129.5 36.5l-47 -206q-72 -12 -133 -37t-107 -50.5t-76 -48.5l-40 -30l-154 -672h-194z" />
<glyph unicode="s" horiz-adv-x="1005" d="M1042 840l-124 16q-53 6 -114 12t-108 6q-45 0 -85 -11t-70.5 -29.5t-49 -44t-18.5 -56.5q0 -37 36 -61.5t89 -47t116.5 -46t117 -55t89 -77t35.5 -110.5q0 -72 -26.5 -136.5t-82.5 -112.5t-143.5 -76.5t-209.5 -28.5q-51 0 -114 5t-118 11q-66 8 -133 18l47 168 q68 -10 135 -18q55 -8 116.5 -13.5t104.5 -5.5q45 0 87.5 12.5t76 34t54 52t20.5 65.5q0 39 -36 65.5t-90 50.5t-117.5 47.5t-118 55t-90 76.5t-35.5 113t28.5 127t87 104t144.5 71t202 26q43 0 92.5 -4.5t96.5 -11.5t87 -15t64 -15z" />
<glyph unicode="t" horiz-adv-x="735" d="M571 848l-102 -447q-16 -70 -24 -115q-4 -25 -3 -45q0 -17 2 -29q6 -28 30 -40t67 -12q23 0 51.5 1t56.5 3q33 2 68 6l-29 -168l-80 -12l-71 -8q-37 -4 -64 -5q-84 0 -136 17.5t-77 61.5q-23 41 -23 106q0 5 1 11q2 73 28 183l113 492h-137l41 174h137l69 307h193 l-70 -307h301l-41 -174h-301z" />
<glyph unicode="u" horiz-adv-x="1144" d="M1210 1022l-235 -1022h-195l33 129q-25 -23 -60.5 -49.5t-77.5 -49t-89 -38t-92 -15.5q-184 0 -233 120q-21 53 -21 135q0 105 34 257l125 533h195l-123 -530q-20 -90 -31 -156q-6 -41 -6 -72q0 -19 2 -35q6 -41 33 -60t80 -19q43 0 90 19t90 47t78 57.5t53 50.5l156 698 h194z" />
<glyph unicode="v" horiz-adv-x="987" d="M477 1022l17 -856q61 6 94 74l381 782h207l-420 -846q-43 -84 -115 -129t-182 -47h-142l-34 1022h194z" />
<glyph unicode="w" horiz-adv-x="1544" d="M469 1022l-20 -848q45 6 75 62l307 641q59 121 146 127h121l12 -830q23 2 40 17.5t32 39.5l348 791h201l-385 -862q-39 -76 -103.5 -118t-163.5 -42h-137l-2 739l-266 -573q-76 -166 -254 -166h-150l13 1022h186z" />
<glyph unicode="x" horiz-adv-x="948" d="M487 1022l125 -373l297 373h221l-421 -512l186 -510h-201l-127 371l-293 -371h-221l418 510l-184 512h200z" />
<glyph unicode="y" horiz-adv-x="989" d="M465 1022l27 -719q4 -61 19 -88t42 -31l422 838h203l-508 -1012q-49 -100 -98.5 -169.5t-115 -124t-154.5 -101.5t-218 -100l-6 182q92 41 152.5 70.5t102.5 60.5t71.5 71t60.5 101q-29 6 -55.5 24.5t-48 47t-35 67.5t-13.5 82l-30 801h182z" />
<glyph unicode="z" horiz-adv-x="980" d="M356 1022h734q1 -11 1 -22q0 -56 -27 -109q-32 -63 -99 -135l-572 -582h506l-39 -174h-729q-2 14 -2 28q0 118 123 240l567 580h-504z" />
<glyph unicode="{" horiz-adv-x="649" d="M516 350q-12 -51 -34.5 -117.5t-35.5 -121.5q-10 -45 -10 -79t17.5 -57.5t55.5 -36t99 -16.5l-47 -188q-213 8 -290.5 90t-34.5 266q6 31 16 65.5l21 69.5l21 66q9 31 13 49q18 80 -12.5 131t-138.5 86l39 164q125 29 177 78t70 131q6 20 12 53l11 70l12 72q6 36 12 65 q20 96 59.5 162.5t100 109.5t142 63.5t190.5 24.5l-41 -188q-63 -4 -106 -16.5t-71 -34t-44.5 -55t-26.5 -78.5q-6 -25 -11 -60t-11 -70.5l-11.5 -68.5l-9.5 -55q-16 -63 -37.5 -108.5t-53.5 -78t-76 -55.5t-103 -41q104 -37 135 -101.5t2 -189.5z" />
<glyph unicode="|" d="M776 1495h199l-422 -1827h-199z" />
<glyph unicode="}" horiz-adv-x="649" d="M299 350q29 125 90.5 189.5t181.5 101.5q-53 18 -86.5 41t-50 55.5t-17.5 77.5t15 109q4 23 14 55l21 69l20 70l17 60q10 45 10 78.5t-17.5 55t-54 34t-100.5 16.5l45 188q213 -8 292 -88t36 -272q-6 -29 -18 -65l-22 -72l-21 -70l-15 -53q-18 -82 11.5 -131t142.5 -78 l-39 -164q-61 -16 -105.5 -37.5t-73 -48.5t-46 -59.5t-25.5 -71.5q-4 -18 -9.5 -49t-10.5 -66t-11 -69.5t-12 -65.5q-23 -92 -61 -157.5t-98 -108.5t-142 -64.5t-191 -25.5l41 188q63 4 106.5 16.5t71 36t44 57.5t26.5 79q12 55 21.5 121.5t19.5 117.5z" />
<glyph unicode="~" d="M1096 596q-39 -33 -80 -55q-35 -20 -80 -37t-92 -17q-43 0 -91 15.5t-96 34.5l-90 33q-43 15 -75 16q-35 0 -75 -15.5t-75 -31.5q-41 -20 -84 -45l25 184q39 31 84 53q37 20 85 37.5t95 17.5q43 0 90 -15t93 -33.5t89 -34t80 -15.5q29 0 67 14.5t72 30.5q39 20 82 47z " />
<glyph unicode="&#xa1;" d="M831 752h-208l63 270h209zM563 -412h-209l224 940h196z" />
<glyph unicode="&#xa2;" horiz-adv-x="894" d="M444 70q-90 4 -152.5 29.5t-96 76.5t-38.5 133t23 201q51 225 172 329.5t297 114.5l53 232h166l-55 -238q33 -4 65.5 -6t59.5 -6l59 -8l-45 -170q-51 2 -98 6l-84 4q-43 2 -72 2q-72 0 -125 -13.5t-90 -43t-62.5 -79.5t-41.5 -124q-18 -76 -16 -125t26.5 -79t72.5 -41 t126 -11q29 0 71.5 1t83.5 5q47 2 99 6l-35 -170l-66 -8q-29 -4 -62.5 -7t-66.5 -5l-55 -238h-166z" />
<glyph unicode="&#xa3;" d="M1196 1198q-47 4 -94 10q-41 4 -84 7.5t-78 3.5q-41 0 -71.5 -11.5t-54 -37t-42 -69.5t-33.5 -112l-28 -121h338l-39 -170h-338l-121 -528h295l160 33l-7 -166l-174 -35l-669 -2l39 170h165l121 528h-135l39 170h135l31 131q27 121 70 198t97 120t118.5 59.5t138.5 16.5 q39 0 84 -5l84 -10q45 -8 90 -14z" />
<glyph unicode="&#xa4;" d="M778 188q-102 -53 -205.5 -53t-181.5 53l-180 -145l-102 133l180 146q-33 90 -8.5 193t96.5 194l-111 147l164 133l111 -147q102 53 205.5 53t181.5 -53l182 147l102 -133l-182 -147q35 -90 10.5 -193.5t-98.5 -193.5l113 -146l-164 -133zM485 373q23 -29 56.5 -44.5 t72.5 -15.5t80 15.5t78 44.5q35 29 58.5 66.5t32.5 76.5t3 77t-28 66q-23 29 -56.5 43.5t-72.5 14.5t-80 -14.5t-78 -43.5t-59.5 -66.5t-31.5 -76.5t-3.5 -76.5t28.5 -66.5z" />
<glyph unicode="&#xa5;" horiz-adv-x="1105" d="M281 795h251l-206 557h221l201 -512l434 512h223l-463 -557h248l-39 -166h-342l-18 -39l-23 -98h352l-39 -166h-352l-74 -326h-198l73 326h-358l39 166h358l23 98l-2 39h-348z" />
<glyph unicode="&#xa6;" d="M983 1536l-188 -811h-199l188 811h199zM737 475l-186 -807h-199l187 807h198z" />
<glyph unicode="&#xa7;" d="M1163 1126q-63 6 -121 15q-51 4 -104 9t-90 5q-129 0 -190.5 -39t-82.5 -131q-10 -43 0.5 -69.5t41 -46t82 -34t122.5 -30.5q80 -18 136.5 -39t88 -53.5t39 -81.5t-9.5 -125q-10 -41 -29.5 -82t-42 -78t-45 -67.5t-40.5 -49.5q31 -31 40 -75.5t-12 -133.5 q-43 -186 -161.5 -270t-327.5 -84q-51 0 -113.5 5t-116.5 14q-66 8 -129 20l56 158l122 -15q51 -6 107.5 -10t99.5 -4q117 0 184.5 41t88.5 131q10 43 -0.5 70.5t-41 46t-82.5 32t-128 29.5q-82 18 -139.5 40t-91 56.5t-42 86t8.5 127.5q10 43 33.5 85t51 77.5t54.5 61 t45 38.5q-37 35 -48 85t9 142q41 176 167 259t322 83q53 0 111.5 -6t108.5 -14q57 -8 114 -21zM698 647l-88 20q-43 9 -73 23q-4 -6 -17.5 -22.5t-29 -40t-28.5 -50t-20 -51.5q-10 -41 -6 -68.5t23.5 -46t54.5 -30.5t84 -23q59 -14 105.5 -27.5t80.5 -29.5q6 6 18.5 24.5 t26 43t26.5 53.5t19 57q8 41 2 67.5t-27.5 45t-59.5 31t-91 24.5z" />
<glyph unicode="&#xa8;" horiz-adv-x="505" d="M303 1481h186l-49 -213h-186zM725 1481h184l-49 -213h-184z" />
<glyph unicode="&#xa9;" d="M221 887q27 115 89.5 215t150.5 174t193.5 117t217.5 43q117 0 203 -44t138.5 -119t67.5 -174.5t-9 -209.5q-27 -115 -88.5 -214.5t-147.5 -173t-193.5 -115.5t-224.5 -42q-111 0 -196.5 42t-139 115.5t-70 173t8.5 212.5zM328 889q-23 -90 -9.5 -170t55.5 -139.5 t110.5 -94t158.5 -34.5q92 0 178 33.5t156 93t120 139.5t72 172q20 90 7 171t-55 141.5t-111.5 95t-159.5 34.5t-175 -34.5t-155.5 -95t-121 -141.5t-70.5 -171zM834 590q-20 -4 -46 -8q-23 -4 -50 -6.5t-60 -2.5q-141 0 -178 79t0 243q35 150 109.5 229.5t213.5 79.5 q35 0 61.5 -2t47.5 -4q23 -4 43 -6l-39 -158q-20 2 -43 6q-20 4 -47 6.5t-58 2.5q-61 0 -89.5 -44t-45.5 -110q-16 -70 -6 -118t68 -48q63 0 106 6q25 2 47 6z" />
<glyph unicode="&#xaa;" horiz-adv-x="1060" d="M913 895q4 -25 19.5 -34t46.5 -13l-16 -57q-39 2 -60.5 12t-40.5 33q-41 -14 -84 -23q-37 -10 -82 -16t-88 -6q-63 0 -93 44t-13 119q33 143 190 156l211 14l12 47q16 68 -5 90.5t-76 22.5q-27 0 -63 -2t-71 -6q-39 -4 -82 -6l11 63q43 4 82 8q35 4 72.5 6.5t66.5 2.5 q88 0 118.5 -41t8.5 -140zM688 1053q-53 -4 -80.5 -28t-38.5 -75q-12 -49 4.5 -71.5t55.5 -22.5q35 0 73.5 5t71.5 11q37 8 76 19l41 174z" />
<glyph unicode="&#xab;" horiz-adv-x="1257" d="M467 508l199 -201l-45 -201l-338 324l34 148l482 307l-45 -199zM985 508l197 -201l-45 -201l-336 324l35 148l479 307l-45 -199z" />
<glyph unicode="&#xac;" d="M1135 725l-117 -506h-189l74 318h-665l43 188h854z" />
<glyph unicode="&#xad;" horiz-adv-x="901" d="M289 670h631l-43 -189h-631z" />
<glyph unicode="&#xae;" d="M201 889q27 117 89 219t151 180t200 123t238 45q125 0 217 -45t147 -122t70.5 -180t-10.5 -220q-27 -115 -90.5 -218.5t-154.5 -181t-204 -122.5t-238 -45q-127 0 -217 45t-143 122.5t-67.5 180t12.5 219.5zM303 889q-23 -96 -8.5 -180t59.5 -148.5t118 -101.5t167 -37 t184 37t165 100.5t129 148.5t77 181q23 98 7.5 183t-61.5 147.5t-119 99.5t-167 37q-96 0 -185 -37t-163 -99.5t-127 -147.5t-76 -183zM729 797h-96l-53 -232h-146l150 645h229q123 0 175 -44t28 -154q-18 -78 -50 -123t-94 -74l52 -250h-156zM657 909h101q47 0 74.5 21.5 t39.5 73.5q10 49 -11 70.5t-77 21.5h-84z" />
<glyph unicode="&#xaf;" horiz-adv-x="505" d="M289 1458h620l-39 -168h-620z" />
<glyph unicode="&#xb0;" d="M471 1155q31 133 130 214t233 81q133 0 195.5 -81t31.5 -214t-130.5 -213t-232.5 -80t-195.5 80t-31.5 213zM590 1155q-18 -80 18.5 -129t116.5 -49t141.5 49t79.5 129t-20.5 130t-118.5 50t-139.5 -50t-77.5 -130z" />
<glyph unicode="&#xb1;" d="M254 817h389l59 258h181l-60 -258h398l-41 -178h-398l-59 -254h-180l59 254h-389zM1096 281l-41 -179h-967l41 179h967z" />
<glyph unicode="&#xb2;" horiz-adv-x="542" d="M266 979l33 139l205 158q59 43 92 76.5t43 72.5q8 35 -13.5 47.5t-64.5 12.5q-23 0 -50.5 -2t-55.5 -6l-66 -9l29 150q39 4 78 10q35 4 73.5 7t73.5 3q115 0 153 -45t13 -147q-16 -72 -57 -120t-113 -101l-133 -101h235l-32 -145h-443z" />
<glyph unicode="&#xb3;" horiz-adv-x="542" d="M430 1618q39 4 76 10q33 4 70.5 7t70.5 3q115 0 162 -41t27 -133q-8 -35 -23.5 -60.5t-32 -44t-32 -29.5t-23.5 -15q39 -16 54.5 -48t-1.5 -108q-23 -104 -94.5 -152.5t-177.5 -48.5q-39 0 -79 2.5t-75 6.5q-39 4 -78 10l41 141l68 -8q29 -4 63.5 -6t65.5 -2 q47 0 70.5 17.5t31.5 49.5q10 41 -8 54.5t-57 13.5h-133l30 133h132q27 0 51 18.5t33 49.5q12 57 -70 57q-31 0 -63.5 -2t-61.5 -6q-33 -4 -61 -6z" />
<glyph unicode="&#xb4;" horiz-adv-x="548" d="M860 1552l27 -180l-518 -172l-25 162z" />
<glyph unicode="&#xb5;" d="M377 1024h192l-131 -565q-18 -86 -24 -144.5t6 -94.5t46 -51t95 -15q41 0 88 9t88 21q47 12 90 31l187 807h194l-235 -1022h-195l13 59q-51 -23 -105 -41q-47 -16 -100.5 -28.5t-100.5 -12.5q-102 0 -147 46l-115 -498h-192z" />
<glyph unicode="&#x3bc;" d="M377 1024h192l-131 -565q-18 -86 -24 -144.5t6 -94.5t46 -51t95 -15q41 0 88 9t88 21q47 12 90 31l187 807h194l-235 -1022h-195l13 59q-51 -23 -105 -41q-47 -16 -100.5 -28.5t-100.5 -12.5q-102 0 -147 46l-115 -498h-192z" />
<glyph unicode="&#xb6;" d="M1077 1280h-200l-295 -1280h-170l151 664h-14q-84 0 -147.5 27.5t-102.5 78.5t-50 121t7 156q20 86 65.5 156.5t108 121.5t139 80t160.5 29h676l-35 -154h-123l-295 -1280h-170z" />
<glyph unicode="&#xb7;" horiz-adv-x="507" d="M307 745h211l-63 -270h-211z" />
<glyph unicode="&#xb8;" horiz-adv-x="1705" d="M1094 -260q-25 -104 -90.5 -152.5t-157.5 -48.5q-35 0 -66.5 2t-56.5 6l-55 9l34 118q18 -2 41 -2q18 -2 40 -2h40q88 0 103 70q8 35 -10.5 48t-61.5 13h-74l47 201h93l-23 -94q57 0 100 -7t69 -25.5t33 -51.5t-5 -84z" />
<glyph unicode="&#xb9;" horiz-adv-x="542" d="M635 1618h147l-147 -639h-160l107 463l-144 -84l-49 112z" />
<glyph unicode="&#xba;" horiz-adv-x="1077" d="M842 1350q117 0 158.5 -65.5t7.5 -211.5q-33 -145 -106 -213.5t-189 -68.5q-117 0 -161 68.5t-11 213.5q35 145 109.5 211t191.5 66zM727 856q88 0 136 50t75 167q29 117 2 164t-115 47t-137 -47t-78 -164q-27 -117 1 -167t116 -50z" />
<glyph unicode="&#xbb;" horiz-adv-x="1257" d="M819 686l45 199l342 -307l-35 -148l-485 -324l45 201l293 201zM303 686l45 199l340 -307l-35 -148l-483 -324l45 201l291 201z" />
<glyph unicode="&#xbc;" horiz-adv-x="3256" d="M2910 233h-633l37 164l592 955h219l-577 -928h405l99 424h198l-98 -424h156l-43 -191h-156l-57 -245h-199zM2324 35l-178 -66l-905 1426l178 65zM852 1352h186l-311 -1352h-199l258 1122l-376 -217l-58 158z" />
<glyph unicode="&#xbd;" horiz-adv-x="3256" d="M2284 0l41 182l438 363l141 119q63 55 112.5 106t81 102.5t44.5 106.5q25 111 -31.5 155t-194.5 44q-55 0 -116.5 -6.5t-112.5 -14.5q-59 -8 -117 -18l27 182l133 27q59 10 131 18t144 8q221 0 306 -89t42 -281q-18 -78 -49 -140.5t-79 -122t-115 -120t-155 -132.5 l-362 -299h602l-43 -190h-868zM2324 35l-178 -66l-905 1426l178 65zM852 1352h186l-311 -1352h-199l258 1122l-376 -217l-58 158z" />
<glyph unicode="&#xbe;" horiz-adv-x="3256" d="M2910 233h-633l37 164l592 955h219l-577 -928h405l99 424h198l-98 -424h156l-43 -191h-156l-57 -245h-199zM2324 35l-178 -66l-905 1426l178 65zM424 1325q68 14 137 25q59 10 132 17t141 7q125 0 204.5 -21.5t122.5 -66.5t50.5 -111.5t-13.5 -158.5q-16 -72 -48 -122 t-70 -85t-74 -56l-64 -36q43 -20 78 -44t55.5 -61t24.5 -89t-15 -130q-47 -209 -177 -312.5t-365 -103.5q-78 0 -156 7.5t-141 17.5q-74 10 -142 25l64 180q61 -10 129 -19q57 -8 128 -13t138 -5q266 2 316 217q14 59 3.5 99t-39 64.5t-72.5 35t-95 12.5h-273l41 182h273 q37 0 80 16.5t82 44t68.5 65.5t39.5 83q25 106 -27.5 149.5t-179.5 43.5q-68 0 -135 -5.5t-121 -11.5l-121 -16z" />
<glyph unicode="&#xbf;" horiz-adv-x="790" d="M0 -63q20 88 63 154.5t97.5 117.5t112.5 91l109 77q50 37 87 72.5t47 80.5l19 78h204l-18 -84q-16 -68 -55 -118t-91.5 -92t-109.5 -78.5t-107.5 -77.5t-89.5 -88t-53 -111q-25 -104 15 -149.5t178 -45.5q37 0 92 6.5t106 16.5q59 8 125 23l-18 -189q-72 -16 -140 -29 q-57 -10 -118.5 -19t-102.5 -9q-223 0 -311 83t-41 290zM774 752h-209l64 270h209z" />
<glyph unicode="&#xc0;" horiz-adv-x="1236" d="M750 1421h407l33 -1419h-201l-18 317h-553l-162 -319h-199zM504 510h469l-15 727h-100zM1257 1737l-98 -160l-438 170l108 182z" />
<glyph unicode="&#xc1;" horiz-adv-x="1236" d="M750 1421h407l33 -1419h-201l-18 317h-553l-162 -319h-199zM504 510h469l-15 727h-100zM1280 1962l25 -180l-519 -172l-24 162z" />
<glyph unicode="&#xc2;" horiz-adv-x="1236" d="M750 1421h407l33 -1419h-201l-18 317h-553l-162 -319h-199zM504 510h469l-15 727h-100zM985 1933h156l188 -319h-211l-90 158l-166 -158h-211z" />
<glyph unicode="&#xc3;" horiz-adv-x="1239" d="M61 0l289 593l287 593q49 102 133 167.5t209 65.5h164l31 -1419h-191q-6 80 -11 159t-9 160h-531l-160 -319h-211zM520 506h447q-4 186 -7.5 368.5t-7.5 368.5q-47 0 -80.5 -38t-60.5 -93zM1331 1688q-37 -33 -74 -58q-33 -23 -69.5 -39t-71.5 -16q-37 0 -76 15.5 t-76 33.5l-72 34q-34 15 -58 15q-20 0 -49 -13t-58 -30l-70 -43l-8 148q39 33 78 57q35 23 74 41t73 18q41 0 81 -15t76 -33l68 -33q32 -15 54 -15q16 0 45 12.5t57 28.5q33 18 68 41z" />
<glyph unicode="&#xc4;" horiz-adv-x="1236" d="M750 1421h409l31 -1419h-199l-20 317h-553l-160 -319h-201zM504 510h471l-17 727h-100zM793 1890h186l-49 -213h-187zM1214 1890h187l-49 -213h-187z" />
<glyph unicode="&#xc5;" horiz-adv-x="1236" d="M1235 1507q-18 -84 -78 -139l33 -1366h-201l-18 317h-553l-162 -319h-199l666 1368q-33 57 -14 139q12 55 42.5 98.5t73.5 73t94.5 45t106.5 15.5t99 -15.5t73 -45t39 -73t-2 -98.5zM504 510h469l-15 727h-100zM862 1507q-14 -70 53 -86h76q76 16 90 86q10 43 -12 67.5 t-76 24.5q-51 0 -86 -24.5t-45 -67.5z" />
<glyph unicode="&#xc6;" horiz-adv-x="1839" d="M950 319h-487l-172 -319h-203l760 1421h1231l-45 -190h-678l-94 -412h555l-43 -188h-555l-103 -441h678l-43 -190h-874zM557 510h436l168 721h-217z" />
<glyph unicode="&#xc7;" horiz-adv-x="1099" d="M813 -260q-25 -104 -90.5 -152.5t-157.5 -48.5q-35 0 -66.5 2t-56.5 6l-55 9l35 118q18 -2 41 -2q18 -2 40 -2h40q88 0 102 70q8 35 -10.5 48t-61.5 13h-73l41 181q-135 10 -211 61t-104.5 143.5t-17.5 223.5t50 299q43 186 99.5 324t137 229.5t192.5 136.5t265 45 q68 0 136.5 -8.5t123.5 -18.5q66 -10 123 -24l-47 -179l-129 17q-53 6 -115.5 12t-111.5 6q-106 0 -180 -30.5t-126.5 -95t-90 -168t-70.5 -246.5q-33 -141 -43 -242.5t12.5 -167.5t83 -96.5t170.5 -30.5q45 0 107.5 5t122.5 11q68 8 139 19l-35 -180l-135 -23 q-59 -10 -127 -17t-127 -10l-17 -69q57 0 100.5 -7t69 -25.5t32.5 -51.5t-5 -84z" />
<glyph unicode="&#xc8;" horiz-adv-x="1148" d="M498 1421h874l-45 -190h-678l-98 -426h555l-43 -187h-555l-98 -428h677l-43 -190h-874zM1270 1737l-99 -160l-438 170l109 182z" />
<glyph unicode="&#xc9;" horiz-adv-x="1171" d="M504 1421h874l-45 -190h-678l-98 -426h555l-43 -187h-555l-98 -428h678l-43 -190h-875zM1288 1962l25 -180l-518 -172l-25 162z" />
<glyph unicode="&#xca;" horiz-adv-x="1171" d="M504 1421h874l-45 -190h-678l-98 -426h555l-43 -187h-555l-98 -428h678l-43 -190h-875zM997 1933h156l188 -319h-211l-90 158l-166 -158h-210z" />
<glyph unicode="&#xcb;" horiz-adv-x="1171" d="M504 1421h874l-45 -190h-678l-98 -426h555l-43 -187h-555l-98 -428h678l-43 -190h-875zM762 1890h186l-49 -213h-186zM1184 1890h184l-49 -213h-184z" />
<glyph unicode="&#xcc;" horiz-adv-x="526" d="M492 1421h198l-328 -1421h-198zM881 1737l-99 -160l-438 170l109 182z" />
<glyph unicode="&#xcd;" horiz-adv-x="526" d="M492 1421h198l-328 -1421h-198zM930 1942l26 -181l-518 -172l-24 162z" />
<glyph unicode="&#xce;" horiz-adv-x="526" d="M492 1421h198l-328 -1421h-198zM616 1913h177l204 -285h-221l-104 131l-166 -131h-225z" />
<glyph unicode="&#xcf;" horiz-adv-x="526" d="M492 1421h198l-328 -1421h-198zM389 1876h184l-49 -213h-184zM821 1876h187l-50 -213h-186z" />
<glyph unicode="&#xd0;" horiz-adv-x="1304" d="M225 799h129l144 622h491q164 0 258 -47t135 -136t36 -216t-42 -287q-37 -162 -91 -297t-137 -232t-202 -151.5t-284 -54.5h-492l139 608h-129zM1171 735q27 111 35 202t-14.5 157.5t-80.5 102.5t-167 36h-295l-98 -434h297l-45 -191h-297l-96 -420h295q109 0 185.5 44 t130.5 119t89.5 174t60.5 210z" />
<glyph unicode="&#xd1;" horiz-adv-x="1406" d="M485 1421h336l236 -1179h39l272 1179h201l-328 -1421h-328l-247 1180h-39l-271 -1180h-198zM1442 1757q-39 -33 -76 -57q-33 -23 -71 -39t-72 -16q-37 0 -76 15t-76 34l-71 33q-34 15 -58 16q-20 0 -49 -13.5t-57 -29.5l-70 -43l-8 147q39 33 78 58q35 23 73.5 41 t73.5 18q39 0 79 -15.5t77 -32.5l68 -33q32 -15 55 -15q16 0 44.5 12t57.5 29q33 18 68 41z" />
<glyph unicode="&#xd2;" horiz-adv-x="1343" d="M711 170q111 0 188.5 31.5t132.5 97.5t93 166t69 237q31 131 39 233.5t-15.5 173.5t-85 106.5t-171.5 35.5q-111 0 -189 -35.5t-134 -105.5t-95 -172t-70 -236q-31 -133 -39 -233t16.5 -166.5t87 -99.5t173.5 -33zM666 -23q-164 0 -262.5 46.5t-142.5 138.5t-39 227 t46 313q41 176 99.5 314.5t144.5 234t207 144.5t285 49t262 -49t141 -144.5t39 -232.5t-45 -316q-43 -182 -101.5 -317t-144.5 -226t-204.5 -136.5t-284.5 -45.5zM1319 1737l-98 -160l-439 170l109 182z" />
<glyph unicode="&#xd3;" horiz-adv-x="1343" d="M711 170q111 0 188.5 31.5t132.5 97.5t93 166t69 237q31 131 39 233.5t-15.5 173.5t-85 106.5t-171.5 35.5q-111 0 -189 -35.5t-134 -105.5t-95 -172t-70 -236q-31 -133 -39 -233t16.5 -166.5t87 -99.5t173.5 -33zM666 -23q-164 0 -262.5 46.5t-142.5 138.5t-39 227 t46 313q41 176 99.5 314.5t144.5 234t207 144.5t285 49t262 -49t141 -144.5t39 -232.5t-45 -316q-43 -182 -101.5 -317t-144.5 -226t-204.5 -136.5t-284.5 -45.5zM1309 1962l24 -180l-518 -172l-24 162z" />
<glyph unicode="&#xd4;" horiz-adv-x="1343" d="M711 170q111 0 188.5 31.5t132.5 97.5t93 166t69 237q31 131 39 233.5t-15.5 173.5t-85 106.5t-171.5 35.5q-111 0 -189 -35.5t-134 -105.5t-95 -172t-70 -236q-31 -133 -39 -233t16.5 -166.5t87 -99.5t173.5 -33zM666 -23q-164 0 -262.5 46.5t-142.5 138.5t-39 227 t46 313q41 176 99.5 314.5t144.5 234t207 144.5t285 49t262 -49t141 -144.5t39 -232.5t-45 -316q-43 -182 -101.5 -317t-144.5 -226t-204.5 -136.5t-284.5 -45.5zM1034 1933h156l188 -319h-211l-90 158l-166 -158h-211z" />
<glyph unicode="&#xd5;" horiz-adv-x="1329" d="M702 170q111 0 189 31.5t133 97.5t93 166t69 237q31 131 39 233.5t-15.5 173.5t-85 106.5t-172.5 35.5t-188.5 -35.5t-134 -105.5t-95 -172t-69.5 -236q-31 -133 -39 -233t16.5 -166.5t86.5 -99.5t173 -33zM657 -23q-164 0 -262 46.5t-142 138.5t-39 227t46 313 q41 176 99.5 314.5t144.5 234t206.5 144.5t284.5 49t262.5 -49t141.5 -144.5t39 -232.5t-45 -316q-43 -182 -101.5 -317t-144.5 -226t-205 -136.5t-285 -45.5zM1419 1647q-37 -33 -73 -58q-33 -23 -70 -39t-72 -16q-37 0 -75.5 15.5t-76.5 33.5l-72 34q-34 15 -58 15 q-20 0 -49 -13t-58 -30l-70 -43l-8 148q39 33 78 57q35 23 74 41t74 18q41 0 80.5 -15t75.5 -33l68 -32q32 -15 54 -16q16 0 45 12.5t57 28.5q33 18 68 41z" />
<glyph unicode="&#xd6;" horiz-adv-x="1343" d="M711 170q111 0 188.5 31.5t132.5 97.5t93 166t69 237q31 131 39 233.5t-16.5 173.5t-86 106.5t-169.5 35.5q-111 0 -189 -35.5t-134 -105.5t-95 -172t-70 -236q-31 -133 -39 -233t16.5 -166.5t87 -99.5t173.5 -33zM666 -23q-166 0 -264.5 46.5t-141.5 138.5t-38 227 t46 313q41 176 99.5 314.5t144.5 234t207 144.5t285 49t262 -49t141 -144.5t38 -232.5t-46 -316q-43 -182 -100.5 -317t-143.5 -226t-205.5 -136.5t-283.5 -45.5zM797 1890h186l-49 -213h-186zM1217 1890h186l-49 -213h-187z" />
<glyph unicode="&#xd7;" horiz-adv-x="1333" d="M1022 696l463 385l100 -127l-465 -383l289 -387l-158 -125l-288 383l-463 -383l-99 125l467 387l-288 383l157 127z" />
<glyph unicode="&#xd8;" horiz-adv-x="1329" d="M657 -23q-61 0 -113 7.5t-95 19.5l-179 -254l-157 78l186 266q-80 88 -85 239.5t46 368.5q41 176 99.5 314.5t144.5 234t206.5 144.5t284.5 49q66 0 121 -8.5t103 -24.5l165 238l166 -68l-190 -270q74 -92 77 -245t-44 -364q-43 -182 -101.5 -317t-144.5 -226 t-205 -136.5t-285 -45.5zM465 702q-33 -135 -41 -236t18 -167l650 930q-57 23 -140 22q-111 0 -188.5 -35.5t-134 -105.5t-95 -172.5t-69.5 -235.5zM702 170q111 0 189 31.5t133 97.5t93 166t69 237q29 127 38 225.5t-14 170.5l-637 -914q51 -14 129 -14z" />
<glyph unicode="&#xd9;" horiz-adv-x="1310" d="M446 442q-16 -76 -5.5 -127t42 -81.5t85 -44t122.5 -13.5q72 0 132.5 13.5t108.5 44t82 82t50 126.5l227 979h201l-227 -979q-29 -125 -82.5 -212t-131 -142t-179 -80.5t-226.5 -25.5q-121 0 -209 25.5t-139 80.5t-64.5 142t15.5 212l227 979h199zM1120 1737l-98 -160 l-438 170l108 182z" />
<glyph unicode="&#xda;" horiz-adv-x="1314" d="M453 442q-16 -76 -6 -127t41.5 -81.5t85 -44t122.5 -13.5q72 0 132.5 13.5t108.5 44t82 82t50 126.5l227 979h201l-227 -979q-29 -125 -82 -212t-131 -142t-179.5 -80.5t-226.5 -25.5q-121 0 -209 25.5t-139 80.5t-64.5 142t15.5 212l227 979h199zM1300 1962l25 -180 l-518 -172l-25 162z" />
<glyph unicode="&#xdb;" horiz-adv-x="1314" d="M453 442q-16 -76 -6 -127t41.5 -81.5t85 -44t122.5 -13.5q72 0 132.5 13.5t108.5 44t82 82t50 126.5l227 979h201l-227 -979q-29 -125 -82 -212t-131 -142t-179.5 -80.5t-226.5 -25.5q-121 0 -209 25.5t-139 80.5t-64.5 142t15.5 212l227 979h199zM1026 1933h156 l188 -319h-211l-90 158l-166 -158h-211z" />
<glyph unicode="&#xdc;" horiz-adv-x="1314" d="M453 442q-16 -76 -6 -127t41.5 -81.5t85 -44t122.5 -13.5q72 0 132.5 13.5t108.5 44t82 82t50 126.5l227 979h201l-227 -979q-29 -125 -82 -212t-131 -142t-179.5 -80.5t-226.5 -25.5q-121 0 -209 25.5t-139 80.5t-64.5 142t15.5 212l227 979h199zM838 1890h186l-49 -213 h-187zM1260 1890h184l-49 -213h-185z" />
<glyph unicode="&#xdd;" horiz-adv-x="1105" d="M655 0h-198l139 608l-254 813h221l182 -590l453 590h223l-626 -813zM1171 1962l25 -180l-518 -172l-25 162z" />
<glyph unicode="&#xde;" horiz-adv-x="1155" d="M723 424q139 0 222 83t116 228q35 141 -13.5 209t-187.5 68h-315l-137 -588h315zM365 231l-54 -231h-200l327 1421h201l-51 -221h315q238 0 328 -113.5t35 -351.5q-53 -238 -200.5 -371t-385.5 -133h-315z" />
<glyph unicode="&#xdf;" horiz-adv-x="1253" d="M166 0l254 1102q25 104 66.5 177t104 117t146.5 63.5t193 19.5q225 0 308 -70t44 -231q-25 -109 -80 -168.5t-147 -94.5q-43 -16 -71 -28.5t-45 -22.5t-25.5 -20t-10.5 -25q-4 -14 -1 -25.5t18.5 -26.5t47 -35.5t87.5 -53.5q61 -37 104 -66.5t67.5 -60.5t32 -66.5 t-5.5 -85.5q-29 -117 -70.5 -196.5t-109 -128.5t-166 -70.5t-239.5 -21.5q-29 0 -64 5t-65 11l-72 16l45 156q47 -2 86 -4q35 -2 66.5 -3t46.5 -1q86 0 144 12t97 38t60.5 66.5t34.5 96.5q4 16 -1.5 31.5t-23.5 34t-54 42t-96 54.5q-63 35 -102 64.5t-58.5 59t-21.5 63.5 t8 77q18 84 70.5 131t144.5 82q47 18 77 35.5t48.5 36t26.5 38t14 41.5q18 78 -27.5 106.5t-162.5 28.5q-111 0 -181.5 -43t-99.5 -170l-250 -1087h-192z" />
<glyph unicode="&#xe0;" horiz-adv-x="1073" d="M1130 1044l-94 -401l-94 -403q0 -45 27.5 -67.5t74.5 -31.5q-10 -41 -23 -81l-26 -80q-199 6 -233 106q-51 -41 -131 -73.5t-174 -32.5q-74 0 -125 22.5t-85 63t-49.5 97t-15.5 124.5q0 137 38 272t113 242.5t184.5 174t254.5 66.5q53 0 104 -9l85 -15zM473 145 q43 0 88 15.5t86 39t74 48t49 43.5l28 126q13 62 29 128l72 309l-45 6l-49 9q-27 5 -51 3q-96 0 -169 -53t-123 -136t-76 -187.5t-26 -204.5q0 -57 28 -101.5t85 -44.5zM1004 1360l-93 -152l-440 172l102 172z" />
<glyph unicode="&#xe1;" horiz-adv-x="1073" d="M1130 1044l-94 -401l-94 -403q0 -45 27.5 -67.5t74.5 -31.5q-10 -41 -23 -81l-26 -80q-199 6 -233 106q-51 -41 -131 -73.5t-174 -32.5q-74 0 -125 22.5t-85 63t-49.5 97t-15.5 124.5q0 137 38 272t113 242.5t184.5 174t254.5 66.5q53 0 104 -9l85 -15zM473 145 q43 0 88 15.5t86 39t74 48t49 43.5l28 126q13 62 29 128l72 309l-45 6l-49 9q-27 5 -51 3q-96 0 -169 -53t-123 -136t-76 -187.5t-26 -204.5q0 -57 28 -101.5t85 -44.5zM1241 1552l27 -180l-518 -172l-25 162z" />
<glyph unicode="&#xe2;" horiz-adv-x="1073" d="M1130 1044l-94 -401l-94 -403q0 -45 27.5 -67.5t74.5 -31.5q-10 -41 -23 -81l-26 -80q-199 6 -233 106q-51 -41 -131 -73.5t-174 -32.5q-74 0 -125 22.5t-85 63t-49.5 97t-15.5 124.5q0 137 38 272t113 242.5t184.5 174t254.5 66.5q53 0 104 -9l85 -15zM473 145 q43 0 88 15.5t86 39t74 48t49 43.5l28 126q13 62 29 128l72 309l-45 6l-49 9q-27 5 -51 3q-96 0 -169 -53t-123 -136t-76 -187.5t-26 -204.5q0 -57 28 -101.5t85 -44.5zM809 1524h156l188 -320h-211l-90 158l-166 -158h-211z" />
<glyph unicode="&#xe3;" horiz-adv-x="1073" d="M1130 1044l-94 -401l-94 -403q0 -45 27.5 -67.5t74.5 -31.5q-10 -41 -23 -81l-26 -80q-199 6 -233 106q-51 -41 -131 -73.5t-174 -32.5q-74 0 -125 22.5t-85 63t-49.5 97t-15.5 124.5q0 137 38 272t113 242.5t184.5 174t254.5 66.5q53 0 104 -9l85 -15zM473 145 q43 0 88 15.5t86 39t74 48t49 43.5l28 126q13 62 29 128l72 309l-45 6l-49 9q-27 5 -51 3q-96 0 -169 -53t-123 -136t-76 -187.5t-26 -204.5q0 -57 28 -101.5t85 -44.5zM1204 1348q-37 -33 -74 -58q-33 -23 -69.5 -39t-71.5 -16q-37 0 -76 15.5t-76 33.5l-72 34 q-34 15 -58 15q-20 0 -49 -13t-58 -30l-70 -43l-8 148q39 33 78 57q35 23 74 41t74 18q41 0 80.5 -15t75.5 -33l68 -32q32 -15 54 -16q16 0 45 12.5t57 28.5q33 18 68 41z" />
<glyph unicode="&#xe4;" horiz-adv-x="1073" d="M1130 1044l-94 -401l-94 -403q0 -45 27.5 -67.5t74.5 -31.5q-10 -41 -23 -81l-26 -80q-199 6 -233 106q-51 -41 -131 -73.5t-174 -32.5q-74 0 -125 22.5t-85 63t-49.5 97t-15.5 124.5q0 137 38 272t113 242.5t184.5 174t254.5 66.5q53 0 104 -9l85 -15zM473 145 q43 0 88 15.5t86 39t74 48t49 43.5l28 126q13 62 29 128l72 309l-45 6l-49 9q-27 5 -51 3q-96 0 -169 -53t-123 -136t-76 -187.5t-26 -204.5q0 -57 28 -101.5t85 -44.5zM547 1481h186l-49 -213h-186zM969 1481h184l-49 -213h-184z" />
<glyph unicode="&#xe5;" horiz-adv-x="1073" d="M1130 1044l-94 -401l-94 -403q0 -45 27.5 -67.5t74.5 -31.5q-10 -41 -23 -81l-26 -80q-199 6 -233 106q-51 -41 -131 -73.5t-174 -32.5q-74 0 -125 22.5t-85 63t-49.5 97t-15.5 124.5q0 137 38 272t113 242.5t184.5 174t254.5 66.5q53 0 104 -9l85 -15zM473 145 q43 0 88 15.5t86 39t74 48t49 43.5l28 126q13 62 29 128l72 309l-45 6l-49 9q-27 5 -51 3q-96 0 -169 -53t-123 -136t-76 -187.5t-26 -204.5q0 -57 28 -101.5t85 -44.5zM670 1386q10 45 36.5 86t63.5 71t82 47.5t92 17.5q45 0 82 -17.5t59.5 -47.5t30.5 -70.5t-2 -86.5 q-10 -47 -36.5 -88t-63.5 -70.5t-82 -46t-90 -16.5q-96 0 -145.5 62.5t-26.5 158.5zM805 1386q-10 -39 10.5 -64.5t58.5 -25.5q35 0 66 26t41 64q8 37 -11.5 63t-54.5 26q-39 0 -70.5 -26t-39.5 -63z" />
<glyph unicode="&#xe6;" horiz-adv-x="1695" d="M1200 156q59 0 126 2t124 6q68 4 131 10l-31 -154q-72 -14 -143 -22q-61 -8 -135 -14.5t-139 -6.5q-104 0 -173 27t-108 80l-66 -27q-16 -6 -55 -19t-92 -26.5t-117.5 -24t-132.5 -10.5q-141 0 -194.5 84t-18.5 238q20 86 56 142.5t90.5 91t127 52t164.5 25.5l256 21 l17 74q18 78 -14.5 116.5t-104.5 38.5q-57 0 -126 -3t-128 -7q-70 -6 -141 -10l30 170l150 16q63 6 136 12t132 6q98 0 159.5 -29.5t84.5 -92.5q70 66 154 94t180 28q211 0 290.5 -112.5t22.5 -360.5l-45 -141h-651q-31 -139 8 -206.5t176 -67.5zM463 145q47 0 102.5 8.5 t104.5 19.5t83.5 20.5l41.5 11.5q-4 59 7 126.5t29 147.5l-266 -20q-80 -6 -127 -42t-63 -114q-37 -158 88 -158zM1522 582q37 160 -1 225t-161 65t-199 -68.5t-110 -221.5h471z" />
<glyph unicode="&#xe7;" horiz-adv-x="892" d="M846 152q-23 -27 -57.5 -52.5t-75.5 -47t-86 -38t-88 -24.5l-21 -82q57 0 100.5 -7t69 -25.5t32.5 -51.5t-5 -84q-25 -104 -90.5 -152.5t-157.5 -48.5q-35 0 -66.5 2t-56.5 6l-55 9l35 118q18 -2 41 -2q18 -2 39 -2h40q88 0 103 70q8 35 -10.5 48t-61.5 13h-74l43 179 q-70 2 -119 25.5t-80.5 64.5t-47 97t-15.5 122q0 135 39 270t114 242.5t185.5 175t255.5 67.5q66 0 134.5 -13t119.5 -32l-43 -161q-12 6 -38.5 12t-60.5 11t-69 8t-61 3q-96 0 -169 -52t-123 -136t-75.5 -187.5t-25.5 -203.5q0 -57 27.5 -101.5t82.5 -44.5q43 0 90 16.5 t91 40t79 50.5t53 45z" />
<glyph unicode="&#xe8;" horiz-adv-x="1038" d="M541 150q55 0 116.5 21.5t115.5 49t95 53t54 35.5l41 -157q-18 -23 -63.5 -52.5t-108 -56.5t-135 -45t-146.5 -18q-172 0 -244.5 82.5t-72.5 232.5q0 188 57 328.5t143 233.5t187.5 139t189.5 46q74 0 129 -20.5t93 -55t56.5 -81.5t18.5 -103q0 -66 -28.5 -131 t-90.5 -131q-59 -66 -138 -104.5t-161 -61t-154.5 -31t-119.5 -10.5q-8 -33 1 -62.5t30.5 -52t56.5 -35.5t78 -13zM745 874q-47 0 -99 -25.5t-100 -74.5t-87 -121.5t-58 -167.5q68 2 153 19.5t159.5 52.5t125 89t50.5 132q0 47 -38 71.5t-106 24.5zM944 1337l-92 -151 l-440 172l102 172z" />
<glyph unicode="&#xe9;" horiz-adv-x="1038" d="M541 150q55 0 116.5 21.5t115.5 49t95 53t54 35.5l41 -157q-18 -23 -63.5 -52.5t-108 -56.5t-135 -45t-146.5 -18q-172 0 -244.5 82.5t-72.5 232.5q0 188 57 328.5t143 233.5t187.5 139t189.5 46q74 0 129 -20.5t93 -55t56.5 -81.5t18.5 -103q0 -66 -28.5 -131 t-90.5 -131q-59 -66 -138 -104.5t-161 -61t-154.5 -31t-119.5 -10.5q-8 -33 1 -62.5t30.5 -52t56.5 -35.5t78 -13zM745 874q-47 0 -99 -25.5t-100 -74.5t-87 -121.5t-58 -167.5q68 2 153 19.5t159.5 52.5t125 89t50.5 132q0 47 -38 71.5t-106 24.5zM1255 1520l27 -181 l-518 -172l-25 162z" />
<glyph unicode="&#xea;" horiz-adv-x="1038" d="M541 150q55 0 116.5 21.5t115.5 49t95 53t54 35.5l41 -157q-18 -23 -63.5 -52.5t-108 -56.5t-135 -45t-146.5 -18q-172 0 -244.5 82.5t-72.5 232.5q0 188 57 328.5t143 233.5t187.5 139t189.5 46q74 0 129 -20.5t93 -55t56.5 -81.5t18.5 -103q0 -66 -28.5 -131 t-90.5 -131q-59 -66 -138 -104.5t-161 -61t-154.5 -31t-119.5 -10.5q-8 -33 1 -62.5t30.5 -52t56.5 -35.5t78 -13zM745 874q-47 0 -99 -25.5t-100 -74.5t-87 -121.5t-58 -167.5q68 2 153 19.5t159.5 52.5t125 89t50.5 132q0 47 -38 71.5t-106 24.5zM801 1507h155l189 -319 h-211l-90 158l-166 -158h-211z" />
<glyph unicode="&#xeb;" horiz-adv-x="1038" d="M541 150q55 0 116.5 21.5t115.5 49t95 53t54 35.5l41 -157q-18 -23 -63.5 -52.5t-108 -56.5t-135 -45t-146.5 -18q-172 0 -244.5 82.5t-72.5 232.5q0 188 57 328.5t143 233.5t187.5 139t189.5 46q74 0 129 -20.5t93 -55t56.5 -81.5t18.5 -103q0 -66 -28.5 -131 t-90.5 -131q-59 -66 -138 -104.5t-161 -61t-154.5 -31t-119.5 -10.5q-8 -33 1 -62.5t30.5 -52t56.5 -35.5t78 -13zM745 874q-47 0 -99 -25.5t-100 -74.5t-87 -121.5t-58 -167.5q68 2 153 19.5t159.5 52.5t125 89t50.5 132q0 47 -38 71.5t-106 24.5zM569 1454h187l-49 -213 h-187zM991 1454h185l-50 -213h-184z" />
<glyph unicode="&#xec;" horiz-adv-x="534" d="M410 1022h194l-235 -1022h-195zM838 1360l-93 -152l-440 172l103 172z" />
<glyph unicode="&#xed;" horiz-adv-x="534" d="M874 1552l27 -180l-518 -172l-25 162zM410 1022h194l-235 -1022h-195z" />
<glyph unicode="&#xee;" horiz-adv-x="542" d="M410 1022h194l-235 -1022h-195zM535 1524h155l189 -320h-211l-90 158l-166 -158h-211z" />
<glyph unicode="&#xef;" horiz-adv-x="534" d="M299 1481h186l-49 -213h-186zM721 1481h186l-49 -213h-186zM410 1022h194l-235 -1022h-195z" />
<glyph unicode="&#xf0;" d="M498 1145l166 104q-43 14 -91.5 26.5t-101.5 24.5l72 166q186 -31 325 -86l236 148l55 -115l-160 -100q141 -92 190.5 -235.5t-1.5 -360.5q-45 -195 -104.5 -334t-139.5 -228t-182.5 -131t-233.5 -42q-223 0 -315 122.5t-37 358.5q23 96 72 175t117.5 134t155.5 85 t186 30q55 0 109 -10.5t95 -22.5q49 -14 95 -33q18 121 -23 211t-174 160l-254 -162zM680 715q-57 0 -106.5 -19.5t-87 -54.5t-64.5 -81t-39 -97q-33 -141 11 -221t177 -80q74 0 132.5 25.5t106.5 84t87 151.5t70 226q-41 18 -88 33q-41 12 -92.5 22.5t-106.5 10.5z" />
<glyph unicode="&#xf1;" horiz-adv-x="1175" d="M178 0l236 1022h192l-14 -59q53 23 108 41q47 16 102.5 28t102.5 12q106 0 168 -29.5t87.5 -92t18 -158.5t-37.5 -229l-123 -535h-195l123 532q20 86 27.5 149.5t-4 103.5t-44 59.5t-94.5 19.5q-43 0 -92 -10t-90 -20q-49 -14 -94 -31l-184 -803h-193zM1255 1348 q-37 -33 -73 -58q-33 -23 -71 -39t-73 -16q-37 0 -75.5 15.5t-75.5 33.5l-71 34q-34 15 -58 15q-20 0 -49 -13t-58 -30l-69 -43l-9 148q39 33 78 57q35 23 74 41t74 18q39 0 79 -15t76 -33l69 -32q32 -15 54 -16q16 0 45 12.5t58 28.5q33 18 67 41z" />
<glyph unicode="&#xf2;" horiz-adv-x="1081" d="M782 1044q121 0 198 -34.5t116 -101t40 -164t-28 -224.5q-31 -129 -75 -230.5t-110.5 -170t-160.5 -105.5t-225 -37t-210 35t-115 104.5t-34 170t33 233.5q31 129 76 226.5t113.5 164t161.5 100t220 33.5zM578 154q80 0 134 22.5t91 68.5t62.5 114.5t45.5 160.5 q43 184 6.5 267t-174.5 83q-74 0 -127 -19.5t-92 -61t-66.5 -108.5t-49.5 -161q-23 -96 -28 -164.5t12.5 -113.5t61.5 -66.5t124 -21.5zM1122 1360l-92 -152l-440 172l102 172z" />
<glyph unicode="&#xf3;" horiz-adv-x="1081" d="M782 1044q121 0 198 -34.5t116 -101t40 -164t-28 -224.5q-31 -129 -75 -230.5t-110.5 -170t-160.5 -105.5t-225 -37t-210 35t-115 104.5t-34 170t33 233.5q31 129 76 226.5t113.5 164t161.5 100t220 33.5zM578 154q80 0 134 22.5t91 68.5t62.5 114.5t45.5 160.5 q43 184 6.5 267t-174.5 83q-74 0 -127 -19.5t-92 -61t-66.5 -108.5t-49.5 -161q-23 -96 -28 -164.5t12.5 -113.5t61.5 -66.5t124 -21.5zM1092 1552l26 -180l-518 -172l-25 162z" />
<glyph unicode="&#xf4;" horiz-adv-x="1081" d="M782 1044q121 0 198 -34.5t116 -101t40 -164t-28 -224.5q-31 -129 -75 -230.5t-110.5 -170t-160.5 -105.5t-225 -37t-210 35t-115 104.5t-34 170t33 233.5q31 129 76 226.5t113.5 164t161.5 100t220 33.5zM578 154q80 0 134 22.5t91 68.5t62.5 114.5t45.5 160.5 q43 184 6.5 267t-174.5 83q-74 0 -127 -19.5t-92 -61t-66.5 -108.5t-49.5 -161q-23 -96 -28 -164.5t12.5 -113.5t61.5 -66.5t124 -21.5zM805 1524h156l188 -320h-211l-90 158l-166 -158h-211z" />
<glyph unicode="&#xf5;" horiz-adv-x="1081" d="M782 1044q121 0 198 -34.5t116 -101t40 -164t-28 -224.5q-31 -129 -75 -230.5t-110.5 -170t-160.5 -105.5t-225 -37t-210 35t-115 104.5t-34 170t33 233.5q31 129 76 226.5t113.5 164t161.5 100t220 33.5zM578 154q80 0 134 22.5t91 68.5t62.5 114.5t45.5 160.5 q43 184 6.5 267t-174.5 83q-74 0 -127 -19.5t-92 -61t-66.5 -108.5t-49.5 -161q-23 -96 -28 -164.5t12.5 -113.5t61.5 -66.5t124 -21.5zM1192 1348q-37 -33 -74 -58q-33 -23 -70.5 -39t-72.5 -16q-37 0 -76 15.5t-76 33.5l-70 34q-34 15 -59 15q-20 0 -49 -13t-57 -30 l-70 -43l-8 148q39 33 78 57q35 23 73.5 41t73.5 18q39 0 79 -15t77 -33l68 -32q32 -15 55 -16q16 0 44.5 12.5t57.5 28.5q33 18 68 41z" />
<glyph unicode="&#xf6;" horiz-adv-x="1081" d="M782 1044q121 0 198 -34.5t116 -101t40 -164t-28 -224.5q-31 -129 -75 -230.5t-110.5 -170t-160.5 -105.5t-225 -37t-210 35t-115 104.5t-34 170t33 233.5q31 129 76 226.5t113.5 164t161.5 100t220 33.5zM578 154q80 0 134 22.5t91 68.5t62.5 114.5t45.5 160.5 q43 184 6.5 267t-174.5 83q-74 0 -127 -19.5t-92 -61t-66.5 -108.5t-49.5 -161q-23 -96 -28 -164.5t12.5 -113.5t61.5 -66.5t124 -21.5zM573 1481h185l-49 -213h-185zM993 1481h187l-50 -213h-186z" />
<glyph unicode="&#xf7;" d="M686 1065h197l-54 -227h-196zM258 684h875l-48 -197h-874zM516 334h197l-54 -230h-196z" />
<glyph unicode="&#xf8;" horiz-adv-x="1081" d="M782 1044q37 0 72 -3t64 -11l133 211l112 -45l-135 -213q86 -59 103.5 -176t-23.5 -287q-31 -129 -75 -230.5t-110.5 -170t-160.5 -105.5t-225 -37q-41 0 -77 4.5t-67 10.5l-139 -217l-113 45l142 217q-90 61 -101.5 182t29.5 301q31 129 76 226.5t113.5 164t161.5 100 t220 33.5zM578 154q80 0 134 22.5t91 68.5t62.5 114.5t45.5 160.5q23 100 24 170t-28 113l-409 -643q33 -6 80 -6zM743 870q-74 0 -127 -19.5t-92 -61t-66.5 -108.5t-49.5 -161q-25 -111 -29 -185.5t27 -119.5l407 647q-27 8 -70 8z" />
<glyph unicode="&#xf9;" horiz-adv-x="1144" d="M1083 1360l-110 -172l-430 182l112 180zM1217 1022l-236 -1022h-195l13 59q-51 -23 -105 -41q-47 -16 -100 -28.5t-100 -12.5q-109 0 -171.5 28t-86 89.5t-15.5 158.5t41 236l123 533h195l-123 -530q-23 -94 -32 -159t2 -105t44 -57t98 -17q43 0 89.5 9t86.5 21 q45 12 91 31l186 807h195z" />
<glyph unicode="&#xfa;" horiz-adv-x="1144" d="M1217 1022l-236 -1022h-195l13 59q-51 -23 -105 -41q-47 -16 -100 -28.5t-100 -12.5q-109 0 -171.5 28t-86 89.5t-15.5 158.5t41 236l123 533h195l-123 -530q-23 -94 -32 -159t2 -105t44 -57t98 -17q43 0 89.5 9t86.5 21q45 12 91 31l186 807h195zM1120 1552l27 -180 l-518 -172l-25 162z" />
<glyph unicode="&#xfb;" horiz-adv-x="1144" d="M1217 1022l-236 -1022h-195l13 59q-51 -23 -105 -41q-47 -16 -100 -28.5t-100 -12.5q-109 0 -171.5 28t-86 89.5t-15.5 158.5t41 236l123 533h195l-123 -530q-23 -94 -32 -159t2 -105t44 -57t98 -17q43 0 89.5 9t86.5 21q45 12 91 31l186 807h195zM807 1524h156l188 -320 h-211l-90 158l-166 -158h-211z" />
<glyph unicode="&#xfc;" horiz-adv-x="1144" d="M1217 1022l-236 -1022h-195l13 59q-51 -23 -105 -41q-47 -16 -100 -28.5t-100 -12.5q-109 0 -171.5 28t-86 89.5t-15.5 158.5t41 236l123 533h195l-123 -530q-23 -94 -32 -159t2 -105t44 -57t98 -17q43 0 89.5 9t86.5 21q45 12 91 31l186 807h195zM614 1481h187l-49 -213 h-187zM1036 1481h185l-50 -213h-184z" />
<glyph unicode="&#xfd;" horiz-adv-x="983" d="M453 1022l39 -836h61l426 836h192l-741 -1466h-192l225 444h-160l-43 1022h193zM1085 1552l27 -180l-518 -172l-25 162z" />
<glyph unicode="&#xfe;" horiz-adv-x="1101" d="M600 154q94 0 156.5 21.5t105.5 66.5t71 115.5t50 168.5q43 184 12.5 262t-147.5 78q-43 0 -88 -7t-84 -15q-45 -8 -88 -21l-152 -659q33 -4 64 -6q27 -2 54.5 -3t45.5 -1zM911 1044q104 0 171 -27.5t99.5 -90t31.5 -160.5t-33 -240q-37 -156 -86.5 -261t-121 -168.5 t-173 -91.5t-238.5 -28q-39 0 -82 3.5t-84 5.5l-100 -432h-195l441 1904h194l-110 -475q47 16 96 31q41 10 92 20t98 10z" />
<glyph unicode="&#xff;" horiz-adv-x="989" d="M465 1022l27 -719q4 -61 19 -88t42 -31l422 838h203l-508 -1012q-49 -100 -98.5 -169.5t-115 -124t-154.5 -101.5t-218 -100l-6 182q92 41 152.5 70.5t102.5 60.5t71.5 71t60.5 101q-29 6 -55.5 24.5t-48 47t-35 67.5t-13.5 82l-30 801h182zM508 1481h186l-49 -213h-186z M930 1481h184l-49 -213h-184z" />
<glyph unicode="&#x152;" horiz-adv-x="1933" d="M938 0q-66 -10 -145.5 -16.5t-137.5 -6.5q-164 0 -257 46.5t-132 137.5t-30.5 227t49.5 319q43 190 101 329.5t142 229.5t198 134t267 44q29 0 64 -2t71.5 -5t70.5 -7.5l63 -8.5h866l-45 -192h-670l-94 -410h547l-45 -190h-547l-100 -436h669l-43 -193h-862zM731 172 q16 0 47 2t66 4t70.5 5t62.5 5l240 1043q-27 2 -61 5l-69 6q-35 3 -65.5 5t-48.5 2q-106 0 -182 -29.5t-131.5 -94t-95.5 -167t-75 -249.5q-33 -143 -42 -246t16.5 -167.5t89 -94t178.5 -29.5z" />
<glyph unicode="&#x153;" horiz-adv-x="1794" d="M1300 156q59 0 126 2t124 6q68 4 131 10l-30 -154q-72 -14 -144 -22q-61 -8 -135 -14.5t-139 -6.5q-121 0 -190.5 38t-100.5 110q-66 -74 -157 -111t-220 -37q-131 0 -210 35t-114.5 104.5t-33.5 170t33 233.5q31 129 75.5 226.5t113.5 164t162 100t220 33.5 q250 0 313 -163q74 88 168 125.5t205 37.5q213 0 293 -112.5t22 -360.5l-45 -141h-651q-33 -139 6 -206.5t178 -67.5zM606 154q80 0 134.5 22.5t91 68.5t62.5 114.5t46 160.5q43 184 6 267t-174 83q-74 0 -127 -19.5t-92 -61t-66.5 -108.5t-50.5 -161q-23 -96 -28 -164.5 t12.5 -113.5t61.5 -66.5t124 -21.5zM1622 582q37 160 -2 225t-162 65q-121 0 -197.5 -68.5t-111.5 -221.5h473z" />
<glyph unicode="&#x178;" horiz-adv-x="1144" d="M674 0h-199l139 608l-254 813h222l182 -590l453 590h223l-627 -813zM696 1876h185l-50 -213h-184zM1128 1876h187l-49 -213h-187z" />
<glyph unicode="&#x2c6;" horiz-adv-x="505" d="M547 1524h155l189 -320h-211l-90 158l-166 -158h-211z" />
<glyph unicode="&#x2dc;" horiz-adv-x="505" d="M932 1348q-37 -33 -74 -58q-33 -23 -69.5 -39t-71.5 -16q-37 0 -76 15.5t-77 33.5l-71 34q-34 15 -59 15q-20 0 -49 -13t-57 -30l-70 -43l-8 148q39 33 78 57q35 23 73.5 41t73.5 18q41 0 81 -15t76 -33l67 -32q32 -15 55 -16q16 0 44.5 12.5t57.5 28.5q33 18 68 41z" />
<glyph unicode="&#x2000;" horiz-adv-x="980" />
<glyph unicode="&#x2001;" horiz-adv-x="1961" />
<glyph unicode="&#x2002;" horiz-adv-x="980" />
<glyph unicode="&#x2003;" horiz-adv-x="1961" />
<glyph unicode="&#x2004;" horiz-adv-x="653" />
<glyph unicode="&#x2005;" horiz-adv-x="489" />
<glyph unicode="&#x2006;" horiz-adv-x="325" />
<glyph unicode="&#x2007;" horiz-adv-x="325" />
<glyph unicode="&#x2008;" horiz-adv-x="243" />
<glyph unicode="&#x2009;" horiz-adv-x="391" />
<glyph unicode="&#x200a;" horiz-adv-x="108" />
<glyph unicode="&#x2010;" horiz-adv-x="901" d="M289 670h631l-43 -189h-631z" />
<glyph unicode="&#x2011;" horiz-adv-x="901" d="M289 670h631l-43 -189h-631z" />
<glyph unicode="&#x2012;" horiz-adv-x="901" d="M289 670h631l-43 -189h-631z" />
<glyph unicode="&#x2013;" horiz-adv-x="1024" d="M1171 645l-41 -176h-1024l41 176h1024z" />
<glyph unicode="&#x2014;" horiz-adv-x="2048" d="M2195 645l-41 -176h-2048l41 176h2048z" />
<glyph unicode="&#x2018;" horiz-adv-x="348" d="M434 1014h-201l218 467h184z" />
<glyph unicode="&#x2019;" horiz-adv-x="348" d="M483 1483h201l-219 -467h-184z" />
<glyph unicode="&#x201a;" horiz-adv-x="413" d="M180 -229h-198l215 467h184z" />
<glyph unicode="&#x201c;" horiz-adv-x="880" d="M920 1014h-201l217 467h184zM590 1014h-201l217 467h185z" />
<glyph unicode="&#x201d;" horiz-adv-x="890" d="M590 1483h201l-220 -467h-184zM920 1483h200l-219 -467h-184z" />
<glyph unicode="&#x201e;" horiz-adv-x="817" d="M575 -229h-200l217 467h184zM180 -229h-198l215 467h184z" />
<glyph unicode="&#x2022;" d="M475 795h500l-133 -582h-500z" />
<glyph unicode="&#x2026;" horiz-adv-x="1523" d="M215 270h211l-61 -270h-211zM737 270h209l-61 -270h-209zM1257 270h211l-61 -270h-211z" />
<glyph unicode="&#x202f;" horiz-adv-x="391" />
<glyph unicode="&#x2039;" horiz-adv-x="700" d="M412 508l198 -201l-45 -201l-338 324l35 148l481 307l-45 -199z" />
<glyph unicode="&#x203a;" horiz-adv-x="700" d="M319 698l48 199l340 -307l-35 -148l-486 -323l47 200l289 201z" />
<glyph unicode="&#x2044;" d="M1239 35l-178 -66l-905 1426l178 65z" />
<glyph unicode="&#x205f;" horiz-adv-x="489" />
<glyph unicode="&#x20ac;" horiz-adv-x="1163" d="M424 918q41 121 94 207.5t125 144t167 84t222 26.5q68 0 132.5 -6t113.5 -14q57 -8 108 -19l-49 -178q-57 4 -114 11q-49 4 -105.5 8t-105.5 4q-80 0 -139.5 -15.5t-104.5 -48t-77 -84t-58 -123.5h512l-37 -153h-524q-6 -20 -11.5 -42t-9.5 -44q-6 -23 -10 -44l-8 -42 h524l-37 -156h-512q-6 -68 4.5 -118t40 -81.5t82.5 -47t135 -15.5q45 0 101.5 3t107.5 7l121 13l-35 -181q-59 -10 -123 -18q-53 -8 -119.5 -13.5t-125.5 -5.5q-131 0 -214 28t-128 85t-56.5 142t0.5 202h-125l37 156h115l39 172h-115l37 156h125z" />
<glyph unicode="&#x2122;" d="M313 1300h410l-29 -122h-119l-114 -498h-135l114 498h-155zM782 1300h168l29 -393l217 393h166l-143 -622h-127l98 426l-205 -391h-96l-25 391l-98 -426h-127z" />
<glyph unicode="&#xe000;" horiz-adv-x="1020" d="M0 1020h1020v-1020h-1020v1020z" />
<glyph unicode="&#xfb01;" horiz-adv-x="1196" d="M1081 1022h195l-236 -1022h-194zM1175 1436h195l-49 -215h-195zM367 852h-117l41 170h115l18 78q47 205 137 291t238 86q27 0 59.5 -3.5t63.5 -7.5l71 -8l-41 -162l-53 4q-23 2 -49.5 3.5t-48.5 1.5q-78 0 -118 -49.5t-65 -157.5l-16 -76h275l-39 -170h-275l-194 -842 q-23 -100 -52.5 -169.5t-80 -124t-127 -101.5t-193.5 -100l-49 163q84 43 136 76t85 68t51.5 80t34.5 110z" />
<glyph unicode="&#xfb02;" horiz-adv-x="1204" d="M1186 1458h194l-336 -1458h-194zM367 852h-117l41 170h115l18 78q47 205 137 291t238 86q27 0 59.5 -3.5t63.5 -7.5l71 -8l-41 -162l-53 4q-23 2 -49.5 3.5t-48.5 1.5q-78 0 -118 -49.5t-65 -157.5l-16 -76h275l-39 -170h-275l-194 -842q-23 -100 -52.5 -169.5t-80 -124 t-127 -101.5t-193.5 -100l-49 163q84 43 136 76t85 68t51.5 80t34.5 110z" />
<glyph unicode="&#xfb03;" horiz-adv-x="1886" d="M1771 1022h195l-236 -1022h-194zM1865 1436h195l-49 -215h-195zM1057 852h-117l41 170h115l18 78q47 205 137 291t238 86q27 0 59.5 -3.5t63.5 -7.5l71 -8l-41 -162l-53 4q-23 2 -49.5 3.5t-48.5 1.5q-78 0 -118 -49.5t-65 -157.5l-16 -76h275l-39 -170h-275l-194 -842 q-23 -100 -52.5 -169.5t-80 -124t-127 -101.5t-193.5 -100l-49 163q84 43 136 76t85 68t51.5 80t34.5 110zM367 852h-117l41 170h115l18 78q47 205 137 291t238 86q27 0 59.5 -3.5t63.5 -7.5l71 -8l-41 -162l-53 4q-23 2 -49.5 3.5t-48.5 1.5q-78 0 -118 -49.5t-65 -157.5 l-16 -76h275l-39 -170h-275l-194 -842q-23 -100 -52.5 -169.5t-80 -124t-127 -101.5t-193.5 -100l-49 163q84 43 136 76t85 68t51.5 80t34.5 110z" />
<glyph unicode="&#xfb04;" horiz-adv-x="1894" d="M1876 1458h194l-336 -1458h-194zM1057 852h-117l41 170h115l18 78q47 205 137 291t238 86q27 0 59.5 -3.5t63.5 -7.5l71 -8l-41 -162l-53 4q-23 2 -49.5 3.5t-48.5 1.5q-78 0 -118 -49.5t-65 -157.5l-16 -76h275l-39 -170h-275l-194 -842q-23 -100 -52.5 -169.5t-80 -124 t-127 -101.5t-193.5 -100l-49 163q84 43 136 76t85 68t51.5 80t34.5 110zM367 852h-117l41 170h115l18 78q47 205 137 291t238 86q27 0 59.5 -3.5t63.5 -7.5l71 -8l-41 -162l-53 4q-23 2 -49.5 3.5t-48.5 1.5q-78 0 -118 -49.5t-65 -157.5l-16 -76h275l-39 -170h-275 l-194 -842q-23 -100 -52.5 -169.5t-80 -124t-127 -101.5t-193.5 -100l-49 163q84 43 136 76t85 68t51.5 80t34.5 110z" />
</font>
</defs>
</svg>
