<?xml version="1.0" standalone="no"?>
<!DOCTYPE svg PUBLIC "-//W3C//DTD SVG 1.1//EN" "http://www.w3.org/Graphics/SVG/1.1/DTD/svg11.dtd" >
<svg xmlns="http://www.w3.org/2000/svg">
<metadata>
This is a custom SVG webfont generated by Font Squirrel.
Copyright   : Copyright c 20082009 Accademia di Belle Arti di Urbino andstudents of MA course of Visual design wwwcampivisivinetwith Reserved Font Name TitilliumCopyright c 2011 Chank Co wwwchankcom with Reserved Font Name PanefrescoThis Font Software is licensed under the SIL Open Font License Version 11
</metadata>
<defs>
<font id="webfonthgQRUfK1" horiz-adv-x="1085" >
<font-face units-per-em="2048" ascent="1536" descent="-512" />
<missing-glyph horiz-adv-x="542" />
<glyph unicode=" "  horiz-adv-x="542" />
<glyph unicode="&#x09;" horiz-adv-x="542" />
<glyph unicode="&#xa0;" horiz-adv-x="542" />
<glyph unicode="!" d="M485 340h295l-75 -340h-295zM733 1434h303l-217 -902h-282z" />
<glyph unicode="&#x22;" horiz-adv-x="727" d="M641 901l115 512h264l-129 -512h-250zM276 901l115 512h264l-129 -512h-250z" />
<glyph unicode="#" d="M963 338l-76 -338h-238l76 338h-213l-76 -338h-237l75 338h-196l51 229h197l51 217h-197l53 230h197l78 338h237l-77 -338h213l77 338h238l-78 -338h197l-53 -230h-197l-51 -217h196l-51 -229h-196zM827 784h-213l-51 -217h213z" />
<glyph unicode="$" d="M1227 1102q-86 12 -164 20t-172 11l-78 -336l110.5 -60.5t101.5 -71.5t74.5 -90.5t28.5 -115.5q0 -209 -128 -336t-371 -143l-51 -226l-105 15l47 208q-102 4 -206.5 15.5t-172.5 27.5l68 236q35 -6 81 -11l95 -11q49 -5 99.5 -8t93.5 -3l84 369l-113 61 q-57 33 -104.5 74t-78 92t-30.5 119q0 80 31.5 155.5t95 136t158 100.5t219.5 48l55 240h106l-55 -240q72 -4 153 -16t187 -31zM612 963q0 -35 30 -62t77 -55l63 282q-47 -8 -79.5 -25.5t-53 -41t-29 -48.5t-8.5 -50zM844 418q0 35 -24.5 64.5t-63.5 56.5l-70 -306 q59 18 108.5 65.5t49.5 119.5z" />
<glyph unicode="%" d="M549 1272q-29 0 -44.5 -31t-31.5 -102q-16 -72 -15 -103.5t29 -31.5q29 0 44.5 31.5t31.5 103.5t15.5 102.5t-29.5 30.5zM1042 1475l162 -62l-842 -1462l-161 61zM272 1139q35 150 115 223.5t199 73.5t166 -74t12 -223q-35 -150 -116 -224.5t-199 -74.5 q-119 0 -165.5 74.5t-11.5 224.5zM655 299q35 150 116 223.5t200 73.5t165 -73.5t11 -223.5t-114 -224.5t-197 -74.5q-119 0 -167.5 74.5t-13.5 224.5zM856 299q-16 -72 -15 -103.5t29 -31.5q29 0 44.5 31.5t31.5 103.5t15.5 102.5t-29.5 30.5t-44.5 -30.5t-31.5 -102.5z " />
<glyph unicode="&#x26;" horiz-adv-x="1433" d="M973 1454q94 0 170 -21.5t124 -65.5t66.5 -109.5t-2.5 -153.5q-16 -70 -46 -125t-77 -104.5t-111.5 -96.5t-148.5 -100l125 -170q8 16 26.5 49t37.5 71l35 72q17 35 24 54l264 -6q-18 -47 -46 -103.5l-58 -113.5l-60 -106l-49 -85l162 -193l-195 -178l-151 162 q-68 -43 -126 -72.5t-117.5 -48t-125 -27t-147.5 -8.5q-236 0 -336 115t-49 336q14 68 51 128t88 110.5t112.5 89.5t127.5 65q-20 41 -33.5 75t-19 68.5t-2.5 73.5t16 90q18 80 61 141.5t105.5 102.5t140.5 62.5t164 21.5zM600 225q80 0 147.5 17.5t149.5 54.5l-238 338 q-37 -12 -74.5 -34.5t-69.5 -50.5t-54.5 -59.5t-28.5 -64.5q-23 -92 19.5 -146.5t148.5 -54.5zM770 1085q-16 -66 -11 -113.5t42 -94.5l24 -33q94 59 148.5 108t70.5 121q16 66 -13.5 99.5t-94.5 33.5q-61 0 -106.5 -30t-59.5 -91z" />
<glyph unicode="'" horiz-adv-x="204" d="M285 1413h262l-129 -512h-248z" />
<glyph unicode="(" horiz-adv-x="532" d="M860 1536q-90 -156 -170 -315q-35 -68 -69.5 -144t-66.5 -154.5t-58.5 -156.5t-42.5 -150t-25.5 -147.5t-13.5 -150t-3 -146.5t5 -135q8 -150 30 -293h-299q-27 135 -34 283q-10 125 -4 280.5t41 308.5q18 76 44.5 157t58.5 160t68 153l70 143q80 158 170 307h299z" />
<glyph unicode=")" horiz-adv-x="532" d="M-61 -246q88 156 165 316l68 143q35 76 65.5 153.5t57.5 155.5t43 152q33 143 39 296.5t0 282.5q-8 150 -29 293h297q27 -137 35 -282q8 -127 2 -282t-41 -308q-18 -78 -45 -158t-58.5 -160t-67.5 -154l-69 -143q-80 -158 -170 -305h-292z" />
<glyph unicode="*" d="M891 981l24 -225l-200 -58l-25 230l-229 -152l-82 150l233 147l-161 141l151 160l156 -133l135 225l172 -65l-129 -221h235l-45 -199h-235z" />
<glyph unicode="+" d="M231 700h334l80 344h279l-80 -344h338l-62 -270h-338l-80 -344h-278l80 344h-334z" />
<glyph unicode="," horiz-adv-x="348" d="M-68 -252l87 118q44 58 78 120.5t51.5 135.5t7.5 159h295q12 -80 -2.5 -151t-50.5 -136.5t-87 -126t-108 -119.5h-271z" />
<glyph unicode="-" horiz-adv-x="901" d="M297 682h614l-59 -258h-614z" />
<glyph unicode="." horiz-adv-x="507" d="M168 340h295l-76 -340h-295z" />
<glyph unicode="/" d="M1032 1475l242 -91l-912 -1433l-241 90z" />
<glyph unicode="0" d="M858 1376q119 0 206 -35.5t135 -118.5t52 -219.5t-41 -334.5q-47 -201 -113.5 -334t-152.5 -213t-188.5 -113t-220.5 -33q-119 0 -206 33t-136.5 113t-55.5 213t41 334q45 199 113.5 335t154.5 219t189.5 118.5t222.5 35.5zM799 1116q-57 0 -103.5 -23.5t-84.5 -76.5 t-69.5 -138t-60.5 -210t-36 -208t7.5 -133.5t50.5 -70.5t93 -20t102 20t82 70.5t68 133.5t59 208q29 125 37 210t-5 138t-48 76.5t-92 23.5z" />
<glyph unicode="1" d="M809 1352h262l-309 -1352h-283l234 1026l-324 -190l-80 221z" />
<glyph unicode="2" d="M100 0l56 252l354 283q162 133 253 229t114 194q18 78 -23 118t-152 40q-53 0 -111.5 -6t-107.5 -14q-57 -8 -112 -21l41 248q68 14 139 27q61 10 136 18t147 8q217 0 300 -105.5t40 -295.5q-18 -78 -45 -139.5t-71 -119t-109.5 -118.5t-162.5 -139l-254 -195h496 l-57 -264h-871z" />
<glyph unicode="3" d="M424 1323l139 27q59 10 130 18t132 8q252 0 335 -97t40 -286q-27 -111 -82 -171t-141 -109q37 -23 64.5 -49.5t43 -63.5t16.5 -86t-16 -117q-49 -215 -181 -318.5t-365 -103.5q-76 0 -153 6.5t-138 16.5q-74 10 -142 25l82 239l136 -12q57 -4 120.5 -7t114.5 -3 q199 0 238 161q16 76 -25 113t-127 37h-262l55 246h262q35 0 68 15t60.5 40t47 53.5t25.5 52.5q18 80 -29 117t-129 37q-59 0 -121 -5l-114 -9l-115 -13z" />
<glyph unicode="4" d="M662 219h-566l54 225l550 908h308l-531 -871h246l80 353h282l-79 -353h124l-61 -262h-125l-55 -239h-283z" />
<glyph unicode="5" d="M1272 1354l-62 -264h-551l-94 -269q35 10 72 19l64 12q34 6 59 6q102 0 178 -23.5t121 -74.5t56 -130t-13 -190q-27 -119 -79 -206t-125 -144t-163 -86t-192 -29q-80 0 -161 10.5t-146 22.5q-78 14 -148 35l88 242q72 -14 143 -25q61 -10 134 -17t139 -7q76 0 134 45 t81 143q41 178 -137 178q-47 0 -85 -5t-67 -11l-59 -15l-207 47l215 736h805z" />
<glyph unicode="6" d="M1227 1083q-57 6 -121 15q-53 6 -118.5 11t-125.5 5q-133 0 -215 -80t-119 -235l25 9q25 9 63.5 21.5t85 22.5t89.5 10q106 0 185 -24.5t125 -77.5t58 -135t-14 -197q-53 -229 -207 -341t-383 -112q-256 0 -341 178.5t-7 516.5q45 201 117.5 337t165 218t202 116.5 t232.5 34.5q57 0 123.5 -7t126.5 -15q68 -10 135 -23zM709 616q-41 0 -82 -6t-76 -12q-39 -8 -76 -18q-16 -68 -18 -130.5t12 -110.5t49 -78t96 -30q92 0 154.5 49.5t85.5 147.5q23 96 -17 142t-128 46z" />
<glyph unicode="7" d="M420 1354h844l-74 -322l-725 -1069l-252 74l678 995l12 55h-545z" />
<glyph unicode="8" d="M866 1378q100 0 183.5 -26.5t136.5 -75.5t74.5 -120t1.5 -159q-14 -61 -29.5 -102t-39.5 -74t-59.5 -61.5t-86.5 -63.5q70 -53 94 -128.5t-2 -188.5q-25 -106 -81.5 -183t-136 -127.5t-178 -74t-204.5 -23.5t-192.5 22.5t-143 72t-77 126t4.5 183.5q14 61 39 109t57.5 87 t70.5 69t77 56q-35 35 -55.5 70t-28.5 73t-5 82t15 97q20 88 72.5 154.5t127 112.5t169 69.5t196.5 23.5zM598 227q98 0 161.5 44t86.5 139q10 49 -5.5 90t-70.5 63h-180q-70 -25 -103.5 -64.5t-44.5 -88.5q-41 -183 156 -183zM809 1122q-86 0 -142.5 -41t-74.5 -118 q-10 -49 1 -87t52 -73h180q57 35 87 72.5t40 87.5q18 78 -19.5 118.5t-123.5 40.5z" />
<glyph unicode="9" d="M168 264q57 -8 121 -16q53 -6 117.5 -10.5t125.5 -4.5q133 0 216 84t118 226l-26 -8q-27 -8 -67 -18.5t-85 -19t-82 -8.5q-102 0 -179 30t-124 86.5t-60.5 140t11.5 194.5t81 194t134 136t172 79.5t199 26.5q248 0 338 -178t10 -528q-47 -201 -119 -335t-164 -214 t-200.5 -113t-231.5 -33q-57 0 -123.5 6.5t-126.5 16.5q-68 8 -135 22zM688 739q41 0 82 4.5t76 10.5l74 16q18 76 19 140.5t-15.5 111.5t-51 72.5t-90.5 25.5q-86 0 -151.5 -51t-87.5 -145q-23 -94 18 -139.5t127 -45.5z" />
<glyph unicode=":" horiz-adv-x="471" d="M285 932h295l-80 -340h-295zM147 340h295l-75 -340h-295z" />
<glyph unicode=";" horiz-adv-x="493" d="M207 322h295l-295 -553h-252zM328 932h295l-80 -340h-295z" />
<glyph unicode="&#x3c;" d="M573 592l388 -232l-66 -286l-625 370l66 287l797 373l-66 -287z" />
<glyph unicode="=" d="M309 897h875l-62 -266h-874zM207 461h874l-61 -266h-875z" />
<glyph unicode="&#x3e;" d="M377 817l65 287l625 -373l-66 -287l-796 -370l65 286l494 232z" />
<glyph unicode="?" horiz-adv-x="790" d="M1063 1057q-16 -72 -54 -132.5t-86.5 -111.5t-99.5 -93l-95 -79q-44 -37 -75.5 -69.5t-38.5 -63.5l-18 -78h-279q0 25 2 47l5 41q2 20 6 37q16 74 80.5 139.5t136.5 121.5l132 107q60 50 71 97q8 37 11 65.5t-9.5 48t-44 28.5t-91.5 9q-41 0 -94 -5t-102 -11l-117 -16 l27 245l143 39q59 14 126 26.5t116 12.5q113 0 191.5 -21.5t121.5 -68.5t52.5 -124.5t-17.5 -190.5zM276 319h295l-71 -319h-295z" />
<glyph unicode="@" horiz-adv-x="2017" d="M2068 590q-39 -168 -92 -285t-119.5 -188.5t-147.5 -104t-177 -32.5q-92 0 -151.5 21.5t-94.5 66.5q-33 -14 -74 -29.5t-85 -28t-88 -20.5t-83 -8q-188 0 -253.5 134t-10.5 380q29 125 69 225t100.5 172t145.5 110.5t203 38.5q23 0 52.5 -7t58.5 -15l70 -23l6 27h274 l-94 -410q-29 -125 -41 -197.5t-9 -110.5t20.5 -49t45.5 -11q31 0 56.5 13t49 51t46 105.5t47.5 174.5l8 37q39 164 29 278.5t-70.5 185t-172 102.5t-273.5 32q-336 0 -546 -176.5t-288 -513.5q-43 -186 -38 -317.5t65.5 -215.5t179.5 -123t305 -39q31 0 81 2t99 6 q55 4 119 11l-51 -267q-61 -6 -119 -10q-49 -4 -101 -7t-89 -3q-227 0 -391 56.5t-257.5 174t-115 300t36.5 432.5q55 244 161.5 424t257 298.5t341 177t411.5 58.5q438 0 618.5 -224.5t84.5 -643.5zM1042 252q47 0 99.5 9t97.5 22q4 47 12.5 98t22.5 111l61 270 q-25 4 -47 10q-20 4 -40.5 7t-35.5 3q-55 0 -92 -12t-63.5 -45t-46 -88t-39.5 -141q-31 -137 -13 -190.5t84 -53.5z" />
<glyph unicode="A" horiz-adv-x="1239" d="M569 1149q133 264 420 264h211l-12 -1413h-270l-11 244h-458l-107 -244h-291zM934 1167q-29 -2 -58.5 -18t-54.5 -68l-256 -577h350z" />
<glyph unicode="B" horiz-adv-x="1239" d="M979 1413q88 0 166 -21.5t130 -67.5t75 -116q11 -35 11 -76t-11 -90q-16 -70 -36 -117.5t-47.5 -84.5t-63.5 -63.5t-83 -53.5q86 -41 112 -119q12 -35 12 -83q0 -58 -17 -134q-25 -104 -76 -178t-123 -120t-160 -67.5t-184 -21.5h-530l323 1413h502zM565 588l-78 -336 h238q72 0 133.5 41t81.5 129q6 25 6 46q0 15 -3 28q-7 31 -26.5 51t-49 30.5t-64.5 10.5h-238zM696 1161l-75 -332h231q68 0 123 45.5t76 129.5q6 26 6 47q0 45 -27 71q-39 39 -104 39h-230z" />
<glyph unicode="C" horiz-adv-x="1083" d="M1010 16q-76 -12 -150 -20q-63 -8 -132 -14.5t-122 -6.5q-154 0 -244 47.5t-128 140.5q-31 77 -31 184q0 23 2 48q8 139 51 324q45 199 106.5 337t144.5 222t190.5 122t246.5 38q57 0 124 -7.5t126 -17.5q68 -10 135 -24l-65 -246l-138 12l-112 8q-57 4 -92 4 q-74 0 -130.5 -19.5t-100.5 -71.5t-80 -141t-68 -228q-31 -131 -38 -220q-2 -24 -2 -45q0 -58 14 -97q19 -54 67.5 -76.5t132.5 -22.5q31 0 88 3t115 7q68 6 143 12z" />
<glyph unicode="D" horiz-adv-x="1282" d="M154 0l323 1413h455q174 0 277.5 -43t149.5 -129q42 -79 42 -195v-21q-4 -130 -45 -304q-41 -180 -96.5 -315.5t-139.5 -225.5t-208 -135t-304 -45h-454zM1065 733q25 106 33 187q3 25 2 46q0 49 -13 85q-18 51 -70 76.5t-147 25.5h-176l-205 -893h177q94 0 159.5 33 t109.5 94.5t74.5 149t55.5 196.5z" />
<glyph unicode="E" horiz-adv-x="1132" d="M1030 0h-424q-96 0 -176 33t-132 89t-73 134q-10 37 -9 77q0 44 11 93q18 78 40 130t51.5 87t70.5 56.5t98 37.5q-25 25 -46 51.5t-33.5 63.5t-12.5 86t19 119q25 96 76 163.5t120.5 110.5t152.5 62.5t171 19.5h418l-56 -260h-413q-66 0 -122 -35t-79 -114q-8 -32 -8 -60 q0 -44 20 -76q33 -51 101 -51h301l-60 -244h-307q-35 0 -70.5 -8t-66.5 -25.5t-55.5 -46t-34.5 -71.5q-8 -31 -8 -56q0 -45 26 -70q41 -38 121 -38h446z" />
<glyph unicode="F" horiz-adv-x="1101" d="M477 1413h877l-62 -262h-598l-98 -424h475l-57 -254h-475l-107 -473h-278z" />
<glyph unicode="G" horiz-adv-x="1218" d="M844 770h446l-90 -387q-23 -76 -47.5 -142.5t-58 -118.5t-76.5 -87t-100 -43q-72 -10 -145 -13.5t-130 -3.5q-158 0 -254 50.5t-139 147.5q-39 89 -39 213v24q4 139 45 317q43 190 105.5 325.5t148.5 220.5t199.5 125t261.5 40q72 0 153.5 -7.5t151.5 -17.5 q82 -10 158 -24l-64 -244l-145 12l-136 9q-73 5 -135 5q-84 0 -146.5 -20.5t-110.5 -72.5t-85 -141t-67 -226q-31 -133 -38 -224q-2 -23 -2 -44q0 -60 15 -101q20 -55 71.5 -78.5t139.5 -23.5q86 0 125 25.5t59 90.5l41 170h-168z" />
<glyph unicode="H" horiz-adv-x="1357" d="M1059 590h-494l-133 -590h-278l323 1413h279l-131 -563h493l131 563h279l-324 -1413h-278z" />
<glyph unicode="I" horiz-adv-x="569" d="M467 1413h283l-324 -1413h-283z" />
<glyph unicode="J" horiz-adv-x="643" d="M547 236q-25 -109 -61.5 -181.5t-95 -115.5t-144.5 -61.5t-209 -18.5l57 247q80 4 120 34t56 100l271 1173h276z" />
<glyph unicode="K" horiz-adv-x="1210" d="M1393 1413q-10 -143 -40 -256t-75 -201t-106.5 -153.5t-137.5 -112.5l146 -690h-301l-111 582q-53 -16 -106 -25l-107 -14l-123 -543h-278l323 1413h279l-138 -602l72 10q119 29 197 80t127 125t72.5 171t35.5 216h271z" />
<glyph unicode="L" horiz-adv-x="993" d="M154 0l323 1413h279l-267 -1149h490l-57 -264h-768z" />
<glyph unicode="M" horiz-adv-x="1736" d="M410 1122q39 133 120.5 211t219.5 80h168l24 -1038l391 803q57 121 138 177t184 58h252l-324 -1413h-278l245 1077q-16 0 -34.5 -18.5t-34.5 -59.5l-365 -745q-45 -92 -94 -141.5t-102 -51.5h-181l-30 1016q-16 -2 -26.5 -21.5t-20.5 -49.5l-230 -1006h-278z" />
<glyph unicode="N" horiz-adv-x="1435" d="M477 1413h205q53 0 99 -12t83 -43t60.5 -83t31.5 -134l80 -793q2 -27 6.5 -40t20.5 -19l260 1124h283l-324 -1413h-227q-115 4 -170.5 66.5t-69.5 173.5l-96 835q-2 31 -6 43t-19 10l-258 -1128h-282z" />
<glyph unicode="O" horiz-adv-x="1318" d="M711 236q78 0 137 26.5t104 81.5t79 142t63 210q36 153 36 258q0 61 -13 105q-34 119 -189 119q-78 0 -137.5 -30t-105.5 -89.5t-81 -149.5t-63 -213q-29 -123 -35 -210l-2 -40q0 -60 15 -102q19 -55 66.5 -81.5t125.5 -26.5zM651 -25q-158 0 -254 48.5t-142 142.5 q-44 90 -44 220v11q2 137 43 316q41 178 102.5 313t149.5 227.5t206.5 138.5t276.5 46q156 0 252 -50.5t141 -147.5q42 -91 43 -219q0 -9 -1 -17q-3 -139 -44 -318q-41 -178 -101 -311t-147.5 -222.5t-206 -133.5t-274.5 -44z" />
<glyph unicode="P" horiz-adv-x="1212" d="M526 403l-90 -403h-282l323 1413h492q231 0 334 -129q66 -83 65 -214q0 -74 -20 -163q-57 -248 -219 -376t-394 -128h-209zM793 662q106 0 174.5 70.5t95.5 187.5q11 47 11 85q0 54 -22 90q-38 60 -145 60h-207l-114 -493h207z" />
<glyph unicode="Q" horiz-adv-x="1318" d="M1057 -492q-70 18 -117 65.5t-81 112t-58.5 141.5t-46.5 155l-51.5 -4.5t-51.5 -2.5q-158 0 -254 51.5t-141 147.5q-42 90 -42 219v18q3 140 44 318t101.5 311.5t148.5 221.5t205.5 132t275.5 44q156 0 253 -52.5t142 -150.5q42 -92 43 -222q0 -9 -1 -18 q-3 -141 -44 -319q-53 -229 -144 -380t-226 -237l27 -99q13 -50 32 -92t42.5 -71.5t57.5 -38.5zM711 236q78 0 137 26.5t104 81.5t79 142t63 210q36 153 36 258q0 61 -13 105q-34 119 -189 119q-78 0 -137.5 -30t-105.5 -89.5t-81 -149.5t-63 -213q-35 -147 -35 -244 q0 -65 15 -108q38 -108 190 -108z" />
<glyph unicode="R" horiz-adv-x="1253" d="M745 465h-208l-105 -465h-278l323 1413h496q117 0 206 -27.5t142 -86t69 -149.5q5 -32 5 -68q0 -67 -19 -148q-18 -78 -47 -138.5t-67.5 -108.5t-85 -84t-101.5 -66l94 -537h-297l-71 467zM1085 940q9 36 9 66q0 56 -30 92q-46 55 -132 55h-238l-100 -436h242 q92 0 159 63.5t90 159.5z" />
<glyph unicode="S" d="M1260 1149q-98 14 -189.5 22.5t-210.5 8.5q-68 0 -114 -16.5t-73.5 -42t-39.5 -57.5t-12 -60q0 -41 39.5 -73t99.5 -64l129 -66q70 -35 129 -80t99 -103.5t40 -138.5q0 -231 -150.5 -366.5t-437.5 -135.5q-57 0 -118.5 3.5t-120 9.5t-110.5 14t-91 19l72 245 q41 -6 95 -13t112.5 -11t115 -7.5t101.5 -3.5q39 0 81 14.5t76.5 40t57 63.5t22.5 85t-39 84t-98 71t-128 68.5t-128 79.5t-98 102.5t-39 137.5q0 88 37 171t110.5 147.5t183 103.5t255.5 39q88 0 181 -14.5l224 -36.5z" />
<glyph unicode="T" horiz-adv-x="983" d="M340 1413h950l-63 -272h-332l-260 -1141h-279l260 1141h-340z" />
<glyph unicode="U" horiz-adv-x="1323" d="M530 471q-11 -49 -11 -86q0 -58 28 -87q45 -48 170 -48t192.5 49t96.5 172l217 942h280l-217 -942q-31 -131 -82 -223t-127 -151.5t-181 -87t-243 -27.5q-139 0 -230 27.5t-140.5 87t-56.5 151.5q-1 17 -1 36q0 81 25 187l217 942h281z" />
<glyph unicode="V" horiz-adv-x="1255" d="M1528 1413l-549 -1188q-66 -119 -162 -170t-221 -55h-221v1413h287l-27 -1159q72 0 115 98l471 1061h307z" />
<glyph unicode="W" horiz-adv-x="1927" d="M672 1413l-66 -1165q2 -1 4 -1q21 0 47 56l367 879q45 111 104.5 161t133.5 50h172l-50 -1145q2 0 5 -1q28 0 53 70l444 1096h305l-516 -1198q-45 -104 -122.5 -159.5t-200.5 -55.5h-209l51 1018l-322 -795q-29 -68 -63.5 -111.5t-75.5 -68.5t-86 -34t-92 -9h-211 l39 1413h289z" />
<glyph unicode="X" horiz-adv-x="1189" d="M788 903l359 510h323l-540 -713l217 -700h-301l-127 498l-354 -498h-324l539 700l-215 713h301z" />
<glyph unicode="Y" horiz-adv-x="1169" d="M727 0h-278l137 604l-232 809h291l123 -512l358 512h336l-598 -809z" />
<glyph unicode="Z" horiz-adv-x="1167" d="M457 1413h899q2 -18 2 -37q0 -77 -41 -161q-51 -103 -146 -214l-550 -639q-55 -59 -66 -98h537l-58 -264h-897v17q0 111 49 206q53 102 138 195l557 645q27 27 41 47t16 39h-543z" />
<glyph unicode="[" horiz-adv-x="614" d="M864 1264h-235l-287 -1246h236l-64 -270h-514l408 1786h518z" />
<glyph unicode="\" horiz-adv-x="1081" d="M700 0l-301 1438h287l299 -1438h-285z" />
<glyph unicode="]" horiz-adv-x="614" d="M395 1534h518l-413 -1786h-512l59 270h236l286 1246h-235z" />
<glyph unicode="^" d="M793 1081l-332 -440h-287l535 711h286l207 -711h-287z" />
<glyph unicode="_" d="M987 -174l-57 -250h-971l53 250h975z" />
<glyph unicode="`" horiz-adv-x="1116" d="M1118 1399l-135 -232l-498 160l150 260z" />
<glyph unicode="a" horiz-adv-x="1081" d="M989 293q-1 -8 -1 -15q0 -28 19 -46q24 -22 64 -29l-65 -223q-104 4 -170 29.5t-95 66.5q-23 -14 -57.5 -31.5t-75.5 -32t-84 -25t-80 -10.5q-115 0 -175 54.5t-82 138.5q-14 55 -14 117q0 33 4 67q11 100 40 193q154 496 551 495q59 0 108.5 -6t81.5 -16l203 29z M516 231q59 0 127 30t109 79l98 461q-18 4 -49 5t-49 1q-104 0 -176 -85t-119 -239q-12 -37 -20 -81q-5 -28 -4 -53q0 -15 1 -28q4 -38 22.5 -64t59.5 -26z" />
<glyph unicode="b" horiz-adv-x="1118" d="M639 952q63 39 131 64.5t127 25.5q115 0 175.5 -54t81.5 -138q14 -55 14 -117q0 -33 -4 -67q-11 -100 -40 -193q-154 -496 -551 -496q-29 0 -98 5l-143 8q-86 6 -187 12l330 1432h275zM825 793q-27 0 -60.5 -8.5t-67 -24t-65.5 -34.5t-54 -40l-105 -465q61 -12 117 -12 q104 0 176 87t119 241q12 37 19 81q5 29 5 55q0 15 -2 29q-4 39 -23.5 65t-58.5 26z" />
<glyph unicode="c" horiz-adv-x="892" d="M834 129q-37 -35 -83 -62.5t-97.5 -48t-104.5 -31t-105 -10.5q-115 0 -175 54.5t-82 138.5q-14 55 -14 117q0 33 4 67q11 100 40 193q154 496 551 495q33 0 71 -3t74.5 -9t69.5 -15t55 -22l-63 -231q-14 8 -41 16t-57.5 14.5t-64.5 10.5t-60 4q-104 0 -176 -85t-119 -239 q-12 -37 -20 -82q-5 -29 -4 -54q0 -15 1 -30q4 -39 22.5 -64.5t59.5 -25.5q59 0 131 32t113 81z" />
<glyph unicode="d" horiz-adv-x="1118" d="M971 0h-275l17 72q-66 -41 -136.5 -68t-132.5 -27q-115 0 -175 54.5t-82 138.5q-14 55 -14 117q0 33 4 67q11 100 40 193q154 496 551 495q37 0 78 -8t82 -18l96 418h274zM516 227q29 0 64.5 9.5t71.5 26t69 38t53 45.5l103 442q-33 10 -65 16.5t-60 6.5q-104 0 -176 -87 t-119 -241q-12 -37 -20 -82q-5 -29 -4 -54q0 -15 1 -30q4 -39 22.5 -64.5t59.5 -25.5z" />
<glyph unicode="e" horiz-adv-x="1038" d="M915 98q-25 -16 -67.5 -36.5t-96 -39t-115 -30.5t-122.5 -12q-180 0 -257 88t-77 243q0 104 29 215q33 131 92 227.5t134 161t157 96t162 31.5q158 0 245.5 -72.5t87.5 -189.5q0 -33 -7 -71.5t-22.5 -76.5t-42 -74t-63.5 -64q-55 -43 -125.5 -71t-142.5 -45.5 t-138.5 -25.5t-115.5 -10q-6 -25 -3 -48.5t15.5 -43t37 -31.5t61.5 -12q39 0 91 11t104 29.5t99.5 41t79.5 45.5v-236zM743 811q-35 0 -72.5 -16.5t-74.5 -49t-68.5 -82t-54.5 -112.5q57 6 123 16.5t121 30.5t92 55t37 90q0 31 -26 49.5t-77 18.5z" />
<glyph unicode="f" horiz-adv-x="702" d="M324 784h-101l56 238h100l10 47q47 207 140.5 296t246.5 89q25 0 61.5 -5t71.5 -9l84 -13l-55 -225l-47 4l-47 4q-25 2 -49 2q-59 0 -87 -38.5t-44 -106.5l-11 -45h238l-55 -238h-238l-178 -774q-25 -106 -56.5 -181t-84 -131t-134.5 -104.5t-206 -101.5l-68 227 q80 39 127 68t75.5 58.5t43 68.5t28.5 98z" />
<glyph unicode="g" horiz-adv-x="1101" d="M725 807q-49 0 -87 -22.5t-66.5 -62.5t-52 -94.5t-46.5 -119.5q-33 -97 -33 -165q0 -21 3 -39q13 -77 104 -77q23 0 58.5 14.5t70.5 30.5l82 45l112 478q-27 2 -53 6q-23 2 -48.5 4t-43.5 2zM430 -502q-59 0 -115.5 5t-99.5 12q-51 8 -96 18l63 231l84 -8q35 -4 74 -5 t68 -1q121 0 200.5 86t91.5 234q-12 -10 -38.5 -25.5t-58.5 -31t-63.5 -27t-56.5 -11.5q-215 0 -278 143q-29 65 -29 156q0 109 41 254q33 117 80 213.5t112.5 164t151.5 104.5t197 37q45 0 119 -5l145 -8q82 -6 176 -12l-229 -1012q-59 -256 -191.5 -384t-347.5 -128z" />
<glyph unicode="h" horiz-adv-x="1148" d="M147 0l328 1434h275l-109 -469q57 35 123.5 58.5t138.5 23.5q100 0 158.5 -36t84.5 -103q22 -57 22 -135q0 -12 -1 -25q-4 -94 -30 -211l-121 -537h-275l121 539q12 49 19 96q3 24 3 44.5t-3 39.5q-6 37 -26.5 58.5t-63.5 21.5q-51 0 -109.5 -29t-99.5 -59l-160 -711 h-275z" />
<glyph unicode="i" horiz-adv-x="548" d="M371 1022h274l-233 -1022h-275zM461 1415h274l-63 -276h-275z" />
<glyph unicode="j" horiz-adv-x="555" d="M377 1022h274l-233 -1012q-25 -106 -56.5 -181t-84 -131t-134.5 -104.5t-206 -101.5l-68 227q80 39 127 68t75.5 58.5t43 68.5t28.5 98zM467 1413h274l-63 -276h-275z" />
<glyph unicode="k" horiz-adv-x="1060" d="M147 0l328 1434h275l-185 -803l39 8q51 14 103.5 51t97.5 88t81 114.5t58 129.5h287q-47 -135 -132 -262t-225 -230l156 -530h-289l-123 395l-114 -28l-82 -367h-275z" />
<glyph unicode="l" horiz-adv-x="548" d="M465 1434h274l-327 -1434h-275z" />
<glyph unicode="m" horiz-adv-x="1734" d="M147 0l234 1022h272l-20 -100q18 18 50 39.5t70 40t78.5 32t77.5 13.5q72 0 136.5 -36t84.5 -96q31 18 78 42t100.5 43.5t106.5 33t94 13.5q168 0 220 -133q24 -62 24 -150q0 -99 -31 -229l-120 -535h-275l119 524l22 108q9 46 10 80q0 42 -20 64q-18 20 -63 21 q-61 0 -112 -28l-112 -64q-4 -29 -12 -58l-13 -56l-13 -61l-119 -530h-275l119 526q14 61 20 112q2 19 2 36q0 27 -6 49q-8 35 -32.5 54.5t-67.5 19.5q-51 0 -100 -37t-94 -80l-158 -680h-275z" />
<glyph unicode="n" horiz-adv-x="1148" d="M147 0l234 1022h274l-22 -104q18 18 53 40.5t76 42t83 33t79 13.5q88 0 143 -36t80 -104q21 -58 21 -135q0 -13 -1 -27q-4 -94 -30 -210l-121 -535h-275l121 535q12 51 21 98q7 38 6 69v15q-2 37 -19.5 58.5t-60.5 21.5q-51 0 -113.5 -31t-120.5 -84l-153 -682h-275z" />
<glyph unicode="o" d="M780 1047q133 0 212 -44.5t115 -117.5q35 -72 35 -168q0 -100 -26 -215q-25 -111 -68.5 -207t-113.5 -167t-168 -112t-231 -41t-212 45.5t-115 119.5q-35 73 -35 170q0 101 26 216q25 111 68.5 206t113.5 165t168 110t231 40zM590 213q57 0 97 23.5t69.5 63.5t49 94.5 t34.5 117.5q14 63 20 118q2 19 2 36q0 32 -7 58q-11 40 -41 62.5t-87 22.5t-98 -22.5t-70 -62.5t-49.5 -94.5t-34.5 -117.5t-19 -118q-2 -18 -2 -34q0 -33 7 -60q10 -40 41 -63.5t88 -23.5z" />
<glyph unicode="p" horiz-adv-x="1118" d="M381 1022h274l-16 -72q63 39 132 65.5t130 26.5q115 0 176.5 -55t82.5 -139q15 -57 15 -122q0 -31 -4 -63q-10 -101 -38 -194q-154 -492 -555 -492q-37 0 -78 7.5t-80 17.5l-101 -432h-274zM829 793q-29 0 -62.5 -9.5t-69 -25t-67.5 -36t-55 -42.5l-104 -451 q31 -10 62.5 -15t60.5 -5q104 0 176 87t119 241q12 37 19 81q5 29 5 55q0 15 -2 29q-4 39 -23.5 65t-58.5 26z" />
<glyph unicode="q" horiz-adv-x="1114" d="M592 -430l108 496q-63 -37 -129.5 -63t-126.5 -26q-115 0 -175 54.5t-82 138.5q-14 55 -14 117q0 33 4 67q11 100 40 193q154 494 551 500q31 -2 101.5 -5.5l144.5 -7.5q86 -6 186 -12l-334 -1452h-274zM516 227q27 0 59.5 8.5t66.5 22.5t65.5 33.5t54.5 42.5l106 457 q-31 10 -60.5 15t-55.5 5q-104 0 -176 -87t-119 -241q-12 -37 -20 -82q-5 -29 -4 -54q0 -15 1 -30q4 -39 22.5 -64.5t59.5 -25.5z" />
<glyph unicode="r" horiz-adv-x="737" d="M371 1022h274l-33 -123l51 40q28 22 64.5 41t84.5 36.5t112 30.5l-68 -295q-74 -12 -120 -23.5t-76.5 -23t-54.5 -25.5l-52 -33l-141 -647h-275z" />
<glyph unicode="s" horiz-adv-x="1017" d="M1053 772l-135 19l-119 12q-61 6 -103 6q-61 0 -100 -22.5t-47 -51.5q-6 -23 2 -38t28.5 -25t51.5 -20.5t71 -22.5q61 -20 118 -49t96.5 -70t57.5 -95q9 -28 9 -60q0 -30 -8 -64q-16 -70 -49 -126t-89.5 -97t-139.5 -63.5t-199 -22.5q-47 0 -110.5 5t-123.5 13 q-68 8 -141 20l63 230l144 -19q59 -6 120.5 -11t102.5 -5q66 0 102.5 23.5t44.5 56.5q2 7 2 14q0 32 -38 55q-47 28 -127 54q-47 14 -99.5 38.5t-92.5 63.5t-60 96q-11 30 -11 68q0 33 9 72q12 61 47 114.5t92 91t139 60t191 22.5q41 0 92 -5t100 -13t93 -17.5t71 -17.5z " />
<glyph unicode="t" horiz-adv-x="716" d="M602 780l-92 -401q-10 -45 -10 -77q0 -79 61 -79h47q25 0 47 2q25 0 52 2l-39 -221l-76 -16q-33 -6 -68 -10.5t-61 -4.5q-172 0 -224 92q-27 48 -28 127q0 72 22 171l95 415h-111l55 240h111l68 289h274l-68 -289h242l-55 -240h-242z" />
<glyph unicode="u" horiz-adv-x="1148" d="M1235 1022l-234 -1022h-274l16 98q-20 -16 -56 -37.5t-78 -40t-86 -32t-79 -13.5q-160 0 -211 124q-24 57 -23 145q0 101 32 243l125 535h274l-125 -535q-29 -131 -29 -196q0 -74 70 -74q31 0 66.5 13.5t69.5 33t62 40.5l46 36l160 682h274z" />
<glyph unicode="v" horiz-adv-x="991" d="M532 1022l-16 -801q23 -4 38 16.5t28 53.5l325 731h291l-383 -813q-57 -123 -145 -168q-81 -41 -176 -41h-17h-205l-12 1022h272z" />
<glyph unicode="w" horiz-adv-x="1536" d="M518 1022l-55 -774q23 -2 41 11t37 54l227 516q33 76 77 125.5t111 49.5h174l-20 -756q27 2 46.5 16.5t29.5 48.5l278 709h281l-330 -791q-43 -104 -125 -166.5t-225 -64.5h-184l26 627l-159 -387q-102 -233 -340 -240h-193l43 1022h260z" />
<glyph unicode="x" horiz-adv-x="956" d="M545 1022l80 -317l229 317h305l-399 -512l166 -510h-281l-86 315l-223 -315h-305l393 510l-160 512h281z" />
<glyph unicode="y" horiz-adv-x="993" d="M518 1022l12 -660v-17q0 -61 27 -79l361 756h282l-485 -1012q-51 -106 -101.5 -181t-119 -131t-163.5 -104.5t-233 -101.5l-16 238l142 64q54 26 90 53.5t60.5 63.5t51.5 91q-150 57 -152 268l-14 752h258z" />
<glyph unicode="z" horiz-adv-x="976" d="M352 1024h740q2 -199 -166 -354l-428 -426h413l-53 -244h-739q-2 82 38 172t138 197l412 411h-412z" />
<glyph unicode="{" horiz-adv-x="694" d="M616 352q-4 -23 -13 -53l-19 -63l-21 -66q-10 -33 -16 -57q-6 -31 -6 -51.5t12 -34t38.5 -20.5t74.5 -11l-62 -270q-227 8 -315 88t-47 264q6 31 16 65.5t21.5 68.5t20.5 64.5t13 49.5q8 35 7 64.5t-16 54t-48 45t-88 36.5l53 230q61 14 103.5 31.5t68 40t39.5 50 t23 62.5q6 20 11 53l11 70l12 73q6 36 13 64q23 98 64.5 166t106 109t151.5 60t202 24l-61 -271q-47 -4 -78 -10t-49.5 -17.5t-27.5 -31t-17 -49.5q-6 -25 -11.5 -61l-11.5 -73l-11 -72q-5 -34 -11 -56q-14 -61 -36 -105.5t-52.5 -75t-74.5 -53t-106 -41.5 q104 -37 135 -102.5t2 -188.5z" />
<glyph unicode="|" d="M743 1536h283l-473 -2048h-283z" />
<glyph unicode="}" horiz-adv-x="694" d="M367 924q4 23 13 53l19 63l21 66q10 33 16 57q6 31 6 51.5t-12 34t-40 20.5t-73 11l62 270q227 -8 315 -88t47 -264q-6 -31 -17 -65l-22 -69l-19 -65q-9 -31 -13 -49q-8 -35 -7 -64.5t16 -54t48 -45t88 -36.5l-53 -230q-61 -14 -103.5 -31.5t-69 -40t-40.5 -50t-23 -62.5 l-9 -54l-11 -69l-12 -73q-6 -36 -13 -64q-23 -98 -64.5 -166t-105 -109t-150.5 -60.5t-200 -23.5l57 271q47 4 77 10t48.5 17.5t28.5 31t16 49.5q6 25 13 61l12 73l11 72q5 34 12 56q14 61 34.5 105.5t52 75t75.5 53t106 41.5q-104 37 -135 102.5t-2 188.5z" />
<glyph unicode="~" d="M1087 539q-39 -33 -79 -56q-37 -20 -83 -36.5t-100 -16.5q-41 0 -89 14.5t-95 30.5l-90 31q-43 14 -72 14q-37 0 -80 -12t-77 -29q-43 -18 -84 -41l38 258q39 31 86 54q41 20 91.5 37.5t107.5 17.5q39 0 84 -14.5l90 -30.5l88 -31q43 -14 80 -14q29 0 69 11t75 28 q41 18 83 41z" />
<glyph unicode="&#xa1;" d="M858 682h-295l80 340h295zM610 -412h-303l219 901h283z" />
<glyph unicode="&#xa2;" horiz-adv-x="894" d="M408 59q-172 12 -247 120t-22 333q53 223 177 329.5t300 121.5l48 206h229l-49 -217q31 -4 57.5 -7t48.5 -7q25 -4 47 -6l-63 -236q-47 0 -90 2q-37 2 -78 3t-70 1q-66 0 -111.5 -8t-78.5 -29.5t-53.5 -58.5t-34.5 -94q-12 -57 -9 -95t26.5 -59.5t66.5 -30t108 -8.5 q29 0 70 1.5t78 3.5l90 4l-45 -236q-23 -4 -49 -8q-23 -4 -52.5 -7t-62.5 -7l-51 -224h-230z" />
<glyph unicode="&#xa3;" d="M1206 1108l-106 8q-43 4 -85 6t-59 2q-70 0 -105.5 -31.5t-53.5 -111.5l-17 -68h375l-57 -249h-377l-70 -302q-8 -49 -20.5 -72.5t-24.5 -35.5h256q43 4 81 12t69 21l-15 -250q-43 -23 -87 -28t-87 -7h-171q-91 0 -185 -1t-185 -1h-171l55 254h110q35 2 63 26.5t46 88.5 l68 295h-166l57 249h166l18 72q25 113 67 190.5t95 126t117.5 70t134.5 21.5q45 0 101.5 -8.5t109.5 -18.5q59 -10 123 -25z" />
<glyph unicode="&#xa4;" d="M750 154q-92 -41 -184.5 -41t-164.5 41l-184 -150l-145 189l184 149q-23 82 -1.5 173t81.5 175l-115 150l232 188l116 -149q90 39 181.5 39t167.5 -39l182 149l145 -188l-184 -150q20 -84 -1.5 -175t-78.5 -173l115 -149l-232 -189zM524 408q35 -45 99.5 -45.5 t117.5 45.5q55 45 70.5 108.5t-18.5 108.5q-35 45 -98.5 45t-119.5 -45q-55 -45 -70.5 -108.5t19.5 -108.5z" />
<glyph unicode="&#xa5;" horiz-adv-x="1105" d="M281 805h198l-178 547h311l138 -494l364 494h313l-430 -547h193l-53 -230h-303l-9 -16l-16 -65h309l-53 -230h-309l-58 -264h-282l57 264h-317l53 230h317l17 65l-4 16h-312z" />
<glyph unicode="&#xa6;" d="M1036 1538l-194 -838h-283l195 838h282zM762 352l-199 -864h-282l198 864h283z" />
<glyph unicode="&#xa7;" d="M1171 1036q-66 8 -124 17q-51 6 -105.5 11t-91.5 5q-61 0 -101 -7t-65 -22.5t-39 -41t-22 -62.5q-10 -47 48 -71.5t199 -61.5q84 -23 138.5 -45.5t83 -56t32.5 -83t-14 -124.5q-16 -70 -63.5 -147t-104.5 -138q14 -16 24.5 -34.5t14.5 -43.5t2 -59.5t-14 -85.5 q-23 -100 -66 -171t-107.5 -116t-152.5 -66.5t-205 -21.5q-53 0 -118.5 6t-120.5 16q-68 10 -131 25l77 221l121 -16q51 -6 106.5 -10.5t98.5 -4.5q104 0 159.5 27t71.5 90q6 31 -3 50.5t-38.5 35t-81.5 29.5l-133 37q-80 20 -135 44.5t-85.5 60.5t-37 87t12.5 127 q8 37 28.5 77t48 78t58.5 69.5t59 50.5q-39 33 -50 81t11 140q45 195 179.5 285t351.5 90q53 0 114.5 -7.5t114.5 -17.5q61 -10 119 -25zM686 584q-33 10 -68.5 17t-64.5 17q-16 -18 -36.5 -58t-29.5 -73q-6 -31 -6 -50t11.5 -32.5t33 -22.5t56.5 -20q53 -16 95 -30.5 l75 -26.5q20 20 40.5 66.5t30.5 83.5q6 25 3 43t-18 33.5t-45 28t-77 24.5z" />
<glyph unicode="&#xa8;" horiz-adv-x="1107" d="M483 1511h262l-63 -270h-262zM926 1511h262l-64 -270h-262z" />
<glyph unicode="&#xa9;" d="M221 887q27 115 89.5 215t150.5 174t193.5 117t217.5 43q117 0 204 -44t139.5 -120t66.5 -174.5t-10 -208.5q-27 -115 -87.5 -214.5t-147.5 -173t-194.5 -115.5t-226.5 -42q-111 0 -195.5 42t-138 115.5t-70 173t8.5 212.5zM340 889q-20 -88 -8 -166t53 -135.5t107.5 -91 t154.5 -33.5q90 0 173 33.5t150.5 91t117 135.5t69.5 166t7 167t-54 137t-108.5 92t-155.5 34t-171 -34t-150.5 -92t-116 -137t-68.5 -167zM836 588l-43 -8q-23 -4 -51.5 -6.5t-63.5 -2.5q-141 0 -183 77t-1 249q35 154 111.5 230.5t217.5 76.5q35 0 63.5 -2t49.5 -4 q23 -4 41 -6l-45 -186q-18 2 -41 6q-20 2 -48 4t-63 2q-47 0 -70.5 -37t-33.5 -84q-12 -53 -5 -95t50 -42q35 0 61.5 1t48.5 3q23 2 46 6z" />
<glyph unicode="&#xaa;" d="M993 946q-4 -23 -1 -39t32 -22l-45 -150q-18 0 -42 2t-45.5 6.5t-41 11.5t-27.5 19q-33 -12 -69 -20q-31 -8 -67 -13.5t-69 -5.5q-102 0 -143 53.5t-16 159.5q23 90 87 141.5t175 55.5l145 6l2 10q2 4 3 13.5t-2 18.5t-11 16.5t-27 7.5q-27 0 -72 -3l-91 -4l-111 -4 l31 148q68 6 127 12l102 8q51 4 80 4q88 0 128 -60.5t17 -158.5zM707 1014q-57 -2 -72 -66q-8 -37 3 -50t40 -13q16 0 38.5 2t43.5 6q23 4 49 8l27 117z" />
<glyph unicode="&#xab;" horiz-adv-x="1245" d="M479 487l183 -176l-64 -264l-377 350l45 197l535 336l-64 -289zM1012 487l182 -176l-64 -264l-376 350l45 197l534 336l-63 -289z" />
<glyph unicode="&#xac;" d="M1151 754l-129 -561h-266l67 294h-616l61 267h883z" />
<glyph unicode="&#xad;" horiz-adv-x="901" d="M297 682h614l-59 -258h-614z" />
<glyph unicode="&#xae;" d="M193 889q27 117 88 221t150 182t203 124t245 46q129 0 223 -45t150.5 -122.5t71.5 -182t-11 -223.5q-27 -117 -91.5 -221.5t-156.5 -183t-207 -125t-244 -46.5q-131 0 -223 46.5t-145 124t-67.5 183t14.5 222.5zM307 889q-23 -94 -7.5 -178t59.5 -147.5t117 -100.5 t165 -37t181 37t163 100.5t128 147.5t77 178q23 98 7.5 182t-61.5 146.5t-118 98.5t-164 36q-94 0 -183 -36t-163 -98.5t-126 -146.5t-75 -182zM721 784h-74l-51 -219h-170l149 645h244q119 0 174.5 -45t28.5 -159q-18 -78 -47 -122t-86 -77l45 -242h-184zM674 913h78 q82 0 102 82q18 84 -72 84h-69z" />
<glyph unicode="&#xaf;" horiz-adv-x="995" d="M496 1511h669l-55 -237h-670z" />
<glyph unicode="&#xb0;" d="M457 1155q14 68 50 125t85 97t111.5 62.5t130.5 22.5q137 0 202.5 -85t34.5 -222q-16 -68 -52 -124t-85 -96t-111.5 -62.5t-130.5 -22.5q-137 0 -202.5 84t-32.5 221zM610 1155q-16 -70 15.5 -113t101.5 -43t124 43t71 113q16 70 -19 114t-104 44q-70 0 -121.5 -44 t-67.5 -114z" />
<glyph unicode="&#xb1;" d="M258 856h340l47 201h279l-47 -201h340l-62 -270h-340l-45 -191h-278l45 191h-340zM1092 313l-64 -270h-958l63 270h959z" />
<glyph unicode="&#xb2;" horiz-adv-x="542" d="M252 979l43 184l176 121q61 41 89 67.5t32 49.5q4 18 -12.5 24.5t-55.5 6.5q-16 0 -43 -2l-53 -5q-31 -4 -63 -6l38 203l89 8q37 4 79.5 7t77.5 3q129 0 168 -47t12 -157q-16 -70 -53 -115t-108 -90l-90 -57h192l-45 -195h-473z" />
<glyph unicode="&#xb3;" horiz-adv-x="542" d="M420 1622l82 8q35 4 73.5 7t69.5 3q248 0 207 -182q-25 -109 -92 -143q31 -16 42 -50t-5 -100q-25 -106 -102 -157.5t-189 -51.5q-39 0 -81 2.5t-79 6.5l-84 8l57 190q35 -4 70 -6q29 -4 60.5 -5t58.5 -1q59 0 67 33q4 18 -7 23t-40 5h-135l41 174h131q41 0 47 29 q4 18 -10 24.5t-39 6.5q-29 0 -58.5 -2t-55.5 -4l-60 -4z" />
<glyph unicode="&#xb4;" horiz-adv-x="1204" d="M1073 1589l29 -260l-572 -160l-28 232z" />
<glyph unicode="&#xb5;" d="M342 1022h274l-131 -567q-12 -55 -17 -99.5t4 -75t32.5 -47t68.5 -16.5q25 0 57 5t60 11q33 8 68 19l178 770h274l-233 -1022h-275l7 43q-45 -20 -86 -35q-35 -12 -74 -22.5t-68 -10.5q-51 0 -72.5 20.5t-23.5 24.5l-109 -471h-274z" />
<glyph unicode="&#x3bc;" d="M342 1022h274l-131 -567q-12 -55 -17 -99.5t4 -75t32.5 -47t68.5 -16.5q25 0 57 5t60 11q33 8 68 19l178 770h274l-233 -1022h-275l7 43q-45 -20 -86 -35q-35 -12 -74 -22.5t-68 -10.5q-51 0 -72.5 20.5t-23.5 24.5l-109 -471h-274z" />
<glyph unicode="&#xb6;" d="M1020 1223h-98l-279 -1223h-231l141 627h-14q-86 0 -149.5 29.5t-101.5 83t-48.5 127t10.5 161.5q20 88 64 163t106.5 128t140.5 84t164 31h682l-49 -211h-107l-278 -1223h-232z" />
<glyph unicode="&#xb7;" horiz-adv-x="507" d="M266 764h295l-80 -340h-295z" />
<glyph unicode="&#xb8;" horiz-adv-x="1705" d="M1100 -260q-25 -104 -98.5 -158.5t-178.5 -54.5q-68 0 -125 10l-59 12l45 160q16 -2 35 -2h61q80 0 90 53q6 27 -9 36t-56 9h-49l45 197h108l-18 -78q61 0 107 -8t73 -27.5t34 -55.5t-5 -93z" />
<glyph unicode="&#xb9;" horiz-adv-x="542" d="M621 1618h196l-147 -639h-217l92 399l-113 -65l-63 151z" />
<glyph unicode="&#xba;" d="M846 1376q66 0 116 -16.5t79.5 -53t36.5 -97t-13 -148.5q-41 -176 -138.5 -251t-230.5 -75q-66 0 -115 18.5t-76.5 57.5t-32.5 100.5t15 149.5q39 174 132.5 244.5t226.5 70.5zM735 899q59 0 93 33t57 129q20 86 -1.5 118.5t-76.5 32.5t-87 -32.5t-52 -118.5 q-23 -96 -5.5 -129t72.5 -33z" />
<glyph unicode="&#xbb;" horiz-adv-x="1245" d="M809 692l63 258l379 -336l-45 -196l-538 -350l65 294l264 177zM276 692l64 258l379 -336l-45 -196l-539 -350l66 294l264 177z" />
<glyph unicode="&#xbc;" horiz-adv-x="3256" d="M2833 219h-566l54 225l550 908h308l-531 -871h246l80 353h282l-79 -353h124l-61 -262h-125l-55 -239h-283zM2117 1475l242 -91l-912 -1433l-241 90zM809 1352h262l-309 -1352h-283l234 1026l-324 -190l-80 221z" />
<glyph unicode="&#xbd;" horiz-adv-x="3256" d="M2271 0l56 252l354 283q162 133 253 229t114 194q18 78 -23 118t-152 40q-53 0 -111.5 -6t-107.5 -14q-57 -8 -112 -21l41 248q68 14 139 27q61 10 136 18t147 8q217 0 300 -105.5t40 -295.5q-18 -78 -45 -139.5t-71 -119t-109.5 -118.5t-162.5 -139l-254 -195h496 l-57 -264h-871zM2117 1475l242 -91l-912 -1433l-241 90zM809 1352h262l-309 -1352h-283l234 1026l-324 -190l-80 221z" />
<glyph unicode="&#xbe;" horiz-adv-x="3256" d="M2833 219h-566l54 225l550 908h308l-531 -871h246l80 353h282l-79 -353h124l-61 -262h-125l-55 -239h-283zM2117 1475l242 -91l-912 -1433l-241 90zM424 1323l139 27q59 10 130 18t132 8q252 0 335 -97t40 -286q-27 -111 -82 -171t-141 -109q37 -23 64.5 -49.5t43 -63.5 t16.5 -86t-16 -117q-49 -215 -181 -318.5t-365 -103.5q-76 0 -153 6.5t-138 16.5q-74 10 -142 25l82 239l136 -12q57 -4 120.5 -7t114.5 -3q199 0 238 161q16 76 -25 113t-127 37h-262l55 246h262q35 0 68 15t60.5 40t47 53.5t25.5 52.5q18 80 -29 117t-129 37 q-59 0 -121 -5l-114 -9l-115 -13z" />
<glyph unicode="&#xbf;" horiz-adv-x="790" d="M0 -35q25 109 93.5 191t144.5 146l137 115q61 50 71 97l19 78h278q0 -25 -2 -47q-4 -43 -10 -78q-12 -49 -45 -94t-77 -87t-94 -80t-92 -73t-74 -67.5t-38 -63.5q-10 -37 -12 -65.5t11.5 -48t45 -29t90.5 -9.5q39 0 92.5 5.5t102.5 11.5l117 16l-25 -245 q-76 -23 -145 -39q-59 -16 -126 -27.5t-116 -11.5q-113 0 -190.5 21.5t-120.5 68.5t-51.5 124.5t16.5 190.5zM786 702h-294l73 320h295z" />
<glyph unicode="&#xc0;" horiz-adv-x="1239" d="M1303 1767l-136 -231l-497 160l149 260zM569 1149q133 264 420 264h211l-12 -1413h-270l-11 244h-458l-107 -244h-291zM934 1167q-29 -2 -58.5 -18t-54.5 -68l-256 -577h350z" />
<glyph unicode="&#xc1;" horiz-adv-x="1239" d="M1262 1978l28 -260l-571 -159l-29 231zM569 1149q133 264 420 264h211l-12 -1413h-270l-11 244h-458l-107 -244h-291zM934 1167q-29 -2 -58.5 -18t-54.5 -68l-256 -577h350z" />
<glyph unicode="&#xc2;" horiz-adv-x="1239" d="M924 1913h252l198 -305h-307l-63 88l-105 -88h-313zM569 1149q133 264 420 264h211l-12 -1413h-270l-11 244h-458l-107 -244h-291zM934 1167q-29 -2 -58.5 -18t-54.5 -68l-256 -577h350z" />
<glyph unicode="&#xc3;" horiz-adv-x="1239" d="M1403 1716q-41 -37 -84 -65q-37 -25 -81 -44.5t-85 -19.5t-86 14.5l-90 30.5l-84 31q-39 14 -64 14q-23 0 -54.5 -12t-59.5 -29q-35 -18 -70 -41l-10 207q41 37 84 66q37 25 80 45t84 20q47 0 95 -13t92 -31l79 -30q35 -13 57 -14q20 0 51 11.5t62 27.5l74 41zM569 1149 q133 264 420 264h211l-12 -1413h-270l-11 244h-458l-107 -244h-291zM934 1167q-29 -2 -58.5 -18t-54.5 -68l-256 -577h350z" />
<glyph unicode="&#xc4;" horiz-adv-x="1239" d="M702 1896h263l-62 -270h-262zM1157 1896h262l-61 -270h-262zM569 1149q133 264 420 264h211l-12 -1413h-270l-11 244h-458l-107 -244h-291zM934 1167q-29 -2 -58.5 -18t-54.5 -68l-256 -577h350z" />
<glyph unicode="&#xc5;" horiz-adv-x="1239" d="M1270 1477q-10 -39 -27.5 -71t-40.5 -60l-14 -1346h-273l-10 244h-454l-107 -244h-293l608 1350q-10 29 -12 59.5t8 67.5q14 61 50 109t85.5 81t108.5 50.5t123 17.5q61 0 113.5 -17.5t87 -50.5t48 -81t-0.5 -109zM567 504h346l19 663h-70zM866 1477q-12 -51 45 -64h74 q61 12 74 64q8 31 -13.5 49t-66.5 18t-75 -18t-38 -49z" />
<glyph unicode="&#xc6;" horiz-adv-x="1658" d="M733 244h-313l-107 -244h-282l565 1253q39 86 104.5 121t149.5 39h1030l-61 -262h-600l-76 -332h477l-57 -248h-478l-71 -309h600l-58 -262h-876zM537 504h256l149 649h-117z" />
<glyph unicode="&#xc7;" horiz-adv-x="1099" d="M840 -260q-25 -104 -98.5 -158.5t-178.5 -54.5q-68 0 -125 10l-59 12l45 160q16 -2 35 -2h61q80 0 90 53q6 27 -9 36t-56 9h-49l39 175q-129 10 -205 59t-106.5 140t-21.5 222t50 306q45 199 107.5 338t145.5 227t191.5 127t247.5 39q57 0 124 -7.5t126 -17.5 q68 -10 135 -24l-65 -246l-138 12l-112 8q-57 4 -92 4q-74 0 -130.5 -19.5t-100.5 -71.5t-80 -141t-68 -228q-31 -131 -38 -219.5t12.5 -142.5t67.5 -76.5t132 -22.5q31 0 88 3t115 7q68 6 143 12l-53 -252l-129 -16l-120 -13q-65 -7 -118 -10l-12 -53q61 0 107 -8t73 -27.5 t34 -55.5t-5 -93z" />
<glyph unicode="&#xc8;" horiz-adv-x="1132" d="M1368 1767l-135 -231l-498 160l150 260zM1030 0h-424q-96 0 -176 33t-132 89t-72.5 134t1.5 170q18 78 40 130t51.5 87t70.5 56.5t98 37.5q-25 25 -46 51.5t-33.5 63.5t-12.5 86t19 119q25 96 76 163.5t120.5 110.5t152.5 62.5t171 19.5h418l-56 -260h-413 q-66 0 -122 -35t-79 -114q-20 -84 12.5 -135.5t100.5 -51.5h301l-60 -244h-307q-35 0 -70.5 -8t-66.5 -25.5t-55.5 -46t-34.5 -71.5q-23 -88 18 -126t121 -38h446z" />
<glyph unicode="&#xc9;" horiz-adv-x="1132" d="M1292 1978l29 -260l-571 -159l-29 231zM1030 0h-424q-96 0 -176 33t-132 89t-72.5 134t1.5 170q18 78 40 130t51.5 87t70.5 56.5t98 37.5q-25 25 -46 51.5t-33.5 63.5t-12.5 86t19 119q25 96 76 163.5t120.5 110.5t152.5 62.5t171 19.5h418l-56 -260h-413q-66 0 -122 -35 t-79 -114q-20 -84 12.5 -135.5t100.5 -51.5h301l-60 -244h-307q-35 0 -70.5 -8t-66.5 -25.5t-55.5 -46t-34.5 -71.5q-23 -88 18 -126t121 -38h446z" />
<glyph unicode="&#xca;" horiz-adv-x="1132" d="M920 1919h251l197 -305h-307l-64 88l-104 -88h-313zM1030 0h-424q-96 0 -176 33t-132 89t-72.5 134t1.5 170q18 78 40 130t51.5 87t70.5 56.5t98 37.5q-25 25 -46 51.5t-33.5 63.5t-12.5 86t19 119q25 96 76 163.5t120.5 110.5t152.5 62.5t171 19.5h418l-56 -260h-413 q-66 0 -122 -35t-79 -114q-20 -84 12.5 -135.5t100.5 -51.5h301l-60 -244h-307q-35 0 -70.5 -8t-66.5 -25.5t-55.5 -46t-34.5 -71.5q-23 -88 18 -126t121 -38h446z" />
<glyph unicode="&#xcb;" horiz-adv-x="1132" d="M694 1896h262l-61 -270h-262zM1149 1896h262l-61 -270h-263zM1030 0h-424q-96 0 -176 33t-132 89t-72.5 134t1.5 170q18 78 40 130t51.5 87t70.5 56.5t98 37.5q-25 25 -46 51.5t-33.5 63.5t-12.5 86t19 119q25 96 76 163.5t120.5 110.5t152.5 62.5t171 19.5h418l-56 -260 h-413q-66 0 -122 -35t-79 -114q-20 -84 12.5 -135.5t100.5 -51.5h301l-60 -244h-307q-35 0 -70.5 -8t-66.5 -25.5t-55.5 -46t-34.5 -71.5q-23 -88 18 -126t121 -38h446z" />
<glyph unicode="&#xcc;" horiz-adv-x="569" d="M467 1413h283l-324 -1413h-283zM915 1767l-135 -231l-495 160l149 260z" />
<glyph unicode="&#xcd;" horiz-adv-x="569" d="M467 1413h283l-324 -1413h-283zM1018 1978l29 -260l-572 -159l-29 231z" />
<glyph unicode="&#xce;" horiz-adv-x="569" d="M467 1413h283l-324 -1413h-283zM594 1919h252l196 -305h-307l-63 88l-105 -88h-311z" />
<glyph unicode="&#xcf;" horiz-adv-x="569" d="M467 1413h283l-324 -1413h-283zM367 1921h260l-62 -270h-260zM819 1921h262l-61 -270h-262z" />
<glyph unicode="&#xd0;" horiz-adv-x="1282" d="M223 838h121l133 575h455q174 0 277.5 -41t149.5 -124t42 -212t-45 -303q-41 -180 -96.5 -317t-139.5 -229.5t-208 -139.5t-304 -47h-454l127 567h-121zM1065 733q25 106 33 186t-10.5 131.5t-70.5 77t-147 25.5h-176l-71 -315h256l-64 -271h-256l-70 -307h177 q94 0 159.5 33t109.5 94.5t74.5 149t55.5 196.5z" />
<glyph unicode="&#xd1;" horiz-adv-x="1435" d="M1509 1714q-41 -37 -84 -65q-37 -25 -81 -44.5t-84 -19.5q-41 0 -87.5 14.5t-90.5 30.5l-84 31q-40 14 -64 14q-23 0 -53.5 -12t-59.5 -29q-35 -18 -69 -41l-13 207q41 37 84 66q37 25 81 45t85 20q47 0 95.5 -13t91.5 -31l77 -30q35 -13 58 -14q20 0 51 11.5t61 27.5 l74 41zM477 1413h205q53 0 99 -12t83 -43t60.5 -83t31.5 -134l80 -793q2 -27 6.5 -40t20.5 -19l260 1124h283l-324 -1413h-227q-115 4 -170.5 66.5t-69.5 173.5l-96 835q-2 31 -6 43t-19 10l-258 -1128h-282z" />
<glyph unicode="&#xd2;" horiz-adv-x="1318" d="M711 236q78 0 137 26.5t104 81.5t79 142t63 210q57 244 23 363t-189 119q-78 0 -137.5 -30t-105.5 -89.5t-81 -149.5t-63 -213q-29 -123 -35 -210t13.5 -142t66.5 -81.5t125 -26.5zM651 -25q-158 0 -255 46.5t-143 136.5t-45 225t42 313t103.5 316.5t151.5 232.5 t207.5 143.5t276.5 49.5q156 0 253 -49.5t142.5 -143.5t43 -232.5t-43.5 -316.5t-102 -313t-149.5 -225t-207 -136.5t-274.5 -46.5zM1364 1767l-135 -231l-498 160l150 260z" />
<glyph unicode="&#xd3;" horiz-adv-x="1318" d="M711 236q78 0 137 26.5t104 81.5t79 142t63 210q57 244 23 363t-189 119q-78 0 -137.5 -30t-105.5 -89.5t-81 -149.5t-63 -213q-29 -123 -35 -210t13.5 -142t66.5 -81.5t125 -26.5zM651 -25q-158 0 -255 46.5t-143 136.5t-45 225t42 313t103.5 316.5t151.5 232.5 t207.5 143.5t276.5 49.5q156 0 253 -49.5t142.5 -143.5t43 -232.5t-43.5 -316.5t-102 -313t-149.5 -225t-207 -136.5t-274.5 -46.5zM1303 1978l28 -260l-571 -159l-29 231z" />
<glyph unicode="&#xd4;" horiz-adv-x="1318" d="M711 236q78 0 137 26.5t104 81.5t79 142t63 210q57 244 23 363t-189 119q-78 0 -137.5 -30t-105.5 -89.5t-81 -149.5t-63 -213q-29 -123 -35 -210t13.5 -142t66.5 -81.5t125 -26.5zM651 -25q-158 0 -255 46.5t-143 136.5t-45 225t42 313t103.5 316.5t151.5 232.5 t207.5 143.5t276.5 49.5q156 0 253 -49.5t142.5 -143.5t43 -232.5t-43.5 -316.5t-102 -313t-149.5 -225t-207 -136.5t-274.5 -46.5zM985 1913h252l199 -305h-308l-63 88l-104 -88h-314z" />
<glyph unicode="&#xd5;" horiz-adv-x="1318" d="M711 236q78 0 137 26.5t104 81.5t79 142t63 210q57 244 23 363t-189 119q-78 0 -137.5 -30t-105.5 -89.5t-81 -149.5t-63 -213q-29 -123 -35 -210t13.5 -142t66.5 -81.5t125 -26.5zM651 -25q-158 0 -255 46.5t-143 136.5t-45 225t42 313t103.5 316.5t151.5 232.5 t207.5 143.5t276.5 49.5q156 0 253 -49.5t142.5 -143.5t43 -232.5t-43.5 -316.5t-102 -313t-149.5 -225t-207 -136.5t-274.5 -46.5zM1446 1714q-41 -37 -84 -65q-37 -25 -81 -44.5t-85 -19.5t-87 14.5t-90 30.5l-84 31q-40 14 -65 14q-23 0 -53.5 -12t-58.5 -29 q-35 -18 -70 -41l-12 207q41 37 84 66q37 25 81 45t85 20q47 0 95 -13t91 -31l78 -30q35 -13 57 -14q20 0 51 11.5t62 27.5l74 41z" />
<glyph unicode="&#xd6;" horiz-adv-x="1318" d="M711 236q78 0 137 26.5t104 81.5t79 142t63 210q57 244 23 363t-189 119q-78 0 -137.5 -30t-105.5 -89.5t-81 -149.5t-63 -213q-29 -123 -35 -210t13.5 -142t66.5 -81.5t125 -26.5zM651 -25q-158 0 -255 46.5t-143 136.5t-45 225t42 313t103.5 316.5t151.5 232.5 t207.5 143.5t276.5 49.5q156 0 253 -49.5t142.5 -143.5t43 -232.5t-43.5 -316.5t-102 -313t-149.5 -225t-207 -136.5t-274.5 -46.5zM735 1896h262l-61 -270h-262zM1190 1896h262l-61 -270h-263z" />
<glyph unicode="&#xd7;" d="M700 745l344 279l146 -190l-342 -281l209 -272l-234 -191l-211 272l-344 -280l-147 192l346 281l-209 272l234 191z" />
<glyph unicode="&#xd8;" horiz-adv-x="1343" d="M651 -25q-127 0 -215 31l-178 -256l-141 82l180 260q-80 88 -88 238.5t41 365.5q41 178 103.5 316.5t151.5 232.5t207.5 143.5t276.5 49.5q129 0 219 -37l176 250l154 -64l-195 -280q76 -92 83.5 -246t-42.5 -365q-41 -178 -102 -313t-149.5 -225t-207 -136.5 t-274.5 -46.5zM541 696q-47 -201 -33 -303l530 762q-23 10 -49 16.5t-61 6.5q-78 0 -137.5 -30t-105.5 -89.5t-80.5 -149.5t-63.5 -213zM711 236q78 0 137 26.5t104 81.5t79 142t63 210q43 190 34 301l-520 -747q42 -14 103 -14z" />
<glyph unicode="&#xd9;" horiz-adv-x="1323" d="M530 471q-29 -125 16.5 -173t170.5 -48t192.5 49t96.5 172l217 942h280l-217 -942q-31 -131 -82 -223t-127 -151.5t-181 -87t-243 -27.5q-139 0 -230 27.5t-140.5 87t-56.5 151.5t24 223l217 942h281zM1350 1767l-136 -231l-497 160l149 260z" />
<glyph unicode="&#xda;" horiz-adv-x="1323" d="M530 471q-29 -125 16.5 -173t170.5 -48t192.5 49t96.5 172l217 942h280l-217 -942q-31 -131 -82 -223t-127 -151.5t-181 -87t-243 -27.5q-139 0 -230 27.5t-140.5 87t-56.5 151.5t24 223l217 942h281zM1309 1978l28 -260l-571 -159l-29 231z" />
<glyph unicode="&#xdb;" horiz-adv-x="1323" d="M530 471q-29 -125 16.5 -173t170.5 -48t192.5 49t96.5 172l217 942h280l-217 -942q-31 -131 -82 -223t-127 -151.5t-181 -87t-243 -27.5q-139 0 -230 27.5t-140.5 87t-56.5 151.5t24 223l217 942h281zM973 1913h252l198 -305h-307l-63 88l-105 -88h-313z" />
<glyph unicode="&#xdc;" horiz-adv-x="1323" d="M530 471q-29 -125 16.5 -173t170.5 -48t192.5 49t96.5 172l217 942h280l-217 -942q-31 -131 -82 -223t-127 -151.5t-181 -87t-243 -27.5q-139 0 -230 27.5t-140.5 87t-56.5 151.5t24 223l217 942h281zM739 1921h262l-61 -270h-262zM1194 1921h262l-61 -270h-262z" />
<glyph unicode="&#xdd;" horiz-adv-x="1169" d="M727 0h-278l137 604l-232 809h291l123 -512l358 512h336l-598 -809zM1370 1980l29 -260l-572 -159l-28 231z" />
<glyph unicode="&#xde;" horiz-adv-x="1212" d="M750 477q106 0 172.5 60.5t93.5 175.5q25 106 -13 167.5t-145 61.5h-207l-108 -465h207zM481 205l-45 -205h-282l323 1413h283l-47 -201h209q248 0 342 -128t39 -371q-59 -250 -212 -379t-401 -129h-209z" />
<glyph unicode="&#xdf;" horiz-adv-x="1286" d="M137 0l244 1069q49 211 186.5 298t374.5 87q246 0 343 -70.5t56 -246.5q-14 -59 -33.5 -98.5t-48 -67t-70.5 -49t-102 -45.5q-41 -18 -67.5 -33t-42.5 -27t-24.5 -25.5t-10.5 -27.5q-4 -12 -1 -23.5t20.5 -23.5t51.5 -30.5t93 -45.5q61 -29 99 -56.5t56.5 -62.5t19.5 -80 t-13 -106q-25 -104 -64 -173t-98 -109t-144 -56t-202 -16q-23 0 -69 6t-91 14q-53 8 -113 23l60 219q59 -2 112 -4q45 -2 85 -3t55 -1q49 0 81.5 3t53 12t31 24.5t16.5 39.5q8 35 -15.5 66t-119.5 68q-70 27 -113 54t-65.5 62t-24.5 81t12 108q23 100 74 151t141 90 q53 23 87 39.5t54.5 29.5t29 24.5t12.5 27.5q12 53 -32 71.5t-136 18.5q-88 0 -150.5 -31.5t-81.5 -111.5l-241 -1063h-275z" />
<glyph unicode="&#xe0;" horiz-adv-x="1081" d="M1155 1399l-135 -232l-498 160l150 260zM969 293q-6 -39 17.5 -60.5t64.5 -29.5l-66 -223q-104 4 -163.5 25.5t-88.5 62.5q-51 -33 -116.5 -60.5t-139.5 -27.5q-156 0 -220 80.5t-64 224.5q0 53 8 114.5t22 122.5q57 242 191.5 381t353.5 139q59 0 98 -6t72 -16l203 29z M492 213q29 0 62.5 9t65 24.5t59.5 33t44 33.5l106 488q-37 6 -77 6q-115 0 -182.5 -84t-104.5 -238q-14 -61 -23.5 -111t-9.5 -85q1 -76 60 -76z" />
<glyph unicode="&#xe1;" horiz-adv-x="1081" d="M1212 1589l29 -260l-571 -160l-29 232zM969 293q-6 -39 17.5 -60.5t64.5 -29.5l-66 -223q-104 4 -163.5 25.5t-88.5 62.5q-51 -33 -116.5 -60.5t-139.5 -27.5q-156 0 -220 80.5t-64 224.5q0 53 8 114.5t22 122.5q57 242 191.5 381t353.5 139q59 0 98 -6t72 -16l203 29z M492 213q29 0 62.5 9t65 24.5t59.5 33t44 33.5l106 488q-37 6 -77 6q-115 0 -182.5 -84t-104.5 -238q-14 -61 -23.5 -111t-9.5 -85q1 -76 60 -76z" />
<glyph unicode="&#xe2;" horiz-adv-x="1081" d="M760 1540h221l188 -352h-292l-58 125l-117 -125h-292zM969 293q-6 -39 17.5 -60.5t64.5 -29.5l-66 -223q-104 4 -163.5 25.5t-88.5 62.5q-51 -33 -116.5 -60.5t-139.5 -27.5q-156 0 -220 80.5t-64 224.5q0 53 8 114.5t22 122.5q57 242 191.5 381t353.5 139q59 0 98 -6 t72 -16l203 29zM492 213q29 0 62.5 9t65 24.5t59.5 33t44 33.5l106 488q-37 6 -77 6q-115 0 -182.5 -84t-104.5 -238q-14 -61 -23.5 -111t-9.5 -85q1 -76 60 -76z" />
<glyph unicode="&#xe3;" horiz-adv-x="1081" d="M1196 1327q-41 -37 -82 -65q-37 -25 -81 -44.5t-85 -19.5t-81 14.5t-76 30.5l-70 31q-33 14 -57 14q-23 0 -54.5 -12t-60.5 -29q-35 -18 -70 -41l-10 205q41 37 84 66q37 25 80 45t84 20q47 0 89 -13t77 -31l63 -31q29 -13 51 -13q20 0 51 11.5t62 27.5l74 41zM969 293 q-6 -39 17.5 -60.5t64.5 -29.5l-66 -223q-104 4 -163.5 25.5t-88.5 62.5q-51 -33 -116.5 -60.5t-139.5 -27.5q-156 0 -220 80.5t-64 224.5q0 53 8 114.5t22 122.5q57 242 191.5 381t353.5 139q59 0 98 -6t72 -16l203 29zM492 213q29 0 62.5 9t65 24.5t59.5 33t44 33.5 l106 488q-37 6 -77 6q-115 0 -182.5 -84t-104.5 -238q-14 -61 -23.5 -111t-9.5 -85q1 -76 60 -76z" />
<glyph unicode="&#xe4;" horiz-adv-x="1081" d="M582 1511h262l-64 -270h-262zM1024 1511h262l-63 -270h-262zM969 293q-6 -39 17.5 -60.5t64.5 -29.5l-66 -223q-104 4 -163.5 25.5t-88.5 62.5q-51 -33 -116.5 -60.5t-139.5 -27.5q-156 0 -220 80.5t-64 224.5q0 53 8 114.5t22 122.5q57 242 191.5 381t353.5 139 q59 0 98 -6t72 -16l203 29zM492 213q29 0 62.5 9t65 24.5t59.5 33t44 33.5l106 488q-37 6 -77 6q-115 0 -182.5 -84t-104.5 -238q-14 -61 -23.5 -111t-9.5 -85q1 -76 60 -76z" />
<glyph unicode="&#xe5;" horiz-adv-x="1081" d="M608 1348q12 49 40 93t68 76.5t88 51t99 18.5q49 0 89 -18.5t64.5 -51t34 -76.5t-3.5 -93q-12 -51 -40.5 -95.5t-68.5 -76t-88 -50t-97 -18.5q-104 0 -156 68t-29 172zM786 1348q-6 -29 7.5 -46.5t42.5 -17.5q27 0 48 17.5t27 46.5q6 27 -7 44t-40 17q-29 0 -50.5 -17 t-27.5 -44zM969 293q-6 -39 17.5 -60.5t64.5 -29.5l-66 -223q-104 4 -163.5 25.5t-88.5 62.5q-51 -33 -116.5 -60.5t-139.5 -27.5q-156 0 -220 80.5t-64 224.5q0 53 8 114.5t22 122.5q57 242 191.5 381t353.5 139q59 0 98 -6t72 -16l203 29zM492 213q29 0 62.5 9t65 24.5 t59.5 33t44 33.5l106 488q-37 6 -77 6q-115 0 -182.5 -84t-104.5 -238q-14 -61 -23.5 -111t-9.5 -85q1 -76 60 -76z" />
<glyph unicode="&#xe6;" horiz-adv-x="1648" d="M1200 205q55 0 111.5 12t106.5 31.5t93 43t72 44.5l-43 -211q-14 -16 -51 -42t-91.5 -49.5t-124 -41t-147.5 -17.5q-104 0 -183 24t-120 75l-53 -23q-57 -25 -136 -50.5t-192 -25.5q-117 0 -186.5 65.5t-69.5 180.5q0 106 36 181t94.5 123t134 72t153.5 30l225 14l13 57 q2 10 2 27q0 33 -17.5 52.5t-54.5 19.5q-57 0 -127 -5.5t-131 -9.5q-72 -8 -145 -14l45 233l155 23q66 8 137.5 15.5t129.5 7.5q86 0 150.5 -18.5t98.5 -63.5q31 20 70 35.5t83 25.5t89 15.5t86 5.5q61 0 109.5 -24t82 -61.5t52 -88t18.5 -103.5q0 -59 -22.5 -117.5 t-69.5 -107.5t-120.5 -84t-176.5 -47l-237 -17q-8 -31 -9 -63q0 -59 37 -94t123 -35zM541 205q31 0 65.5 4t63.5 10q35 8 65 17l47 202l-178 -8q-53 -4 -93 -43t-40 -104q0 -37 20.5 -57.5t49.5 -20.5zM1219 612q43 6 76.5 21.5t57 37t36 46t12.5 45.5q0 23 -16.5 39 t-51.5 16q-57 0 -97 -15.5t-67.5 -44t-45 -68.5t-29.5 -87z" />
<glyph unicode="&#xe7;" horiz-adv-x="892" d="M834 129q-55 -53 -131 -89t-156 -52l-10 -64q125 -2 177 -50t31 -134q-25 -104 -98.5 -158.5t-177.5 -54.5q-68 0 -125 10l-59 12l45 160q16 -2 35 -2h61q80 0 90 53q6 27 -9 36t-56 9h-50l39 172q-113 2 -172 56.5t-80.5 137.5t-10.5 183.5t40 192.5q154 496 551 495 q33 0 71 -3t74.5 -9t69.5 -15t55 -22l-63 -231q-14 8 -41 16t-57.5 14.5t-64.5 10.5t-60 4q-104 0 -176 -85t-119 -239q-12 -37 -19.5 -82t-3.5 -83.5t22.5 -64.5t59.5 -26q59 0 131 32t113 81z" />
<glyph unicode="&#xe8;" horiz-adv-x="1038" d="M1083 1399l-135 -232l-497 160l149 260zM915 98q-25 -16 -67.5 -36.5t-96 -39t-115 -30.5t-122.5 -12q-180 0 -257 88t-77 243q0 104 29 215q33 131 92 227.5t134 161t157 96t162 31.5q158 0 245.5 -72.5t87.5 -189.5q0 -33 -7 -71.5t-22.5 -76.5t-42 -74t-63.5 -64 q-55 -43 -125.5 -71t-142.5 -45.5t-138.5 -25.5t-115.5 -10q-6 -25 -3 -48.5t15.5 -43t37 -31.5t61.5 -12q39 0 91 11t104 29.5t99.5 41t79.5 45.5v-236zM735 811q-68 0 -142.5 -65.5t-119.5 -194.5q57 6 123 16.5t121 30.5t92 55t37 90q0 31 -25 49.5t-86 18.5z" />
<glyph unicode="&#xe9;" horiz-adv-x="1038" d="M1124 1589l29 -260l-571 -160l-29 232zM915 98q-25 -16 -67.5 -36.5t-96 -39t-115 -30.5t-122.5 -12q-180 0 -257 88t-77 243q0 104 29 215q33 131 92 227.5t134 161t157 96t162 31.5q158 0 245.5 -72.5t87.5 -189.5q0 -33 -7 -71.5t-22.5 -76.5t-42 -74t-63.5 -64 q-55 -43 -125.5 -71t-142.5 -45.5t-138.5 -25.5t-115.5 -10q-6 -25 -3 -48.5t15.5 -43t37 -31.5t61.5 -12q39 0 91 11t104 29.5t99.5 41t79.5 45.5v-236zM735 811q-68 0 -142.5 -65.5t-119.5 -194.5q57 6 123 16.5t121 30.5t92 55t37 90q0 31 -25 49.5t-86 18.5z" />
<glyph unicode="&#xea;" horiz-adv-x="1038" d="M764 1561h221l189 -353h-263l-61 140l-123 -140h-313zM915 98q-25 -16 -67.5 -36.5t-96 -39t-115 -30.5t-122.5 -12q-180 0 -257 88t-77 243q0 104 29 215q33 131 92 227.5t134 161t157 96t162 31.5q158 0 245.5 -72.5t87.5 -189.5q0 -33 -7 -71.5t-22.5 -76.5t-42 -74 t-63.5 -64q-55 -43 -125.5 -71t-142.5 -45.5t-138.5 -25.5t-115.5 -10q-6 -25 -3 -48.5t15.5 -43t37 -31.5t61.5 -12q39 0 91 11t104 29.5t99.5 41t79.5 45.5v-236zM735 811q-68 0 -142.5 -65.5t-119.5 -194.5q57 6 123 16.5t121 30.5t92 55t37 90q0 31 -25 49.5t-86 18.5z " />
<glyph unicode="&#xeb;" horiz-adv-x="1038" d="M596 1511h262l-63 -270h-263zM1038 1511h262l-63 -270h-262zM915 98q-25 -16 -67.5 -36.5t-96 -39t-115 -30.5t-122.5 -12q-180 0 -257 88t-77 243q0 104 29 215q33 131 92 227.5t134 161t157 96t162 31.5q158 0 245.5 -72.5t87.5 -189.5q0 -33 -7 -71.5t-22.5 -76.5 t-42 -74t-63.5 -64q-55 -43 -125.5 -71t-142.5 -45.5t-138.5 -25.5t-115.5 -10q-6 -25 -3 -48.5t15.5 -43t37 -31.5t61.5 -12q39 0 91 11t104 29.5t99.5 41t79.5 45.5v-236zM735 811q-68 0 -142.5 -65.5t-119.5 -194.5q57 6 123 16.5t121 30.5t92 55t37 90q0 31 -25 49.5 t-86 18.5z" />
<glyph unicode="&#xec;" horiz-adv-x="548" d="M371 1022h274l-233 -1022h-275zM801 1399l-135 -232l-496 160l149 260z" />
<glyph unicode="&#xed;" horiz-adv-x="534" d="M883 1589l28 -260l-571 -160l-27 232zM371 1022h274l-233 -1022h-275z" />
<glyph unicode="&#xee;" horiz-adv-x="548" d="M371 1022h274l-233 -1022h-275zM504 1540h221l188 -352h-292l-58 125l-117 -125h-290z" />
<glyph unicode="&#xef;" horiz-adv-x="548" d="M313 1511h260l-63 -270h-260zM754 1511h262l-64 -270h-262zM371 1022h274l-233 -1022h-275z" />
<glyph unicode="&#xf0;" d="M455 1112l98 66l-143 24l90 232q102 -8 190 -21.5t164 -36.5l231 154l74 -156l-115 -78q129 -80 173.5 -221t-7.5 -364q-43 -184 -104.5 -321.5t-145 -228.5t-193.5 -135t-249 -44q-236 0 -329 124.5t-35 372.5q23 96 72.5 174t120.5 132.5t160 83t189 28.5q53 0 98.5 -7 t79.5 -18q39 -10 72 -22q14 102 -20.5 165.5t-147.5 106.5l-250 -166zM657 657q-41 0 -74.5 -15t-61 -39.5t-46 -57.5t-26.5 -66q-27 -109 -0.5 -176t129.5 -67q111 0 189.5 90t123.5 284q-27 12 -62 23q-31 10 -74 17t-98 7z" />
<glyph unicode="&#xf1;" horiz-adv-x="1175" d="M168 0l233 1022h275l-10 -45q45 18 92 35q41 12 85 23.5t81 11.5q100 0 158.5 -36t84 -103.5t21.5 -162t-31 -210.5l-121 -535h-274l121 535q12 51 17 98t-1 84t-26.5 58.5t-63.5 21.5q-27 0 -59 -6l-64 -13q-37 -8 -72 -18l-172 -760h-274zM1266 1327q-41 -37 -82 -65 q-37 -25 -81 -44.5t-85 -19.5t-81 14.5t-77 30.5l-69 31q-33 14 -58 14q-23 0 -54.5 -12t-60.5 -29q-35 -18 -69 -41l-10 205q41 37 84 66q37 25 79.5 45t83.5 20q47 0 89.5 -13t76.5 -31l64 -31q29 -13 51 -13q20 0 51 11.5t62 27.5l73 41z" />
<glyph unicode="&#xf2;" d="M780 1047q133 0 212 -42t116 -115t36 -170t-26 -208t-69.5 -208t-114.5 -171t-168 -116t-231 -42t-212 42t-116 116t-36 171t26 208t69.5 208t114.5 170t168 115t231 42zM590 213q57 0 97 23.5t69.5 63.5t49 94.5t34.5 117.5q14 63 20 117.5t-5 94.5t-41 62.5t-87 22.5 t-98 -22.5t-70 -62.5t-49.5 -94.5t-34.5 -117.5t-19 -117.5t5 -94.5t41 -63.5t88 -23.5zM1051 1399l-136 -232l-497 160l149 260z" />
<glyph unicode="&#xf3;" d="M780 1047q133 0 212 -42t116 -115t36 -170t-26 -208t-69.5 -208t-114.5 -171t-168 -116t-231 -42t-212 42t-116 116t-36 171t26 208t69.5 208t114.5 170t168 115t231 42zM590 213q57 0 97 23.5t69.5 63.5t49 94.5t34.5 117.5q14 63 20 117.5t-5 94.5t-41 62.5t-87 22.5 t-98 -22.5t-70 -62.5t-49.5 -94.5t-34.5 -117.5t-19 -117.5t5 -94.5t41 -63.5t88 -23.5zM1087 1589l29 -260l-571 -160l-29 232z" />
<glyph unicode="&#xf4;" d="M780 1047q133 0 212 -42t116 -115t36 -170t-26 -208t-69.5 -208t-114.5 -171t-168 -116t-231 -42t-212 42t-116 116t-36 171t26 208t69.5 208t114.5 170t168 115t231 42zM590 213q57 0 97 23.5t69.5 63.5t49 94.5t34.5 117.5q14 63 20 117.5t-5 94.5t-41 62.5t-87 22.5 t-98 -22.5t-70 -62.5t-49.5 -94.5t-34.5 -117.5t-19 -117.5t5 -94.5t41 -63.5t88 -23.5zM731 1540h221l189 -352h-293l-57 125l-117 -125h-293z" />
<glyph unicode="&#xf5;" d="M780 1047q133 0 212 -42t116 -115t36 -170t-26 -208t-69.5 -208t-114.5 -171t-168 -116t-231 -42t-212 42t-116 116t-36 171t26 208t69.5 208t114.5 170t168 115t231 42zM590 213q57 0 97 23.5t69.5 63.5t49 94.5t34.5 117.5q14 63 20 117.5t-5 94.5t-41 62.5t-87 22.5 t-98 -22.5t-70 -62.5t-49.5 -94.5t-34.5 -117.5t-19 -117.5t5 -94.5t41 -63.5t88 -23.5zM1149 1327q-41 -37 -82 -65q-37 -25 -81 -44.5t-85 -19.5t-81 14.5t-77 30.5l-69 31q-33 14 -58 14q-23 0 -54.5 -12t-59.5 -29q-35 -18 -70 -41l-10 205q41 37 84 66q37 25 80 45 t84 20q47 0 89 -13t77 -31l63 -31q29 -13 51 -13q20 0 51 11.5t62 27.5l74 41z" />
<glyph unicode="&#xf6;" d="M780 1047q133 0 212 -42t116 -115t36 -170t-26 -208t-69.5 -208t-114.5 -171t-168 -116t-231 -42t-212 42t-116 116t-36 171t26 208t69.5 208t114.5 170t168 115t231 42zM590 213q57 0 97 23.5t69.5 63.5t49 94.5t34.5 117.5q14 63 20 117.5t-5 94.5t-41 62.5t-87 22.5 t-98 -22.5t-70 -62.5t-49.5 -94.5t-34.5 -117.5t-19 -117.5t5 -94.5t41 -63.5t88 -23.5zM539 1511h262l-64 -270h-262zM981 1511h262l-63 -270h-262z" />
<glyph unicode="&#xf7;" d="M649 1075h271l-64 -270h-270zM242 702h913l-63 -274h-914zM475 326h270l-61 -271h-270z" />
<glyph unicode="&#xf8;" d="M125 -160l139 217q-80 72 -90 191t23 264q25 111 69.5 208t114.5 170t168 115t231 42q31 0 59.5 -3.5t53.5 -7.5l131 207l152 -61l-136 -209q88 -70 100.5 -192t-22.5 -269q-25 -111 -69.5 -208t-114.5 -171t-168 -116t-231 -42q-74 0 -129 13l-130 -209zM590 213 q57 0 97 23.5t69.5 63.5t49 94.5t34.5 117.5q12 53 18 99t2 85l-307 -481q10 -2 18 -2h19zM475 512q-12 -53 -18 -98t-2 -84l297 477q-4 2 -12 2h-13q-57 0 -98 -22.5t-70 -62.5t-49.5 -94.5t-34.5 -117.5z" />
<glyph unicode="&#xf9;" horiz-adv-x="1148" d="M1235 1022l-234 -1022h-274l6 43q-47 -20 -94 -35q-41 -12 -85 -22.5t-79 -10.5q-96 0 -156.5 31t-87 94.5t-23.5 159.5t34 227l125 535h274l-125 -535q-31 -139 -19.5 -204.5t91.5 -65.5q25 0 58.5 6t64.5 15q37 8 73 20l177 764h274zM1079 1399l-135 -232l-498 160 l150 260z" />
<glyph unicode="&#xfa;" horiz-adv-x="1148" d="M1235 1022l-234 -1022h-274l6 43q-47 -20 -94 -35q-41 -12 -85 -22.5t-79 -10.5q-96 0 -156.5 31t-87 94.5t-23.5 159.5t34 227l125 535h274l-125 -535q-31 -139 -19.5 -204.5t91.5 -65.5q25 0 58.5 6t64.5 15q37 8 73 20l177 764h274zM1116 1589l29 -260l-572 -160 l-28 232z" />
<glyph unicode="&#xfb;" horiz-adv-x="1148" d="M1235 1022l-234 -1022h-274l6 43q-47 -20 -94 -35q-41 -12 -85 -22.5t-79 -10.5q-96 0 -156.5 31t-87 94.5t-23.5 159.5t34 227l125 535h274l-125 -535q-31 -139 -19.5 -204.5t91.5 -65.5q25 0 58.5 6t64.5 15q37 8 73 20l177 764h274zM760 1540h221l188 -352h-292 l-58 125l-117 -125h-292z" />
<glyph unicode="&#xfc;" horiz-adv-x="1148" d="M1235 1022l-234 -1022h-274l6 43q-47 -20 -94 -35q-41 -12 -85 -22.5t-79 -10.5q-96 0 -156.5 31t-87 94.5t-23.5 159.5t34 227l125 535h274l-125 -535q-31 -139 -19.5 -204.5t91.5 -65.5q25 0 58.5 6t64.5 15q37 8 73 20l177 764h274zM567 1511h262l-63 -270h-262z M1010 1511h262l-64 -270h-262z" />
<glyph unicode="&#xfd;" horiz-adv-x="993" d="M518 1022l12 -660q-4 -76 27 -96l361 756h282l-485 -1012q-51 -106 -101.5 -181t-119 -131t-163.5 -104.5t-233 -101.5l-16 238l142 64q54 26 90 53.5t60.5 63.5t51.5 91q-150 57 -152 268l-14 752h258zM1214 1589l29 -260l-571 -160l-29 232z" />
<glyph unicode="&#xfe;" horiz-adv-x="1118" d="M618 213q106 0 164 81t92 228q29 123 8.5 201t-110.5 78q-27 0 -55.5 -2t-54.5 -6l-62 -9l-129 -559q16 -4 39 -6q36 -6 108 -6zM864 1047q205 0 279 -123t10 -402q-37 -160 -89 -264t-125 -167.5t-165 -89.5t-207 -26h-55q-27 0 -49 2l-49 5l-95 -412h-274l430 1864h275 l-101 -435l74 23q33 10 69.5 17.5t71.5 7.5z" />
<glyph unicode="&#xff;" horiz-adv-x="993" d="M518 1022l12 -660q-4 -76 27 -96l361 756h282l-485 -1012q-51 -106 -101.5 -181t-119 -131t-163.5 -104.5t-233 -101.5l-16 238l142 64q54 26 90 53.5t60.5 63.5t51.5 91q-150 57 -152 268l-14 752h258zM485 1511h263l-64 -270h-262zM928 1511h262l-64 -270h-262z" />
<glyph unicode="&#x152;" horiz-adv-x="1812" d="M838 0q-63 -10 -129 -17.5t-123 -7.5q-145 0 -236.5 48.5t-133.5 141.5t-39 229t44 313q88 383 263 557t440 174q57 0 117.5 -7.5t115.5 -17.5h877l-62 -262h-598l-76 -332h476l-58 -248h-475l-72 -309h598l-57 -262h-872zM688 240q35 0 91 4l110 8l209 909l-108 8 q-54 4 -93 5q-72 0 -129 -24t-103.5 -79t-84 -144t-68.5 -220q-29 -123 -36 -212t12.5 -145.5t67.5 -83t132 -26.5z" />
<glyph unicode="&#x153;" horiz-adv-x="1673" d="M590 213q57 0 97 23.5t69.5 63.5t49 94.5t34.5 117.5q14 63 20 117.5t-5 94.5t-41 62.5t-87 22.5t-98 -22.5t-70 -62.5t-49.5 -94.5t-34.5 -117.5t-19 -117.5t5 -94.5t41 -63.5t88 -23.5zM1374 811q-68 0 -142.5 -65.5t-119.5 -194.5q57 6 122.5 16.5t121 30.5t92.5 55 t37 90q0 31 -25 49.5t-86 18.5zM1554 98q-25 -16 -67.5 -36.5t-96 -39t-115 -30.5t-122.5 -12q-98 0 -168 30.5t-98 89.5q-72 -66 -157 -95.5t-195 -29.5q-133 0 -212 45.5t-115 120t-35 175t26 210.5q25 111 68.5 206t113.5 165t168 110t231 40q117 0 186.5 -41t110.5 -99 q57 68 147.5 101.5t168.5 33.5q158 0 245.5 -72.5t87.5 -189.5q0 -33 -7 -71.5t-22.5 -76.5t-42 -74t-63.5 -64q-55 -43 -125.5 -71t-142.5 -45.5t-138.5 -25.5t-115.5 -10q-6 -25 -3 -48.5t15.5 -43t37 -31.5t61.5 -12q39 0 91 11t104 29.5t99.5 41t79.5 45.5v-236z" />
<glyph unicode="&#x178;" horiz-adv-x="1169" d="M727 0h-278l137 604l-232 809h314l123 -512l358 512h313l-598 -809zM680 1896h262l-61 -270h-263zM1135 1896h262l-62 -270h-262z" />
<glyph unicode="&#x2c6;" horiz-adv-x="1705" d="M1077 1540h221l189 -352h-270l-58 125l-117 -125h-315z" />
<glyph unicode="&#x2dc;" horiz-adv-x="960" d="M1128 1327q-41 -37 -81 -65q-37 -25 -81 -44.5t-85 -19.5t-81 14.5t-77 30.5l-70 31q-33 14 -57 14q-23 0 -54.5 -12t-60.5 -29q-35 -18 -69 -41l-11 205q41 37 84 66q37 25 80 45t84 20q47 0 89 -13t77 -31l64 -31q29 -13 51 -13q20 0 51 11.5t61 27.5l74 41z" />
<glyph unicode="&#x2000;" horiz-adv-x="989" />
<glyph unicode="&#x2001;" horiz-adv-x="1980" />
<glyph unicode="&#x2002;" horiz-adv-x="989" />
<glyph unicode="&#x2003;" horiz-adv-x="1980" />
<glyph unicode="&#x2004;" horiz-adv-x="659" />
<glyph unicode="&#x2005;" horiz-adv-x="493" />
<glyph unicode="&#x2006;" horiz-adv-x="329" />
<glyph unicode="&#x2007;" horiz-adv-x="329" />
<glyph unicode="&#x2008;" horiz-adv-x="245" />
<glyph unicode="&#x2009;" horiz-adv-x="395" />
<glyph unicode="&#x200a;" horiz-adv-x="108" />
<glyph unicode="&#x2010;" horiz-adv-x="901" d="M297 682h614l-59 -258h-614z" />
<glyph unicode="&#x2011;" horiz-adv-x="901" d="M297 682h614l-59 -258h-614z" />
<glyph unicode="&#x2012;" horiz-adv-x="901" d="M297 682h614l-59 -258h-614z" />
<glyph unicode="&#x2013;" horiz-adv-x="1024" d="M1180 686l-58 -250h-1022l58 250h1022z" />
<glyph unicode="&#x2014;" horiz-adv-x="2048" d="M2204 686l-58 -250h-2046l58 250h2046z" />
<glyph unicode="&#x2018;" horiz-adv-x="458" d="M809 1534q-55 -59 -100 -118.5t-76 -121t-43 -127t0 -139.5h-279q-6 68 9.5 132.5t47 128t78 125t99.5 120.5h264z" />
<glyph unicode="&#x2019;" horiz-adv-x="458" d="M254 1030q55 59 100 118.5t76 121t43 127t0 139.5h279q6 -68 -9.5 -133.5t-48 -128t-78 -123.5t-98.5 -121h-264z" />
<glyph unicode="&#x201a;" horiz-adv-x="458" d="M211 328h278l-233 -506h-260z" />
<glyph unicode="&#x201c;" horiz-adv-x="962" d="M1286 1536q-55 -59 -100 -118.5t-76 -121t-43 -127t0 -139.5h-279q-6 68 9.5 132.5t47.5 128t78 125t99 120.5h264zM879 1536q-55 -59 -100.5 -118.5t-76 -121t-43 -127t-0.5 -139.5h-278q-6 68 9.5 132.5t47 128t77.5 125t99 120.5h265z" />
<glyph unicode="&#x201d;" horiz-adv-x="952" d="M279 1030q55 59 100 118.5t75.5 121t43 127t0.5 139.5h278q6 -68 -9 -133.5t-48 -128t-78 -123.5t-98 -121h-264zM686 1030q55 59 100 118.5t76 121t43.5 127t-0.5 139.5h279q6 -68 -9.5 -133.5t-48 -128t-77.5 -123.5t-99 -121h-264z" />
<glyph unicode="&#x201e;" horiz-adv-x="952" d="M254 328h278l-233 -506h-264zM664 328h278l-233 -506h-265z" />
<glyph unicode="&#x2022;" d="M473 778h492l-131 -573h-492z" />
<glyph unicode="&#x2026;" horiz-adv-x="1523" d="M186 340h295l-75 -340h-295zM709 340h295l-76 -340h-295zM1231 340h295l-76 -340h-295z" />
<glyph unicode="&#x202f;" horiz-adv-x="395" />
<glyph unicode="&#x2039;" horiz-adv-x="1245" d="M467 492l182 -177l-51 -268l-377 350l45 197l535 336l-76 -285z" />
<glyph unicode="&#x203a;" horiz-adv-x="1245" d="M276 698l64 252l379 -336l-45 -196l-539 -350l66 301l264 176z" />
<glyph unicode="&#x2044;" d="M1032 1475l242 -91l-912 -1433l-241 90z" />
<glyph unicode="&#x205f;" horiz-adv-x="493" />
<glyph unicode="&#x20ac;" horiz-adv-x="1214" d="M475 940q45 129 101.5 213t128 134t162.5 69.5t208 19.5q66 0 129.5 -6t114.5 -14q59 -8 113 -19l-70 -231l-111 8q-47 4 -100 6t-94 2q-61 0 -107.5 -8t-79 -28.5t-57.5 -56.5t-43 -91h428l-49 -211h-447q-2 -10 -6 -20q-6 -18 -10 -35q-4 -10 -5 -22.5t-3 -22.5l-4 -25 h446l-49 -213h-426q-16 -94 34 -127t179 -33q39 0 92.5 1t102.5 6q57 2 116 6l-45 -232q-59 -10 -125 -18q-55 -6 -121.5 -11.5t-125.5 -5.5q-121 0 -202 30t-128 85t-64.5 131t-9.5 168h-123l49 213h109l4 25q2 10 3 22.5t5 22.5q4 16 11 35q4 10 6 20h-109l49 213h123z " />
<glyph unicode="&#x2122;" d="M315 1309h410l-33 -142h-100l-113 -487h-157l112 487h-151zM780 1309h189l20 -357l191 357h188l-145 -631h-148l90 391l-174 -352h-104l-15 352l-90 -391h-147z" />
<glyph unicode="&#xe000;" horiz-adv-x="1020" d="M0 1020h1020v-1020h-1020v1020z" />
<glyph unicode="&#xfb01;" horiz-adv-x="1251" d="M1073 1022h274l-233 -1022h-275zM1163 1415h274l-63 -276h-275zM324 784h-101l56 238h100l10 47q47 207 140.5 296t246.5 89q25 0 61.5 -5t71.5 -9l84 -13l-55 -225l-47 4l-47 4q-25 2 -49 2q-59 0 -87 -38.5t-44 -106.5l-11 -45h238l-55 -238h-238l-178 -774 q-25 -106 -56.5 -181t-84 -131t-134.5 -104.5t-206 -101.5l-68 227q80 39 127 68t75.5 58.5t43 68.5t28.5 98z" />
<glyph unicode="&#xfb02;" horiz-adv-x="1251" d="M1167 1434h274l-327 -1434h-275zM324 784h-101l56 238h100l10 47q47 207 140.5 296t246.5 89q25 0 61.5 -5t71.5 -9l84 -13l-55 -225l-47 4l-47 4q-25 2 -49 2q-59 0 -87 -38.5t-44 -106.5l-11 -45h238l-55 -238h-238l-178 -774q-25 -106 -56.5 -181t-84 -131 t-134.5 -104.5t-206 -101.5l-68 227q80 39 127 68t75.5 58.5t43 68.5t28.5 98z" />
<glyph unicode="&#xfb03;" horiz-adv-x="1953" d="M1776 1022h274l-233 -1022h-275zM1866 1415h274l-63 -276h-275zM1026 784h-101l56 238h100l10 47q47 207 140.5 296t246.5 89q25 0 61.5 -5t71.5 -9l84 -13l-55 -225l-47 4l-47 4q-25 2 -49 2q-59 0 -87 -38.5t-44 -106.5l-11 -45h238l-55 -238h-238l-178 -774 q-25 -106 -56.5 -181t-84 -131t-134.5 -104.5t-206 -101.5l-68 227q80 39 127 68t75.5 58.5t43 68.5t28.5 98zM324 784h-101l56 238h100l10 47q47 207 140.5 296t246.5 89q25 0 61.5 -5t71.5 -9l84 -13l-55 -225l-47 4l-47 4q-25 2 -49 2q-59 0 -87 -38.5t-44 -106.5 l-11 -45h238l-55 -238h-238l-178 -774q-25 -106 -56.5 -181t-84 -131t-134.5 -104.5t-206 -101.5l-68 227q80 39 127 68t75.5 58.5t43 68.5t28.5 98z" />
<glyph unicode="&#xfb04;" horiz-adv-x="1953" d="M1870 1434h274l-327 -1434h-275zM1026 784h-101l56 238h100l10 47q47 207 140.5 296t246.5 89q25 0 61.5 -5t71.5 -9l84 -13l-55 -225l-47 4l-47 4q-25 2 -49 2q-59 0 -87 -38.5t-44 -106.5l-11 -45h238l-55 -238h-238l-178 -774q-25 -106 -56.5 -181t-84 -131 t-134.5 -104.5t-206 -101.5l-68 227q80 39 127 68t75.5 58.5t43 68.5t28.5 98zM324 784h-101l56 238h100l10 47q47 207 140.5 296t246.5 89q25 0 61.5 -5t71.5 -9l84 -13l-55 -225l-47 4l-47 4q-25 2 -49 2q-59 0 -87 -38.5t-44 -106.5l-11 -45h238l-55 -238h-238l-178 -774 q-25 -106 -56.5 -181t-84 -131t-134.5 -104.5t-206 -101.5l-68 227q80 39 127 68t75.5 58.5t43 68.5t28.5 98z" />
</font>
</defs>
</svg>
